<svg id="Capa_1" data-name="Capa 1" xmlns="http://www.w3.org/2000/svg" viewBox="0 0 500 500"><defs><style>.cls-1{fill:#fff;}</style></defs><path class="cls-1" d="M430.69,177.83c-.24-3.49-2.52-5.81-5.63-5.81s-5.4,2.34-5.6,5.8c-.06,1.25,0,2.5,0,3.75q0,109.68,0,219.36c0,11.45-7,18.5-18.45,18.51H99.13c-11.48,0-18.58-7-18.58-18.37q0-151.12,0-302.23c0-11.19,7.11-18.27,18.3-18.27q151.11,0,302.22,0c11.21,0,18.32,7.06,18.36,18.21,0,11.37,0,22.75,0,34.12v7.85H98.19a29.15,29.15,0,0,0-4.86.2c-3.14.54-4.84,2.51-4.71,5.75.13,3,1.87,4.79,4.87,5.22a17.63,17.63,0,0,0,2.62.14q163.48,0,327,0c5.82,0,7.62-1.84,7.62-7.62q0-22.32,0-44.62C430.7,81,418.91,69.28,400,69.28H100c-19.08,0-30.74,11.73-30.74,30.91q0,149.81,0,299.6c0,19.35,11.65,30.93,31.1,30.93H399.6c19.6,0,31.12-11.57,31.12-31.29V181.2C430.72,180.07,430.77,179,430.69,177.83Z"/><path class="cls-1" d="M312.22,313.81c-5.52,0-7.43,1.92-7.44,7.44q0,21.38,0,42.75c0,5.75,1.83,7.55,7.65,7.55q25.88,0,51.75,0c5.85,0,7.63-1.72,7.65-7.55q0-21.18,0-42.37c0-6.06-1.79-7.81-7.8-7.82H343.91V285.69c0-8-1.2-9.19-9-9.19h-79V257.59c8.06,0,15.9,0,23.74,0,5.31,0,7.13-1.87,7.14-7.27q0-21.56,0-43.12c0-5.34-1.91-7.33-7.15-7.34q-29.61,0-59.24,0c-5.26,0-7.15,2-7.16,7.32,0,8.12-.37,16.27.09,24.36s-2,16.42,1.51,24.33c7.85,3.79,16.19.78,24.25,1.7a45.86,45.86,0,0,0,5,0V276.5h-4.67q-37.68,0-75.37,0c-6.37,0-7.93,1.6-7.94,8,0,7.87,0,15.74,0,23.62v5.65c-7.22,0-13.84,0-20.46,0-5.55,0-7.43,1.85-7.45,7.41q-.06,21.38,0,42.75c0,5.86,1.76,7.58,7.6,7.58q25.88,0,51.75,0c6,0,7.69-1.77,7.7-7.89q0-21,0-42c0-6-1.8-7.84-7.79-7.85H167.67V288.08H244v25.73c-6.91,0-13.51,0-20.12,0-5.52,0-7.47,1.92-7.49,7.43q0,21.38,0,42.75c0,5.77,1.85,7.56,7.69,7.56q25.86,0,51.74,0c6,0,7.73-1.79,7.74-7.89q0-20.82,0-41.63c0-6.52-1.71-8.21-8.21-8.22H256V288.07h76.32v25.74C325.44,313.81,318.83,313.79,312.22,313.81ZM183.7,325.29V360h-44V325.29ZM224.59,246v-34.6h50.67V246ZM272,325.33v34.74h-44V325.33Zm88.36-.05V360h-44V325.28Z"/><path class="cls-1" d="M235.75,116.41q79.1,0,158.2,0a16.27,16.27,0,0,0,4.79-.51c2.72-.86,3.95-3,3.64-5.81a5.07,5.07,0,0,0-4.82-4.87,31.21,31.21,0,0,0-3.75-.08H234.12c-4.48,0-7,2-7.06,5.45s2.63,5.75,7.19,5.83Z"/><path class="cls-1" d="M149.46,116.07c2.9-.23,4.59-2.62,4.42-5.6a5.17,5.17,0,0,0-5.24-5.29c-2.24-.14-4.49,0-6.74,0s-4.5-.1-6.74,0a5.07,5.07,0,0,0-5.24,4.83c-.38,3.2,1.17,5.76,4.24,6A90.89,90.89,0,0,0,149.46,116.07Z"/><path class="cls-1" d="M182.6,116.11c3.07-.26,4.77-2.65,4.5-5.88s-2.22-4.92-5.41-5.07c-2.11-.1-4.24,0-6.36,0s-4.5-.06-6.74,0c-3.24.12-5.17,2-5.46,5.08s1.47,5.61,4.54,5.87A90.77,90.77,0,0,0,182.6,116.11Z"/><path class="cls-1" d="M102.09,105.16c-3.27.17-5.65,2.37-5.63,5.33,0,3.16,1.77,5.47,4.86,5.69a94.49,94.49,0,0,0,14.57,0c3.08-.26,4.84-2.61,4.62-5.81s-2.09-5-5.32-5.17c-2.24-.11-4.49,0-6.74,0h0C106.33,105.14,104.2,105.05,102.09,105.16Z"/></svg>