<svg id="Capa_1" data-name="Capa 1" xmlns="http://www.w3.org/2000/svg" viewBox="0 0 500 500"><defs><style>.cls-1{fill:#fff;}</style></defs><path class="cls-1" d="M262,58a3.44,3.44,0,0,0,.86.64c11.45,3.8,16.83,11.08,16.84,23.13q.06,44.63,0,89.24v53.84c8.15-10.37,18-13.77,30.16-10.65,2.4-6.77,6.41-12.13,12.79-15.47s12.85-3.61,19.78-1.8a9.36,9.36,0,0,0,.95-1.53c4-10.53,11.92-15.91,22.82-16.44s18.88,4.43,23.87,14.23c10.92,21.45,23.34,42.17,31.53,64.92,3.54,9.85,6.32,20,9.58,29.91,2.28,7,4.39,14.05,7.28,20.78,7.38,17.17,1.07,37.33-15,46.58-3.86,2.22-6.86,1.72-8.7-1.45s-.87-5.76,2.77-8.06c12.25-7.77,15.75-20.59,10.07-33.86a196.22,196.22,0,0,1-8-24.07,285.3,285.3,0,0,0-20.1-52.3q-9.79-19.17-19.94-38.15a14,14,0,0,0-24.5-.6c-2.08,3.52-2.6,7.09-.4,11,3.15,5.53,6,11.23,8.88,16.9,1.95,3.8,1.22,6.67-2,8.31s-6,.56-8-3.1c-2.88-5.39-5.67-10.83-8.5-16.25-2.75-5.24-7.05-7.52-12.91-6.36-5.69,1.12-9.87,4.39-11.22,10.2a11.2,11.2,0,0,0,.71,6.73c2.65,5.77,5.79,11.32,8.72,17,2.28,4.4,1.79,7.27-1.49,9-3.46,1.82-6.15.59-8.53-3.94-2.56-4.86-5.08-9.74-7.62-14.6-3-5.79-6.5-7.91-12.5-7.25s-9.85,4-12,9.42a11.74,11.74,0,0,0,.76,10.13c2.53,4.73,5,9.5,7.47,14.25,2.59,5,2.24,7.78-1.19,9.64s-6.11.6-8.68-4.3l-45.61-87.23-.7-1.33c-4.16-7.69-10.36-10.21-17.26-7a14.84,14.84,0,0,0-7.85,18.79,40,40,0,0,0,2.08,4.39q25.49,48.76,51,97.52c.29.55.57,1.1.88,1.65,1.53,2.75,1.93,5.48-.55,7.88s-4.94,1.81-7.58.4c-7.37-3.94-14.75-7.83-22.14-11.73-2.2-1.16-4.4-2.33-6.63-3.45-7.58-3.81-14.86-1.52-18.63,5.86-3.84,7.53-1.5,15.23,6.05,19,20.17,10.08,40.4,20,60.61,30.07,7.59,3.76,15.15,7.59,22.78,11.26a39.33,39.33,0,0,1,18.08,17.25c7.38,13.62,21.6,18,35.41,10.93,10-5.1,19.88-10.4,29.81-15.6,1-.52,2-1.08,3-1.52,3-1.29,5.39-.31,7,2.41s1,5.89-1.91,7.43c-12.44,6.59-24.66,13.73-37.55,19.3-16.47,7.11-36.11-.35-44.76-16.16a32.64,32.64,0,0,0-15.71-14.83c-5.42-2.43-10.69-5.19-16.79-8.18v4.9c0,19.5-.4,39,.13,58.49.38,13.76-4.29,23.48-17.85,27.9H76.39c-9.29-2.69-15.3-8.67-18-18V76q4-14,18-18h21c2.74,1.78,4.42,4,3.27,7.51s-3.84,3.81-6.91,3.76c-4.49-.07-9-.11-13.46,0-5.26.16-9.8,3.58-10.26,8.62-.54,6-.12,12.12-.12,18.17H268.52c0-4.59,0-8.94,0-13.29,0-9.78-3.81-13.55-13.61-13.55q-63,0-126,0c-3,0-5.8-.26-7-3.68s.47-5.73,3.13-7.59ZM69.87,107.8V367.34H268.5c0-7.12.07-14-.09-20.82a3.54,3.54,0,0,0-1.9-2.34c-17.88-8.76-35.8-17.44-53.94-26.24-.72.67-1.71,1.6-2.73,2.52a60.84,60.84,0,1,1,18.56-55.84c.78,4.25,2,6.58,6.45,7.82,4.11,1.15,7.8,3.81,11.69,5.79,1.27.65,2.57,1.25,4.7,2.28-1.06-2.16-1.66-3.46-2.33-4.74C236,251,223,226.27,210.14,201.43c-1.57-3-3.24-4.22-6.77-4.21-35.17.15-70.35.11-105.53.08-9.08,0-14.48-5.36-14.53-14.41q-.09-18.93,0-37.87c.06-8.83,5.51-14.2,14.33-14.2q71.48,0,143,0c8.7,0,14,5.28,14.1,14,.07,8.88.21,17.76-.06,26.62a23.36,23.36,0,0,0,3.16,12.8c3.5,6.1,6.61,12.42,10.4,19.63v-96ZM268.33,379.15H69.65c0,13.25,0,26.23,0,39.2q0,12.38,12.47,12.39,87,0,173.93,0c8.22,0,12.39-4.14,12.44-12.46.07-12.12,0-24.24,0-36.35C268.51,381.07,268.41,380.22,268.33,379.15ZM217.87,271.39c-.1-20.69-19.17-41.31-41-44.57a49.43,49.43,0,0,0-30.38,92.77c22.3,11.49,46.92,3.27,57.81-10C195.69,294.3,201.88,277.63,217.87,271.39Zm25.61-110.87c0-4.82-.17-9.41.05-14,.16-3.35-.82-4.57-4.39-4.57q-70.12.18-140.25,0c-3.55,0-4.47,1.29-4.43,4.61.15,11.49.05,23,.06,34.48,0,4.88.11,5,5.09,5H202.74C199.24,165,222.1,146.55,243.48,160.52Z"/><path class="cls-1" d="M168.83,419.8c-5.36,0-10.73.13-16.09,0-9.06-.27-14.75-6.09-14.79-14.91s5.68-14.91,14.67-15.1q16.45-.33,32.93,0c9,.19,14.54,6.2,14.49,15.14s-5.59,14.61-14.74,14.87C179.82,419.94,174.32,419.81,168.83,419.8Zm0-18.86H153.9c-2.57,0-4.87.51-5,3.72s2.06,3.91,4.71,3.91h31c2.54,0,4.6-.79,4.64-3.65,0-3-2.06-4-4.76-4Z"/><path class="cls-1" d="M157,288.14l33-33.09c1.23-1.24,2.42-2.52,3.73-3.67a5.55,5.55,0,0,1,7.92,7.78c-2.43,2.68-5.06,5.17-7.61,7.74q-15.6,15.64-31.22,31.27c-4.5,4.5-6.86,4.52-11.29.11-4.77-4.75-9.56-9.5-14.27-14.32-3-3.09-3.17-5.9-.6-8.5s5.56-2.36,8.52.57C149.07,279.89,152.85,283.86,157,288.14Z"/></svg>