<svg id="Capa_1" data-name="Capa 1" xmlns="http://www.w3.org/2000/svg" viewBox="0 0 500 500"><defs><style>.cls-1{fill:#fff;}</style></defs><path class="cls-1" d="M310,442H167.5c-4.12-2.16-5.81-5.53-5.31-10.15a52.46,52.46,0,0,0,0-5.61c0-18,11.2-29.22,29.16-29.24h15.55V371.5h-4.75c-37.83,0-75.66.07-113.48,0-13.11,0-22.56-6.26-28.19-18.09A63.91,63.91,0,0,1,58,346V130c.15-.2.37-.37.43-.59,4.65-17,14.91-24.91,32.54-24.91H261.12c1.18-2.52,1.67-4.92,3.1-6.41,7.44-7.74,15.06-15.32,22.75-22.83,3.21-3.13,7-3.05,10.44-.16.95.8,1.8,1.73,2.68,2.61,5.4,5.4,5.19,4.66,12.6,2.58,7.2-2,9.34-5.85,8.29-12.73-.68-4.45,1.31-7.74,5.52-9.56h36c4.19,1.82,5.88,5.06,5.6,9.55a39.15,39.15,0,0,0,.07,7.1,4.23,4.23,0,0,0,1.95,2.91c4.29,2,8.71,3.61,14,5.73,1.76-2,3.73-4.39,5.91-6.6,5-5.1,8.5-5,13.65.08q9.81,9.78,19.58,19.58c5.21,5.23,5.16,8.61-.14,14-2,2-5.14,3.87-5.64,6.24s1.74,5.17,2.81,7.78c3.1,7.58,3.11,7.72,11.45,7.55,4.67-.1,8.36,1,10.3,5.63v36c-1.83,4.19-5.08,5.89-9.58,5.6a38.25,38.25,0,0,0-7.1.07,4.25,4.25,0,0,0-2.93,2c-2,4.29-3.62,8.71-5.72,13.9,2.47,2.25,5.37,4.63,8,7.32,3.25,3.37,3.17,7.21.13,10.72a7.56,7.56,0,0,1-1.31,1.34c-3.57,2.46-4.17,5.88-4.15,10,.15,38.1.09,76.2.08,114.29,0,20.24-12.48,32.75-32.65,32.76H270.43V397c6.16,0,12.13-.09,18.09,0a26.56,26.56,0,0,1,26.06,22.06c.71,4.14.31,8.46.68,12.68C315.67,436.38,314,439.74,310,442ZM272.5,194.56c-1-2.17-1.78-3.74-2.48-5.34-1.43-3.28-2-7.86-4.46-9.53s-7-.48-10.6-.65c-5.1-.24-7.89-3-7.93-8q-.12-15.56,0-31.12c0-4.86,2.78-7.67,7.63-7.92,3-.15,6,.08,9-.13a3.87,3.87,0,0,0,2.86-1.52c1.54-3.38,2.74-6.91,4.23-10.83H89.86c-10.89,0-16.85,6-16.86,17V273.25H83.7c15.24,0,30.49,0,45.74,0,5.67,0,9.12,4.09,8.05,9.19-.77,3.65-3.81,5.77-8.5,5.78q-25.86,0-51.74,0h-4v21.06h275a32,32,0,0,1,4.49.12,7.45,7.45,0,0,1-.62,14.83c-1.37.1-2.75.05-4.12.05H73c0,5.51,0,10.61,0,15.7,0,10.37,6.15,16.48,16.59,16.48H387.67c10.58,0,16.7-6.14,16.71-16.8q0-51,0-102c0-1.05-.14-2.09-.23-3.32-7.51,5.15-9.17,5-15.52-1.44-1.74-1.77-3.25-3.77-4.59-5.34-5.24,2.12-9.67,3.79-14,5.75a4.12,4.12,0,0,0-1.9,2.95c-.27,3,0,6-.16,9-.25,4.86-3,7.63-7.87,7.67q-15.57.14-31.12,0c-5,0-7.83-2.81-8-7.89-.13-3,.1-6-.13-9a3.72,3.72,0,0,0-1.71-2.73c-4.41-2-8.93-3.68-13.87-5.65-2.38,2.51-4.77,5.24-7.38,7.74-3.67,3.52-7.64,3.53-11.27,0q-11.1-10.89-22-22c-3.69-3.76-3.58-7.68.19-11.54C267.23,199.38,269.85,197.06,272.5,194.56ZM396.11,91.18c-.78.95-1.62,2-2.55,3s-2.08,2.16-3.17,3.19c-3.42,3.26-6.25,3.31-10.53,1.34-6.66-3.06-13.45-5.86-20.32-8.4-4.26-1.59-6.24-3.51-6.42-8.07-.12-3,0-5.94,0-9H335.92c0,1.68,0,3,0,4.42s.05,3,0,4.5c-.23,4.59-2.15,6.55-6.37,8.13-6.86,2.56-13.66,5.36-20.31,8.42-4.27,2-7.2,2-10.53-1.31-2.11-2.06-4.08-4.26-5.65-5.91l-12.53,12.52c1.8,1.69,4,3.58,6,5.62,3.24,3.31,3.28,6.29,1.32,10.54-3,6.54-5.83,13.2-8.31,20-1.73,4.71-3.57,6.56-8.61,6.7-2.83.08-5.68,0-8.7,0v17.17c3.14,0,6.1-.08,9.06,0,4.62.16,6.57,2.07,8.17,6.29,2.63,7,5.53,13.84,8.61,20.63,1.78,3.93,1.64,7.05-1.5,10.22-2.08,2.1-4.35,4-7.18,6.61,2.64,2.31,4.83,4,6.73,5.95s3.68,4.35,5.9,7c2.69-2.94,4.46-5,6.4-7,3.68-3.68,6.5-3.73,11.1-1.56,6.4,3,13,5.74,19.61,8.16,4.91,1.78,6.7,3.6,6.82,8.9.06,2.81,0,5.63,0,8.4h17.2c0-3.37-.09-6.49,0-9.6.14-3.81,2.2-6,5.78-7.43q10.77-4.14,21.35-8.81c3.66-1.61,6.76-1.55,9.62,1.25,2.22,2.17,4.19,4.6,6.14,6.76L408.87,207c-2-1.76-4.19-3.58-6.21-5.6-3.47-3.48-3.47-6.31-1.35-10.82,3-6.4,5.79-13,8.2-19.6,1.8-5,3.55-6.79,8.81-6.92,2.82-.06,5.63,0,8.43,0V146.9c-3.24,0-6.23.11-9.22,0-4.34-.19-6.34-2.21-7.85-6.22q-3.93-10.47-8.53-20.67c-1.86-4.11-1.85-7,1.31-10.21,2.07-2.12,4.36-4,6.45-5.94ZM177.44,426.73H300.07c.52-9.5-4.31-14.72-13.45-14.72q-48,0-96,0C181.52,412,176.69,417.35,177.44,426.73Zm44.94-30H255V371.5H222.38Z"/><path class="cls-1" d="M220,251.24c-3.42-1.73-6.09-3-8.66-4.4-4.06-2.25-10.32,1.16-10.39,5.74-.17,11.56-1.39,12.75-13.05,12.75-6.12,0-12.24.06-18.36,0-6.3-.08-8.82-2.69-8.88-8.95,0-.62,0-1.25,0-1.87a8.65,8.65,0,0,0-7-8.82,4.09,4.09,0,0,0-2.39.59c-1.66.85-3.23,1.9-4.88,2.77-4.43,2.35-8.44,1.4-11-2.83q-6.23-10.45-12.16-21.07c-2.56-4.59-1.41-8.3,3.14-11.12.53-.32,1.08-.61,1.62-.92,4.84-2.78,6-5.1,4.8-10.48a3.67,3.67,0,0,0-1.47-1.9,39.3,39.3,0,0,0-3.56-2.07c-6.47-3.75-7.38-7.06-3.7-13.47,3.55-6.17,7.08-12.34,10.67-18.48,3.26-5.58,6.87-6.54,12.46-3.41.55.3,1.07.63,1.62.94a8.68,8.68,0,0,0,11.08-1.7,3.51,3.51,0,0,0,.67-2c.1-1.36,0-2.74,0-4.12,0-7.54,2.34-9.88,9.81-9.89,7.12,0,14.24,0,21.36,0,6.23,0,8.94,2.65,9.13,8.78,0,.75,0,1.5,0,2.25,0,4.09,3.28,8.18,7.16,8.74a4.52,4.52,0,0,0,2.35-.81c1.76-.94,3.42-2.06,5.2-2.95,4-2,7.84-1.1,10.11,2.66q6.59,10.89,12.74,22c2.13,3.86,1,7.65-2.63,10.14-.72.49-1.49.91-2.25,1.35-5,2.91-6,4.83-4.87,10.4a5,5,0,0,0,2.34,2.55c10.23,6.24,10.59,7.55,4.61,17.92-3.11,5.4-6,10.94-9.46,16.14C224.81,247.87,222.25,249.29,220,251.24Zm-75.2-18.8c1.27-.66,2.26-1.13,3.21-1.67,5.31-3,7.32-2.79,12.21.91,1.87,1.43,3.82,3.12,6,3.73,7.37,2.05,10.44,6.68,9.59,14.14,0,.17.3.38.43.54h9.5a26.29,26.29,0,0,0,.19-3.52c-.45-5.32,2-8.48,7-10.06a14.46,14.46,0,0,0,5.3-2.69c5.77-5.19,11.63-7.44,18.27-1,1.92-3.37,3.54-6.23,5.22-9.17-1.16-.68-1.87-1.2-2.66-1.56-5.1-2.29-6.84-6.13-5.74-11.57a16.15,16.15,0,0,0,.28-6.69c-1.77-7.3.25-12.49,7.44-15.31.18-.08.26-.39.51-.79-1.57-2.69-3.19-5.47-4.87-8.37-1.2.64-2.19,1.14-3.16,1.68-5.54,3.1-7.07,2.81-12.2-.84a56.59,56.59,0,0,0-9.77-5.39c-3.59-1.61-5.62-4-5.59-8,0-1.71,0-3.41,0-5.06h-10.3c0,1.13-.07,2,0,2.87.49,5.51-1.79,9-7.16,10.74a16.42,16.42,0,0,0-6.53,3.55c-5.34,5.33-10.64,5.17-16.33.83-.16-.13-.47-.05-1-.08l-4.84,8.42c1.29.79,2.44,1.51,3.59,2.19,4.64,2.75,5.53,4.75,4.82,10.19a21.54,21.54,0,0,0-.28,6.34c1.33,7.55.91,14.13-8.33,16.61C141.49,226.73,143.08,229.49,144.79,232.44Z"/><path class="cls-1" d="M374.43,316.59a7.46,7.46,0,0,1,7.55-7.25,7.69,7.69,0,0,1,7.35,7.56,7.58,7.58,0,0,1-7.85,7.37A7.33,7.33,0,0,1,374.43,316.59Z"/><path class="cls-1" d="M160.13,288.22a7.47,7.47,0,1,1-.16-14.94,7.47,7.47,0,0,1,.16,14.94Z"/><path class="cls-1" d="M246.19,339.42a7.63,7.63,0,0,1-7.86,7.29,7.47,7.47,0,0,1,.73-14.93A7.62,7.62,0,0,1,246.19,339.42Z"/><path class="cls-1" d="M344.41,202A46.5,46.5,0,1,1,391,155.58,46.68,46.68,0,0,1,344.41,202Zm.08-78A31.49,31.49,0,1,0,376,155.49,31.58,31.58,0,0,0,344.49,124Z"/><path class="cls-1" d="M173.37,205.89a7.47,7.47,0,0,1,7.31-7.49,7.71,7.71,0,0,1,7.57,7.71,7.49,7.49,0,0,1-7.61,7.21A7.24,7.24,0,0,1,173.37,205.89Z"/></svg>