<svg id="Capa_1" data-name="Capa 1" xmlns="http://www.w3.org/2000/svg" viewBox="0 0 500 500"><defs><style>.cls-1{fill:#fff;}</style></defs><path class="cls-1" d="M441.66,346.09c-2.18,6.35-5.79,11.36-12.7,13a27.53,27.53,0,0,1-6.29.54q-69.43,0-138.85,0h-4.66v24.64h3.71c8.36,0,16.72,0,25.08,0,10.12.07,17.11,6.93,17.47,17.11.11,3.24,0,6.5,0,9.75,0,5.78-1.9,7.66-7.63,7.66H231q-24.33,0-48.66,0c-5.94,0-7.77-1.84-7.76-7.88a95.58,95.58,0,0,1,.3-12c1.12-8.73,7.87-14.55,16.66-14.65,8.48-.09,17,0,25.44,0h3.89V359.65H77.49c-12.58,0-19.15-6.56-19.15-19.14v-240c0-12.53,6.65-19.2,19.16-19.2q171.58,0,343.19-.11c10.4,0,17.53,3.54,21,13.59V216.29c-2,2.32-4.05,4.52-7.57,3.12s-3.68-4.26-3.68-7.42q0-55.69,0-111.39c0-6.34-1.69-8.07-7.9-8.07q-172.53,0-345.07,0c-6.21,0-7.89,1.72-7.89,8.07V340.26c0,6.58,1.56,8.14,8.15,8.14h344.7c6.49,0,8-1.58,8-8.28q0-49.69,0-99.39c0-3.06.35-5.86,3.57-7.13s5.64.6,7.68,3ZM313.88,407.38c1.09-8.78,0-12-9.71-11.94-35.55.28-71.11.11-106.66.11-2,0-4,0-6,0a5.29,5.29,0,0,0-5.57,5,53.12,53.12,0,0,0-.06,6.82Zm-81.33-23.29h34.79V359.86H232.55Z"/><path class="cls-1" d="M92.9,115.81V301.24H407V115.81H184.5c-1.24,0-2.5.06-3.74,0a5.58,5.58,0,0,1-.15-11.16,31.54,31.54,0,0,1,3.37,0H409.69c7.27,0,8.74,1.47,8.74,8.77V304.27c0,7-1.54,8.55-8.59,8.55H90.17c-7.07,0-8.6-1.51-8.6-8.54V113c0-6.8,1.59-8.41,8.34-8.41h64a14.33,14.33,0,0,1,3.35.16c3,.73,4.79,2.67,4.56,5.91-.22,3-2,4.74-5,5.11a27,27,0,0,1-3.37.07H92.9Z"/><path class="cls-1" d="M104.81,208.92q0-36.55,0-73.12c0-6.33,1.68-8,7.92-8H224.25c6.41,0,8.07,1.58,8.07,7.86q0,73.5,0,147c0,6.25-1.72,7.9-8.07,7.9H112.74c-6.19,0-7.92-1.77-7.92-8.09Q104.81,245.67,104.81,208.92Zm11.55-69.76v139.9H220.82V139.16Z"/><path class="cls-1" d="M383.79,279.26V232.48h-128v46.78h4c15.46,0,30.93,0,46.4,0,3.36,0,5.95,1,6.67,4.58.77,3.86-1.92,6.64-6.47,6.67-8.85.06-17.71,0-26.56,0-9.48,0-19,0-28.44,0-5,0-7-1.95-7-7.06q-.06-27.74,0-55.49c0-5.09,2-7,7.09-7q68.29,0,136.58,0c5,0,7.08,2,7.09,7q.06,27.75,0,55.5c0,5-2.07,7-7.1,7q-27.31,0-54.63,0c-4.39,0-7-2.1-7-5.54s2.58-5.69,7.22-5.7q22.81,0,45.65,0Z"/><path class="cls-1" d="M284.74,208.88c-11.09,0-22.18,0-33.28,0-5.12,0-7-1.86-7.05-7q-.07-33.54,0-67.07c0-5.15,1.95-7.06,7-7.06q33.47,0,66.92,0c5.07,0,7.1,1.93,7.11,7q.07,33.54,0,67.07c0,5.11-2,7-7,7.05C307.17,208.91,296,208.88,284.74,208.88Zm29.19-11.4V139.27h-58v58.21Z"/><path class="cls-1" d="M366.32,185.59c-7.34,0-14.68,0-22,0-4.41,0-6.83-2.08-6.79-5.65s2.49-5.57,6.9-5.58q21.84,0,43.67,0c4.37,0,7,2.09,7.07,5.51s-2.59,5.71-7.18,5.73C380.76,185.61,373.54,185.59,366.32,185.59Z"/><path class="cls-1" d="M366.36,127.76c7.34,0,14.69,0,22,0,4.23,0,6.87,2.34,6.75,5.77S392.5,139,388.42,139q-22.2,0-44.42,0c-4.09,0-6.48-2.17-6.5-5.6s2.38-5.59,6.46-5.62C351.43,127.72,358.9,127.76,366.36,127.76Z"/><path class="cls-1" d="M366,162.3c-7.22,0-14.44,0-21.65,0-4.42,0-6.86-2.06-6.86-5.6s2.45-5.63,6.84-5.64q22,0,44,0c4.22,0,6.87,2.36,6.75,5.79s-2.64,5.41-6.73,5.43C381,162.33,373.48,162.3,366,162.3Z"/><path class="cls-1" d="M366.2,208.88c-7.34,0-14.68,0-22,0-4.25,0-6.56-2-6.66-5.39-.11-3.61,2.29-5.82,6.64-5.83q22.2-.08,44.42,0c4,0,6.56,2.31,6.57,5.62s-2.52,5.56-6.55,5.59C381.13,208.92,373.67,208.88,366.2,208.88Z"/><path class="cls-1" d="M250.1,337.18c-7.48,0-15,0-22.45,0-4.07,0-6.52-2.23-6.47-5.63,0-3.22,2.47-5.55,6.26-5.57q22.65-.1,45.28,0c3.76,0,6.13,2.48,6.08,5.73s-2.37,5.43-6.24,5.46C265.07,337.22,257.59,337.18,250.1,337.18Z"/><path class="cls-1" d="M139.8,208.71c0-7.25,0-14.5,0-21.75,0-6.34,3.66-8.74,9.23-6,14.73,7.29,29.47,14.58,44.06,22.15,1.9,1,4,3.63,4.05,5.52s-2.11,4.55-4,5.53c-14.7,7.64-29.54,15-44.39,22.36-5.11,2.53-8.89.07-9-5.72C139.74,223.45,139.8,216.08,139.8,208.71Zm39.48,0-27.92-14v28Z"/></svg>