<svg xmlns="http://www.w3.org/2000/svg" width="26" height="26" viewBox="0 0 26 26">
  <path id="Icon_ionic-ios-arrow-dropleft-circle" data-name="Icon ionic-ios-arrow-dropleft-circle" d="M16.375,3.375a13,13,0,1,0,13,13A13,13,0,0,0,16.375,3.375Zm2.712,18.069a1.211,1.211,0,0,1,0,1.706,1.192,1.192,0,0,1-.85.35,1.212,1.212,0,0,1-.856-.356L11.506,17.25a1.2,1.2,0,0,1,.037-1.662l5.963-5.981a1.207,1.207,0,1,1,1.706,1.706l-5.119,5.063Z" transform="translate(-3.375 29.375) rotate(-90)" fill="#a010a0"/>
</svg>
