<svg id="Capa_1" data-name="Capa 1" xmlns="http://www.w3.org/2000/svg" viewBox="0 0 500 500"><defs><style>.cls-1{fill:#fff;}</style></defs><path class="cls-1" d="M425.72,104.92V288c-2.6,8.06-8.46,13.15-15.76,16.67a94.18,94.18,0,0,1-14.9,6c-34.81,9.91-70.14,10.33-105.68,5.1-8.54-1.26-16.93-3.54-25.62-5.4v3.52c0,24.79-.24,49.59.12,74.38.13,9.16-3.4,16-11,20.21-7,3.92-14.46,7.59-22.18,9.64C192,428.33,153,428.31,114,419.89c-11.2-2.42-22.09-5.92-31.3-13.18a20.46,20.46,0,0,1-8.38-17.11q.18-85.86,0-171.73c0-6.7,2.12-12.27,7.33-16.18a80.83,80.83,0,0,1,15.55-9.6c10.92-4.83,22.65-7,34.45-8.61a267,267,0,0,1,83.32,1.37c7,1.25,14,3.15,21.21,4.82v-4.13c0-25.25.08-50.5-.06-75.75,0-6.18,2-11.26,6.67-15.1a56.71,56.71,0,0,1,10.18-6.85c11-5.66,22.92-8.37,35-10.36a268.74,268.74,0,0,1,77.91-1.23c14.31,1.8,28.42,4.65,41.61,10.81C415.61,90.86,422.67,95.86,425.72,104.92ZM250,352.09c-25.87,12.27-53.17,14.84-80.85,14.87S114,364.3,88.07,352.11c0,10.77.71,21.33-.21,31.73-.79,9,3.1,13.68,10.7,16.63,1,.37,1.87.85,2.83,1.23,12.08,4.82,24.73,7.27,37.59,8.68,27.81,3.06,55.48,2.39,82.83-3.95,8.47-2,16.76-4.57,24.05-9.57,2.79-1.91,4.46-4.2,4.26-7.95-.32-6-.09-12.11-.09-18.16Zm-.17-224.9v3.58c0,11,.18,21.93-.09,32.89-.1,4,1.36,6.79,4.62,8.4,5.6,2.76,11.24,5.63,17.17,7.51,15.67,5,31.93,6.7,48.3,7.31,23.63.88,47.09-.41,69.91-7.17,6-1.77,11.63-4.61,17.24-7.36,3.59-1.76,5.3-4.77,5.09-9.21-.38-8.2-.11-16.44-.11-24.66V127.12C386.08,139.38,358.78,142,331.12,142S275.94,139.35,249.86,127.19ZM88.07,234.65c0,12.24.25,24.12-.12,36-.15,4.62,1.67,7.59,5.35,9.4a121.64,121.64,0,0,0,16.94,7.2c16,5,32.63,6.63,49.34,7.2,21.33.73,42.54-.38,63.24-5.86,7.63-2,14.92-5.49,22.19-8.69,3.68-1.62,5.55-4.74,5.1-9.15a108.23,108.23,0,0,1-.08-11V234.64c-25.81,12.26-53.11,14.87-80.75,14.89S114.1,246.94,88.07,234.65Zm0,58.69c0,12.65.11,24.87-.07,37.09,0,3.24,1,5.7,3.65,7.17a93.24,93.24,0,0,0,13.43,6.67c14.61,5.31,29.88,7.43,45.31,8.4,24.18,1.53,48.22.64,71.88-5.07,8.23-2,16.29-4.52,23.42-9.33,2.93-2,4.52-4.35,4.43-8.21-.25-11.07-.08-22.16-.09-33.24,0-1.07-.11-2.15-.18-3.38C224,305.73,196.68,308.29,169,308.28S114.06,305.73,88.07,293.34ZM249.86,186.16a47.89,47.89,0,0,1-.06,6.67c-.4,2.86.62,4.44,3.07,6,7.48,4.72,11.73,11.32,10.93,20.59-.25,2.83,0,5.7,0,8.56,0,8.87,0,8.95,8.74,11.41,22,6.19,44.52,7.57,67.23,7,17-.47,33.79-2.17,50-7.19,6.16-1.9,12-4.89,17.8-7.78,3.23-1.61,4.68-4.47,4.52-8.47-.32-8.55-.1-17.13-.1-25.7v-11c-8.36,3.14-16.26,6.68-24.51,9a153.18,153.18,0,0,1-22.86,4.25,265.11,265.11,0,0,1-67.37,0A159.24,159.24,0,0,1,274,195.14C265.92,192.83,258.14,189.3,249.86,186.16ZM412,246c-48.89,18.78-98.26,17.63-148.23,5.73V290c0,5.25,0,5.31,5.08,6.93,19.13,6.09,38.88,7.95,58.83,8.2,20.65.26,41.16-1.15,61.06-7,6.6-1.95,12.89-5.13,19-8.3,1.9-1,4-3.76,4-5.77C412.17,271.29,412,258.5,412,246ZM331.31,87.71c-22.09.32-43.7,1.94-64.48,9.12a60.42,60.42,0,0,0-12,5.73c-6.5,4-6.46,7.08.15,11.14a62.43,62.43,0,0,0,11.7,5.57c15.18,5.45,31,7.63,47,8.55,24.52,1.4,48.93.52,72.79-5.89a94.47,94.47,0,0,0,19.35-7.61c8-4.22,7.89-7.82.18-12.41a60,60,0,0,0-11.16-5.14C374.17,89.62,352.67,88.09,331.31,87.71ZM166.69,235.93c20.12-.09,37.65-1.43,54.85-5.61,8.89-2.16,17.71-4.67,25.18-10.31,4.31-3.25,4.53-6-.1-8.71a87.23,87.23,0,0,0-17.89-8.3c-19.25-6.06-39.18-7.61-59.26-7.65-19.74,0-39.28,1.62-58.35,7-7.27,2-14.44,4.47-20.38,9.39-3.44,2.85-3.64,5.23.08,7.65a69.25,69.25,0,0,0,14.5,7.5C126,234.15,147.49,235.66,166.69,235.93Z"/><path class="cls-1" d="M425.72,379.19a36.39,36.39,0,0,1-3.08,4.06q-19.71,19.81-39.51,39.55c-2.34,2.33-4.87,3.82-8.27,2.51s-4.52-4-4.52-7.34c0-5.47,0-10.94,0-16.87h-44c-1,0-2.06,0-3.08-.05a6.94,6.94,0,0,1-6.58-7,6.73,6.73,0,0,1,6.91-6.61c6.52-.1,13,0,19.56,0q16.29,0,32.6,0c6,0,8.28,2.31,8.35,8.27,0,1.9,0,3.81,0,5.34l23.78-23.77L384,353.5c0,2.31.07,4.88,0,7.44-.16,4.64-2.69,7.24-7.3,7.25q-27.28.07-54.56,0c-4.36,0-7.41-3-7.36-6.91s3.12-6.74,7.53-6.76c14.64,0,29.28,0,43.92,0h4.07c0-5.78.05-11.23,0-16.68-.05-3.54.61-6.7,4.22-8.24,3.76-1.6,6.48.24,9.09,2.87,12.8,12.9,25.7,25.71,38.54,38.57,1.27,1.27,2.38,2.7,3.56,4.05Z"/><path class="cls-1" d="M116.06,98,91.85,122.25,116,146.35c0-2.29-.07-4.86,0-7.42.15-4.63,2.69-7.23,7.31-7.25q23.67-.08,47.34,0c4.53,0,7.38,2.74,7.4,6.79s-2.82,6.85-7.32,6.88c-12.23.06-24.47,0-36.71,0h-4.32v12c0,2.17,0,4.35,0,6.51-.12,3-1.4,5.35-4.24,6.49a6.83,6.83,0,0,1-7.84-1.78q-12.48-12.5-25-25c-5.17-5.18-10.37-10.33-15.51-15.54-3.73-3.77-3.8-7.32-.1-11Q97.1,96.87,117.27,76.78c2.28-2.29,4.82-3.47,8-2.17s4.43,4,4.43,7.4c0,5.46,0,10.92,0,16.79h39.66a15.49,15.49,0,0,1,3.41.21,6.67,6.67,0,0,1,5.26,7.37,6.49,6.49,0,0,1-6.67,6.07q-24.36.12-48.72,0c-3.86,0-6.36-2.65-6.58-6.5C115.94,103.48,116.06,101,116.06,98Z"/><path class="cls-1" d="M209.65,106.11a6.69,6.69,0,0,1-7.1,6.36,6.94,6.94,0,0,1-6.5-7.06,7,7,0,0,1,7-6.59A6.79,6.79,0,0,1,209.65,106.11Z"/><path class="cls-1" d="M297.27,387.41a6.9,6.9,0,0,1,6.74,6.83,7,7,0,0,1-6.79,6.82A6.81,6.81,0,0,1,290.4,394,6.68,6.68,0,0,1,297.27,387.41Z"/></svg>