<svg xmlns="http://www.w3.org/2000/svg" xmlns:xlink="http://www.w3.org/1999/xlink" width="534.045" height="421.804" viewBox="0 0 534.045 421.804">
  <defs>
    <linearGradient id="linear-gradient" x1="0.869" y1="0.304" x2="0.19" y2="0.462" gradientUnits="objectBoundingBox">
      <stop offset="0" stop-color="#3a60e9"/>
      <stop offset="1" stop-color="#4c2fbb"/>
    </linearGradient>
    <clipPath id="clip-path">
      <rect x="67" y="66" width="534.045" height="421.804" fill="none"/>
    </clipPath>
    <clipPath id="clip-path-2">
      <path id="Trazado_1185" data-name="Trazado 1185" d="M38.418,70.752C11.412,93.325.035,124.772,0,157.535v.321c.057,47.069,23.481,96.8,57.571,126.787,40.965,36.036,96.349,21.08,136.85,56.521,29.578,25.88,41.122,73.893,68.342,103.426,30.638,33.242,78.142,36.879,114.982,15.193s63.226-65.246,76.221-112.916,13.737-99.236,9.251-149.213c-4.7-52.333-16.39-106.965-47.391-143.224C387.158,20.9,346.368,8.309,307.046,3.243A402.138,402.138,0,0,0,255.788,0C180.57,0,98.527,20.5,38.418,70.752" fill="url(#linear-gradient)"/>
    </clipPath>
  </defs>
  <g id="Grupo_de_desplazamiento_1" data-name="Grupo de desplazamiento 1" transform="translate(-67 -66)" clip-path="url(#clip-path)" style="isolation: isolate">
    <g id="Grupo_1540" data-name="Grupo 1540" transform="translate(0 305.529) rotate(-41)">
      <g id="Grupo_1096" data-name="Grupo 1096" transform="translate(0 0)" clip-path="url(#clip-path-2)">
        <path id="Trazado_1184" data-name="Trazado 1184" d="M72.374,0,0,536.568l522.816,72.866L595.189,72.866Z" transform="translate(-63.743 -63.982)" fill="url(#linear-gradient)"/>
      </g>
    </g>
  </g>
</svg>
