<?xml version="1.0" standalone="no"?>
<!DOCTYPE svg PUBLIC "-//W3C//DTD SVG 1.1//EN" "http://www.w3.org/Graphics/SVG/1.1/DTD/svg11.dtd">
<svg xmlns="http://www.w3.org/2000/svg">
<metadata>Copyright (C) 2021 by original authors @ fontello.com</metadata>
<defs>
<font id="fontello" horiz-adv-x="1000" >
<font-face font-family="fontello" font-weight="400" font-stretch="normal" units-per-em="1000" ascent="850" descent="-150" />
<missing-glyph horiz-adv-x="1000" />
<glyph glyph-name="about_us" unicode="&#xe800;" d="M861 573l-144 117-124-36c-5 9-6 39 4 56l38 64-60-43a201 201 0 0 1-68-83 185 185 0 0 0 9 90l15 35-35-16c-50-21-83-70-94-137-12-65 0-161 53-259l-174 2-13 0 0-1-4 0v-19l-1-6 1 0v-410h117l1 15c0 2 9 157 123 223a643 643 0 0 0 112-225l3-13 100 1h0l2-2 4 3a16 16 0 0 1 8 6l0 1c5 6 11 24 21 99a1223 1223 0 0 1 12 174c-2 65-12 107-31 128a551 551 0 0 1-13 104l91 0 1 0a73 73 0 0 1 63 49 51 51 0 0 1 2 16v26a52 52 0 0 1-19 41z m-154 65l63-51a246 246 0 0 1-126-62c0 2 0 4 0 6 5 55 26 90 63 107z m-186-46a185 185 0 0 0 38 82 81 81 0 0 1 5-31 33 33 0 0 1 23-21l4-1 66 19c-60-60-45-170-38-205-4 4-8 8-12 12a433 433 0 0 0-86 145z m-89 23c7 40 22 72 45 93-10-66 8-167 100-273a646 646 0 0 1 130-116 21 21 0 0 0 3-2l9-9c26-47 16-193 3-284 0 2-1 4-1 7a481 481 0 0 1-135 216c-10 10-31 30-52 54-94 115-115 237-102 314z m-80-657h-57v365c71-27 133-72 188-135-103-64-126-187-131-230z m292 0c-15 54-86 267-288 374l114-2a473 473 0 0 1 40-50 600 600 0 0 1 54-58 460 460 0 0 0 127-200 367 367 0 0 0 12-63z m206 549a22 22 0 0 0-1-7 42 42 0 0 0-37-28l-131 0 6-21a387 387 0 0 0 16-89 680 680 0 0 0-80 69c31 108 146 130 203 130l16-12h0a21 21 0 0 0 8-16z m-690-234h89v88h-89z m31 57h27v-26h-27z" horiz-adv-x="1040" />

<glyph glyph-name="blog" unicode="&#xe801;" d="M687 92h-386a18 18 0 0 1-12-6l-133-132v119a18 18 0 0 1-17 17h-92v465h477l36 35h-530a18 18 0 0 1-18-18v-499a18 18 0 0 1 18-18h91v-144a18 18 0 0 1 11-16 18 18 0 0 1 6-2 18 18 0 0 1 13 6l158 157h396a18 18 0 0 1 17 18v389l-35-34z m-312 164l72 175 127 124h-50l-103-102a16 16 0 0 1-4-6l-92-219a18 18 0 0 1 16-24 17 17 0 0 1 8 1l205 97a21 21 0 0 1 5 3l128 124v49l-150-145z m544 422l-117 123a18 18 0 0 1-13 6 18 18 0 0 1-12-5l-217-212h50l178 174 94-98-160-154v-49l197 190a18 18 0 0 1 0 25z m-375-367a18 18 0 0 0-12 6l-106 105a18 18 0 1 0 25 25l105-105a18 18 0 0 0-12-31z m-206-114h-149a18 18 0 0 0 0 36h149a18 18 0 0 0 0-36z m513 404a17 17 0 0 0-13 5l-105 105a18 18 0 0 0 25 25l105-105a18 18 0 0 0-12-30z" horiz-adv-x="936" />

<glyph glyph-name="close" unicode="&#xe802;" d="M911 33l-310 328 284 333a13 13 0 0 1-1 19l-129 109a13 13 0 0 1-18-1l-271-318-291 308a13 13 0 0 1-18 0l-123-116a13 13 0 0 1-1-18l306-323-296-348a13 13 0 0 1 1-19l129-109a13 13 0 0 1 8-3 13 13 0 0 1 10 4l283 332 295-312a13 13 0 0 1 9-4 13 13 0 0 1 9 3l123 117a13 13 0 0 1 1 18z m-132-106l-288 304-18 19-17-20-276-324-109 93 286 336 17 20-18 19-295 311 104 98 284-300 18-19 17 20 264 310 109-93-274-321-17-20 18-19 299-316z" horiz-adv-x="936" />

<glyph glyph-name="contact" unicode="&#xe803;" d="M542 754a371 371 0 0 1-316-565c0-24-49-128-96-213a20 20 0 0 1 29-26c75 52 166 109 190 116a371 371 0 1 1 193 688z m0-702a330 330 0 0 0-176 51c-9 6-26 16-163-75 76 151 63 172 58 180a331 331 0 1 0 281-156z" horiz-adv-x="1040" />

<glyph glyph-name="facebook" unicode="&#xe804;" d="M378-127v434h160l22 169h-182v108c0 49 15 83 91 83h99v151c-17 2-75 7-143 7-141 0-238-79-238-225v-125h-159v-169h159v-433z" horiz-adv-x="591" />

<glyph glyph-name="home" unicode="&#xe805;" d="M920 512l-327 240a103 103 0 0 1-121 1l-348-245a59 59 0 0 1-25-49v-536h348v203a85 85 0 0 0 84 84 92 92 0 0 0 92-91v-196h328v529a75 75 0 0 1-31 60z m-9-549h-248v156a132 132 0 0 1-132 131 125 125 0 0 1-124-124v-163h-268v496a20 20 0 0 0 8 16l348 245a64 64 0 0 0 74 0l328-240a34 34 0 0 0 14-28z" horiz-adv-x="1040" />

<glyph glyph-name="i-analysis" unicode="&#xe806;" d="M300-32a17 17 0 0 0-10 4s-14 11-33 29a948 948 0 0 0-71 73 581 581 0 0 0-71 102 317 317 0 0 0-25 57 201 201 0 0 0-9 59 300 300 0 0 0 15 97 204 204 0 0 0 43 75c38 41 91 62 154 62 3 0 5 0 8 0a323 323 0 0 0 50-6 273 273 0 0 0 48-13 217 217 0 0 0 80-53 197 197 0 0 0 42-70 253 253 0 0 0 13-93 203 203 0 0 0-11-60 328 328 0 0 0-27-56 604 604 0 0 0-76-102 989 989 0 0 0-75-73c-18-16-32-26-34-28a17 17 0 0 0-11-4z m-7 524c-53 0-98-18-129-52a170 170 0 0 1-36-61 265 265 0 0 1-14-87 167 167 0 0 1 9-49 284 284 0 0 1 22-51 548 548 0 0 1 67-95 921 921 0 0 1 68-71c8-8 15-14 21-19 5 5 13 11 21 19a936 936 0 0 1 72 70 563 563 0 0 1 73 96 291 291 0 0 1 24 51 173 173 0 0 1 9 49 220 220 0 0 1-11 80 162 162 0 0 1-35 58 183 183 0 0 1-67 45 243 243 0 0 1-42 12 280 280 0 0 1-45 4c-2 1-4 1-6 1z m15-293a115 115 0 1 0 0 231h0a115 115 0 0 0 0-231z m0 196a81 81 0 0 1 0-162h0a81 81 0 0 1 0 162z m657 182l-5 4 6 8-6-8c-1 1-6 5-13 11a368 368 0 0 0-26 28 222 222 0 0 0-27 39 126 126 0 0 0-10 22 80 80 0 0 0-3 23 120 120 0 0 0 6 38 82 82 0 0 0 17 29 80 80 0 0 0 60 25h3a125 125 0 0 0 19-2 115 115 0 0 0 18-5 86 86 0 0 0 32-21 77 77 0 0 0 16-28 100 100 0 0 0 5-36 83 83 0 0 0-4-23 129 129 0 0 0-10-22 228 228 0 0 0-29-39 357 357 0 0 0-28-28 112 112 0 0 0-15-11h0z m-4 198a59 59 0 0 1-43-18 61 61 0 0 1-12-21 98 98 0 0 1-5-32 59 59 0 0 1 3-17 104 104 0 0 1 8-18 202 202 0 0 1 24-35 329 329 0 0 1 25-27c2-1 4-3 5-4l6 4a354 354 0 0 1 26 26 208 208 0 0 1 27 36 107 107 0 0 1 8 18 62 62 0 0 1 4 18 79 79 0 0 1-4 28 57 57 0 0 1-13 21 65 65 0 0 1-23 15 88 88 0 0 1-15 5 99 99 0 0 1-16 1h-5z m8-109h0a47 47 0 0 0 0 94h0a47 47 0 0 0 0-94z m0 74a27 27 0 0 1 0-54h0a27 27 0 0 1 0 54h0z m-522-844l-3 34c19 2 39 4 61 7l5-33c-23-4-44-6-63-8z m83 11l-6 33c27 5 53 11 79 17l9-33c-27-7-55-13-82-17z m102 22l-9 33c27 7 53 15 77 24l11-32c-24-9-51-17-79-25z m99 33l-13 31a554 554 0 0 1 72 35l17-30a609 609 0 0 0-76-36z m94 47l-18 29a254 254 0 0 1 58 50l26-22a287 287 0 0 0-66-56z m79 75l-28 18a109 109 0 0 1 18 60q0 4 0 7l34 2c0-3 1-6 1-9a143 143 0 0 0-25-78z m-12 103a113 113 0 0 1-34 62l23 25a149 149 0 0 0 44-80z m-48 74a307 307 0 0 1-68 36l12 31a343 343 0 0 0 77-40z m-88 43l-7 3a381 381 0 0 0-70 32l18 29a364 364 0 0 1 64-29l8-3z m-96 51a67 67 0 0 0-20 47v2a85 85 0 0 0 15 47l28-20a51 51 0 0 1-9-28v-1a33 33 0 0 1 10-24z m34 89l-23 25c19 17 45 31 79 41l10-33c-29-9-51-20-66-33z m85 39l-8 33a501 501 0 0 0 84 13l2-34a485 485 0 0 1-78-12z" horiz-adv-x="1118" />

<glyph glyph-name="i-consistency" unicode="&#xe807;" d="M452-152h-79a71 71 0 0 0-70 70v486a71 71 0 0 0 70 71h79a71 71 0 0 0 70-71v-486a71 71 0 0 0-70-70z m-79 564a8 8 0 0 1-8-8v-486a8 8 0 0 1 8-8h79a8 8 0 0 1 8 8v486a8 8 0 0 1-8 8z m-219-564h-79a71 71 0 0 0-70 70v329a71 71 0 0 0 70 71h79a71 71 0 0 0 70-71v-329a71 71 0 0 0-70-70z m-79 407a8 8 0 0 1-8-8v-329a8 8 0 0 1 8-8h79a8 8 0 0 1 8 8v329a8 8 0 0 1-8 8z m675-407h-79a71 71 0 0 0-70 70v651h-43a51 51 0 0 0-39 84l0 1 168 187a32 32 0 0 0 44 2c1-1 2-1 3-2l168-187 0-1a51 51 0 0 0-39-84h-43v-651a71 71 0 0 0-70-70z m-166 784h48a31 31 0 0 0 31-32v-682a8 8 0 0 1 8-8h79a8 8 0 0 1 8 8v682a31 31 0 0 0 31 32h48l-127 141z" horiz-adv-x="922" />

<glyph glyph-name="i-delivery" unicode="&#xe808;" d="M878 616h-24v57a73 73 0 0 1-146 0h0v-20a57 57 0 0 0-41-54l-24-7v0a24 24 0 0 1-24 24h-97a24 24 0 0 1-24-24h0v-108h-287a73 73 0 0 1-73-73v-470a24 24 0 0 1 38-20l91 60h462a73 73 0 0 1 73 73v255h76a89 89 0 0 1 89 89v129a89 89 0 0 1-89 89z m-332-48h49v-211h-49z m208-514a24 24 0 0 0-25-24h-469a24 24 0 0 1-14-4l-59-40v425a24 24 0 0 0 24 24h287v-102a24 24 0 0 1 24-24h97a24 24 0 0 1 25 21 137 137 0 0 1 73-21h37z m165 344a41 41 0 0 0-41-41h-161a89 89 0 0 0-74 39v145l38 11a106 106 0 0 1 76 101v20a24 24 0 0 0 49 0h0v-81a24 24 0 0 1 24-24h49a41 41 0 0 0 40-41z m-659-109h162a24 24 0 0 1 0 49h-162a24 24 0 1 1 0-49z m421-48h-421a24 24 0 1 1 0-49h421a24 24 0 1 1 0 49z m0-98h-421a24 24 0 1 1 0-48h421a24 24 0 1 1 0 48z" horiz-adv-x="1027" />

<glyph glyph-name="i-implementation" unicode="&#xe809;" d="M852 653h-571v76a25 25 0 0 1-25 25h-119a76 76 0 0 1-76-76v-613a76 76 0 0 1 76-77h537v-76a25 25 0 0 1 26-25h152a76 76 0 0 1 76 76v614a76 76 0 0 1-76 76z m-740 25a25 25 0 0 0 25 26h93v-563h-93a76 76 0 0 1-25-4z m0-613a25 25 0 0 0 25 25h119a25 25 0 0 1 25 26v486h571a25 25 0 0 0 25-25v-542a74 74 0 0 1-25 4h-715a25 25 0 0 0-25 26z m740-127h-127v50h127a25 25 0 1 0 0-50z m-103 227a25 25 0 0 1-2 19l-21 37a176 176 0 0 1 14 25h42a25 25 0 0 1 26 26v101a25 25 0 0 1-26 26h-42a180 180 0 0 1-14 25l21 36a25 25 0 0 1-9 35h0l-88 51a25 25 0 0 1-35-9h0l-22-37a162 162 0 0 1-28 0l-21 37a25 25 0 0 1-35 9h0l-88-51a25 25 0 0 1-10-35h0l22-37a189 189 0 0 1-15-24h-42a25 25 0 0 1-25-26v-101a25 25 0 0 1 25-26h42a185 185 0 0 1 15-25l-22-37a25 25 0 0 1 10-34h0l88-51a25 25 0 0 1 34 9h0l22 37a162 162 0 0 1 28 0l22-37a25 25 0 0 1 15-12 25 25 0 0 1 20 2l88 51a25 25 0 0 1 11 16z m-50 115a125 125 0 0 0-23-40 25 25 0 0 1-3-29l17-30-44-25-17 29a25 25 0 0 1-22 13 28 28 0 0 1-5 0 119 119 0 0 0-46 0 25 25 0 0 1-27-12l-17-30-44 26 17 29a25 25 0 0 1-2 29 127 127 0 0 0-23 40 25 25 0 0 1-24 17h-34v51h34a25 25 0 0 1 24 17 127 127 0 0 0 23 40 25 25 0 0 1 3 29l-17 30 44 25 17-29a25 25 0 0 1 26-13 119 119 0 0 0 47 0 25 25 0 0 1 26 13l17 29 44-25-17-30a25 25 0 0 1 3-29 126 126 0 0 0 23-40 25 25 0 0 1 24-17h34v-51h-34a25 25 0 0 1-24-17z m-120 119a76 76 0 1 1 77-77 76 76 0 0 1-77 77z m0-102a25 25 0 1 0 26 25 25 25 0 0 0-26-25z" horiz-adv-x="989" />

<glyph glyph-name="i-steps" unicode="&#xe80a;" d="M1015 394h-78c-3 0-5 0-8 0a247 247 0 0 1-57 38 186 186 0 1 1-260 45 173 173 0 0 1 17-20h-137a186 186 0 1 1-263-8c3-3 6-6 9-8a246 246 0 0 1-78-47c-3 0-5 0-7 0h-79a29 29 0 0 1-29-30v-156a29 29 0 0 1 29-29h2v-222a29 29 0 0 1 30-29h878a29 29 0 0 1 29 29v222h2a29 29 0 0 1 29 29v157a29 29 0 0 1-29 29z m-29-157h-49a49 49 0 0 0 0 98h49z m-349 347a128 128 0 1 0 127-127h0a128 128 0 0 0-127 127z m-281 128a128 128 0 1 0-127-128 128 128 0 0 0 128 128z m-253-377h49a49 49 0 1 0 0-98h-48z m32-157h17a108 108 0 0 1 70 190h1a188 188 0 0 0 102 30h279a248 248 0 0 1-89-190v-222h-255v128a29 29 0 0 1-58 0v-128h-67z m819-192h-67v128a29 29 0 0 1-58 0v-128h-255v222a190 190 0 0 0 293 160 108 108 0 0 1 70-190h17z" horiz-adv-x="1089" />

<glyph glyph-name="i-quality" unicode="&#xe80b;" d="M579 526a172 172 0 0 1-171 172h-1a172 172 0 0 1 0-344h0a173 173 0 0 1 172 172z m-295 0a123 123 0 0 0 123 123h0a123 123 0 1 0 0-246h0a123 123 0 0 0-123 123z m384-197a51 51 0 0 1 9 14 53 53 0 0 1 1 42l-24 61 55 35a54 54 0 0 1 17 74 53 53 0 0 1-17 17l-55 34 24 61a54 54 0 0 1-30 69h0a53 53 0 0 1-23 4l-65-5-16 64a54 54 0 0 1-65 39 52 52 0 0 1-22-11l-50-42-50 42a54 54 0 0 1-76-6 53 53 0 0 1-10-22l-16-63-66 4a54 54 0 0 1-57-50 56 56 0 0 1 4-23l24-61-55-34a54 54 0 0 1-17-74h0a55 55 0 0 1 17-17l55-35-24-61a54 54 0 0 1 10-56l-144-341a25 25 0 0 1 13-32 25 25 0 0 1 19 0l155 68 60-158a25 25 0 0 1 23-16h0a25 25 0 0 1 23 15l112 265 112-265a25 25 0 0 1 23-15h0a25 25 0 0 1 23 16l59 159 155-68a25 25 0 0 1 33 12h0a24 24 0 0 1 0 20z m-394-389l-47 126a24 24 0 0 1-32 14l0 0a12 12 0 0 1-1 0l-123-54 121 286 63 4 16-63a54 54 0 0 1 52-41 52 52 0 0 1 34 13l8 6 15-38z m52 322a4 4 0 0 0-5 0 5 5 0 0 0-3 3l-20 83a24 24 0 0 1-24 19h-2l-85-6h-2l0 0a5 5 0 0 0-3 2 5 5 0 0 0 0 4l32 79a25 25 0 0 1-10 30l-73 46a5 5 0 0 0-2 4 4 4 0 0 0 2 4l73 45a25 25 0 0 1 10 30l-32 80a5 5 0 0 0 2 6h0a6 6 0 0 0 2 0l86-6a25 25 0 0 1 26 19l20 83a5 5 0 0 0 8 3l65-56a25 25 0 0 1 32 0l66 56a5 5 0 0 0 4 1 5 5 0 0 0 3-4l21-83a25 25 0 0 1 25-19l86 6a4 4 0 0 0 5-4 2 2 0 0 0 0 0 6 6 0 0 0 0-2l-32-80a25 25 0 0 1 9-30l73-45a4 4 0 0 0 2-4 5 5 0 0 0-2-4l-73-46a25 25 0 0 1-9-30l32-79a5 5 0 0 0 0-4 4 4 0 0 0-3-2l0 0a2 2 0 0 0-2 0l-85 6a24 24 0 0 1-26-19l-20-83a5 5 0 0 0-3-3 4 4 0 0 0-5 1l-66 55a25 25 0 0 1-31 0z m294-182a25 25 0 0 1-32-13h0a12 12 0 0 0-1-1l-47-126-109 260-27 64 3 2 50-41a54 54 0 0 1 76 6l0 0a53 53 0 0 1 11 22l15 63 64-4 120-286z" horiz-adv-x="814" />

<glyph glyph-name="i-synthesis" unicode="&#xe80c;" d="M683 764h-596a25 25 0 0 1-25-25h0v-797a25 25 0 0 1 25-25h596a25 25 0 0 1 25 25h0v797a25 25 0 0 1-25 25z m-397-49h198v-25a24 24 0 0 0-23-25h-151a24 24 0 0 0-24 25z m372-749h-546v749h124v-25a74 74 0 0 1 74-75h151a74 74 0 0 1 73 75v25h124z m-124 544a25 25 0 0 1-25-25h0v-91h-50v52a25 25 0 0 1-49 0v-52h-50v147a25 25 0 1 1-49 0v-147h-50v28a25 25 0 0 1-50 0v-28h-25a25 25 0 0 1 0-50h398a25 25 0 0 1 0 50h-25v91a25 25 0 0 1-25 25z m50-216h-398a25 25 0 1 1 0-49h398a25 25 0 0 1 0 49z m0-99h-398a25 25 0 0 1 0-50h398a25 25 0 0 1 0 50z m-224-99h-174a25 25 0 1 1 0-50h174a25 25 0 1 1 0 50z" horiz-adv-x="755" />

<glyph glyph-name="i-testing" unicode="&#xe80d;" d="M152-101h539a80 80 0 0 1 81 80v645a80 80 0 0 1-81 81h-82v28a27 27 0 0 1-26 27h-86a80 80 0 0 1-151 0h-87a27 27 0 0 1-27-27v-28h-80a81 81 0 0 1-81-81v-645a80 80 0 0 1 81-80z m134 808h82a27 27 0 0 1 27 26h0a27 27 0 1 0 54 0 27 27 0 0 1 26-26h81v-29a27 27 0 0 0-27-27h-216a27 27 0 0 0-27 27z m-161-83a27 27 0 0 0 27 27h85a81 81 0 0 1 76-53h216a81 81 0 0 1 76 53h86a27 27 0 0 0 27-27h0v-645a27 27 0 0 0-27-26h-539a27 27 0 0 0-27 26h0z m115-421a27 27 0 0 1 38 0l109 108a27 27 0 0 1-38 38l-90-89-35 35a27 27 0 0 1-39-37l1-1z m0-187a27 27 0 0 1 38 0l109 107a27 27 0 0 1-38 38l-90-88-35 34a27 27 0 1 1-39-36l1-2z m-53 375a27 27 0 0 1 37 0l35 35 35-35a27 27 0 0 1 37 38l-34 35 34 34a27 27 0 0 1-38 38l-34-34-35 34a27 27 0 0 1-38-38l35-34-35-35a27 27 0 0 1 0-38z m288 46h163a27 27 0 0 1 0 53h-163a27 27 0 1 1 0-53z m0-188h163a27 27 0 0 1 0 54h-163a27 27 0 0 1 0-54z m0-188h163a27 27 0 0 1 0 54h-163a27 27 0 0 1 0-54z m352 73l53-163a27 27 0 0 1 51 0l54 163a27 27 0 0 1 1 8v429a80 80 0 0 1-160 0v-429a27 27 0 0 1 1-8z m79-69l-23 67a49 49 0 0 0 45 0z m0 126a103 103 0 0 1-27-3v249h54v-249a106 106 0 0 1-27 3z m-27 380a27 27 0 0 0 54 0v-81h-54z" horiz-adv-x="1034" />

<glyph glyph-name="i-trust" unicode="&#xe80e;" d="M842 575v1c-1 9-1 19-1 30a105 105 0 0 1-99 103c-113 6-201 43-276 116l-1 1a63 63 0 0 1-86 0l-1-1c-75-73-162-110-276-116a105 105 0 0 1-99-103c0-11 0-21 0-30v-2c-3-116-6-260 43-391a498 498 0 0 1 119-186c60-58 139-105 233-138a74 74 0 0 1 10-3 72 72 0 0 1 28 0 71 71 0 0 1 9 3c95 33 174 80 234 138a498 498 0 0 1 119 186c48 131 46 276 44 392z m-98-372c-51-138-155-232-318-289a12 12 0 0 0-1-1 13 13 0 0 0-6 0 10 10 0 0 0-1 1c-163 57-267 151-318 289-44 121-42 253-40 370v0c1 10 1 21 1 32a47 47 0 0 0 44 46 509 509 0 0 1 173 38 451 451 0 0 1 140 94 6 6 0 0 0 8 0 452 452 0 0 1 140-94 509 509 0 0 1 173-38 47 47 0 0 0 43-46c0-11 1-22 1-32 3-117 5-249-39-370z m-322 392a246 246 0 1 1 246-246h0a246 246 0 0 1-246 246z m0-434a188 188 0 1 0 188 188h0a188 188 0 0 0-188-188z m71 264l-115-114-31 31a29 29 0 0 1-41-41h0l52-52a29 29 0 0 1 41 0l135 135a29 29 0 0 1-41 41z" horiz-adv-x="844" />

<glyph glyph-name="instagram" unicode="&#xe80f;" d="M787 826c-91 4-180 0-271 0v1h-235a419 419 0 0 1-48-2 208 208 0 0 1-183-123 289 289 0 0 1-23-120c0-88 0-176 0-264s0-171 4-256a197 197 0 0 1 159-190 505 505 0 0 1 101-11c114-1 229 0 343 0 52 0 104 0 155 3a202 202 0 0 1 188 131 338 338 0 0 1 22 111c2 166 4 332 0 498a212 212 0 0 1-203 222h-10m-275-785a307 307 0 1 0 2 0h-2m318 550a70 70 0 1 0 72 68 71 71 0 0 0-72-68m-316-48a196 196 0 1 1 196-197v0a198 198 0 0 1-196 196" horiz-adv-x="1023" />

<glyph glyph-name="search" unicode="&#xe811;" d="M789-62l-224 314a331 331 0 1 1-547 284 332 332 0 0 1 0-67 332 332 0 0 1 296-296c11-1 23-2 34-2s23 1 34 2a331 331 0 0 1 103 28l227-318a47 47 0 1 1 77 55z m-438 319a249 249 0 1 0 249 249 249 249 0 0 0-249-249z" horiz-adv-x="813" />

<glyph glyph-name="offer" unicode="&#xe812;" d="M802 197l-202-46a53 53 0 0 1-51 64l-121 2-39 49a15 15 0 0 1-12 6h-64a63 63 0 0 1-62 57h-19a63 63 0 0 1-63-63v-192a63 63 0 0 1 63-63h19a63 63 0 0 1 61 47l147-99c6-5 39-31 78-31a153 153 0 0 1 82 26l225 140a57 57 0 0 1-42 103z m-551-156h-19a33 33 0 0 0-32 33v192a33 33 0 0 0 33 33h19a33 33 0 0 0 32-33v-1a15 15 0 0 1-2-8 15 15 0 0 1 2-8v-155a15 15 0 0 1 0-16v-4a33 33 0 0 0-33-33z m577 79l-226-141-1 0a124 124 0 0 0-64-20c-30 0-58 24-58 24l-2 1-163 109v149h56l38-49a15 15 0 0 1 12-6l128-2a23 23 0 0 0 16-7 23 23 0 0 0-7-36l-1 0a14 14 0 0 1-4-2 23 23 0 0 0-5 0h-128a15 15 0 1 1 0-30h128a55 55 0 0 1 21 3l240 55a26 26 0 0 0 19-48z m-327 170h237a89 89 0 0 1 89 89v187a15 15 0 0 1-8 13l-36 59a15 15 0 0 1-13 7h-92c26 21 50 46 51 72 0 13-4 30-29 45s-41 10-52 5c-17-9-28-29-36-52-8 23-18 43-35 52-11 5-29 9-52-5s-29-32-29-44c1-27 25-52 51-73h-90a15 15 0 0 1-13-8l-31-64 0 0a16 16 0 0 1-1-4 2 2 0 0 1 0 0 21 21 0 0 1 0-3v-187a89 89 0 0 1 89-89z m-59 89v172h123v-231h-64a59 59 0 0 0-59 59z m159 231a15 15 0 0 1 3-3 15 15 0 0 1 8-2h2a16 16 0 0 1 8 2 14 14 0 0 1 3 3l1 0 6-29h-35l3 29z m35-59v-231h-40v231z m161-172a59 59 0 0 0-59-59h-72v231h131z m-14 202h-120l-8 34h107z m-120 159a13 13 0 0 0 6 1 32 32 0 0 0 16-5c14-8 14-15 14-18 0-19-35-49-69-70 8 69 23 87 32 92z m-136-22c0 3 0 10 14 18a32 32 0 0 0 16 5 13 13 0 0 0 6-1c9-5 25-23 33-92-35 21-69 51-70 70z m-60-103h104l-4-34h-116z" horiz-adv-x="1040" />

<glyph glyph-name="our-work" unicode="&#xe813;" d="M887 763h-734a17 17 0 0 1-17-17v-792a17 17 0 0 1 17-17h734a17 17 0 0 1 17 17v792a17 17 0 0 1-17 17z m-16-792h-701v758h701z m-628 382h543a17 17 0 0 1 16 17v285a17 17 0 0 1-16 17h-543a17 17 0 0 1-17-17v-285a17 17 0 0 1 17-17z m17 286h509v-252h-509z m-17-594h226a17 17 0 0 1 17 16v192a17 17 0 0 1-17 17h-226a17 17 0 0 1-17-17v-192a17 17 0 0 1 17-16z m17 192h192v-159h-192z m526 33h-226a17 17 0 0 1-17-16v-192a17 17 0 0 1 17-17h226a17 17 0 0 1 16 17v192a17 17 0 0 1-16 16z m-17-192h-193v159h193z m-322 397l-59 45 59 48a17 17 0 0 1-20 26l-77-61a17 17 0 0 1-6-14 17 17 0 0 1 7-13l76-58a17 17 0 0 1 10-3 17 17 0 0 1 10 30z m153 119a17 17 0 0 1-21-26l60-48-60-45a17 17 0 0 1 11-30 16 16 0 0 1 10 4l76 57a17 17 0 0 1 7 13 17 17 0 0 1-7 14z m-51 25a17 17 0 0 1-21-10l-61-183a17 17 0 0 1 10-21 16 16 0 0 1 6-1 17 17 0 0 1 16 11l61 183a17 17 0 0 1-11 21z" horiz-adv-x="1040" />

<glyph glyph-name="phone" unicode="&#xe814;" d="M537 843h-429a92 92 0 0 1-92-92v-798a92 92 0 0 1 92-92h429a92 92 0 0 1 92 92v798a92 92 0 0 1-92 92z m-337-46h245v-31h-245z m122-875a61 61 0 1 0 62 62 62 62 0 0 0-62-62z m246 184h-491v614h491z" horiz-adv-x="640" />

<glyph glyph-name="linkedin" unicode="&#xe815;" d="M990-140l0 0 0 0 0 361c0 175-39 312-244 312-100 0-165-54-192-105h-3v90h-195v-656h203v322c0 86 17 168 122 168 104 0 104-97 104-173v-319h205z m0 0m-966 656h205v-656h-205v656z m103 324c-66 0-117-53-117-117 0-66 53-119 117-119 66 0 117 53 117 119 0 66-51 117-117 117l0 0z m0 0" horiz-adv-x="1000" />

<glyph glyph-name="twitter" unicode="&#xe816;" d="M1182 688a191 191 0 0 0-48-6l0 5a366 366 0 0 1 96 100c4 11 0 15 0 15l-80-33-68-27h0a284 284 0 0 1-195 73c-140 0-254-90-254-200a275 275 0 0 1 10-76c0-6 0 6 0 0a853 853 0 0 0-308 83c-203 93-216 158-216 158-32-31-48-132-16-212a273 273 0 0 1 92-96h0a230 230 0 0 0-65 9 153 153 0 0 0-46 21c-20-44 20-122 88-178a378 378 0 0 1 113-54l-114-3c-6-99 234-159 234-159h0a416 416 0 0 0-238-78 495 495 0 0 0-131 17 661 661 0 0 1 424-138 696 696 0 0 1 680 679l0 0a292 292 0 0 1 63 46 405 405 0 0 1 69 84s-64-24-90-30z" horiz-adv-x="1297" />

<glyph glyph-name="youtube" unicode="&#xe817;" d="M665-120c-176 8-306 15-437 18a176 176 0 0 0-151 88 307 307 0 0 0-48 152 2487 2487 0 0 0 4 448 259 259 0 0 0 88 173 138 138 0 0 0 86 37c172 12 345 19 518 14 128-3 256-9 384-13a192 192 0 0 0 206-177c0-5 0-10 0-15a2394 2394 0 0 0 0-497 242 242 0 0 0-123-194 116 116 0 0 0-48-15c-175-8-350-15-480-19m-118 728v-521l390 260-390 261" horiz-adv-x="1364" />

<glyph glyph-name="ml" unicode="&#xe818;" d="M907 640c-1 1-2 3-4 5q-14 19-29 36c-3 4-6 7-9 10q-16 17-34 33c-2 2-4 4-6 6a501 501 0 0 1-95 64c-1 0-3 1-4 2a497 497 0 0 1-47 20c-3 2-6 3-10 4q-21 8-43 13c-4 1-8 3-13 4-14 3-28 5-43 8-4 0-9 1-13 2a470 470 0 0 1-113 0c-5-1-9-2-14-2-14-3-29-5-43-8-4-1-8-3-13-4q-22-5-43-13c-3-1-6-2-10-4a497 497 0 0 1-46-20c-2-1-3-2-4-2a501 501 0 0 1-96-64c-2-2-4-4-6-6a465 465 0 0 1-34-33c-3-3-6-6-8-10q-16-17-30-36c-1-2-3-4-4-5a8 8 0 0 1-1-1 497 497 0 0 1 0-578 8 8 0 0 1 1-1c1-1 3-3 4-5q14-19 30-36c2-4 5-7 8-10q16-17 34-33c2-2 4-4 6-6a501 501 0 0 1 95-64c2 0 3-1 4-2a497 497 0 0 1 47-20c3-2 7-3 10-4q21-8 43-13c4-2 9-3 13-4 14-3 28-6 43-8 5 0 9-1 13-2a470 470 0 0 1 114 0c4 1 8 2 13 2 14 2 29 5 43 8 4 1 9 2 13 4q22 5 43 13c3 1 7 2 10 4a497 497 0 0 1 47 20c1 1 2 2 4 2a501 501 0 0 1 95 64c2 2 4 4 6 6a455 455 0 0 1 34 33c3 3 6 6 8 10q16 17 30 36c1 2 3 4 4 5a8 8 0 0 1 1 1 497 497 0 0 1 0 578 8 8 0 0 1-1 1z m-40-511a642 642 0 0 1-174 59 667 667 0 0 1 20 126h214a425 425 0 0 0-60-185z m-46-62c-8-9-17-19-26-27-2-2-4-4-7-7q-13-12-27-23c-3-1-5-3-8-5q-14-11-30-20l-7-5q-16-9-33-17c-2-1-4-2-6-3q-18-8-37-15c-1 0-3-1-5-2-13-4-25-7-38-10-2-1-4-1-6-2-5-1-10-1-15-2a908 908 0 0 1 96 191 599 599 0 0 0 152-49c0-2-2-3-3-4z m-418-134a385 385 0 0 0-37 10c-2 1-4 2-6 2q-19 7-36 15c-2 1-4 2-7 3q-17 8-33 17l-7 5q-15 9-30 20c-3 2-5 3-8 5a327 327 0 0 0-27 23c-2 3-5 5-7 7-9 8-18 18-26 27-1 1-2 2-3 4a599 599 0 0 0 152 49 908 908 0 0 1 96-191c-5 1-10 1-15 2-2 1-4 1-6 2z m-330 381h214a667 667 0 0 1 20-126 642 642 0 0 1-173-59 425 425 0 0 0-61 185z m61 257a642 642 0 0 1 173-59 667 667 0 0 1-20-126h-214a425 425 0 0 0 61 185z m45 62c8 10 17 19 26 27 3 3 5 5 7 7q13 12 28 23c2 2 5 3 7 5q15 11 30 20l7 5q17 9 34 17c2 1 4 2 6 3q18 8 36 15c2 0 4 1 6 2 12 4 25 7 38 10 2 1 3 2 6 2 4 1 10 2 15 2a908 908 0 0 1-97-191 599 599 0 0 0-152 49c1 2 2 3 3 4z m418 134a384 384 0 0 0 38-10c2-1 4-2 5-2q19-7 37-15c2-1 4-2 6-3q17-8 33-17l7-5q16-9 30-20c3-2 5-3 8-5a327 327 0 0 0 27-23c3-2 5-4 7-7 9-8 18-17 27-27 1-1 2-2 3-3a599 599 0 0 0-153-49 908 908 0 0 1-96 190c5 0 10-1 15-2 2 0 4-1 6-2z m-97-560a1026 1026 0 0 1-122-7 595 595 0 0 0-19 114h283a596 596 0 0 0-20-114 1024 1024 0 0 1-122 7z m99-77a870 870 0 0 0-99-185 863 863 0 0 0-99 185 930 930 0 0 0 199 0z m-240 256a596 596 0 0 0 19 114 1024 1024 0 0 1 122-7 1026 1026 0 0 1 122 7 595 595 0 0 0 20-114z m141 178a953 953 0 0 0-99 6 870 870 0 0 0 99 185 863 863 0 0 0 100-185 946 946 0 0 0-100-6z m213-178a667 667 0 0 1-20 126 642 642 0 0 1 174 59 425 425 0 0 0 60-185z" horiz-adv-x="1000" />
</font>
</defs>
</svg>
