<svg xmlns="http://www.w3.org/2000/svg" viewBox="0 0 130 125"  fill="#4c2fbb" xmlns:v="https://vecta.io/nano"><path d="M107.65 34.69L89.59 20l-15.44 4.5c-.62-1.11-.75-4.87.52-7l4.73-8-7.52 5.4a25.09 25.09 0 0 0-8.56 10.37 23.15 23.15 0 0 1 1.2-11.22l1.84-4.46-4.42 2c-6.14 2.71-10.31 8.8-11.75 17.15-1.41 8.2 0 20.13 6.71 32.35l-21.8-.24h-1.66V61l-.4.06v2.3l-.12.74h.12v51.21H47.6l.09-1.83c0-.2 1.19-19.59 15.42-27.86a80.35 80.35 0 0 1 14 28.18l.34 1.52 12.5-.06h0l.28.2.46-.34a2 2 0 0 0 1-.75l.08-.13c.55-.74 1.36-3 2.6-12.32a152.83 152.83 0 0 0 1.46-21.83c-.17-8.11-1.43-13.37-3.85-16a68.83 68.83 0 0 0-1.62-13h11.41.13a9.16 9.16 0 0 0 7.82-6.09 6.38 6.38 0 0 0 .33-2v-3.2a6.46 6.46 0 0 0-2.4-5.11zm-19.24-8.16l7.82 6.36a30.77 30.77 0 0 0-15.79 7.75c0-.27 0-.53.07-.8.65-6.84 3.24-11.23 7.9-13.31zm-23.28 5.75a23.09 23.09 0 0 1 4.69-10.23 10.18 10.18 0 0 0 .72 3.81 4.11 4.11 0 0 0 2.88 2.63l.49.11 8.23-2.39c-7.55 7.52-5.64 21.35-4.81 25.67-.48-.49-1-1-1.4-1.49a54.08 54.08 0 0 1-10.8-18.11zM54 29.37c.85-5 2.79-8.95 5.58-11.63-1.16 8.21 1 20.87 12.48 34.1A80.71 80.71 0 0 0 88.38 66.4a2.61 2.61 0 0 1 .33.27l1.14 1.11c3.23 5.84 2 24.12.44 35.42l-.23-.76a60.1 60.1 0 0 0-16.81-27.07c-1.31-1.25-3.9-3.72-6.54-6.68C55 54.27 52.35 39 54 29.37zm-10 82.09h-7.1V65.82c8.82 3.4 16.54 9 23.5 16.91-12.85 7.97-15.77 23.39-16.4 28.73zm36.48 0c-1.88-6.65-10.77-33.32-36-46.65L58.8 65a59.15 59.15 0 0 0 4.93 6.21 75 75 0 0 0 6.73 7.26 57.48 57.48 0 0 1 15.87 25.03 45.92 45.92 0 0 1 1.55 7.92zm25.71-68.52a2.71 2.71 0 0 1-.13.82 5.24 5.24 0 0 1-4.6 3.55H85.12l.79 2.52A48.4 48.4 0 0 1 87.85 61a85 85 0 0 1-10-8.62c3.84-13.49 18.26-16.29 25.4-16.3l2 1.59h0a2.61 2.61 0 0 1 1 2zM20 72.14h11.11v-11H20zm3.87-7.08h3.41v3.2h-3.46z"/></svg>