<svg xmlns="http://www.w3.org/2000/svg" width="27" height="14.344" viewBox="0 0 27 14.344">
  <path id="Icon_ionic-ios-return-left" data-name="Icon ionic-ios-return-left" d="M4.957,18.661l4.191-4.177a.978.978,0,0,1,.7-.288.961.961,0,0,1,.7.288.985.985,0,0,1,0,1.392l-.007.007L7.643,18.7H26.016A3.5,3.5,0,0,0,28.5,17.67a3.461,3.461,0,0,0,1.034-2.482V11.813a.984.984,0,0,1,1.969,0v3.375a5.5,5.5,0,0,1-5.484,5.484H7.615L10.4,23.5a.978.978,0,0,1,.288.7.961.961,0,0,1-.288.7l-.007.007a1.017,1.017,0,0,1-.689.274.939.939,0,0,1-.7-.288l-4.05-4.036a1.553,1.553,0,0,1-.457-1.1A1.505,1.505,0,0,1,4.957,18.661Z" transform="translate(-4.5 -10.828)" fill="#fff"/>
</svg>
