<svg xmlns="http://www.w3.org/2000/svg" xmlns:xlink="http://www.w3.org/1999/xlink" width="74.553" height="275.682"  xmlns:v="https://vecta.io/nano"><defs><linearGradient id="A" x1="1" y1=".5" x2="0" y2=".5"><stop offset="0" stop-color="#ed883b"/><stop offset="1" stop-color="#a010a0"/></linearGradient><linearGradient id="B" xlink:href="#A" /></defs><path d="M44.362 101.57s-5.229 63.449 3.117 106.209c9.1 46.663-8.7 62.31-11.317 66.491" fill="none" stroke="#001a5d" stroke-miterlimit="10"/><path d="M41.397 96.346S13.064 86.439 1.234 46.234C-4.674 26.152 11.673 7.341 28.086 1.865c19.742-6.586 45.754 4.473 46.44 30.011.912 33.979-21.293 66.091-33.129 64.47z" fill="url(#A)"/><path d="M42.432 104.451c1.636-.529 3.3-.963 4.986-1.3a.77.77 0 0 0 .584-1.19l-4.574-5.985c-.213-.254-.547-.372-.872-.307h0c-.393.045-.705.351-.759.742l-.538 7.325a.83.83 0 0 0 1.173.715z" fill="url(#B)"/></svg>