<svg xmlns="http://www.w3.org/2000/svg" xmlns:xlink="http://www.w3.org/1999/xlink" width="1080.472" height="665.023"  xmlns:v="https://vecta.io/nano"><defs><linearGradient id="A" x1=".5" x2=".5" y2="1"><stop offset="0" stop-color="#4c2fbb"/><stop offset="1" stop-color="#a010a0"/></linearGradient><linearGradient id="B" x1=".489" y1=".997" x2=".51" y2=".149" xlink:href="#A" /><linearGradient id="C" x1=".426" y1=".904" x2=".63" y2=".075"><stop offset="0" stop-color="#4c2fbb"/><stop offset=".587" stop-color="#7d1dab"/><stop offset="1" stop-color="#a010a0"/></linearGradient><linearGradient id="D" x1=".484" y1="1.207" x2=".505" y2=".307" xlink:href="#C" /><linearGradient id="E" x1=".538" y1=".805" x2=".431" y2=".144" xlink:href="#C" /><linearGradient id="F" x1=".505" y1="1.117" x2=".485" y2=".283" xlink:href="#C" /><linearGradient id="G" x1=".467" y1=".977" x2=".541" y2=".07"><stop offset="0" stop-color="#4c2fbb"/><stop offset=".355" stop-color="#7d1dab"/><stop offset=".844" stop-color="#a010a0"/></linearGradient><linearGradient id="H" x1=".504" y1="1.075" x2=".489" y2=".424" xlink:href="#C" /></defs><path d="M556.349 135.166c-74.59-22.021-125.363-90.845-197.28-120.191-80.941-33.031-185.257-7.731-256.492 39.937C19.248 110.675-.92 209.953.032 294.075s104 193.885 182.3 229.469c183.633 83.444 449.566 148.773 643.7 140.822 193.13-7.909 221.907-119.727 243.278-201.152 46.411-176.806-57.761-283.087-203.942-326.616-103.422-30.797-206.876 28.725-309.019-1.432z" fill="url(#A)"/><path d="M619.804 153.684s-6.788-7.777 2.713-21.5c0 0-7.656 5.948-9.5 13.724 0 0 3.167-12.433-2.227-17.6 0 0-.073 9.5-5.033 15.026 0 0 .673-7.617-4.3-13.286 0 0 .38 13.906-4.132 25.071 0 .005 19.272 1.079 22.479-1.435z" fill="url(#B)"/><path d="M447.077 73.189s-4.922-5.641 1.969-15.595c0 0-5.553 4.314-6.891 9.953 0 0 2.3-9.017-1.617-12.761 0 0-.051 6.889-3.649 10.9.187-3.487-.924-6.92-3.119-9.637.026 5.605-.991 11.167-3 16.4 0 0 11.587 4.994 16.307.74z" fill="url(#C)"/><path d="M903.779 150.261s-2.441-9.01 2.221-14.635a10.37 10.37 0 0 0-6.127 7.3s.762-6.541-3.152-10.285a9.94 9.94 0 0 1-2.174 8.88s-.214-3.326-3.822-7.438c0 0 .171 6.823-3.661 16.649-.597 1.528 14.319 4.524 16.715-.471z" fill="url(#D)"/><path d="M113.273 53.577s-4.922-5.641 1.969-15.595c0 0-5.553 4.314-6.891 9.953 0 0 2.3-9.017-1.617-12.761 0 0-.051 6.889-3.649 10.9a14.13 14.13 0 0 0-3.119-9.635c0 0 .277 10.086-3 18.183.007-.001 13.982.78 16.307-1.045z" fill="url(#E)"/><path d="M576.172 153.826s9.5-6.936 0-19.814c0 0 9.383 9.577 9.5 12.878 0 0-3.167-11.667 2.229-16.511 0 0 .22 14.751 5.623 14.531 0 0 1.414-2.642 1.18-8.586 0 0 10.369 14.284 6.382 18.8-8.327.427-16.676-.008-24.914-1.298z" fill="url(#F)"/><path d="M284.519 130.104s-6.788-7.777 2.713-21.5c0 0-7.655 5.948-9.5 13.724 0 0 3.167-12.433-2.227-17.593 0 0-.073 9.5-5.033 15.026 0 0 .674-7.618-4.3-13.286 0 0 .379 13.906-4.132 25.069-.001-.002 19.272 1.076 22.479-1.44z" fill="url(#G)"/><path d="M240.886 130.247s9.5-6.934 0-19.814c0 0 9.383 9.577 9.5 12.88 0 0-3.167-11.669 2.229-16.513 0 0 .22 14.751 5.623 14.531 0 0 1.414-2.642 1.18-8.586 0 0 10.369 14.285 6.382 18.8a120.84 120.84 0 0 1-24.914-1.298z" fill="url(#H)"/></svg>