<svg xmlns="http://www.w3.org/2000/svg" viewBox="0 0 117 125"  fill="#4c2fbb" xmlns:v="https://vecta.io/nano"><path d="M85.88 94.81H37.66a2.2 2.2 0 0 0-1.56.65l-16.59 16.59V97.19a2.2 2.2 0 0 0-2.2-2.2H5.9V36.92h59.62l4.48-4.4H3.7a2.21 2.21 0 0 0-2.2 2.2v62.47a2.21 2.21 0 0 0 2.2 2.2h11.4v18a2.2 2.2 0 0 0 1.36 2 2.29 2.29 0 0 0 .84.17 2.2 2.2 0 0 0 1.56-.65l19.71-19.7h49.51a2.19 2.19 0 0 0 2.2-2.2V48.37l-4.4 4.26z"/><path d="M46.92 74.2l9-21.78 15.84-15.5h-6.24L52.57 49.59a2 2 0 0 0-.49.73L40.67 77.79a2.2 2.2 0 0 0 2 3 2.09 2.09 0 0 0 .94-.22L69.3 68.49a2.56 2.56 0 0 0 .59-.4l16-15.46v-6.12l-18.8 18.16zm67.97-52.65L100.2 6.12a2.21 2.21 0 0 0-1.56-.69 2.3 2.3 0 0 0-1.58.63L70 32.52h6.3l22.25-21.75L110.2 23 90.28 42.25v6.12l24.55-23.72a2.19 2.19 0 0 0 .06-3.1z"/><path d="M85.88 46.51v6.12l4.4-4.26v-6.12l-4.4 4.26zm-14.07-9.59l4.5-4.4h-6.3l-4.49 4.4h6.29zM68 67.32a2.21 2.21 0 0 1-1.56-.65L53.29 53.53a2.203 2.203 0 1 1 3.12-3.11l13.13 13.14A2.21 2.21 0 0 1 68 67.32zM42.22 81.57H23.64a2.2 2.2 0 0 1 0-4.4h18.58a2.2 2.2 0 0 1 0 4.4zm64.12-50.42a2.18 2.18 0 0 1-1.55-.64L91.65 17.37a2.2 2.2 0 0 1 3.11-3.11L107.9 27.4a2.2 2.2 0 0 1-1.56 3.75z"/></svg>