<svg xmlns="http://www.w3.org/2000/svg" width="12.0" height="12.0" viewBox="0 0 14.332 14.332">
  <g id="Icon_ionic-md-close-circle-outline" data-name="Icon ionic-md-close-circle-outline" transform="translate(-3.375 -3.375)">
    <path id="Path_1200" data-name="Path 1200" d="M10.541,4.822A5.717,5.717,0,1,1,6.5,6.5a5.7,5.7,0,0,1,4.045-1.674m0-1.447a7.166,7.166,0,1,0,7.166,7.166,7.165,7.165,0,0,0-7.166-7.166Z" fill="#a010a0"/>
    <path id="Path_1201" data-name="Path 1201" d="M17.854,16.851l-1,1-2.58-2.58-2.58,2.58-1-1,2.58-2.58-2.58-2.58,1-1,2.58,2.58,2.58-2.58,1,1-2.58,2.58Z" transform="translate(-3.729 -3.729)" fill="#a010a0"/>
  </g>
</svg>
