<svg xmlns="http://www.w3.org/2000/svg" viewBox="0 0 240.43 124.71"  xmlns:v="https://vecta.io/nano"><defs><linearGradient id="A" x1="96.66" y1="-264.43" x2="135.23" y2="229.28" gradientUnits="userSpaceOnUse"><stop offset=".01" stop-color="#60daff"/><stop offset=".09" stop-color="#60d4ff"/><stop offset=".21" stop-color="#5ec3ff"/><stop offset=".35" stop-color="#5da8ff"/><stop offset=".49" stop-color="#5a81ff"/><stop offset=".65" stop-color="#5750ff"/><stop offset=".68" stop-color="#5643ff"/><stop offset=".74" stop-color="#563ef8"/><stop offset=".83" stop-color="#552ee5"/><stop offset=".93" stop-color="#5316c6"/><stop offset="1" stop-color="#5200aa"/></linearGradient></defs><path d="M188.36 36.43c-19-13.1-28.78 3.83-44.13-3.79-6.6-3.27-8.67-23.93-37.2-20.25C89.6 14.64 95.56 37.7 81.86 41.58c-11.26 3.19-20.57-15.88-37-9C17 44.1 35.12 67.39 30.94 78.86c-2.05 5.61-16.85 13.42-10.66 21.82 8.65 11.75 43.18 7.76 57.75 8.45 22.43 1.07 67.35-2.52 89.71-4.53 14.87-1.34 46.1-.54 59.21-7.67 7.88-4.29 1.67-32-17.36-33.43-17.01-1.28-2.03-13.83-21.23-27.07z" fill="url(#A)" opacity=".67"/></svg>