<svg xmlns="http://www.w3.org/2000/svg" viewBox="0 0 385.09 180"  xmlns:v="https://vecta.io/nano"><defs><linearGradient id="A" x1="176.06" y1="-216.28" x2="214.63" y2="277.43" gradientUnits="userSpaceOnUse"><stop offset=".01" stop-color="#60daff"/><stop offset=".09" stop-color="#60d4ff"/><stop offset=".21" stop-color="#5ec3ff"/><stop offset=".35" stop-color="#5da8ff"/><stop offset=".49" stop-color="#5a81ff"/><stop offset=".65" stop-color="#5750ff"/><stop offset=".68" stop-color="#5643ff"/><stop offset=".74" stop-color="#563ef8"/><stop offset=".83" stop-color="#552ee5"/><stop offset=".93" stop-color="#5316c6"/><stop offset="1" stop-color="#5200aa"/></linearGradient></defs><path d="M74.18 100.15C116 94.61 128.2 58.27 145 52.37c22.06-7.77 41.31 10.38 48.59 4.14 6.79-5.83 8.19-32 28.48-36.64 33.06-7.59 46.49 21.23 55.28 22.13 8.4.89 23.55-14.32 38.64-9.4 44.06 14.4 19.38 55.51 27.53 56.55 7.83 1 23.65 4 28 10.54 6 9.07-.75 27.53-8.64 35.05-11.15 10.64-45 10.66-60 14.17-17.71 4.15-52.72 15.42-70.88 16.43-27.61 1.53-84.4-5.21-111.87-8.44-18.74-2.2-59-5.11-77.46-9.09-13.52-2.93-27.99-39.76 31.51-47.66z" fill="url(#A)" opacity=".67"/></svg>