<svg xmlns="http://www.w3.org/2000/svg" xmlns:xlink="http://www.w3.org/1999/xlink" viewBox="0 0 759.86 708.71" xmlns:v="https://vecta.io/nano"><style>.A{isolation:isolate}.B,.C{mix-blend-mode:screen}.T,.e,.t,.AD{mix-blend-mode:color-dodge}</style><defs><linearGradient id="A" x1="75.69" y1="402.98" x2="710.85" y2="402.98" xlink:href="#a"><stop offset="0" stop-color="#2f054a"/><stop offset="1" stop-color="#5824b0"/></linearGradient><linearGradient id="B" x1="159.2" y1="400.24" x2="794.35" y2="400.24" xlink:href="#a"><stop offset=".06" stop-color="#2f0d5e"/><stop offset=".28" stop-color="#2f105f"/><stop offset=".47" stop-color="#311b61"/><stop offset=".48" stop-color="#351f65"/><stop offset=".5" stop-color="#422c73"/><stop offset=".51" stop-color="#584188"/><stop offset=".52" stop-color="#765fa7"/><stop offset=".53" stop-color="#8770b8"/><stop offset=".54" stop-color="#7e67ae"/><stop offset=".56" stop-color="#5c468d"/><stop offset=".59" stop-color="#442e75"/><stop offset=".61" stop-color="#362066"/><stop offset=".63" stop-color="#311b61"/><stop offset=".67" stop-color="#2a1155"/><stop offset=".75" stop-color="#230446"/><stop offset=".81" stop-color="#200041"/></linearGradient><linearGradient id="C" x1="75.69" y1="386.55" x2="710.85" y2="386.55" xlink:href="#a"><stop offset="0" stop-color="#58098a"/><stop offset="1" stop-color="#9e3bdb"/></linearGradient><radialGradient id="D" cx="325.19" cy="456.8" r="241.42" gradientTransform="matrix(-1, 0, 0, 1, 760.97, 0)" xlink:href="#a"><stop offset="0" stop-color="#fff"/><stop offset="1"/></radialGradient><linearGradient id="E" x1="82.04" y1="386.55" x2="704.5" y2="386.55" xlink:href="#a"><stop offset="0" stop-color="#2f054a"/><stop offset="1" stop-color="#5e1d9a"/></linearGradient><linearGradient id="F" x1="361.58" y1="228.16" x2="471.82" y2="779.37" xlink:href="#a"><stop offset="0" stop-color="#861eb2"/><stop offset=".43" stop-color="#5f27bd"/><stop offset=".9" stop-color="#3d065f"/></linearGradient><linearGradient id="G" x1="7103.55" y1="-418.86" x2="7134.15" y2="-418.86" gradientTransform="matrix(0.87, 0.5, 0.5, 1.44, -5800.34, -2569.09)" xlink:href="#a"><stop offset="0" stop-color="#3d065f"/><stop offset="1" stop-color="#5f27bd"/></linearGradient><linearGradient id="H" x1="7103.55" y1="-418.86" x2="7134.15" y2="-418.86" gradientTransform="matrix(0.87, 0.5, 0.5, 1.44, -5800.34, -2569.09)" xlink:href="#A"/><linearGradient id="I" x1="7070.21" y1="-328.16" x2="7057.55" y2="-304.54" gradientTransform="matrix(0.87, 0.5, 0.5, 1.44, -5800.34, -2569.09)" xlink:href="#a"><stop offset=".06" stop-color="#9f79b8"/><stop offset=".26" stop-color="#a17bba"/><stop offset=".36" stop-color="#a783bf"/><stop offset=".43" stop-color="#b290c9"/><stop offset=".49" stop-color="#c1a1d5"/><stop offset=".51" stop-color="#c4a5d7"/><stop offset=".52" stop-color="#cdb3dd"/><stop offset=".53" stop-color="#dbc8e7"/><stop offset=".55" stop-color="#efe7f4"/><stop offset=".56" stop-color="#fff"/><stop offset=".57" stop-color="#ece0f3"/><stop offset=".58" stop-color="#ddc8ea"/><stop offset=".59" stop-color="#d4b9e5"/><stop offset=".6" stop-color="#d1b4e3"/><stop offset=".66" stop-color="#b395d6"/><stop offset=".72" stop-color="#9c7dcb"/><stop offset=".77" stop-color="#8e6ec5"/><stop offset=".81" stop-color="#8969c3"/><stop offset="1" stop-color="#b086cc"/></linearGradient><linearGradient id="J" x1="7139.45" x2="7170.06" xlink:href="#G"/><linearGradient id="K" x1="7139.45" y1="-418.86" x2="7170.06" y2="-418.86" gradientTransform="matrix(0.87, 0.5, 0.5, 1.44, -5800.34, -2569.09)" xlink:href="#A"/><linearGradient id="L" x1="7098.1" y1="-313.21" x2="7085.43" y2="-289.59" xlink:href="#I"/><linearGradient id="M" x1="573.32" y1="412.76" x2="448.48" y2="481.39" xlink:href="#a"><stop offset=".04" stop-color="#ffa98c"/><stop offset=".16" stop-color="#f89a90"/><stop offset=".41" stop-color="#e4719c"/><stop offset=".75" stop-color="#c430af"/><stop offset=".98" stop-color="#ad00bd"/></linearGradient><radialGradient id="N" cx="263.94" cy="458.39" r="49.61" xlink:href="#D"/><linearGradient id="O" x1="-3498.04" y1="1979.99" x2="-3321.26" y2="1979.99" gradientTransform="matrix(-0.87, 0.5, 1, 0.58, -4632.2, 905.34)" xlink:href="#a"><stop offset="0" stop-color="#25054d"/><stop offset="1" stop-color="#45108a"/></linearGradient><linearGradient id="P" x1="-3498.03" y1="1846.64" x2="-3264.63" y2="1846.64" gradientTransform="matrix(-0.87, 0.5, 1, 0.58, -4632.2, 905.34)" xlink:href="#a"><stop offset=".04" stop-color="#9f19ab"/><stop offset=".24" stop-color="#ae25b1"/><stop offset=".65" stop-color="#d744bf"/><stop offset="1" stop-color="#ff63ce"/></linearGradient><linearGradient id="Q" x1="-5117.21" y1="2093.64" x2="-5048.31" y2="2093.64" gradientTransform="matrix(-0.87, 0.5, 1.5, 0.29, -7163.47, 2366.55)" xlink:href="#P"/><linearGradient id="R" x1="-3484.08" y1="2093.38" x2="-3417.85" y2="2093.38" xlink:href="#P"/><linearGradient id="S" x1="-3497.2" y1="1846.33" x2="-3419.81" y2="1846.33" gradientTransform="matrix(-0.87, 0.5, 1, 0.58, -4632.2, 905.34)" xlink:href="#a"><stop offset=".04" stop-color="#9d9eb3"/><stop offset=".58" stop-color="#d4d1d8"/><stop offset="1" stop-color="#eeebf2"/></linearGradient><radialGradient id="T" cx="502.07" cy="365.21" r="172.71" xlink:href="#D"/><linearGradient id="U" x1="-3542.65" y1="1940.2" x2="-3369.45" y2="1940.2" gradientTransform="matrix(-0.87, 0.5, 1, 0.58, -4656.54, 915.62)" xlink:href="#a"><stop offset=".04" stop-color="#6b24d6"/><stop offset=".29" stop-color="#7733dc"/><stop offset=".79" stop-color="#975ced"/><stop offset="1" stop-color="#a56ef4"/></linearGradient><path id="V" d="M163.86 396l-17.42-10c-2.17-1.26-3.93-4.63-3.93-7.52h0c0-2.9 1.76-4.23 3.93-3l17.42 10.06c2.17 1.25 3.93 4.62 3.93 7.52h0c0 2.88-1.79 4.22-3.93 2.94z"/><path id="W" d="M195 414l-17.42-10.05c-2.17-1.26-3.93-4.62-3.93-7.52h0c0-2.9 1.76-4.23 3.93-3L195 403.48c2.17 1.25 3.93 4.62 3.93 7.52h0c-.05 2.89-1.81 4.23-3.93 3z"/><path id="X" d="M197.56 307.61l49.98-28.86-2.03-1.17-49.98 28.86 2.03 1.17z"/><path id="Y" d="M209.55 314.35l33.61-19.41-2.03-1.17-33.61 19.41 2.03 1.17z"/><path id="Z" d="M246.78 339.98l49.99-28.86-2.03-1.17-49.99 28.86 2.03 1.17z"/><linearGradient id="a" gradientUnits="userSpaceOnUse"/></defs><g class="A"><g><g fill="#45108a"><path class="B" d="M126.9 409.55l-3.73-2.19a1.08 1.08 0 1 1 1.1-1.86l3.73 2.19a1.08 1.08 0 0 1-.55 2 1 1 0 0 1-.55-.14zm-7.45-4.38l-3.73-2.2a1.08 1.08 0 1 1 1.1-1.86l3.73 2.19a1.09 1.09 0 0 1 .38 1.48 1.07 1.07 0 0 1-.93.54 1.08 1.08 0 0 1-.55-.15zm-7.45-4.39l-3.73-2.2a1.08 1.08 0 1 1 1.1-1.86l3.73 2.19a1.09 1.09 0 0 1 .38 1.48 1.07 1.07 0 0 1-.93.54 1.08 1.08 0 0 1-.55-.15zm-7.45-4.39l-3.73-2.2a1.08 1.08 0 1 1 1.1-1.86l3.73 2.2a1.08 1.08 0 0 1-1.1 1.86zM97.1 392l-3.73-2.19a1.085 1.085 0 0 1 1.1-1.87l3.73 2.2a1.08 1.08 0 0 1-1.1 1.86zm-7.45-4.39l-3.73-2.19a1.085 1.085 0 0 1 1.1-1.87l3.73 2.2a1.08 1.08 0 0 1-1.1 1.86zm-7.45-4.39L78.47 381a1.09 1.09 0 0 1-.38-1.48 1.07 1.07 0 0 1 1.48-.38l3.73 2.19a1.08 1.08 0 0 1-1.1 1.86zm-7.45-4.39L71 376.64a1.09 1.09 0 0 1-.38-1.48 1.07 1.07 0 0 1 1.48-.38l3.75 2.22a1.08 1.08 0 0 1-1.1 1.86zm-7.45-4.39l-3.73-2.19a1.08 1.08 0 0 1-.38-1.48 1.07 1.07 0 0 1 1.48-.38l3.73 2.19a1.08 1.08 0 0 1-1.1 1.86zm-7.45-4.39l-3.73-2.19a1.08 1.08 0 0 1-.38-1.48 1.07 1.07 0 0 1 1.48-.38l3.78 2.19a1.08 1.08 0 0 1-.55 2 1 1 0 0 1-.6-.14zm-7.45-4.38l-3.73-2.2a1.08 1.08 0 1 1 1.1-1.86l3.72 2.19a1.08 1.08 0 0 1 .39 1.48 1.07 1.07 0 0 1-.93.54 1.08 1.08 0 0 1-.55-.15zm-7.4-4.39l-3.73-2.2a1.08 1.08 0 1 1 1.1-1.86l3.73 2.19a1.09 1.09 0 0 1 .38 1.48 1.07 1.07 0 0 1-.93.54 1.08 1.08 0 0 1-.55-.15zm-7.45-4.39l-3.73-2.2a1.08 1.08 0 1 1 1.1-1.86L38.6 355a1.08 1.08 0 0 1-1.1 1.86zm-6.25-6.31v-4.33a1.08 1.08 0 0 1 2.16 0v4.33a1.08 1.08 0 1 1-2.16 0zm0-8.65v-4.32a1.08 1.08 0 1 1 2.16 0v4.32a1.08 1.08 0 0 1-2.16 0zm0-8.65V329a1.08 1.08 0 0 1 2.16 0v4.32a1.08 1.08 0 1 1-2.16 0zm0-8.65v-4.32a1.08 1.08 0 0 1 2.16 0v4.32a1.08 1.08 0 1 1-2.16 0zm0-8.64v-4.33a1.08 1.08 0 0 1 2.16 0V316a1.08 1.08 0 0 1-2.16 0zm0-8.65V303a1.08 1.08 0 0 1 2.16 0v4.32a1.08 1.08 0 0 1-2.16 0zm0-8.65v-4.32a1.08 1.08 0 0 1 2.16 0v4.32a1.08 1.08 0 1 1-2.16 0zm0-8.64v-4.33a1.08 1.08 0 0 1 2.16 0v4.33a1.08 1.08 0 0 1-2.16 0zm0-8.65v-1.35a1.08 1.08 0 0 1 .54-.93l2.57-1.5a1.082 1.082 0 1 1 1.09 1.87l-2 1.18v.73a1.08 1.08 0 1 1-2.16 0zm6.46-4.47a1.08 1.08 0 0 1 .39-1.48l3.74-2.17a1.08 1.08 0 1 1 1.08 1.87l-3.73 2.17a1.07 1.07 0 0 1-1.48-.39zm7.48-4.35a1.07 1.07 0 0 1 .39-1.47l3.74-2.18a1.08 1.08 0 0 1 1.08 1.87l-3.79 2.2a1 1 0 0 1-.54.14 1.07 1.07 0 0 1-.93-.56zm7.47-4.34a1.08 1.08 0 0 1 .4-1.48l3.73-2.17a1.082 1.082 0 1 1 1.09 1.87l-3.74 2.17a1.07 1.07 0 0 1-1.48-.39zm7.48-4.34a1.09 1.09 0 0 1 .39-1.48l3.74-2.17a1.08 1.08 0 1 1 1.08 1.87l-3.73 2.17a1.08 1.08 0 0 1-.54.15 1.09 1.09 0 0 1-.99-.54zm7.48-4.35a1.07 1.07 0 0 1 .39-1.47l3.74-2.18a1.08 1.08 0 0 1 1.08 1.87L69.09 260a1.14 1.14 0 0 1-.54.14 1.07 1.07 0 0 1-.93-.59zm7.47-4.34a1.08 1.08 0 0 1 .4-1.48l3.73-2.17a1.082 1.082 0 0 1 1.09 1.87l-3.74 2.17a1.08 1.08 0 0 1-.54.15 1.1 1.1 0 0 1-.99-.54zm7.48-4.34a1.09 1.09 0 0 1 .39-1.48l3.74-2.17a1.082 1.082 0 0 1 1.09 1.87l-3.74 2.17a1.06 1.06 0 0 1-.54.14 1.08 1.08 0 0 1-.99-.53zm7.48-4.35a1.08 1.08 0 0 1 .39-1.48l3.74-2.17a1.08 1.08 0 0 1 1.08 1.87l-3.74 2.17a1 1 0 0 1-.54.15 1.07 1.07 0 0 1-.98-.54zm7.47-4.34a1.08 1.08 0 0 1 .4-1.48l3.73-2.17a1.082 1.082 0 0 1 1.09 1.87L99 242.57a1.07 1.07 0 0 1-1.48-.39zm7.48-4.35a1.08 1.08 0 0 1 .39-1.47l3.74-2.18a1.082 1.082 0 0 1 1.09 1.87l-3.74 2.18a1.1 1.1 0 0 1-1.48-.4zm7.48-4.34a1.08 1.08 0 0 1 .39-1.48l3.74-2.17a1.08 1.08 0 0 1 1.08 1.87l-3.74 2.17a1 1 0 0 1-.54.15 1.07 1.07 0 0 1-.98-.54zm7.47-4.34a1.08 1.08 0 0 1 .4-1.48l3.73-2.17a1.082 1.082 0 0 1 1.09 1.87l-3.74 2.17a1.08 1.08 0 0 1-.54.15 1.1 1.1 0 0 1-.94-.54zm7.48-4.35a1.08 1.08 0 0 1 .39-1.47l3.74-2.17a1.08 1.08 0 0 1 1.48.39 1.09 1.09 0 0 1-.39 1.48l-3.74 2.17a1.17 1.17 0 0 1-.54.14 1.07 1.07 0 0 1-.99-.54zm7.48-4.34a1.08 1.08 0 0 1 .39-1.48l3.74-2.17a1.07 1.07 0 0 1 1.47.39 1.08 1.08 0 0 1-.39 1.48l-3.73 2.17a1.11 1.11 0 0 1-.55.15 1.07 1.07 0 0 1-.98-.54zm7.47-4.34a1.08 1.08 0 0 1 .4-1.48l3.73-2.17a1.082 1.082 0 1 1 1.09 1.87l-3.74 2.17a1.06 1.06 0 0 1-.54.14 1.09 1.09 0 0 1-.99-.53zm7.48-4.35a1.08 1.08 0 0 1 .39-1.47l3.74-2.18a1.082 1.082 0 0 1 1.09 1.87l-3.74 2.18a1.1 1.1 0 0 1-1.48-.4zm7.48-4.34a1.08 1.08 0 0 1 .39-1.48l3.74-2.17a1.08 1.08 0 1 1 1.08 1.87l-3.73 2.17a1.11 1.11 0 0 1-.55.15 1.07 1.07 0 0 1-.98-.54zm7.47-4.34a1.08 1.08 0 0 1 .4-1.48l3.73-2.17a1.082 1.082 0 0 1 1.09 1.87l-3.74 2.17a1.06 1.06 0 0 1-.54.14 1.09 1.09 0 0 1-.99-.53zm523.35 216.4a1.08 1.08 0 0 1-.55-2l3.73-2.19a1.07 1.07 0 0 1 1.48.38 1.09 1.09 0 0 1-.38 1.48l-3.73 2.19a1.08 1.08 0 0 1-.55.14zm7.45-4.39a1.08 1.08 0 0 1-.55-2l3.73-2.19a1.07 1.07 0 0 1 1.48.38 1.09 1.09 0 0 1-.38 1.48l-3.73 2.23a1.08 1.08 0 0 1-.55.1zm7.45-4.39a1.08 1.08 0 0 1-.55-2l3.73-2.19a1.07 1.07 0 0 1 1.48.38 1.09 1.09 0 0 1-.38 1.48l-3.73 2.19a1.08 1.08 0 0 1-.55.14zm7.45-4.39a1.08 1.08 0 0 1-.55-2l3.73-2.19a1.08 1.08 0 0 1 1.1 1.86l-3.73 2.19a1 1 0 0 1-.55.14zm7.45-4.39a1.08 1.08 0 0 1-.93-.53 1.09 1.09 0 0 1 .38-1.48l3.73-2.19a1.08 1.08 0 1 1 1.1 1.86l-3.73 2.19a1 1 0 0 1-.56.15zm5.72-5.38a1.08 1.08 0 0 1-1.09-1.08v-4.32a1.09 1.09 0 0 1 2.17 0v4.32a1.08 1.08 0 0 1-1.08 1.08zm0-8.64a1.09 1.09 0 0 1-1.09-1.08v-4.33a1.09 1.09 0 0 1 2.17 0v4.33a1.09 1.09 0 0 1-1.08 1.08zm0-8.65a1.08 1.08 0 0 1-1.09-1.08v-4.32a1.09 1.09 0 1 1 2.17 0v4.32a1.08 1.08 0 0 1-1.08 1.08zm0-8.65a1.08 1.08 0 0 1-1.09-1.08v-4.32a1.09 1.09 0 0 1 2.17 0v4.32a1.08 1.08 0 0 1-1.08 1.08zm0-8.64a1.09 1.09 0 0 1-1.09-1.08v-4.33a1.09 1.09 0 0 1 2.17 0v4.33a1.09 1.09 0 0 1-1.08 1.11zm0-8.65a1.08 1.08 0 0 1-1.09-1.08v-4.33a1.09 1.09 0 0 1 2.17 0v4.33a1.08 1.08 0 0 1-1.08 1.08zm0-8.65a1.08 1.08 0 0 1-1.09-1.08v-5l-2-1.18a1.08 1.08 0 0 1 1.08-1.87l2.58 1.49a1.1 1.1 0 0 1 .54.94v5.67a1.08 1.08 0 0 1-1.11 1.03zm-6.31-9.34a1.07 1.07 0 0 1-.55-.14l-3.74-2.19a1.09 1.09 0 0 1 1.09-1.88l3.74 2.18a1.08 1.08 0 0 1-.54 2zm-7.48-4.33a1 1 0 0 1-.54-.15l-3.74-2.17a1.08 1.08 0 1 1 1.08-1.87l3.74 2.17a1.08 1.08 0 0 1 .39 1.48 1.07 1.07 0 0 1-.93.54zm-7.48-4.34a1 1 0 0 1-.54-.15l-3.74-2.17a1.08 1.08 0 0 1 1.08-1.87l3.74 2.17a1.08 1.08 0 0 1 .4 1.48 1.1 1.1 0 0 1-.94.53z"/></g><g class="C" fill="#45108a"><path d="M228.89 429.36L288.32 395l59.55 34.39-59.43 34.31-59.55-34.38zm-4.45 0l64 36.94 63.88-36.88-64-36.94-63.89 36.88zm72.97 41.84l63.64-36.74-2.59-1.49-63.64 36.74 2.59 1.49zm7.38 4.27l63.64-36.74-2.58-1.5-63.64 36.75 2.58 1.49zm37.22-12.83l33.93-19.58-2.59-1.49-33.92 19.58 2.58 1.49zM146.43 477l59.43-34.31L265.41 477 206 511.35 146.43 477zm-4.43 0l64 36.94L269.85 477l-64-36.94L142 477zm72.95 41.81l63.64-36.74-2.59-1.49-63.63 36.74 2.58 1.49zm7.38 4.27l63.64-36.75-2.58-1.49-63.64 36.74 2.58 1.5zm37.22-12.83l33.93-19.58-2.59-1.49-33.92 19.58 2.58 1.49zm80.07-16.96L399.05 459l59.56 34.38-59.43 34.31-59.56-34.38zm-4.44 0l64 36.94 63.89-36.89-64-36.94-63.89 36.9zm72.97 41.85l63.64-36.74-2.59-1.5-63.64 36.75 2.59 1.49zm7.38 4.26l63.64-36.74-2.59-1.49-63.64 36.74 2.59 1.49zm37.22-12.82l33.92-19.59-2.58-1.49-33.92 19.59 2.58 1.49zM257.16 540.9l59.43-34.31L376.15 541l-59.43 34.31-59.56-34.41zm-4.44 0l64 36.94L380.59 541l-64-36.94-63.89 36.89zm72.97 41.85L389.33 546l-2.59-1.49-63.64 36.75 2.59 1.49zm7.38 4.26l63.64-36.74-2.58-1.5-63.65 36.75 2.59 1.49zm37.22-12.82l33.92-19.59-2.58-1.49-33.93 19.59 2.59 1.49zm80.56-16.68l59.43-34.31 59.56 34.38-59.43 34.31-59.56-34.38zm-4.44 0l64 36.94 63.89-36.89-64-36.94-63.89 36.89zm72.97 41.85l63.64-36.74-2.59-1.5-63.64 36.75 2.59 1.49zm7.38 4.26l63.64-36.74-2.59-1.5-63.64 36.75 2.59 1.49zm37.22-12.82l33.92-19.59-2.58-1.49-33.93 19.58 2.59 1.5zm-195.59 14.32l59.43-34.32 59.56 34.39L428 639.5l-59.56-34.38zm-4.44 0l64 36.94 63.89-36.89-64-36.94-63.84 36.9zm72.97 41.85l63.64-36.75-2.59-1.49-63.64 36.74 2.59 1.5zm7.38 4.26l63.64-36.74-2.59-1.5-63.64 36.75 2.59 1.49zm37.22-12.83l33.92-19.58-2.58-1.49-33.92 19.58 2.58 1.49zM119.38 439.87a3.56 3.56 0 0 0-3.24 0l-21.76 12.57c-.9.52-.91 1.35 0 1.87a3.59 3.59 0 0 0 3.24 0l21.76-12.56c.89-.53.89-1.37 0-1.88zm-19.56 17.59a3.61 3.61 0 0 0 3.25 0l21.76-12.56c.9-.52.9-1.36 0-1.87a3.58 3.58 0 0 0-3.25 0l-21.75 12.56a1 1 0 0 0-.01 1.87zm5.46 3.15a3.56 3.56 0 0 0 3.24 0L130.28 448c.9-.52.91-1.36 0-1.87a3.56 3.56 0 0 0-3.24 0l-21.76 12.57a1 1 0 0 0 0 1.91zM443.91 678L77.74 466.61c-10.18-5.87-10.13-15.46.11-21.37l155.51-89.79c10.24-5.91 26.85-5.94 37-.06l366.17 211.4c10.18 5.88 10.12 15.47-.12 21.38L480.93 678c-10.24 5.87-26.85 5.9-37.02 0zM79.33 446.09c-9.42 5.44-9.47 14.26-.11 19.67l366.17 211.4c9.36 5.41 24.65 5.38 34.07-.06L635 587.32c9.42-5.44 9.47-14.26.1-19.67L268.9 356.24c-9.36-5.4-24.64-5.37-34.06.06zm166.35-69.88c0 .67.93 1.21 2.09 1.2s2.09-.54 2.1-1.21-.93-1.21-2.09-1.2-2.1.54-2.1 1.21zm3.19-9.68h.35v1.21h-.34c-8.67 0-15.74 4.1-15.76 9.1h0H231c0-5.67 8.06-10.29 17.87-10.31zm-.02 4.84h.34v1.21h-.34c-4 0-7.34 1.91-7.36 4.24h-2.09c.01-3 4.25-5.44 9.45-5.45zm.01-2.37h.34v1.21h-.35c-6.35 0-11.53 3-11.55 6.67h0-2.1 0c.02-4.38 6.15-7.88 13.66-7.88zm-98.31 64.67l62.77-36.24-4.06-2.35-62.77 36.24 4.06 2.35z"/></g><g opacity=".2"><path d="M498.13 649.16c-10.83 0-20.67-2.37-28.43-6.86l-396.19-228c-10.37-6-16.32-15.46-16.32-26 0-11.55 7.16-22.3 19.65-29.51l170.89-98.69c9.81-5.66 22.07-8.78 34.53-8.78 10.84 0 20.67 2.37 28.44 6.86l396.19 228c10.36 6 16.31 15.46 16.31 26 0 11.54-7.16 22.29-19.64 29.5l-170.9 98.67c-9.8 5.65-22.07 8.81-34.53 8.81z" opacity="0"/><path d="M310.38 258.86l396.19 228c10 5.75 15.6 14.79 15.55 24.8 0 10.93-6.9 21.17-18.88 28.09L540.06 634l-8.58 4.82a68.15 68.15 0 0 1-34.75 7.79 61.08 61.08 0 0 1-28-7.49L74.7 412.33c-10-5.75-15.61-14.79-15.56-24.8 0-10.93 6.91-21.17 18.89-28.08l169.87-98.08a70.81 70.81 0 0 1 12.61-5.61 73.49 73.49 0 0 1 21.58-3.52c10.74-.1 20.6 2.17 28.29 6.62z" opacity=".09"/><path d="M310.06 259.54l396.19 228c9.55 5.51 14.89 14.11 14.8 23.59-.1 10.34-6.65 20.05-18.13 26.68L539 632.51c-.52.31-8.05 4.56-8.66 4.75a66.25 66.25 0 0 1-35 6.8c-8.87 0-21.29-4.46-27.64-8.13L75.88 410.4c-9.55-5.51-14.89-14.11-14.79-23.6.1-10.33 6.65-20.05 18.13-26.67l168.84-97.48a80.93 80.93 0 0 1 12.48-5.7 73 73 0 0 1 21.37-3.79c10.66-.16 20.53 1.98 28.15 6.38z" opacity=".18"/><path d="M309.74 260.22l396.19 228c9.15 5.28 14.18 13.44 14 22.4-.15 9.73-6.4 18.93-17.37 25.26L537.88 631c-.79.46-7.83 4.39-8.75 4.67a64.25 64.25 0 0 1-35.19 5.81c-7.88 0-21.59-5.51-27.24-8.77L77.07 408.47c-9.14-5.28-14.18-13.43-14-22.4.15-9.73 6.39-18.92 17.37-25.26l167.81-96.89a95.65 95.65 0 0 1 12.35-5.79 72.66 72.66 0 0 1 21.17-4c10.54-.36 20.42 1.73 27.97 6.09z" opacity=".27"/><path d="M309.43 260.91L705.61 489c8.74 5.05 13.47 12.76 13.28 21.21-.2 9.12-6.14 17.8-16.61 23.84l-165.49 95.5c-1 .61-7.61 4.22-8.84 4.6a62.12 62.12 0 0 1-35.4 4.8c-6.9 0-21.91-6.54-26.85-9.39l-387.44-223c-8.73-5.06-13.47-12.78-13.26-21.22.19-9.13 6.14-17.8 16.61-23.85l166.79-96.3a112.66 112.66 0 0 1 12.21-5.87 72.26 72.26 0 0 1 21-4.32c10.44-.42 20.39 1.59 27.82 5.91z" opacity=".36"/><path d="M309.11 261.59l396.19 228c8.33 4.81 12.75 12.09 12.51 20-.24 8.53-5.88 16.68-15.84 22.44l-166.27 96a93.31 93.31 0 0 1-8.93 4.52c-11.08 4.85-24.55 6.28-35.62 3.81-5.91 0-22.21-7.58-26.45-10L79.45 404.62c-8.33-4.81-12.76-12.09-12.52-20 .25-8.52 5.89-16.68 15.85-22.43l165.77-95.71c2.14-1.23 9.64-5.08 12.08-6a71.92 71.92 0 0 1 20.76-4.58c10.39-.5 20.31 1.41 27.72 5.69z" opacity=".45"/><path d="M308.79 262.27L705 490.32c7.92 4.57 12 11.41 11.76 18.81-.3 7.92-5.63 15.56-15.09 21l-167 96.44a80.17 80.17 0 0 1-9 4.44c-11.35 4.69-25.06 5.78-35.85 2.82-4.92 0-22.52-8.63-26.05-10.67L80.64 402.69c-7.92-4.57-12-11.41-11.76-18.81.3-7.92 5.63-15.56 15.09-21l164.75-95.12c1.77-1 9.92-5.29 11.94-6.06a71.84 71.84 0 0 1 20.56-4.84c10.3-.65 20.24 1.14 27.57 5.41z" opacity=".55"/><path d="M308.47 263l396.19 228c7.52 4.34 11.34 10.74 11 17.62-.34 7.31-5.37 14.43-14.33 19.6l-167.81 96.89a69.3 69.3 0 0 1-9.1 4.36c-11.6 4.53-25.56 5.28-36.06 1.83-3.94 0-22.83-9.67-25.66-11.3L81.83 400.77c-7.51-4.34-11.34-10.75-11-17.63.35-7.31 5.38-14.43 14.33-19.6L248.88 269c1.42-.82 10.2-5.53 11.81-6.15 6.29-2.44 13.19-4.59 20.35-5.11 10.22-.74 20.17 1.02 27.43 5.26z" opacity=".64"/><path d="M308.16 263.64l396.18 228c7.11 4.1 10.63 10.07 10.24 16.43-.39 6.7-5.12 13.31-13.57 18.19l-168.58 97.36a59.84 59.84 0 0 1-9.19 4.29c-11.85 4.37-26.05 4.79-36.28.84-2.95 0-23.14-10.72-25.25-11.94L83 398.84c-7.11-4.1-10.63-10.07-10.24-16.43.39-6.71 5.12-13.31 13.57-18.19l162.7-93.93c1.06-.61 10.47-5.75 11.67-6.24 6.22-2.48 13-4.78 20.15-5.37 10.15-.84 20.15.81 27.31 4.96z" opacity=".73"/><path d="M307.84 264.32L704 492.36c6.69 3.87 9.91 9.4 9.48 15.23-.45 6.11-4.87 12.19-12.82 16.78l-169.32 97.77a54.33 54.33 0 0 1-9.28 4.22c-12.11 4.21-26.55 4.28-36.49-.16-2 0-23.45-11.76-24.86-12.58L84.21 396.91c-6.7-3.87-9.91-9.39-9.48-15.23.44-6.1 4.86-12.19 12.81-16.77l161.67-93.34c.71-.41 10.74-6 11.54-6.33 6.15-2.53 12.88-5 19.94-5.64 10.04-.94 20.03.61 27.15 4.72z" opacity=".82"/><path d="M307.52 265l396.19 228.05c6.29 3.63 9.2 8.72 8.72 14-.49 5.5-4.61 11.06-12 15.36l-170.17 98.25a49.79 49.79 0 0 1-9.37 4.14c-12.37 4.05-27.05 3.78-36.72-1.15-1 0-23.76-12.81-24.46-13.21L85.4 395c-6.29-3.63-9.2-8.72-8.72-14 .49-5.5 4.61-11.06 12-15.36l160.65-92.75c.35-.21 11-6.25 11.4-6.42 6.08-2.58 12.72-5.16 19.74-5.9 10-1.1 20.01.36 27.05 4.43z" opacity=".91"/><path d="M482.77 621.1l-396.18-228c-11.89-6.87-10.4-18.86 3.33-26.79l170.89-98.66c13.73-7.93 34.5-8.79 46.39-1.93l396.19 228.01c11.89 6.86 10.4 18.86-3.33 26.78l-170.89 98.67c-13.73 7.93-34.51 8.82-46.4 1.92z"/></g><path d="M538.9 579.31l159.77-92.24c18-10.41 15.77-28.58-5-40.6l-375.73-216.9c-20.81-12-52.29-13.32-70.32-2.92L87.85 318.9c-18 10.4-15.76 28.58 5.05 40.59l375.69 216.9c20.81 12.02 52.29 13.32 70.31 2.92z" fill="url(#A)"/><path d="M538.9 576.57l159.77-92.24c8.06-4.65 12.06-10.85 12.17-17.36l-.06-13.68c-.67-7.54-6.46-3.38-17.15-9.56l-375.69-216.9c-20.81-12-52.29-13.32-70.32-2.92L87.85 316.16c-8 4.64-12-3.53-12.16 3l.06 16.08c.65 7.54 6.44 15.36 17.15 21.54l375.69 216.88c20.81 12.01 52.29 13.34 70.31 2.91z" fill="url(#B)"/><path d="M538.9 562.88l159.77-92.24c18-10.41 15.77-28.58-5-40.6l-375.73-216.9c-20.81-12-52.29-13.32-70.32-2.92L87.85 302.47c-18 10.4-15.76 28.58 5.05 40.59L468.59 560c20.81 12 52.29 13.29 70.31 2.88z" fill="url(#C)"/><path class="T" d="M698.67 468.84L538.9 561.08c-18 10.41-49.5 9.1-70.31-2.91L92.9 341.27c-11-6.33-16.76-14.36-17.18-22.07-.46 8.24 5.37 17 17.18 23.86L468.59 560c20.81 12 52.29 13.32 70.31 2.91l159.77-92.24c8.54-4.93 12.52-11.6 12.14-18.54-.35 6.25-4.34 12.21-12.14 16.71z" fill="url(#D)"/><path d="M689.4 432.74L313.26 215.58C295 205 267.42 203.9 251.62 213L92.7 304.78c-15.8 9.12-13.82 25.05 4.42 35.58l376.15 217.17c18.24 10.53 45.84 11.67 61.64 2.55l158.92-91.75c15.8-9.12 13.82-25.05-4.43-35.59z" fill="url(#E)"/><path d="M682.11 435.87L307.84 219.79c-15.27-8.82-38.37-9.78-51.6-2.14l-155.53 89.79c-13.22 7.64-11.56 21 3.71 29.79l374.27 216.09c15.27 8.81 38.37 9.77 51.59 2.14l155.54-89.8c13.18-7.66 11.56-20.97-3.71-29.79z" fill="#1f0d3d"/><path d="M257.6,220.51c12.47-7.19,32.61-7.23,45-.08L681,438.9c12.38,7.15,12.32,18.78-.14,26L528.93,552.59c-12.47,7.2-32.61,7.24-45,.09L105.53,334.2c-12.38-7.15-12.32-18.78.14-26Z" fill="#3d065f"/><path d="M506.3 554.93c-7.93 0-15.32-1.75-20.83-4.92l-378.4-218.47c-5-2.87-7.71-6.51-7.71-10.25s2.79-7.47 7.85-10.39l151.93-87.72c5.6-3.23 13.09-5 21.09-5s15.32 1.75 20.82 4.93l378.41 218.46c5 2.87 7.71 6.51 7.71 10.24s-2.79 7.48-7.85 10.4l-151.93 87.72c-5.6 3.23-13.08 5-21.09 5z" fill="url(#F)"/><use xlink:href="#V" fill="url(#G)"/><use xlink:href="#V" fill="url(#H)"/><path d="M165.42 395.47a2.18 2.18 0 0 1-1-.34L147 385.08c-1.85-1.07-3.42-4.11-3.42-6.63 0-1.12.36-2.42 1.35-2.42a2.16 2.16 0 0 1 1.05.33l17.41 10.05c1.86 1.08 3.43 4.11 3.43 6.64-.05 1.11-.41 2.42-1.4 2.42z" fill="url(#I)"/><use xlink:href="#W" fill="url(#J)"/><use xlink:href="#W" fill="url(#K)"/><path d="M196.51 413.42a2.18 2.18 0 0 1-1-.34L178.05 403c-1.86-1.07-3.43-4.11-3.43-6.63 0-1.12.36-2.42 1.35-2.42a2.16 2.16 0 0 1 1.05.33l17.42 10.05c1.85 1.08 3.42 4.11 3.42 6.64 0 1.14-.36 2.45-1.35 2.45z" fill="url(#L)"/><path class="e" d="M346.72 489.91L92.9 342.72c-10.71-6.18-16.51-14-17.15-21.55v-6.66 16.25c.64 7.54 6.44 15.36 17.15 21.54z" fill="#3d065f"/><path d="M633.4,520.9l-28.6,16.51h0c0-5.22,3.18-11.29,7.1-13.55l14.4-8.32c3.92-2.26,7.1.14,7.1,5.36Z"/><g fill="#a56ef4"><path d="M623 445.16a9.28 9.28 0 0 1 4.32 1.18 1.59 1.59 0 0 1 .5-.07 2.61 2.61 0 0 1 1.26.33.72.72 0 0 1 .06 1.2 3.2 3.2 0 0 1 .61 1.86c0 .47.64.86 1.45.86h0a12.38 12.38 0 0 0 3.93-.69 6.84 6.84 0 0 1 2.19-.35 6 6 0 0 1 2.92.69l2.39 1.39c.47.27.47.7 0 1l-12.83 7.41a1.89 1.89 0 0 1-1.69 0l-2.39-1.38c-1.38-.8-1.58-2-.59-2.95a3.36 3.36 0 0 0 1.18-2.27c0-.47-.66-.85-1.49-.85a15.13 15.13 0 0 1-3.22-.36 3.51 3.51 0 0 1-1.09.17 2.12 2.12 0 0 1-1-.2c-.54-.32-.72-.74-.46-1-2.16-1.37-3.17-3-.09-4.79a7.92 7.92 0 0 1 4-1.13zm0-1.73h0a9.6 9.6 0 0 0-4.85 1.36c-1.84 1.06-2.78 2.31-2.81 3.73a4.42 4.42 0 0 0 2 3.45 2.73 2.73 0 0 0 1.36 1.62 3.63 3.63 0 0 0 1.84.44 5.35 5.35 0 0 0 1.13-.12 16.08 16.08 0 0 0 2.46.29l-.15.15a3.38 3.38 0 0 0-1.15 2.88 3.84 3.84 0 0 0 2 2.83l2.4 1.38a3.6 3.6 0 0 0 3.41 0l12.92-7.44a2.23 2.23 0 0 0 0-4l-2.4-1.38a7.64 7.64 0 0 0-3.78-.93 8.65 8.65 0 0 0-2.77.45 10.2 10.2 0 0 1-3.18.58 5.22 5.22 0 0 0-.31-1 2.43 2.43 0 0 0 0-.89 2.38 2.38 0 0 0-1.2-1.77 4.33 4.33 0 0 0-2.12-.56h-.22a10.81 10.81 0 0 0-4.6-1.11zm-113.61 71.19a17.05 17.05 0 0 1 3 .71l-.76 1.81a9.26 9.26 0 0 1 1 .51 7.7 7.7 0 0 1 .89.61l3.13-.44a5.53 5.53 0 0 1 1.23 1.73l-2.74 1a3.21 3.21 0 0 1 0 1.6l2.74 1a6.19 6.19 0 0 1-1.25 1.74l-3.13-.43a8.84 8.84 0 0 1-.9.61 10.44 10.44 0 0 1-1.06.52l.74 1.8a17.07 17.07 0 0 1-3 .73l-1.68-1.59a13 13 0 0 1-1.4.07q-.67 0-1.35-.06l-1.69 1.59a18 18 0 0 1-3-.71l.76-1.81a11.39 11.39 0 0 1-1-.52 6.62 6.62 0 0 1-.89-.61l-3.14.44a5.75 5.75 0 0 1-1.23-1.73l2.75-1a3.06 3.06 0 0 1 0-1.59l-2.74-1a5.83 5.83 0 0 1 1.25-1.73l3.13.42a7.85 7.85 0 0 1 .9-.61 8.65 8.65 0 0 1 1.06-.51l-.74-1.81a17.06 17.06 0 0 1 3-.72l1.67 1.58a13.31 13.31 0 0 1 1.41-.07q.67 0 1.35.06l1.69-1.58zm-3.12 8.8a5.25 5.25 0 0 0 2.57-.61c1.42-.82 1.43-2.14 0-2.95a5.13 5.13 0 0 0-2.54-.61 5.25 5.25 0 0 0-2.57.61c-1.42.82-1.43 2.14 0 3a5.24 5.24 0 0 0 2.54.6zm3.12-10.53a1.72 1.72 0 0 0-1.18.46l-1.15 1.08h-.71-.77l-1.12-1.06a1.72 1.72 0 0 0-1.19-.47 1.14 1.14 0 0 0-.26 0 18.72 18.72 0 0 0-3.3.79 1.75 1.75 0 0 0-1 .92 1.68 1.68 0 0 0 0 1.37l.13.34-.2.14-2.44-.34h-.24a1.71 1.71 0 0 0-1.21.49 7.73 7.73 0 0 0-1.61 2.25 1.73 1.73 0 0 0 1 2.35l.37.13-.4.14a1.78 1.78 0 0 0-1 1 1.72 1.72 0 0 0 0 1.39 7.35 7.35 0 0 0 1.59 2.25 1.68 1.68 0 0 0 1.21.5h.24l2.45-.35.18.12-.14.34a1.72 1.72 0 0 0 1 2.31 20.55 20.55 0 0 0 3.29.78h.26a1.74 1.74 0 0 0 1.18-.47l1.15-1.08h.71.77l1.12 1.06a1.7 1.7 0 0 0 1.19.47h.26a19.65 19.65 0 0 0 3.3-.8 1.71 1.71 0 0 0 1-.92 1.76 1.76 0 0 0 0-1.37l-.14-.34.21-.13 2.44.33h.24a1.74 1.74 0 0 0 1.21-.5 7.73 7.73 0 0 0 1.61-2.25 1.73 1.73 0 0 0-1-2.35l-.37-.13.39-.14a1.74 1.74 0 0 0 1-.95 1.77 1.77 0 0 0 0-1.39 7.47 7.47 0 0 0-1.59-2.25 1.72 1.72 0 0 0-1.22-.5 1 1 0 0 0-.24 0l-2.44.34-.18-.12.21-.33a1.73 1.73 0 0 0-1-2.31 19.77 19.77 0 0 0-3.29-.79zm-1.39 8.44a3.66 3.66 0 0 1-1.68.36 3.61 3.61 0 0 1-1.63-.35 3.66 3.66 0 0 1 1.68-.36 3.61 3.61 0 0 1 1.63.35zm89.93-50.83l7.09 4.09-3.91 2.26-7.1-4.09 3.92-2.26zm-10.45.82l11.61 6.7-3.92 2.26-11.6-6.7 3.91-2.26zm-10.44.82l16.11 9.31-3.91 2.26-16.12-9.31 3.92-2.26zm20.89-3.37a1.8 1.8 0 0 0-.87.23l-3.91 2.26a1.8 1.8 0 0 0-.76.9l-4-2.34a1.74 1.74 0 0 0-1.73 0l-3.92 2.26a1.78 1.78 0 0 0-.75.9l-4.05-2.34a1.76 1.76 0 0 0-.86-.23 1.8 1.8 0 0 0-.87.23l-3.91 2.26a1.73 1.73 0 0 0 0 3l16.11 9.3a1.7 1.7 0 0 0 .87.24 1.64 1.64 0 0 0 .86-.24l3.92-2.26a1.74 1.74 0 0 0 .78-1 1.55 1.55 0 0 0 .37 0 1.8 1.8 0 0 0 .87-.23l3.91-2.26a1.74 1.74 0 0 0 .79-1 1.5 1.5 0 0 0 .37 0 1.66 1.66 0 0 0 .86-.23l3.92-2.26a1.73 1.73 0 0 0 0-3l-7.1-4.1a1.73 1.73 0 0 0-.86-.23zm-49.72 21.67a8.87 8.87 0 0 1 4.34 1c4.39 2.54 1.56 10.43 1.56 10.43a84.82 84.82 0 0 1-8.9.52c-3.55 0-7.24-.31-9.16-1.42-2.4-1.38-2.39-3.64 0-5a9 9 0 0 1 4.39-1 11 11 0 0 1 1.82.15c-.65-1.22-.14-2.61 1.55-3.58a9 9 0 0 1 4.38-1.05zm0-1.73A10.63 10.63 0 0 0 543 490a5 5 0 0 0-2.59 3.2 10.52 10.52 0 0 0-5.16 1.28 4.35 4.35 0 0 0 0 8c1.93 1.11 5.21 1.65 10 1.65a86.72 86.72 0 0 0 9.11-.53 1.74 1.74 0 0 0 1.42-1.13c.14-.38 3.25-9.3-2.32-12.51a10.57 10.57 0 0 0-5.21-1.27h0z"/></g><path d="M470.84 501.92c6.63 0 12.58-1.41 17.2-4.08l40.79-23.55 40.79-23.56c5.59-3.22 8.8-8.21 8.8-13.66 0-6.16-4-12-11.11-16.11a44.08 44.08 0 0 0-21.41-5.4c-6.62 0-12.56 1.4-17.18 4.07l-40.8 23.55-40.79 23.56c-5.59 3.22-8.8 8.21-8.8 13.66 0 6.16 4.05 12 11.11 16.11a44.07 44.07 0 0 0 21.4 5.41z" opacity=".02"/><path d="M566 421.89h0a42.72 42.72 0 0 0-20.85-5.25 35.19 35.19 0 0 0-14.75 3l-2 1-39.72 22.94-3.4 2-36.32 21a19.48 19.48 0 0 0-7.15 6.94 13.71 13.71 0 0 0-1.75 6.11c-.2 5.94 3.63 11.7 10.58 15.71h0a42.69 42.69 0 0 0 20.85 5.25 35.19 35.19 0 0 0 14.75-3c.64-.3 1.38-.69 2-1L528 473.58l3.4-2 36.33-21a19.56 19.56 0 0 0 7.15-6.94 13.69 13.69 0 0 0 1.74-6.11c.17-5.87-3.62-11.63-10.62-15.64z" opacity=".05"/><path d="M564.71 422.81h0a41.55 41.55 0 0 0-20.3-5.08 33.92 33.92 0 0 0-14.33 2.94l-1.91 1L489.51 444l-3.31 1.91-35.34 20.41a21.31 21.31 0 0 0-7.07 6.61 13.7 13.7 0 0 0-1.93 5.82c-.4 5.72 3.23 11.37 10.06 15.32h0a41.52 41.52 0 0 0 20.29 5.09 34.12 34.12 0 0 0 14.34-2.95c.57-.27 1.38-.7 1.91-1l38.66-22.32 3.31-1.91 35.34-20.41a21.44 21.44 0 0 0 7.08-6.61 13.62 13.62 0 0 0 1.91-5.81c.41-5.74-3.22-11.39-10.05-15.34z" opacity=".07"/><path d="M563.4 423.74h0a40.21 40.21 0 0 0-19.73-4.93 33.06 33.06 0 0 0-13.93 2.9l-1.85 1-37.59 21.69-3.21 1.86-34.37 19.84c-2.39 1.38-5.79 4.28-7 6.28a13.87 13.87 0 0 0-2.09 5.53c-.61 5.5 2.81 11 9.53 14.92h0a40.21 40.21 0 0 0 19.73 4.93 32.91 32.91 0 0 0 13.93-2.9c.51-.24 1.38-.71 1.86-1l37.58-21.71 3.22-1.85 34.37-19.84c2.39-1.38 5.79-4.29 7-6.29a13.7 13.7 0 0 0 2.1-5.52c.6-5.48-2.82-11.03-9.55-14.91z" opacity=".1"/><path d="M562.1 424.67h0a39 39 0 0 0-19.18-4.77 31.65 31.65 0 0 0-13.51 2.86 17.4 17.4 0 0 0-1.79 1l-36.53 21.04-3.09 1.81-33.39 19.27c-2.09 1.21-5.82 4.24-6.92 6a14 14 0 0 0-2.27 5.23c-.81 5.29 2.4 10.72 9 14.54h0a39 39 0 0 0 19.17 4.77 31.88 31.88 0 0 0 13.52-2.87c.44-.21 1.38-.71 1.79-.95l36.52-21.09 3.13-1.8 33.38-19.28c2.09-1.21 5.83-4.23 6.92-6a14 14 0 0 0 2.27-5.23c.8-5.28-2.41-10.72-9.02-14.53z" opacity=".12"/><path d="M560.79 425.59h0a37.71 37.71 0 0 0-18.61-4.59 31 31 0 0 0-13.11 2.82l-1.73.94-35.45 20.47-3 1.75-32.4 18.71c-1.8 1-5.87 4.18-6.85 5.64a14.11 14.11 0 0 0-2.44 4.93c-1 5.07 2 10.39 8.49 14.14h0a37.71 37.71 0 0 0 18.57 4.6 30.82 30.82 0 0 0 13.11-2.82c.38-.18 1.38-.73 1.73-.93l35.46-20.47 3-1.75L560 450.31c1.79-1 5.86-4.19 6.84-5.64a14.11 14.11 0 0 0 2.44-4.93c1.03-5.07-1.98-10.39-8.49-14.15z" opacity=".15"/><path d="M559.49 426.52h0a36.47 36.47 0 0 0-18.06-4.45 29.72 29.72 0 0 0-12.69 2.78c-.32.15-1.38.74-1.68.91l-34.38 19.85-2.94 1.7-31.43 18.15c-1.5.86-5.92 4.12-6.77 5.31a14.65 14.65 0 0 0-2.61 4.64c-1.24 4.85 1.57 10.06 8 13.75h0a36.55 36.55 0 0 0 18.07 4.45 29.72 29.72 0 0 0 12.69-2.78 66.43 66.43 0 0 0 1.68-.91l34.38-19.86 2.95-1.7 31.42-18.14c1.5-.86 5.92-4.12 6.77-5.31a14.88 14.88 0 0 0 2.62-4.64c1.18-4.85-1.63-10.06-8.02-13.75z" opacity=".17"/><path d="M558.19 427.44h0a35.37 35.37 0 0 0-17.5-4.29 28.67 28.67 0 0 0-12.29 2.74l-1.61.89L493.47 446l-2.85 1.65-30.45 17.57c-1.19.69-6 4.06-6.69 5-1.14 1.52-2.3 2.79-2.79 4.35-1.45 4.63 1.16 9.73 7.44 13.35h0a35.24 35.24 0 0 0 17.5 4.3 28.74 28.74 0 0 0 12.29-2.75c.25-.12 1.37-.75 1.61-.88l33.32-19.24 2.85-1.65 30.45-17.57c1.19-.7 6-4.06 6.69-5 1.14-1.52 2.3-2.79 2.79-4.35 1.45-4.61-1.16-9.71-7.44-13.34z" opacity=".2"/><path d="M556.88 428.37h0a33.93 33.93 0 0 0-16.94-4.13 27.46 27.46 0 0 0-11.87 2.7c-.19.09-1.38.76-1.56.86l-32.25 18.62-2.76 1.58-29.5 17c-.9.52-6.22 3.88-6.62 4.66a9.92 9.92 0 0 0-3 4.05c-1.68 4.42.75 9.41 6.91 13h0a34 34 0 0 0 16.94 4.13 27.5 27.5 0 0 0 11.88-2.7 38.68 38.68 0 0 0 1.55-.87L522 468.66l2.76-1.6 29.47-17c.9-.52 6.21-3.88 6.61-4.66a9.85 9.85 0 0 0 3-4.05c1.64-4.43-.79-9.42-6.96-12.98z" opacity=".22"/><path d="M555.58 429.3h0a32.78 32.78 0 0 0-16.39-4 26.73 26.73 0 0 0-11.46 2.7l-1.49.84-31.18 18-2.68 1.54-28.48 16.44c-.6.34-6.27 3.81-6.54 4.33a9.88 9.88 0 0 0-3.14 3.76c-1.9 4.19.34 9.08 6.4 12.57h0a32.74 32.74 0 0 0 16.38 4 26.73 26.73 0 0 0 11.46-2.66L490 486l31.18-18 2.67-1.54L552.29 450c.6-.34 6.28-3.81 6.54-4.33a9.79 9.79 0 0 0 3.14-3.76c1.9-4.23-.33-9.12-6.39-12.61z" opacity=".25"/><path d="M554.27 430.22h0a31.43 31.43 0 0 0-15.82-3.81A25.36 25.36 0 0 0 527.4 429l-1.44.82-30.11 17.38-2.58 1.49-27.51 15.91-6.46 4a9.75 9.75 0 0 0-3.31 3.47c-2.13 4-.08 8.75 5.87 12.18h0a31.43 31.43 0 0 0 15.82 3.81 25.44 25.44 0 0 0 11.06-2.62l1.43-.82 30.11-17.38 2.58-1.49 27.51-15.88c.3-.17 6.33-3.75 6.46-4a9.79 9.79 0 0 0 3.32-3.47c2.13-3.96.07-8.74-5.88-12.18z" opacity=".27"/><path d="M489 484.11l32.91-19 32.91-19c6.64-3.84 5.81-10.53-1.86-15h0c-7.67-4.43-19.27-4.91-25.91-1.08l-32.91 19-32.91 19c-6.64 3.83-5.81 10.53 1.86 14.95h0c7.68 4.48 19.28 4.96 25.91 1.13z" opacity=".3"/><path d="M484.79 482l81.59-47.1c8.23-4.75 7.2-13.05-2.31-18.54h0c-9.5-5.49-23.88-6.08-32.11-1.33l-81.58 47.1c-8.24 4.75-7.2 13.06 2.3 18.54h0c9.51 5.44 23.88 6.04 32.11 1.33z" fill="url(#M)"/><path class="t" d="M452.68 478.46h0c9.51 5.49 23.88 6.08 32.11 1.33l81.59-47.1c3.3-1.91 5.08-4.39 5.46-7 .51 3.42-1.27 6.76-5.46 9.18L484.79 482c-8.23 4.76-22.6 4.16-32.11-1.33h0c-5.69-3.28-8.32-7.58-7.76-11.52.49 3.25 3.08 6.62 7.76 9.31z" fill="url(#N)"/><g fill="#fff"><path d="M490.16 467.83a.8.8 0 0 1-.48-.13l-11.95-8.43a.37.37 0 0 1-.19-.33.5.5 0 0 1 .26-.34l6.69-4.19a11.54 11.54 0 0 1 5.2-1.92 6.05 6.05 0 0 1 4.12 1.05 2.2 2.2 0 0 1 1.05 1.6 2.36 2.36 0 0 1-.47 1.6 8.19 8.19 0 0 1 2.94-.2 5.11 5.11 0 0 1 2.59.91 2.52 2.52 0 0 1 1.24 2.95c-.34 1.11-1.45 2.2-3.32 3.25l-7.16 4a1 1 0 0 1-.52.18zm5.28-5.36a2.71 2.71 0 0 0 1.45-1.52 1.29 1.29 0 0 0-.64-1.39 3.26 3.26 0 0 0-2.09-.55 5.16 5.16 0 0 0-2.49.77l-3.93 2.32 3.73 2.64zm-6-3.94a2.82 2.82 0 0 0 1.42-1.47 1.19 1.19 0 0 0-.6-1.31 2.74 2.74 0 0 0-1.88-.48 5.32 5.32 0 0 0-2.33.85l-3.63 2.24 3.36 2.37zm18.99-2.32a9 9 0 0 1-6-1.77l-7.86-5.69a.36.36 0 0 1-.19-.36.59.59 0 0 1 .31-.38l2.36-1.48a1.22 1.22 0 0 1 .61-.19.83.83 0 0 1 .53.14l8 5.79a5.37 5.37 0 0 0 3.31 1.09 7.48 7.48 0 0 0 3.68-1.1c1.27-.73 2-1.49 2.17-2.27s-.25-1.58-1.29-2.34l-8.11-6a.35.35 0 0 1-.17-.38.73.73 0 0 1 .36-.42l2.56-1.6a1.14 1.14 0 0 1 .63-.2.83.83 0 0 1 .55.15l8.19 6.07q2.79 2.07 2 4.31c-.52 1.48-2 2.92-4.56 4.34a16.15 16.15 0 0 1-7.08 2.29zm25.86-13.32a.85.85 0 0 1-.56-.14l-4.59-3.46-15.66-2.14a1.67 1.67 0 0 1-.32-.11.29.29 0 0 1-.11-.35.64.64 0 0 1 .29-.35l2.63-1.65a2.06 2.06 0 0 1 1.31-.28l11.11 1.39-.76-7.85a.94.94 0 0 1 .09-.44 1.19 1.19 0 0 1 .46-.47l2.9-1.81a1.31 1.31 0 0 1 .62-.21.75.75 0 0 1 .51.12.34.34 0 0 1 .14.24l1.21 11.32 4.64 3.52a.32.32 0 0 1 .13.4 1 1 0 0 1-.44.43l-2.89 1.64a1.49 1.49 0 0 1-.71.2z"/></g><path d="M546.82,302.05v-4.77a1.09,1.09,0,1,1,2.17,0v4.77a1.09,1.09,0,1,1-2.17,0Zm0-9.54v-4.77a1.09,1.09,0,1,1,2.17,0v4.77a1.09,1.09,0,1,1-2.17,0Zm0-9.54V278.2a1.09,1.09,0,1,1,2.17,0V283a1.09,1.09,0,1,1-2.17,0Zm0-9.54v-4.76a1.09,1.09,0,1,1,2.17,0v4.76a1.09,1.09,0,1,1-2.17,0Zm0-9.53v-4.77a1.09,1.09,0,1,1,2.17,0v4.77a1.09,1.09,0,1,1-2.17,0Zm0-9.54v-4.77a1.09,1.09,0,1,1,2.17,0v4.77a1.09,1.09,0,1,1-2.17,0Zm0-9.54v-4.77a1.09,1.09,0,1,1,2.17,0v4.77a1.09,1.09,0,1,1-2.17,0Zm0-9.54v-4.77a1.09,1.09,0,1,1,2.17,0v4.77a1.09,1.09,0,1,1-2.17,0Zm0-9.53V221a1.09,1.09,0,1,1,2.17,0v4.77a1.09,1.09,0,1,1-2.17,0Zm0-9.54v-4.77a1.09,1.09,0,1,1,2.17,0v4.77a1.09,1.09,0,1,1-2.17,0Zm0-9.54V201.9a1.09,1.09,0,1,1,2.17,0v4.77a1.09,1.09,0,1,1-2.17,0Zm0-9.54v-4.77a1.09,1.09,0,1,1,2.17,0v4.77a1.09,1.09,0,1,1-2.17,0Zm0-9.54v-4.77a1.09,1.09,0,1,1,2.17,0v4.77a1.09,1.09,0,1,1-2.17,0Zm0-9.53v-4.77a1.09,1.09,0,1,1,2.17,0v4.77a1.09,1.09,0,1,1-2.17,0Z" fill="#7c1dc9"/><path d="M282.49 231a3.59 3.59 0 0 0-3.24 0l-21.77 12.56c-.89.52-.9 1.36 0 1.87a3.58 3.58 0 0 0 3.25 0l21.76-12.57a1 1 0 0 0 0-1.86zm-19.56 17.59a3.56 3.56 0 0 0 3.24 0L287.94 236a1 1 0 0 0 0-1.87 3.61 3.61 0 0 0-3.25 0l-21.76 12.56c-.93.52-.93 1.36 0 1.87zm5.46 3.15a3.56 3.56 0 0 0 3.24 0l21.76-12.57a1 1 0 0 0 0-1.87 3.59 3.59 0 0 0-3.24 0l-21.75 12.54c-.9.52-.91 1.36-.01 1.87z" fill="#a56ef4"/><path d="M373.17 498.96l157.87-91.15-302.91-175.77-157.87 91.15 302.91 175.77z" opacity=".02"/><path d="M372.57 497.01l155.66-89.88-299.2-173.63-155.66 89.88 299.2 173.63z" opacity=".05"/><path d="M371.97 495.06l153.46-88.6-295.49-171.5-153.47 88.6 295.5 171.5z" opacity=".07"/><path d="M371.37 493.1l151.25-87.32-291.78-169.36-151.26 87.33L371.37 493.1z" opacity=".1"/><path d="M370.77 491.15l149.05-86.05-288.08-167.22-149.05 86.06 288.08 167.21z" opacity=".12"/><path d="M370.17 489.2l146.84-84.78-284.37-165.07L85.8 324.13 370.17 489.2z" opacity=".15"/><path d="M369.57 487.25l144.64-83.51-280.67-162.93-144.64 83.5 280.67 162.94z" opacity=".17"/><path d="M368.97 485.29l142.43-82.23-276.96-160.79L92.01 324.5l276.96 160.79z" opacity=".2"/><path d="M368.38 483.34l140.22-80.96-273.26-158.65-140.22 80.96 273.26 158.65z" opacity=".22"/><path d="M367.78 481.39l138.01-79.69-269.54-156.51-138.02 79.69 269.55 156.51z" opacity=".25"/><path d="M367.18 479.44l135.81-78.42-265.84-154.37-135.82 78.41 265.85 154.38z" opacity=".27"/><path d="M366.58 477.48l133.6-77.13-262.13-152.24-133.61 77.14 262.14 152.23z" opacity=".3"/><path d="M371.17 472.94l152.33-87.95-293.6-170.41-152.33 87.95 293.6 170.41z" fill="url(#O)"/><path d="M111.98 322.62l152.33-87.95-41.33-24.08-152.34 87.95 41.34 24.08z" fill="url(#P)"/><path d="M366 446.83l42.44-24.5c4.12-2.38 3.6-6.54-1.15-9.28h0c-4.76-2.75-11.95-3.05-16.07-.67l-42.44 24.5c-4.12 2.38-3.6 6.53 1.15 9.28h0c4.8 2.75 12 3.04 16.07.67z" fill="url(#Q)"/><path d="M422.48,396l40-23.11a16,16,0,0,1,14.5,0c4,2.3,4,6.06-.05,8.38l-40,23.1a16,16,0,0,1-14.5,0c-4-2.3-4-6.06.05-8.37Zm-1.39-.8c-4.79,2.76-4.81,7.23,0,10s12.49,2.73,17.28,0l40-23.11c4.78-2.76,4.81-7.22.05-10s-12.49-2.73-17.28,0l-40,23.11Z" fill="url(#R)"/><g fill="#7c1dc9"><path d="M163.21,326.93l25.1-14.49L213,326.66l-25.1,14.49-24.64-14.22Zm-4.17,0,28.79,16.62,29.28-16.91L188.32,310,159,326.94Z"/><use xlink:href="#X"/><path d="M314.5 433.73l142.59-82.32-.64-.37-142.58 82.32.63.37z"/><use xlink:href="#X" x="5.8" y="3.35"/><use xlink:href="#Y"/><path d="M215.57 357.16l25.1-14.49 24.64 14.22-25.1 14.5-24.64-14.23zm-4.17 0l28.8 16.62 29.28-16.9-28.8-16.63-29.28 16.92z"/><use xlink:href="#Z"/><path d="M252.58 343.32l49.99-28.85-2.03-1.18-49.99 28.86 2.03 1.17z"/><use xlink:href="#Y" x="48.53" y="32.46"/><path d="M268.09 387.48l25.1-14.48 24.64 14.22-25.1 14.5-24.64-14.23zm-4.17 0l28.79 16.62L322 387.21l-28.8-16.63-29.28 16.91z"/><use xlink:href="#Z" x="53.49" y="28.64"/><use xlink:href="#Z" x="59.29" y="31.99"/><use xlink:href="#Y" x="103.05" y="61.44"/><path d="M262.85 275.35c-3.43-2-3.42-5.23 0-7.22a13.8 13.8 0 0 1 12.5 0c3.44 2 3.42 5.22 0 7.21a13.83 13.83 0 0 1-12.5.01zm.9-.52a11.85 11.85 0 0 0 10.71 0c3-1.71 3-4.49 0-6.19a11.87 11.87 0 0 0-10.72 0c-2.92 1.71-2.94 4.49.01 6.19zm4.11-2.37h-1.79c-.7 0-1.26-.32-1.26-.73s.57-.73 1.26-.73h1.79v-1c0-.41.57-.73 1.27-.74s1.26.33 1.25.73v1h1.79c.7 0 1.26.33 1.26.73a.63.63 0 0 1-.38.51 1.72 1.72 0 0 1-.89.22h-1.79v1a.62.62 0 0 1-.37.51 1.83 1.83 0 0 1-.89.22c-.7 0-1.26-.33-1.26-.73zm46.68 32.73c-3.43-2-3.41-5.22 0-7.22a13.86 13.86 0 0 1 12.5 0c3.44 2 3.42 5.22 0 7.22a13.86 13.86 0 0 1-12.5 0zm.9-.52a11.85 11.85 0 0 0 10.71 0c3-1.71 3-4.48 0-6.18a11.87 11.87 0 0 0-10.72 0c-2.92 1.71-2.94 4.51.01 6.18zm4.11-2.37h-1.79c-.7 0-1.26-.32-1.26-.72s.57-.73 1.27-.73h1.79v-1c0-.4.57-.73 1.27-.73s1.26.32 1.26.73v1h1.79c.7 0 1.26.32 1.26.72a.63.63 0 0 1-.37.52 1.87 1.87 0 0 1-.9.21h-1.79v1a.66.66 0 0 1-.38.52 1.8 1.8 0 0 1-.89.21c-.7 0-1.26-.32-1.26-.73zm47.96 33.47c-3.44-2-3.42-5.22 0-7.22a13.82 13.82 0 0 1 12.51 0c3.43 2 3.41 5.22 0 7.22a13.86 13.86 0 0 1-12.51 0zm.89-.52a11.87 11.87 0 0 0 10.72 0c3-1.71 3-4.48 0-6.19a11.87 11.87 0 0 0-10.72 0c-2.93 1.72-2.94 4.49 0 6.19zm4.11-2.37h-1.79c-.7 0-1.26-.32-1.26-.72s.57-.73 1.27-.74h1.79v-1c0-.4.57-.73 1.27-.73s1.26.32 1.26.72v1h1.79c.7 0 1.26.33 1.26.73a.65.65 0 0 1-.37.52 1.87 1.87 0 0 1-.9.21H375v1a.62.62 0 0 1-.37.51 1.76 1.76 0 0 1-.9.22c-.7 0-1.26-.33-1.26-.73z"/></g><path d="M196.27 240.19l19.22-11.1-1.94-2.36c-.22-.26-.12-.57.23-.78l5.6-3.23a1.86 1.86 0 0 1 1.66 0c.46.26.46.69 0 1l-5 2.89 11.16 13.62c.22.25.12.56-.23.77l-1.79 1h.37c1.71 0 3.09.79 3.09 1.78s-1.4 1.79-3.11 1.79-3.09-.8-3.08-1.78a.78.78 0 0 1 0-.21l-3.88 2.23h.37c1.71 0 3.09.8 3.08 1.78s-1.39 1.79-3.1 1.79-3.09-.79-3.09-1.78a1.55 1.55 0 0 1 0-.21l-.82.48a1.85 1.85 0 0 1-1.67 0c-.45-.26-.45-.69 0-1l11.29-6.52-2.27-2.78-13.8 8a3.89 3.89 0 0 1-3.11.2l-8.87-3.3c-1.25-.55-1.44-1.63-.31-2.28z" fill="url(#S)"/><path d="M198.71 240.33c4.17 2.42 11 2.4 15.16 0s4.23-6.35 0-8.76a16.76 16.76 0 0 0-15.17 0c-4.15 2.43-4.17 6.35.01 8.76z" fill="#f745be"/><path d="M207.05 234.7a1.92 1.92 0 0 1 1.22-.2 2.53 2.53 0 0 1 1.27.55 2.2 2.2 0 0 1 .59.69 1.46 1.46 0 0 1 .15.76 1.69 1.69 0 0 1-.28.76 2.81 2.81 0 0 1-.7.73 3.47 3.47 0 0 1-1.22.6 3.11 3.11 0 0 1-1.29 0l-.21-1.08a2.48 2.48 0 0 0 .86 0 2.15 2.15 0 0 0 .81-.39 1.16 1.16 0 0 0 .5-.71.8.8 0 0 0-.38-.68 1.26 1.26 0 0 0-.92-.32 1.87 1.87 0 0 0-1 .46l-.2.16-.77-.65.21-.18a1.07 1.07 0 0 0 .47-.73.75.75 0 0 0-.31-.65.9.9 0 0 0-.66-.22 1.16 1.16 0 0 0-.66.3 1.12 1.12 0 0 0-.4.6 1.06 1.06 0 0 0 0 .7l-1.26-.12a1.27 1.27 0 0 1 0-.48 2.12 2.12 0 0 1 .14-.52 2.78 2.78 0 0 1 .31-.51 2.89 2.89 0 0 1 .45-.48 2.94 2.94 0 0 1 .73-.45 2.37 2.37 0 0 1 .77-.2 1.89 1.89 0 0 1 1.44.42 1.67 1.67 0 0 1 .39.41 1.28 1.28 0 0 1 .2.47 1 1 0 0 1 0 .48 1 1 0 0 1-.25.48z" fill="#fff"/><path d="M107.43 301.45h-7.49c-.65 0-1.18-.3-1.18-.68s.53-.68 1.18-.68h7.5v-4.33c0-.38.53-.68 1.19-.68s1.17.3 1.17.67v4.33h7.49c.65 0 1.18.3 1.18.68a.59.59 0 0 1-.35.48 1.72 1.72 0 0 1-.83.2h-7.5v4.33a.58.58 0 0 1-.34.48 1.66 1.66 0 0 1-.84.2c-.65 0-1.17-.3-1.17-.67z" fill="#e6e7e8"/><path class="AD" d="M371.17 471.31l149.99-87.68 2.34 1.36-152.33 87.95-300.2-174.38 2.34-.27 297.86 173.02z" fill="url(#T)"/><path d="M229.32 381.16l161.16-93.04-64.04-36.76-161.16 93.04 64.04 36.76z" opacity=".02"/><path d="M229.79 379.75l158.66-91.6-62.4-35.84-158.66 91.6 62.4 35.84z" opacity=".05"/><path d="M230.26 378.33l156.16-90.16-60.75-34.9-156.16 90.16 60.75 34.9z" opacity=".07"/><path d="M230.73 376.92l153.66-88.72-59.11-33.97-153.66 88.71 59.11 33.98z" opacity=".1"/><path d="M231.21 375.5l151.16-87.27-57.47-33.05-151.16 87.27 57.47 33.05z" opacity=".12"/><path d="M231.68 374.09l148.66-85.83-55.83-32.12-148.66 85.83 55.83 32.12z" opacity=".15"/><path d="M232.15 372.67l146.16-84.39-54.18-31.18-146.17 84.38 54.19 31.19z" opacity=".17"/><path d="M232.62 371.25l143.66-82.94-52.54-30.26L180.08 341l52.54 30.25z" opacity=".2"/><path d="M233.09 369.84l141.16-81.5-50.89-29.33-141.17 81.5 50.9 29.33z" opacity=".22"/><path d="M233.56 368.42l138.67-80.06-49.26-28.39-138.66 80.06 49.25 28.39z" opacity=".25"/><path d="M234.03 367.01l136.17-78.62-47.61-27.47-136.17 78.62 47.61 27.47z" opacity=".27"/><path d="M234.5 365.59l133.67-77.17-45.97-26.54-133.67 77.17 45.97 26.54z" opacity=".3"/><path d="M227.4 366.06l149.99-86.6-51.58-29.78-149.99 86.6 51.58 29.78z" fill="url(#U)"/><g fill="#a56ef4"><path d="M202.85 336.65l24.71-14.27 24.26 14-24.71 14.27-24.26-14zm-4.1 0L227.1 353l28.83-16.65L227.58 320l-28.83 16.65zm45.8-16.33l49.22-28.42-2-1.15-49.22 28.42 2 1.15zm5.71 3.3l49.22-28.42-2-1.15-49.22 28.41 2 1.16zm4.95 4.17l33.1-19.11-2-1.15-33.09 19.1 1.99 1.16z"/></g><g class="C" fill="#a56ef4"><path d="M316.56 284.49c-3.39-1.95-3.37-5.14 0-7.1a13.59 13.59 0 0 1 12.31 0c3.39 1.95 3.37 5.14 0 7.1a13.57 13.57 0 0 1-12.31 0zm.88-.5A11.7 11.7 0 0 0 328 284c2.92-1.69 2.93-4.42 0-6.09a11.67 11.67 0 0 0-10.55 0c-2.9 1.67-2.91 4.4-.01 6.09zm4.04-2.34h-1.76c-.69 0-1.24-.32-1.24-.71s.56-.72 1.25-.72h1.76v-1c0-.4.56-.72 1.24-.72s1.24.32 1.24.71v1h1.76c.69 0 1.24.32 1.24.71a.62.62 0 0 1-.37.51 1.79 1.79 0 0 1-.88.21H324v1a.63.63 0 0 1-.36.51 1.82 1.82 0 0 1-.88.21c-.69 0-1.25-.32-1.24-.71z"/></g><g class="C" fill="#7c1dc9"><path d="M260.16 187l100.63-58.1 88.74 51.23-100.63 58.13L260.16 187zm-4.45 0l93.18 53.8L454 180.16l-93.18-53.8L255.71 187zM443 204.23l37-21.34 25.69 14.84-37 21.33L443 204.23zm-4.45 0l30.12 17.39 41.42-23.91L480 180.33l-41.41 23.91zM398.33 230l36.95-21.33L461 223.53l-37 21.33L398.33 230zm-4.45 0L424 247.43l41.42-23.91-30.13-17.39L393.88 230zm-40.24 25.83l36.95-21.33 25.68 14.83-36.95 21.34-25.68-14.84zm-4.46 0l30.13 17.4 41.42-23.92-30.13-17.38-41.42 23.91zm55.67 31.7l130.41-75.29-4.08-2.36-130.41 75.29 4.08 2.36zm11.68 6.74l130.41-75.29-4.09-2.36-130.41 75.29 4.09 2.36zm73.74-28.87l68.54-39.57-4.09-2.36-68.53 39.57 4.08 2.36zm173.95 43.06a3 3 0 0 0 1.06-2c0-.43-.59-.77-1.33-.77a13.23 13.23 0 0 1-2.88-.31 2.62 2.62 0 0 1-1.85 0c-.49-.28-.65-.65-.42-.9-1.93-1.23-2.84-2.7-.07-4.29a7.25 7.25 0 0 1 7.43 0 2.19 2.19 0 0 1 1.57.24.64.64 0 0 1 .06 1.07 2.9 2.9 0 0 1 .54 1.66c0 .43.59.78 1.33.77a11.36 11.36 0 0 0 3.52-.61 5.84 5.84 0 0 1 4.56.31l2.15 1.23a.46.46 0 0 1 0 .87l-11.48 6.63a1.65 1.65 0 0 1-1.5 0l-2.15-1.23c-1.24-.75-1.42-1.84-.54-2.67zM553.07 371l-.68 1.62a15.2 15.2 0 0 0 2.68.64l1.51-1.42a13.59 13.59 0 0 0 2.47 0l1.49 1.42a15.54 15.54 0 0 0 2.69-.65l-.66-1.61a9.32 9.32 0 0 0 .95-.47 8 8 0 0 0 .8-.54l2.8.38a5.42 5.42 0 0 0 1.12-1.55l-2.45-.87a2.74 2.74 0 0 0 0-1.42l2.46-.88a5.12 5.12 0 0 0-1.1-1.54l-2.8.39a6.2 6.2 0 0 0-.8-.54 6.83 6.83 0 0 0-.94-.46l.68-1.62a15.41 15.41 0 0 0-2.68-.64l-1.51 1.42a13.59 13.59 0 0 0-2.47 0l-1.5-1.42a15.76 15.76 0 0 0-2.69.65l.67 1.61a7.63 7.63 0 0 0-1 .47 6.2 6.2 0 0 0-.8.54l-2.8-.38a5.42 5.42 0 0 0-1.12 1.55l2.45.87a2.74 2.74 0 0 0 0 1.42l-2.46.87a5.21 5.21 0 0 0 1.1 1.55l2.81-.39a6.83 6.83 0 0 0 .79.54 9.27 9.27 0 0 0 .99.46zm2.47-2.43c-1.26-.73-1.25-1.91 0-2.64a5 5 0 0 1 4.57 0c1.26.73 1.26 1.91 0 2.64a5.06 5.06 0 0 1-4.57.02zm84.29-46.79l-3.51 2 6.35 3.67 3.5-2zm-9.35.73l-3.5 2 10.38 6 3.5-2zm-12.85 2.76l14.42 8.33 3.5-2-14.42-8.32zm-33.15 19.29a8.62 8.62 0 0 1 5.56-.79c-.59-1.1-.13-2.34 1.38-3.21a8.61 8.61 0 0 1 7.8 0c3.93 2.26 1.4 9.33 1.4 9.33s-12.23 1.46-16.16-.81c-2.15-1.25-2.14-3.27.02-4.52zM201.55 157.19a3.61 3.61 0 0 0-3.25 0l-21.8 12.58a1 1 0 0 0 0 1.88 3.58 3.58 0 0 0 3.25 0l21.8-12.58a1 1 0 0 0 0-1.88zM182 174.82a3.61 3.61 0 0 0 3.25 0L207 162.23a1 1 0 0 0 0-1.88 3.58 3.58 0 0 0-3.25 0L182 172.94c-.93.52-.94 1.36 0 1.88zm5.46 3.15a3.58 3.58 0 0 0 3.25 0l21.8-12.59c.9-.52.91-1.36 0-1.87a3.58 3.58 0 0 0-3.25 0l-21.8 12.59c-.93.52-.93 1.36-.04 1.9zm341.66 217.66L162.31 183.86c-10.19-5.89-10.14-15.5.12-21.42L318.21 72.5c10.26-5.92 26.9-6 37.09-.07l366.81 211.78c10.19 5.89 10.14 15.49-.12 21.41l-155.78 89.94c-10.21 5.93-26.9 5.96-37.09.07zM163.91 163.29c-9.44 5.45-9.49 14.29-.11 19.71l366.81 211.77c9.37 5.42 24.68 5.39 34.12-.06l155.78-89.94c9.44-5.45 9.49-14.29.11-19.7L353.81 73.29c-9.38-5.41-24.68-5.38-34.12.06zm169.72-75.52c0 .67.94 1.21 2.1 1.21s2.1-.55 2.1-1.21-.93-1.21-2.09-1.21-2.1.54-2.11 1.21zm3.2-9.69h.35v1.22h-.34c-8.68 0-15.76 4.1-15.79 9.11h0H319c0-5.68 8-10.32 17.83-10.33zm-.02 4.84h.34v1.21h-.35c-4.05 0-7.35 1.92-7.37 4.26h-2.1 0c.02-3.01 4.27-5.46 9.48-5.47zm.01-2.42h.35v1.21h-.35c-6.36 0-11.55 3-11.57 6.68h0-2.1 0c.01-4.33 6.15-7.88 13.67-7.89zm-101.57 70.35l62.89-36.3-4.07-2.35-62.88 36.3 4.06 2.35zm265.53 169.47c-7.95-4.59-7.91-12.08.09-16.7l61.86-35.72c8-4.62 21-4.64 28.93 0s7.91 12.08-.09 16.7l-61.86 35.72c-8 4.57-20.98 4.59-28.93 0zm2.31-15.42c-6.77 3.91-6.81 10.25-.08 14.13s17.71 3.87 24.48 0l61.86-35.72c6.77-3.91 6.81-10.25.08-14.13s-17.71-3.87-24.48 0zm-199.54-79.11a1.07 1.07 0 0 0 .62-.86c0-.67-.93-1.21-2.09-1.21h-16.79l.06-9.69c0-.67-.94-1.21-2.1-1.21s-2.1.55-2.1 1.22l-.07 12.11h21a3 3 0 0 0 1.47-.36zm124.77-72.04a1 1 0 0 0 .62-.86l.07-12.11h-21c-1.16 0-2.1.54-2.11 1.21s.94 1.21 2.09 1.21h16.79l-.05 9.69c0 .67.93 1.21 2.09 1.21a3 3 0 0 0 1.5-.35z"/></g><g class="C" fill="#b4299a"><path d="M557.57 125.55c0 1.29 1.8 2.33 4 2.33s4.06-1.06 4.06-2.35-1.8-2.33-4-2.33-4.05 1.05-4.06 2.35zM544.69 133c0 1.3 1.8 2.34 4 2.34s4.06-1.06 4.06-2.35-1.8-2.34-4-2.33-4.05 1.03-4.06 2.34zm-4.3.44l21.72-12.54-12.9-21.53 7.63-4.37a.67.67 0 0 0 0-1.28 2.48 2.48 0 0 0-2.22 0l-9 5.21 12.9 21.54-20.32 11.73a.68.68 0 0 0 0 1.29 2.45 2.45 0 0 0 2.19-.05zm-5.39-3.5l19.74-11.4a.67.67 0 0 0 0-1.28 2.48 2.48 0 0 0-2.22 0l-18.84 10.88-14.51-5.4 28.36-16.38a.67.67 0 0 0 0-1.28 2.48 2.48 0 0 0-2.22 0l-29.74 17.17a.76.76 0 0 0-.46.74 1 1 0 0 0 .71.67l17.2 6.4a2.5 2.5 0 0 0 1.98-.12zm-37.43 12.96c-24.34-14.05-24.22-37 .28-51.13s64.23-14.22 88.57-.17 24.22 37-.28 51.14-64.23 14.26-88.57.16zm3-1.71c22.72 13.11 59.79 13 82.65-.15s23-34.6.26-47.72-59.79-13-82.65.15-23 34.6-.29 47.72z"/><path d="M485 150.14c-31.21-18-31.05-47.43.36-65.56s82.38-18.23 113.64-.21 31 47.43-.36 65.56-82.39 18.22-113.64.21zm4.46-2.58c28.76 16.61 75.72 16.53 104.66-.19s29.1-43.82.33-60.43-75.72-16.52-104.66.19-29.06 43.87-.29 60.43z" opacity=".4"/><path d="M471.67 157.86c-38.54-22.25-38.34-58.57.44-81s101.68-22.5 140.21-.25 38.34 58.57-.44 80.95-101.68 22.55-140.21.3zm5.94-3.43c35.28 20.36 92.87 20.26 128.37-.24s35.68-53.74.4-74.11-92.87-20.26-128.38.23-35.67 53.75-.39 74.12z" opacity=".1"/></g><path d="M546.82,424.27V421.7a1.09,1.09,0,1,1,2.17,0v2.57a1.09,1.09,0,1,1-2.17,0Zm0-7v-4.41a1.09,1.09,0,1,1,2.17,0v4.41a1.09,1.09,0,1,1-2.17,0Zm0-8.83V404a1.09,1.09,0,1,1,2.17,0v4.41a1.09,1.09,0,1,1-2.17,0Zm0-8.82v-4.42a1.09,1.09,0,1,1,2.17,0v4.42a1.09,1.09,0,1,1-2.17,0Zm0-8.83v-4.42a1.09,1.09,0,1,1,2.17,0v4.42a1.09,1.09,0,1,1-2.17,0Zm0-8.83v-4.42a1.09,1.09,0,1,1,2.17,0V382a1.09,1.09,0,1,1-2.17,0Zm0-8.83v-4.42a1.09,1.09,0,1,1,2.17,0v4.42a1.09,1.09,0,1,1-2.17,0Zm0-8.83v-4.42a1.09,1.09,0,1,1,2.17,0v4.42a1.09,1.09,0,1,1-2.17,0Zm0-8.83v-4.42a1.09,1.09,0,1,1,2.17,0v4.42a1.09,1.09,0,1,1-2.17,0Zm0-8.83v-4.42a1.09,1.09,0,1,1,2.17,0v4.42a1.09,1.09,0,1,1-2.17,0Zm0-8.83V333.4a1.09,1.09,0,1,1,2.17,0v4.42a1.09,1.09,0,1,1-2.17,0Zm0-8.83v-4.42a1.09,1.09,0,1,1,2.17,0V329a1.09,1.09,0,1,1-2.17,0Zm0-8.83v-4.42a1.09,1.09,0,1,1,2.17,0v4.42a1.09,1.09,0,1,1-2.17,0Zm0-8.83v-4.41a1.09,1.09,0,1,1,2.17,0v4.41a1.09,1.09,0,1,1-2.17,0Z" fill="#7c1dc9"/></g></g></svg>