<svg xmlns="http://www.w3.org/2000/svg" xmlns:xlink="http://www.w3.org/1999/xlink" viewBox="0 0 891.57 708.71"  xmlns:v="https://vecta.io/nano"><style>.A{isolation:isolate}.Av,.Aw,.Ax,.Ay,.Az,.BB,.C,.AT,.Aa{mix-blend-mode:screen}.BC,.BD,.BE,.BF,.BG,.BH,.BI,.BJ,.D,.AB{mix-blend-mode:color-dodge}</style><defs><linearGradient id="A" x1="466.1" y1="354.13" x2="299.11" y2="63.77" xlink:href="#Aj"><stop offset=".04" stop-color="#138bbd"/><stop offset=".23" stop-color="#169ac7"/><stop offset=".59" stop-color="#1fc3df"/><stop offset="1" stop-color="#2af6ff"/></linearGradient><radialGradient id="B" cx="374.72" cy="195.25" r="99.09" xlink:href="#Aj"><stop offset="0" stop-color="#fff"/><stop offset="1"/></radialGradient><linearGradient id="C" x1="346.54" y1="150.37" x2="358.81" y2="150.37" xlink:href="#Aj"><stop offset="0" stop-color="#fff"/><stop offset=".94" stop-color="#9ec3e5"/></linearGradient><linearGradient id="D" x1="339.46" y1="176.67" x2="351.67" y2="176.67" xlink:href="#C" /><linearGradient id="E" x1="337.38" y1="153.37" x2="351.01" y2="153.37" xlink:href="#C" /><linearGradient id="F" x1="336.69" y1="165.84" x2="343.62" y2="165.84" xlink:href="#C" /><linearGradient id="G" x1="314.95" y1="162.43" x2="326.22" y2="162.43" xlink:href="#C" /><linearGradient id="H" x1="347.24" y1="172.72" x2="356.9" y2="172.72" xlink:href="#C" /><linearGradient id="I" x1="343.02" y1="161.79" x2="348.75" y2="161.79" xlink:href="#C" /><linearGradient id="J" x1="362.43" y1="156.86" x2="365.55" y2="156.86" xlink:href="#C" /><linearGradient id="K" x1="327.73" y1="154.77" x2="339.4" y2="154.77" xlink:href="#C" /><linearGradient id="L" x1="354.64" y1="164.23" x2="371.84" y2="164.23" xlink:href="#C" /><linearGradient id="M" x1="318.47" y1="157.68" x2="333.12" y2="157.68" xlink:href="#C" /><linearGradient id="N" x1="321.99" y1="136.09" x2="333.46" y2="136.09" xlink:href="#C" /><linearGradient id="O" x1="337.08" y1="143.11" x2="342.92" y2="143.11" xlink:href="#C" /><linearGradient id="P" x1="329.84" y1="169.38" x2="335.89" y2="169.38" xlink:href="#C" /><linearGradient id="Q" x1="368.62" y1="186.82" x2="384.26" y2="186.82" xlink:href="#C" /><linearGradient id="R" x1="305.8" y1="155.6" x2="311.33" y2="155.6" xlink:href="#C" /><linearGradient id="S" x1="294.48" y1="124.59" x2="319.08" y2="124.59" xlink:href="#C" /><linearGradient id="T" x1="372.24" y1="178.52" x2="378.02" y2="178.52" xlink:href="#C" /><linearGradient id="U" x1="375.46" y1="178.99" x2="402.47" y2="178.99" xlink:href="#C" /><linearGradient id="V" x1="352.37" y1="170.13" x2="368.67" y2="170.13" xlink:href="#C" /><linearGradient id="W" x1="369.17" y1="163.56" x2="382.15" y2="163.56" xlink:href="#C" /><linearGradient id="X" x1="305.8" y1="149.02" x2="314.85" y2="149.02" xlink:href="#C" /><linearGradient id="Y" x1="360.52" y1="178.91" x2="365.05" y2="178.91" xlink:href="#C" /><linearGradient id="Z" x1="305.8" y1="144.17" x2="324.1" y2="144.17" xlink:href="#C" /><linearGradient id="a" x1="355.04" y1="193.57" x2="369.72" y2="193.57" xlink:href="#C" /><linearGradient id="b" x1="305.8" y1="139.43" x2="333.76" y2="139.43" xlink:href="#C" /><linearGradient id="c" x1="339.46" y1="206.6" x2="351.67" y2="206.6" xlink:href="#C" /><linearGradient id="d" x1="337.38" y1="183.29" x2="351.01" y2="183.29" xlink:href="#C" /><linearGradient id="e" x1="336.69" y1="195.76" x2="343.62" y2="195.76" xlink:href="#C" /><linearGradient id="f" x1="314.95" y1="192.35" x2="326.22" y2="192.35" xlink:href="#C" /><linearGradient id="g" x1="347.24" y1="202.64" x2="356.9" y2="202.64" xlink:href="#C" /><linearGradient id="h" x1="343.02" y1="191.71" x2="348.75" y2="191.71" xlink:href="#C" /><linearGradient id="i" x1="327.73" y1="184.69" x2="339.4" y2="184.69" xlink:href="#C" /><linearGradient id="j" x1="318.47" y1="187.6" x2="333.12" y2="187.6" xlink:href="#C" /><linearGradient id="k" x1="329.84" y1="199.3" x2="335.89" y2="199.3" xlink:href="#C" /><linearGradient id="l" x1="368.62" y1="216.75" x2="384.26" y2="216.75" xlink:href="#C" /><linearGradient id="m" x1="305.8" y1="185.53" x2="311.33" y2="185.53" xlink:href="#C" /><linearGradient id="n" x1="372.24" y1="208.44" x2="378.02" y2="208.44" xlink:href="#C" /><linearGradient id="o" x1="352.37" y1="200.05" x2="368.67" y2="200.05" xlink:href="#C" /><linearGradient id="p" x1="305.8" y1="178.94" x2="314.85" y2="178.94" xlink:href="#C" /><linearGradient id="q" x1="360.52" y1="208.83" x2="365.05" y2="208.83" xlink:href="#C" /><linearGradient id="r" x1="305.8" y1="174.09" x2="324.1" y2="174.09" xlink:href="#C" /><linearGradient id="s" x1="334.72" y1="209.27" x2="340.45" y2="209.27" xlink:href="#C" /><linearGradient id="t" x1="319.43" y1="202.25" x2="331.1" y2="202.25" xlink:href="#C" /><linearGradient id="u" x1="363.94" y1="225.99" x2="369.72" y2="225.99" xlink:href="#C" /><linearGradient id="v" x1="344.07" y1="217.61" x2="360.37" y2="217.61" xlink:href="#C" /><linearGradient id="w" x1="297.5" y1="191.64" x2="315.81" y2="191.64" xlink:href="#C" /><linearGradient id="x" x1="305.8" y1="169.35" x2="333.76" y2="169.35" xlink:href="#C" /><linearGradient id="y" x1="220.35" y1="462.6" x2="742.19" y2="462.6" xlink:href="#Aj"><stop offset=".06" stop-color="#200041"/><stop offset=".26" stop-color="#210243"/><stop offset=".36" stop-color="#25084b"/><stop offset=".43" stop-color="#2c1358"/><stop offset=".47" stop-color="#311b61"/><stop offset=".48" stop-color="#351f65"/><stop offset=".5" stop-color="#422c73"/><stop offset=".51" stop-color="#584188"/><stop offset=".52" stop-color="#765fa7"/><stop offset=".53" stop-color="#8770b8"/><stop offset=".54" stop-color="#7e67ae"/><stop offset=".56" stop-color="#5c468d"/><stop offset=".59" stop-color="#442e75"/><stop offset=".61" stop-color="#362066"/><stop offset=".63" stop-color="#311b61"/><stop offset=".67" stop-color="#2a1155"/><stop offset=".75" stop-color="#230446"/><stop offset=".81" stop-color="#200041"/></linearGradient><linearGradient id="z" x1="192.48" y1="448.93" x2="694.51" y2="448.93" xlink:href="#Aj"><stop offset="0" stop-color="#311b61"/><stop offset=".2" stop-color="#290f52"/><stop offset=".49" stop-color="#200041"/><stop offset="1" stop-color="#0f001f"/></linearGradient><linearGradient id="AA" x1="223.85" y1="532.47" x2="745.68" y2="532.47" xlink:href="#y" /><linearGradient id="AB" x1="198.09" y1="448.93" x2="688.89" y2="448.93" xlink:href="#Aj"><stop offset="0" stop-color="#3d065f"/><stop offset="1" stop-color="#5f27bd"/></linearGradient><radialGradient id="AC" cx="463.05" cy="538.02" r="188.4" xlink:href="#B" /><linearGradient id="AD" x1="94.61" y1="782.75" x2="-60.23" y2="665.7" gradientTransform="matrix(0.87, 0.5, -1.5, 0.29, 1479.74, 241.05)" xlink:href="#Aj"><stop offset="0" stop-color="#3d065f"/><stop offset="1" stop-color="#260556"/></linearGradient><linearGradient id="AE" x1="218.68" y1="-26.61" x2="740.96" y2="427.04" xlink:href="#Aj"><stop offset=".19" stop-color="#3d065f"/></linearGradient><linearGradient id="AF" x1="224.2" y1="-21.82" x2="737.7" y2="424.21" xlink:href="#z" /><linearGradient id="AG" x1="313.27" y1="-16.79" x2="809.51" y2="567.07" xlink:href="#Aj"><stop offset=".01" stop-color="#2af6ff"/><stop offset=".06" stop-color="#3ec0f2"/><stop offset=".11" stop-color="#518fe5"/><stop offset=".16" stop-color="#6066db"/><stop offset=".21" stop-color="#6c46d3"/><stop offset=".26" stop-color="#752fce"/><stop offset=".3" stop-color="#7a22ca"/><stop offset=".34" stop-color="#7c1dc9"/><stop offset=".49" stop-color="#5e1699"/><stop offset=".74" stop-color="#300b4e"/><stop offset=".91" stop-color="#13051f"/><stop offset="1" stop-color="#08020d"/></linearGradient><linearGradient id="AH" x1="355.6" y1="32.56" x2="717.61" y2="459.35" xlink:href="#Aj"><stop offset="0" stop-color="#7c1dc9"/><stop offset=".03" stop-color="#741bbd"/><stop offset=".16" stop-color="#56148b"/><stop offset=".3" stop-color="#3b0e60"/><stop offset=".43" stop-color="#26093e"/><stop offset=".57" stop-color="#150523"/><stop offset=".71" stop-color="#09020f"/><stop offset=".85" stop-color="#020104"/><stop offset="1"/></linearGradient><linearGradient id="AI" x1="768.24" y1="480.21" x2="511.51" y2="69.99" xlink:href="#y" /><radialGradient id="AJ" cx="1680.57" cy="228.18" r="43.63" gradientTransform="translate(-985.58)" xlink:href="#B" /><linearGradient id="AK" x1="548.11" y1="347.38" x2="458.34" y2="445.11" xlink:href="#Aj"><stop offset="0" stop-color="#3d065f"/><stop offset="1" stop-color="#12054e"/><stop offset="1" stop-color="#10054d"/></linearGradient><linearGradient id="AL" x1="429.84" y1="373.37" x2="429.84" y2="413.31" xlink:href="#Aj"><stop offset="0" stop-color="#3d065f"/><stop offset="1" stop-color="#521b9a"/></linearGradient><linearGradient id="AM" x1="455.71" y1="345.98" x2="423.28" y2="385.61" xlink:href="#Aj"><stop offset="0" stop-color="#3d065f"/><stop offset=".77" stop-color="#5e26ba"/><stop offset="1" stop-color="#6f2bcf"/></linearGradient><linearGradient id="AN" x1="460.66" y1="390.4" x2="460.66" y2="433.83" xlink:href="#AL" /><linearGradient id="AO" x1="486.54" y1="362.99" x2="454.11" y2="402.63" xlink:href="#AM" /><linearGradient id="AP" x1="491.49" y1="409.92" x2="491.49" y2="444.33" xlink:href="#AL" /><linearGradient id="AQ" x1="517.37" y1="380.01" x2="484.94" y2="419.64" xlink:href="#AM" /><linearGradient id="AR" x1="522.32" y1="427.12" x2="522.32" y2="457.72" xlink:href="#AL" /><linearGradient id="AS" x1="548.19" y1="397.02" x2="515.77" y2="436.66" xlink:href="#AM" /><linearGradient id="AT" x1="444.97" y1="427.43" x2="435.71" y2="475.23" xlink:href="#AL" /><linearGradient id="AU" x1="485.55" y1="370.74" x2="434.82" y2="432.75" xlink:href="#AM" /><linearGradient id="AV" x1="537.12" y1="462.58" x2="542.75" y2="497.31" xlink:href="#AL" /><linearGradient id="AW" x1="593.87" y1="385.1" x2="522.57" y2="472.25" xlink:href="#AM" /><linearGradient id="AX" x1="659.08" y1="382.37" x2="545.95" y2="239.47" xlink:href="#A" /><linearGradient id="AY" x1="479.3" y1="295.66" x2="412.82" y2="180.06" xlink:href="#A" /><linearGradient id="AZ" x1="557.87" y1="203.34" x2="532.07" y2="127.92" xlink:href="#Aj"><stop offset=".04" stop-color="#9f19ab"/><stop offset=".24" stop-color="#ae25b1"/><stop offset=".65" stop-color="#d744bf"/><stop offset="1" stop-color="#ff63ce"/></linearGradient><linearGradient id="Aa" x1="558.03" y1="373.44" x2="517.35" y2="302.99" xlink:href="#AZ" /><linearGradient id="Ab" x1="572.07" y1="284.1" x2="525.92" y2="207.19" xlink:href="#Aj"><stop offset=".04" stop-color="#ffa98c"/><stop offset=".32" stop-color="#ffb892"/><stop offset=".86" stop-color="#fee1a3"/><stop offset="1" stop-color="#feeca8"/></linearGradient><radialGradient id="Ac" cx="621.41" cy="334.79" r="39.45" xlink:href="#B" /><radialGradient id="Ad" cx="442.92" cy="232.4" r="39.45" xlink:href="#B" /><radialGradient id="Ae" cx="547.38" cy="169.55" r="35.51" xlink:href="#B" /><radialGradient id="Af" cx="544.17" cy="347.39" r="35.51" xlink:href="#B" /><radialGradient id="Ag" cx="545.08" cy="234.6" r="32.75" xlink:href="#B" /><linearGradient id="Ah" x1="779.93" y1="326.96" x2="750.67" y2="278.19" xlink:href="#Ab" /><linearGradient id="Ai" x1="746.3" y1="233.62" x2="728.82" y2="182.54" xlink:href="#AZ" /><linearGradient id="Aj" gradientUnits="userSpaceOnUse"/></defs><g class="A"><g><path d="M468.62 299.28L280.83 190.86V91.22l187.79 108.42v99.64z" fill="url(#A)"/><path class="C" d="M280.83 91.22v3.93l185.3 106.98v95.71l2.49 1.44v-99.64L280.83 91.22z" fill="url(#B)"/><g class="D"><path d="M346.54 148.67l12.27 7.03v-3.63l-12.27-7.02v3.62z" fill="url(#C)"/><path d="M351.67 178.38l-12.21-7.04v3.62l12.21 7.05v-3.63z" fill="url(#D)"/><path d="M351.01 159.05v-3.63l-13.63-7.73v3.63l13.63 7.73z" fill="url(#E)"/><path d="M336.69 162.03v3.62l6.93 4v-3.62l-6.93-4z" fill="url(#F)"/><path d="M326.22 167.43v-3.63l-11.27-6.37v3.62l11.27 6.38z" fill="url(#G)"/><path d="M356.9 173.69l-9.66-5.57v3.62l9.66 5.58v-3.63z" fill="url(#H)"/><path d="M343.02 158.34v3.63l5.73 3.26v-3.62l-5.73-3.27z" fill="url(#I)"/><path d="M362.43 154.15v3.62l3.12 1.81v-3.62l-3.12-1.81z" fill="url(#J)"/><path d="M339.39 159.91v-3.63l-11.66-6.65v3.63l11.66 6.65z" fill="url(#K)"/><path d="M354.63 157.5v3.62l17.21 9.85v-3.63l-17.21-9.84z" fill="url(#L)"/><path d="M333.12 163.59v-3.62l-14.65-8.21v3.63l14.65 8.2z" fill="url(#M)"/><path d="M321.99 130.99v3.63l11.47 6.56v-3.62l-11.47-6.57z" fill="url(#N)"/><path d="M342.92 142.97l-5.84-3.34v3.63l5.84 3.34v-3.63z" fill="url(#O)"/><path d="M335.89 169.28l-6.05-3.43v3.63l6.05 3.42v-3.62z" fill="url(#P)"/><path d="M368.62 184.09l15.64 9.09v-3.62l-15.64-9.09v3.62z" fill="url(#Q)"/><path d="M311.33 155.38l-5.53-3.18v3.62l5.53 3.18v-3.62z" fill="url(#R)"/><path d="M294.48 115.77v3.63l24.59 14.01v-3.62l-24.59-14.02z" fill="url(#S)"/><path d="M372.24 178.64l5.78 3.37v-3.62l-5.78-3.37v3.62z" fill="url(#T)"/><path d="M375.46 173.04l27.01 15.51v-3.62l-27.01-15.51v3.62z" fill="url(#U)"/><path d="M352.37 167.3l16.3 9.28v-3.62l-16.3-9.29v3.63z" fill="url(#V)"/><path d="M369.17 158.03v3.63l12.98 7.43v-3.63l-12.98-7.43z" fill="url(#W)"/><path d="M314.85 149.74l-9.05-5.07v3.62l9.05 5.07v-3.62z" fill="url(#X)"/><path d="M365.05 178.41l-4.53-2.63v3.63l4.53 2.62v-3.62z" fill="url(#Y)"/><path d="M324.11 147.57l-18.31-10.43v3.62l18.31 10.43v-3.62z" fill="url(#Z)"/><path d="M355.04 191.19l14.68 8.38v-3.63l-14.68-8.37v3.62z" fill="url(#a)"/><path d="M333.76 145.62l-27.96-16.01v3.62l27.96 16.01v-3.62z" fill="url(#b)"/><path d="M351.67 208.31l-12.21-7.05v3.62l12.21 7.05v-3.62z" fill="url(#c)"/><path d="M351.01 188.97v-3.62l-13.63-7.73v3.62l13.63 7.73z" fill="url(#d)"/><path d="M336.69 191.95v3.62l6.93 4v-3.62l-6.93-4z" fill="url(#e)"/><path d="M326.22 197.35v-3.62l-11.27-6.38v3.63l11.27 6.37z" fill="url(#f)"/><path d="M356.9 203.62l-9.66-5.58v3.62l9.66 5.58v-3.62z" fill="url(#g)"/><path d="M343.02 188.27v3.62l5.73 3.27v-3.63l-5.73-3.26z" fill="url(#h)"/><path d="M339.39 189.83v-3.63l-11.66-6.64v3.62l11.66 6.65z" fill="url(#i)"/><path d="M333.12 193.51v-3.62l-14.65-8.2v3.62l14.65 8.2z" fill="url(#j)"/><path d="M335.89 199.2l-6.05-3.42v3.62l6.05 3.42v-3.62z" fill="url(#k)"/><path d="M368.62 214.01l15.64 9.09v-3.62l-15.64-9.09v3.62z" fill="url(#l)"/><path d="M311.33 185.3l-5.53-3.18v3.63l5.53 3.18v-3.63z" fill="url(#m)"/><path d="M372.24 208.57l5.78 3.37v-3.63l-5.78-3.37v3.63z" fill="url(#n)"/><path d="M352.37 197.22l16.3 9.29v-3.63l-16.3-9.28v3.62z" fill="url(#o)"/><path d="M314.85 179.66l-9.05-5.07v3.63l9.05 5.06v-3.62z" fill="url(#p)"/><path d="M365.05 208.33l-4.53-2.62v3.62l4.53 2.62v-3.62z" fill="url(#q)"/><path d="M324.11 177.49l-18.31-10.43v3.63l18.31 10.43v-3.63z" fill="url(#r)"/><path d="M334.72 205.82v3.62l5.73 3.27v-3.62l-5.73-3.27z" fill="url(#s)"/><path d="M331.1 207.38v-3.62l-11.67-6.65v3.62l11.67 6.65z" fill="url(#t)"/><path d="M363.94 226.12l5.78 3.37v-3.62l-5.78-3.37v3.62z" fill="url(#u)"/><path d="M344.07 214.77l16.3 9.29v-3.62l-16.3-9.29v3.62z" fill="url(#v)"/><path d="M315.81 195.05l-18.31-10.43v3.62l18.31 10.43v-3.62z" fill="url(#w)"/><path d="M333.76 175.54l-27.96-16.01v3.63l27.96 16.01v-3.63z" fill="url(#x)"/></g><g class="D" fill="#6b24d6"><path d="M504.94 687.24a35.76 35.76 0 0 1-4.49-.37.89.89 0 0 1-.76-1 .91.91 0 0 1 1-.75 34.32 34.32 0 0 0 4.27.36.89.89 0 1 1 0 1.77zm3.53-.99a.88.88 0 0 1 .78-1 25.11 25.11 0 0 0 4.16-.83.89.89 0 0 1 .5 1.7 26.47 26.47 0 0 1-4.46.89h-.1a.89.89 0 0 1-.88-.76zm-12.47-.31a31.06 31.06 0 0 1-4.26-1.53.89.89 0 1 1 .73-1.62 29.6 29.6 0 0 0 4 1.44.89.89 0 0 1-.24 1.74zm21-1.94a.93.93 0 0 1 .37-1.24l3.81-2.2a.89.89 0 0 1 .89 1.54l-3.82 2.21-.51-.73.44.77a.94.94 0 0 1-.42.11.89.89 0 0 1-.76-.46zm-29.19-1.71l-3.81-2.2a.89.89 0 0 1 .89-1.54l3.81 2.2a.89.89 0 0 1 .3 1.25.9.9 0 0 1-.77.45.92.92 0 0 1-.42-.16zm36.83-2.68a.9.9 0 0 1 .33-1.22l3.81-2.2a.89.89 0 0 1 .89 1.54l-3.81 2.2a.92.92 0 0 1-.45.12.91.91 0 0 1-.77-.44zm-44.45-1.72l-3.81-2.2a.89.89 0 0 1 .89-1.54l3.81 2.2a.89.89 0 0 1 .32 1.22.89.89 0 0 1-1.21.32zm52.08-2.68a.89.89 0 0 1 .32-1.22l3.81-2.2a.9.9 0 0 1 1.22.33.89.89 0 0 1-.33 1.21l-3.81 2.2a.89.89 0 0 1-1.21-.32zm-59.7-1.72l-3.81-2.2a.89.89 0 1 1 .89-1.54l3.81 2.2a.89.89 0 0 1 .32 1.21.87.87 0 0 1-.77.45.88.88 0 0 1-.44-.12zm67.32-2.69a.89.89 0 0 1 .32-1.21l3.81-2.2a.9.9 0 0 1 1.22.33.89.89 0 0 1-.33 1.21l-3.81 2.2a.88.88 0 0 1-.44.12.87.87 0 0 1-.77-.45zM465 669.09l-3.81-2.2a.89.89 0 1 1 .89-1.54l3.81 2.2a.89.89 0 0 1 .32 1.21.87.87 0 0 1-.77.45.88.88 0 0 1-.44-.12zm82.51-2.69a.89.89 0 0 1 .32-1.21l3.82-2.2a.89.89 0 0 1 .89 1.54l-3.82 2.2a.88.88 0 0 1-.44.12.87.87 0 0 1-.77-.45zm-90.19-1.71l-3.81-2.2a.89.89 0 0 1 .89-1.54l3.81 2.2a.89.89 0 0 1-.44 1.66.92.92 0 0 1-.45-.12zm97.81-2.69a.89.89 0 0 1 .33-1.21l3.81-2.2a.89.89 0 0 1 .89 1.54l-3.81 2.2a.92.92 0 0 1-.45.12.9.9 0 0 1-.77-.45zm-105.43-1.71l-3.81-2.2a.89.89 0 0 1-.32-1.22.88.88 0 0 1 1.21-.32l3.81 2.2a.89.89 0 0 1 .33 1.21.9.9 0 0 1-.77.45.92.92 0 0 1-.45-.12zm113.06-2.69a.87.87 0 0 1 .32-1.21l3.81-2.2a.89.89 0 0 1 .89 1.54l-3.81 2.2a.89.89 0 0 1-.45.12.87.87 0 0 1-.76-.45zm-120.68-1.71l-3.81-2.2a.89.89 0 1 1 .89-1.54l3.81 2.2a.89.89 0 1 1-.89 1.54zm133.25-60.14l-3.81-2.2a.89.89 0 0 1 .89-1.54l3.81 2.2a.89.89 0 0 1-.44 1.66.89.89 0 0 1-.45-.12zm-7.62-4.4l-3.81-2.2a.89.89 0 1 1 .89-1.54l3.81 2.2a.89.89 0 1 1-.89 1.54zm-7.62-4.35l-3.81-2.2a.89.89 0 1 1 .89-1.54l3.81 2.2a.89.89 0 1 1-.89 1.54zM271.85 364.5l-3.85-2.2a.89.89 0 1 1 .88-1.54l3.81 2.2a.89.89 0 1 1-.88 1.54zm-7.63-4.4l-3.81-2.2a.89.89 0 0 1 .89-1.54l3.81 2.2a.89.89 0 0 1 .33 1.21.9.9 0 0 1-.77.45.92.92 0 0 1-.45-.12zm-7.62-4.4l-3.81-2.2a.89.89 0 0 1-.32-1.22.89.89 0 0 1 1.21-.32l3.81 2.2a.89.89 0 0 1 .33 1.21.9.9 0 0 1-.77.45.92.92 0 0 1-.45-.12zm313.78 297.5a.88.88 0 0 1 .32-1.21l3.81-2.2a.89.89 0 1 1 .89 1.54l-3.81 2.2a.88.88 0 0 1-.44.12.87.87 0 0 1-.77-.45zM138.72 363.11a.88.88 0 0 1 .32-1.21l3.81-2.2a.89.89 0 1 1 .89 1.54l-3.81 2.2a.88.88 0 0 1-.44.12.87.87 0 0 1-.77-.45zm7.62-4.4a.88.88 0 0 1 .32-1.21l3.81-2.2a.89.89 0 1 1 .89 1.54l-3.81 2.2a.88.88 0 0 1-.44.12.87.87 0 0 1-.77-.45zm7.66-4.4a.88.88 0 0 1 .33-1.21l3.81-2.2a.88.88 0 0 1 1.21.32.89.89 0 0 1-.32 1.22l-3.82 2.2a.88.88 0 0 1-.44.12.87.87 0 0 1-.77-.45zm508 242a.88.88 0 0 1 .32-1.21l3.81-2.2a.89.89 0 1 1 .89 1.54l-3.81 2.2a.88.88 0 0 1-.44.12.87.87 0 0 1-.77-.45zm7.61-4.4a.88.88 0 0 1 .32-1.21l3.82-2.2a.89.89 0 1 1 .88 1.54l-3.81 2.2a.88.88 0 0 1-.44.12.87.87 0 0 1-.77-.45zm7.62-4.4a.89.89 0 0 1 .33-1.21l3.81-2.2a.88.88 0 0 1 1.21.32.89.89 0 0 1-.32 1.22l-3.81 2.2a1 1 0 0 1-.45.12.89.89 0 0 1-.77-.45zM325.72 531.6a.89.89 0 0 1 .33-1.21l3.81-2.2a.89.89 0 0 1 .89 1.54l-3.81 2.2a.92.92 0 0 1-.45.12.9.9 0 0 1-.77-.45zm7.63-4.4a.88.88 0 0 1 .32-1.21l3.81-2.2a.89.89 0 1 1 .89 1.54l-3.81 2.2a.89.89 0 0 1-.45.12.87.87 0 0 1-.76-.45z"/><path d="M341 522.8a.88.88 0 0 1 .32-1.21l3.81-2.2a.89.89 0 1 1 .89 1.54l-3.81 2.2a.88.88 0 0 1-.44.12.87.87 0 0 1-.77-.45zm1-207.5l-3.81-2.2a.89.89 0 1 1 .88-1.54l3.82 2.2a.89.89 0 1 1-.89 1.54zm-7.63-4.4l-3.81-2.2a.89.89 0 0 1-.32-1.22.88.88 0 0 1 1.21-.32l3.81 2.2a.89.89 0 0 1-.44 1.66 1 1 0 0 1-.46-.12zm-7.62-4.4l-3.81-2.21a.89.89 0 1 1 .89-1.53l3.81 2.2a.89.89 0 0 1 .33 1.21.9.9 0 0 1-.77.45.92.92 0 0 1-.46-.12zm-7.62-4.41l-3.81-2.19a.89.89 0 1 1 .89-1.54l3.81 2.2a.87.87 0 0 1 .32 1.21.86.86 0 0 1-.76.44.8.8 0 0 1-.46-.12zm-7.62-4.4l-3.81-2.2a.89.89 0 1 1 .89-1.53l3.81 2.2a.89.89 0 0 1-.45 1.65.79.79 0 0 1-.45-.12zm-67.9-2.36a.9.9 0 0 1 .33-1.22l3.81-2.2a.89.89 0 0 1 .89 1.54l-3.81 2.2a.92.92 0 0 1-.45.12.91.91 0 0 1-.78-.44zm60.28-2l-3.81-2.2a.88.88 0 0 1-.33-1.21.89.89 0 0 1 1.21-.33l3.81 2.21a.88.88 0 0 1 .33 1.21.9.9 0 0 1-.77.44.79.79 0 0 1-.45-.16zm-52.65-2.36a.89.89 0 0 1 .32-1.22l3.81-2.2a.88.88 0 0 1 1.21.33.87.87 0 0 1-.32 1.21l-3.81 2.2a.89.89 0 0 1-.45.12.88.88 0 0 1-.77-.48zm45-2l-3.81-2.2a.88.88 0 0 1-.32-1.21.87.87 0 0 1 1.21-.32l3.81 2.19a.89.89 0 0 1-.44 1.66.92.92 0 0 1-.44-.2zm91.52 52.85l-3.82-2.2a.89.89 0 0 1 .89-1.54l3.81 2.2a.89.89 0 1 1-.88 1.54zm-7.63-4.4l-3.81-2.2a.89.89 0 0 1 .89-1.54l3.81 2.2a.89.89 0 0 1-.44 1.66.92.92 0 0 1-.44-.2zm-7.62-4.4l-3.81-2.2a.89.89 0 0 1 .89-1.54l3.81 2.2a.9.9 0 0 1 .33 1.22.91.91 0 0 1-.77.44.92.92 0 0 1-.44-.2zm-7.62-4.4l-3.81-2.2a.89.89 0 1 1 .89-1.54l3.81 2.2a.89.89 0 0 1 .32 1.22.89.89 0 0 1-1.21.32zm-7.62-4.4l-3.81-2.2a.89.89 0 0 1 .88-1.54l3.82 2.2a.89.89 0 0 1 .32 1.21.87.87 0 0 1-.77.45.88.88 0 0 1-.43-.2zm-7.63-4.4l-3.81-2.2a.89.89 0 0 1-.32-1.22.89.89 0 0 1 1.21-.32l3.81 2.2a.89.89 0 0 1 .33 1.21.9.9 0 0 1-.77.45 1 1 0 0 1-.44-.2zm-90.8-33.21a.89.89 0 0 1 .32-1.22l3.82-2.2a.87.87 0 0 1 1.19.34.9.9 0 0 1-.35 1.22l-3.77 2.18a.89.89 0 0 1-1.21-.32zm29.8-1.87a28.87 28.87 0 0 0-4-1.43.9.9 0 0 1-.62-1.1.88.88 0 0 1 1.1-.61 30.57 30.57 0 0 1 4.26 1.52.88.88 0 0 1 .45 1.17.89.89 0 0 1-.81.53.76.76 0 0 1-.37-.16zm-22-2.22a.88.88 0 0 1 .6-1.1 27.59 27.59 0 0 1 4.45-.9.91.91 0 0 1 1 .78.88.88 0 0 1-.78 1 26.17 26.17 0 0 0-4.16.84 1.09 1.09 0 0 1-.25 0 .88.88 0 0 1-.87-.7zm13.81-.09a32.49 32.49 0 0 0-4.27-.35.89.89 0 0 1-.88-.91.91.91 0 0 1 .91-.87 35.76 35.76 0 0 1 4.49.37.89.89 0 0 1-.12 1.77zm1.67 322.64a35.77 35.77 0 0 1-4.5-.37.89.89 0 1 1 .26-1.76 32.35 32.35 0 0 0 4.27.35.89.89 0 0 1 0 1.78zm3.53-1a.89.89 0 0 1 .77-1 24.82 24.82 0 0 0 4.17-.83.891.891 0 0 1 .5 1.71 28.62 28.62 0 0 1-4.46.89h-.1a.89.89 0 0 1-.88-.76zm-12.44-.32a29.36 29.36 0 0 1-4.26-1.53.89.89 0 1 1 .72-1.62 28.89 28.89 0 0 0 4 1.44.89.89 0 0 1-.24 1.75.67.67 0 0 1-.22-.03zm21-1.91a.92.92 0 0 1 .36-1.23l3.81-2.2a.89.89 0 0 1 1.21.33.88.88 0 0 1-.32 1.21l-3.86 2.22-.47-.75.44.77a.77.77 0 0 1-.41.11.87.87 0 0 1-.81-.45zM265 600.12l-3.81-2.2a.89.89 0 1 1 .89-1.54l3.81 2.2a.89.89 0 0 1 .32 1.21.87.87 0 0 1-.77.45.88.88 0 0 1-.44-.12zm36.83-2.69a.88.88 0 0 1 .32-1.21L306 594a.89.89 0 1 1 .89 1.54l-3.81 2.2a.88.88 0 0 1-.44.12.87.87 0 0 1-.82-.43zm-44.45-1.71l-3.81-2.2a.89.89 0 1 1 .88-1.54l3.82 2.2a.89.89 0 1 1-.89 1.54zm52.06-2.72a.88.88 0 0 1 .32-1.21l3.81-2.2a.89.89 0 1 1 .89 1.54l-3.81 2.2a.88.88 0 0 1-.44.12.87.87 0 0 1-.77-.45zm-59.7-1.71l-3.81-2.2a.89.89 0 0 1-.32-1.22.88.88 0 0 1 1.21-.32l3.81 2.2A.89.89 0 0 1 251 591a.9.9 0 0 1-.77.45 1 1 0 0 1-.49-.13zm67.32-2.69a.88.88 0 0 1 .33-1.21l3.81-2.2a.88.88 0 0 1 1.21.32.89.89 0 0 1-.32 1.22l-3.82 2.2a.88.88 0 0 1-.44.12.87.87 0 0 1-.77-.42zm-74.94-1.71l-3.81-2.2a.89.89 0 0 1-.32-1.22.88.88 0 0 1 1.21-.32l3.81 2.2a.89.89 0 0 1 .33 1.21.9.9 0 0 1-.77.45.92.92 0 0 1-.45-.09zm82.56-2.69a.89.89 0 0 1 .32-1.2l3.81-2.2a.88.88 0 0 1 1.21.32.89.89 0 0 1-.32 1.22l-3.81 2.2a.92.92 0 0 1-.45.12.89.89 0 0 1-.76-.43zm-90.18-1.71l-3.81-2.2a.89.89 0 1 1 .89-1.54l3.81 2.2a.89.89 0 0 1-.44 1.66.89.89 0 0 1-.45-.09zm97.81-2.69a.88.88 0 0 1 .32-1.21l3.81-2.2a.89.89 0 1 1 .89 1.53l-3.81 2.21a.88.88 0 0 1-.44.12.87.87 0 0 1-.77-.42zm-105.43-1.71l-3.81-2.2a.9.9 0 0 1-.33-1.22.89.89 0 0 1 1.22-.32l3.81 2.2a.89.89 0 1 1-.89 1.54zm113.05-2.69a.88.88 0 0 1 .32-1.21l3.81-2.2a.89.89 0 1 1 .89 1.54l-3.81 2.2a.91.91 0 0 1-1.21-.33zm-120.67-1.71l-3.81-2.2a.89.89 0 0 1-.33-1.22.88.88 0 0 1 1.21-.32l3.81 2.2a.89.89 0 1 1-.88 1.54zM347.55 571a.88.88 0 0 1 .32-1.21l3.81-2.2a.89.89 0 0 1 1.22.32.88.88 0 0 1-.33 1.21l-3.81 2.2a.79.79 0 0 1-.44.12.89.89 0 0 1-.77-.44zm-135.92-1.71l-1.22-.71a22.76 22.76 0 0 1-2.58-1.74.89.89 0 0 1-.15-1.25.88.88 0 0 1 1.25-.14 20.37 20.37 0 0 0 2.37 1.59l1.22.71a.89.89 0 0 1 .33 1.21.9.9 0 0 1-.77.45.92.92 0 0 1-.45-.09zm143.55-2.67a.9.9 0 0 1 .3-1.23 9.89 9.89 0 0 0 3-2.67.9.9 0 0 1 1.24-.22.89.89 0 0 1 .21 1.24 11.45 11.45 0 0 1-3.51 3.17.84.84 0 0 1-.46.13.9.9 0 0 1-.78-.39zm-150.54-3.19a8.78 8.78 0 0 1-1.53-4.58.89.89 0 0 1 1.78 0 7 7 0 0 0 1.24 3.65.9.9 0 0 1-.26 1.23.87.87 0 0 1-1.23-.26zm154.94-4.3a7 7 0 0 0-1.26-3.65.897.897 0 0 1 1.49-1 8.81 8.81 0 0 1 1.55 4.58.88.88 0 0 1-.86.91h0a.89.89 0 0 1-.92-.81zm-154.79-3.69a.89.89 0 0 1-.21-1.24 11.75 11.75 0 0 1 3.53-3.16.89.89 0 1 1 .92 1.52 9.86 9.86 0 0 0-3 2.67.88.88 0 0 1-.72.37.91.91 0 0 1-.52-.13zm150.72-2.93a18.74 18.74 0 0 0-2.34-1.58l-1.26-.72a.89.89 0 0 1-.32-1.22.88.88 0 0 1 1.21-.32l1.26.73a21 21 0 0 1 2.55 1.71.9.9 0 0 1 .15 1.25.91.91 0 0 1-.7.34.94.94 0 0 1-.55-.16zm-143.9-2.47a.89.89 0 0 1 .32-1.21l3.81-2.2a.9.9 0 0 1 1.26.37.89.89 0 0 1-.33 1.21l-3.81 2.2a.88.88 0 0 1-.44.12.87.87 0 0 1-.81-.46zm136.49-2l-3.81-2.2a.89.89 0 0 1-.32-1.22.88.88 0 0 1 1.21-.32l3.81 2.2a.89.89 0 0 1 .33 1.21.89.89 0 0 1-1.22.33zm-128.87-2.37a.89.89 0 0 1 .33-1.21l3.81-2.2a.88.88 0 0 1 1.21.32.89.89 0 0 1-.32 1.22l-3.81 2.2a1 1 0 0 1-.45.12.89.89 0 0 1-.77-.45zm121.25-2l-3.81-2.2a.89.89 0 1 1 .89-1.54l3.81 2.2a.89.89 0 1 1-.89 1.54zm-113.63-2.37a.89.89 0 0 1 .33-1.21l3.81-2.2a.89.89 0 0 1 .89 1.54l-3.81 2.2a.92.92 0 0 1-.45.12.9.9 0 0 1-.77-.48zm106-2l-3.81-2.2a.9.9 0 0 1-.33-1.22.89.89 0 0 1 1.22-.32l3.81 2.2a.89.89 0 1 1-.89 1.54zm-98.38-2.37a.87.87 0 0 1 .32-1.21l3.81-2.2a.89.89 0 0 1 .89 1.54l-3.81 2.2a.89.89 0 0 1-.45.12.87.87 0 0 1-.75-.51zm90.76-2l-3.81-2.2a.89.89 0 1 1 .88-1.54l3.82 2.2a.89.89 0 1 1-.89 1.54zm-83.14-2.37a.88.88 0 0 1 .32-1.21l3.81-2.2a.89.89 0 1 1 .89 1.54l-3.81 2.2a.88.88 0 0 1-.44.12.87.87 0 0 1-.76-.54zm75.51-2l-3.81-2.2a.89.89 0 0 1 .89-1.53l3.81 2.2a.88.88 0 0 1 .33 1.21.9.9 0 0 1-.77.44.85.85 0 0 1-.44-.25zm-67.89-2.36a.88.88 0 0 1 .32-1.21l3.81-2.2a.89.89 0 0 1 1.22.32.88.88 0 0 1-.33 1.21l-3.81 2.21a.88.88 0 0 1-.44.12.87.87 0 0 1-.76-.58zM310 526l-3.81-2.2a.89.89 0 0 1 .89-1.53l3.81 2.2a.87.87 0 0 1 .32 1.21.88.88 0 0 1-.76.44.89.89 0 0 1-.45-.12zm-52.65-2.36a.88.88 0 0 1 .33-1.21l3.81-2.2a.89.89 0 1 1 .88 1.54l-3.82 2.23a.79.79 0 0 1-.44.12.86.86 0 0 1-.77-.45zm45-2l-3.81-2.2a.89.89 0 0 1-.33-1.21.9.9 0 0 1 1.22-.33l3.81 2.21a.89.89 0 0 1-.45 1.65.79.79 0 0 1-.42-.13zM265 519.27a.88.88 0 0 1 .33-1.21l3.72-2.15.09-.06a.89.89 0 0 1 1.2.34.92.92 0 0 1-.35 1.23l-3.77 2.17a.82.82 0 0 1-.45.12.9.9 0 0 1-.77-.44zm29.8-1.87a30.08 30.08 0 0 0-4-1.43.89.89 0 1 1 .47-1.71 31.18 31.18 0 0 1 4.27 1.52.89.89 0 0 1 .45 1.17.91.91 0 0 1-.82.53.78.78 0 0 1-.41-.08zm-22-2.22a.88.88 0 0 1 .6-1.1 27.5 27.5 0 0 1 4.46-.9.913.913 0 0 1 .14 1.82 25.23 25.23 0 0 0-4.17.83.69.69 0 0 1-.25 0 .88.88 0 0 1-.84-.65zm13.81-.09a34 34 0 0 0-4.27-.35.88.88 0 0 1-.87-.9.86.86 0 0 1 .9-.88 35.92 35.92 0 0 1 4.5.37.89.89 0 0 1-.13 1.77z"/><path d="M394.85 669.54a36.1 36.1 0 0 1-4.5-.38.89.89 0 0 1-.75-1 .91.91 0 0 1 1-.76 34.32 34.32 0 0 0 4.27.36.89.89 0 0 1 0 1.78zm3.53-1a.88.88 0 0 1 .78-1 25.32 25.32 0 0 0 4.16-.83.87.87 0 0 1 1.1.6.88.88 0 0 1-.6 1.1 26.47 26.47 0 0 1-4.46.89h-.1a.88.88 0 0 1-.88-.76zm-12.44-.31a31.93 31.93 0 0 1-4.26-1.53.89.89 0 0 1-.45-1.18.87.87 0 0 1 1.17-.44 28.87 28.87 0 0 0 4 1.43.89.89 0 0 1 .61 1.1.88.88 0 0 1-.85.65zm20.95-1.91a.93.93 0 0 1 .37-1.24l3.81-2.2a.89.89 0 0 1 .89 1.54l-3.84 2.22-.49-.75.44.78a.94.94 0 0 1-.42.11.89.89 0 0 1-.76-.46zm-29.17-1.74l-3.81-2.2a.89.89 0 0 1 .89-1.54l3.81 2.2a.9.9 0 0 1 .33 1.22.91.91 0 0 1-.77.44.92.92 0 0 1-.45-.12zm36.83-2.68a.9.9 0 0 1 .33-1.22l3.81-2.2a.89.89 0 0 1 .89 1.54l-3.81 2.2a.92.92 0 0 1-.45.12.91.91 0 0 1-.77-.44zm-44.45-1.72l-3.81-2.2a.89.89 0 1 1 .89-1.54l3.81 2.2a.89.89 0 0 1 .32 1.21.87.87 0 0 1-.77.45.88.88 0 0 1-.44-.12zm52.07-2.68a.9.9 0 0 1 .33-1.22l3.81-2.2a.89.89 0 0 1 .89 1.54l-3.81 2.2a.92.92 0 0 1-.45.12.91.91 0 0 1-.77-.44zm-59.69-1.72l-3.81-2.2a.89.89 0 1 1 .88-1.54l3.82 2.2a.89.89 0 1 1-.89 1.54zm67.32-2.68a.89.89 0 0 1 .32-1.22l3.81-2.2a.89.89 0 1 1 .89 1.54l-3.81 2.2a.89.89 0 0 1-1.21-.32zm-74.94-1.72l-3.82-2.2a.89.89 0 0 1-.32-1.22.89.89 0 0 1 1.21-.32l3.81 2.2a.89.89 0 1 1-.88 1.54zm82.56-2.69a.89.89 0 0 1 .32-1.21l3.82-2.2a.89.89 0 1 1 .88 1.54l-3.81 2.2a.88.88 0 0 1-.44.12.87.87 0 0 1-.77-.45zM347.23 647l-3.81-2.2a.89.89 0 0 1-.32-1.22.88.88 0 0 1 1.21-.32l3.81 2.2a.89.89 0 0 1-.44 1.66.92.92 0 0 1-.45-.12zm97.77-2.7a.89.89 0 0 1 .33-1.22l3.81-2.2a.89.89 0 0 1 .89 1.54l-3.81 2.2a1 1 0 0 1-.45.12.9.9 0 0 1-.77-.44zm-105.43-1.72l-3.81-2.2a.89.89 0 0 1-.32-1.22.88.88 0 0 1 1.21-.32l3.81 2.2a.89.89 0 0 1 .33 1.21.9.9 0 0 1-.77.45.92.92 0 0 1-.41-.12zm113.05-2.69a.89.89 0 0 1 .33-1.21l3.81-2.2a.89.89 0 0 1 .89 1.54l-3.81 2.2a.92.92 0 0 1-.45.12.9.9 0 0 1-.73-.45zM332 638.18l-3.81-2.2a.9.9 0 0 1-.33-1.22.89.89 0 0 1 1.22-.32l3.81 2.2a.89.89 0 1 1-.89 1.54zm128.29-2.69a.89.89 0 0 1 .33-1.21l3.81-2.2a.88.88 0 0 1 1.21.32.89.89 0 0 1-.32 1.22l-3.81 2.2a.89.89 0 0 1-1.22-.33zm-135.91-1.71l-1.22-.71a22 22 0 0 1-2.59-1.74.89.89 0 0 1 1.11-1.39 19.94 19.94 0 0 0 2.37 1.59l1.22.71a.89.89 0 1 1-.89 1.54zm143.55-2.67a.88.88 0 0 1 .29-1.22 9.93 9.93 0 0 0 3-2.68.89.89 0 0 1 1.46 1 11.55 11.55 0 0 1-3.51 3.17.9.9 0 0 1-.47.13.88.88 0 0 1-.78-.4zm-150.55-3.19a8.71 8.71 0 0 1-1.52-4.58.88.88 0 0 1 .86-.91 1 1 0 0 1 .92.87 7 7 0 0 0 1.23 3.65.89.89 0 0 1-.26 1.23.87.87 0 0 1-.48.15.91.91 0 0 1-.76-.41zm155-4.3a7 7 0 0 0-1.26-3.65.89.89 0 0 1 1.49-1 8.86 8.86 0 0 1 1.54 4.57.89.89 0 0 1-.87.92h0a.89.89 0 0 1-.96-.84zm-154.79-3.69a.89.89 0 0 1-.21-1.24 11.75 11.75 0 0 1 3.53-3.16.89.89 0 0 1 .92 1.52 9.86 9.86 0 0 0-3 2.67.89.89 0 0 1-.72.37.91.91 0 0 1-.58-.16zM468.25 617a19.86 19.86 0 0 0-2.34-1.57l-1.26-.73a.89.89 0 0 1-.33-1.21.9.9 0 0 1 1.22-.33l1.26.73a22.19 22.19 0 0 1 2.55 1.71.89.89 0 0 1 .14 1.25.88.88 0 0 1-.69.34.86.86 0 0 1-.55-.19zm-143.9-2.46a.89.89 0 0 1 .32-1.22l3.81-2.2a.9.9 0 0 1 1.22.33.89.89 0 0 1-.33 1.21l-3.81 2.2a.89.89 0 0 1-1.21-.32zm136.49-2L457 610.3a.89.89 0 1 1 .89-1.54l3.81 2.2a.89.89 0 0 1 .32 1.21.87.87 0 0 1-.77.45.88.88 0 0 1-.41-.12zM332 610.13a.89.89 0 0 1 .32-1.21l3.81-2.2a.89.89 0 1 1 .89 1.54l-3.81 2.2a.88.88 0 0 1-.44.12.87.87 0 0 1-.77-.45zm121.25-2l-3.81-2.2a.88.88 0 0 1-.33-1.21.89.89 0 0 1 1.22-.33l3.81 2.2a.89.89 0 0 1 .32 1.22.89.89 0 0 1-1.21.32zm-113.63-2.37a.88.88 0 0 1 .33-1.21l3.81-2.2a.89.89 0 0 1 .89 1.54l-3.82 2.2a.88.88 0 0 1-.44.12.87.87 0 0 1-.8-.48zm106-2l-3.82-2.2a.89.89 0 0 1 .89-1.54l3.81 2.2a.89.89 0 1 1-.88 1.54zm-98.39-2.37a.89.89 0 0 1 .33-1.21l3.81-2.2a.88.88 0 0 1 1.21.32.89.89 0 0 1-.32 1.22l-3.81 2.2a.92.92 0 0 1-.45.12.9.9 0 0 1-.79-.51zm90.76-2l-3.81-2.2a.89.89 0 0 1-.32-1.22.88.88 0 0 1 1.21-.32l3.81 2.2a.89.89 0 0 1 .33 1.21.9.9 0 0 1-.77.45.92.92 0 0 1-.44-.21zm-83.14-2.37a.89.89 0 0 1 .33-1.21l3.81-2.2a.88.88 0 0 1 1.21.32.89.89 0 0 1-.32 1.22l-3.81 2.2a.92.92 0 0 1-.45.12.9.9 0 0 1-.79-.54zm75.52-2l-3.81-2.2a.89.89 0 1 1 .89-1.54l3.81 2.2a.89.89 0 1 1-.89 1.54zm-67.89-2.37a.88.88 0 0 1 .32-1.21l3.81-2.2a.89.89 0 1 1 .89 1.54l-3.81 2.2a.88.88 0 0 1-.44.12.87.87 0 0 1-.79-.57zm60.27-2l-3.81-2.2a.9.9 0 0 1-.33-1.22.89.89 0 0 1 1.22-.32l3.81 2.2a.89.89 0 0 1 .32 1.21.87.87 0 0 1-.77.45.88.88 0 0 1-.46-.27zm-52.65-2.37a.88.88 0 0 1 .32-1.21l3.81-2.2a.89.89 0 1 1 .89 1.54l-3.81 2.2a.88.88 0 0 1-.44.12.87.87 0 0 1-.79-.6zm45-2l-3.81-2.2a.89.89 0 1 1 .88-1.54l3.82 2.2a.89.89 0 1 1-.89 1.54zm-37.41-2.37a.88.88 0 0 1 .32-1.21l3.82-2.21a.88.88 0 0 1 1.19.34.91.91 0 0 1-.34 1.23l-3.78 2.18a.88.88 0 0 1-.44.12.87.87 0 0 1-.76-.63zm29.8-1.86a29.74 29.74 0 0 0-4-1.44.89.89 0 1 1 .48-1.71 31.42 31.42 0 0 1 4.26 1.52.89.89 0 0 1 .45 1.18.87.87 0 0 1-.81.52.92.92 0 0 1-.37-.25zm-22-2.23a.88.88 0 0 1 .6-1.1 27.59 27.59 0 0 1 4.45-.9.9.9 0 0 1 1 .78.89.89 0 0 1-.77 1 25.23 25.23 0 0 0-4.17.83.73.73 0 0 1-.25 0 .88.88 0 0 1-.87-.79zm13.81-.09a36.32 36.32 0 0 0-4.27-.35.9.9 0 0 1-.88-.9.88.88 0 0 1 .91-.87 36.05 36.05 0 0 1 4.5.36.89.89 0 0 1-.13 1.77z"/><path d="M730.7 605.1a34 34 0 0 1-4.49-.37.88.88 0 0 1-.75-1 .9.9 0 0 1 1-.75 34 34 0 0 0 4.27.36.89.89 0 0 1 0 1.77zm3.53-1a.89.89 0 0 1 .78-1 24.9 24.9 0 0 0 4.16-.83.89.89 0 1 1 .5 1.7 26.36 26.36 0 0 1-4.45.89h-.11a.9.9 0 0 1-.88-.75zm-12.43-.31a32.08 32.08 0 0 1-4.27-1.53.89.89 0 0 1-.44-1.18.87.87 0 0 1 1.17-.45 27.11 27.11 0 0 0 4 1.44.89.89 0 0 1-.24 1.75zm21-1.91a.92.92 0 0 1 .36-1.24l3.81-2.2a.89.89 0 0 1 .89 1.54l-3.89 2.25a.9.9 0 0 1-.41.11.87.87 0 0 1-.81-.45zm-29.18-1.74l-3.81-2.2a.89.89 0 0 1-.32-1.22.89.89 0 0 1 1.21-.32l3.81 2.2a.9.9 0 0 1 .33 1.22.91.91 0 0 1-.77.44 1 1 0 0 1-.5-.11zm36.84-2.68a.89.89 0 0 1 .32-1.22l3.81-2.2a.88.88 0 0 1 1.21.33.87.87 0 0 1-.32 1.21l-3.81 2.2a.89.89 0 0 1-.45.12.88.88 0 0 1-.81-.43zM706 595.75l-3.81-2.2A.89.89 0 0 1 703 592l3.81 2.2a.89.89 0 0 1 .33 1.21.9.9 0 0 1-.77.45.92.92 0 0 1-.37-.11zm52-2.68a.89.89 0 0 1 .32-1.22l3.81-2.2a.9.9 0 0 1 1.22.33.89.89 0 0 1-.33 1.21l-3.81 2.2a.89.89 0 0 1-1.21-.32zm-59.7-1.72l-3.81-2.2a.89.89 0 0 1 .89-1.54l3.81 2.2a.89.89 0 0 1-.44 1.66.89.89 0 0 1-.42-.12zm67.32-2.68a.89.89 0 0 1 .32-1.22l3.82-2.2a.89.89 0 0 1 .88 1.54l-3.81 2.2a.89.89 0 0 1-1.21-.32zM690.71 587l-3.81-2.2a.89.89 0 1 1 .89-1.54l3.81 2.2a.89.89 0 1 1-.89 1.54zm82.56-2.69a.89.89 0 0 1 .33-1.21l3.81-2.2a.89.89 0 0 1 .89 1.54l-3.81 2.2a.92.92 0 0 1-.45.12.9.9 0 0 1-.77-.5zm-90.18-1.71l-3.81-2.2a.89.89 0 1 1 .89-1.54L684 581a.89.89 0 0 1 .32 1.21.87.87 0 0 1-.77.45.88.88 0 0 1-.46-.11zm97.8-2.69a.89.89 0 0 1 .33-1.21l3.81-2.2a.89.89 0 0 1 .89 1.54l-3.81 2.2a.92.92 0 0 1-.45.12.9.9 0 0 1-.77-.5zm-105.43-1.71l-3.81-2.2a.89.89 0 0 1-.32-1.22.88.88 0 0 1 1.21-.32l3.81 2.2a.89.89 0 0 1 .33 1.21.9.9 0 0 1-.77.45.92.92 0 0 1-.45-.17zm113.06-2.69a.88.88 0 0 1 .32-1.21l3.81-2.2a.89.89 0 0 1 .89 1.54l-3.81 2.2a.89.89 0 0 1-.45.12.87.87 0 0 1-.76-.5zm-120.68-1.71l-3.81-2.2a.89.89 0 0 1-.32-1.22.88.88 0 0 1 1.21-.32l3.81 2.2a.89.89 0 0 1 .33 1.21.9.9 0 0 1-.77.45.92.92 0 0 1-.45-.17zm128.3-2.69a.89.89 0 0 1 .32-1.21l3.81-2.2a.89.89 0 1 1 .89 1.54l-3.81 2.2a.88.88 0 0 1-.44.12.87.87 0 0 1-.77-.5zm-135.92-1.71l-1.22-.71a22 22 0 0 1-2.59-1.74.89.89 0 0 1 1.11-1.39 18.8 18.8 0 0 0 2.37 1.59l1.22.71a.89.89 0 0 1-.44 1.66.89.89 0 0 1-.45-.17zm143.55-2.67a.88.88 0 0 1 .29-1.22 10 10 0 0 0 3-2.68.88.88 0 0 1 1.24-.21.87.87 0 0 1 .21 1.23A11.44 11.44 0 0 1 805 567a.89.89 0 0 1-.46.13.88.88 0 0 1-.77-.45zm-150.55-3.19a8.77 8.77 0 0 1-1.52-4.58.89.89 0 0 1 1.78 0 7 7 0 0 0 1.23 3.65.89.89 0 0 1-.26 1.23.85.85 0 0 1-.48.15.91.91 0 0 1-.75-.5zm154.95-4.29a7.11 7.11 0 0 0-1.25-3.66.88.88 0 1 1 1.48-1 8.78 8.78 0 0 1 1.55 4.57.9.9 0 0 1-.86.92h0a.89.89 0 0 1-.92-.88zm-154.78-3.7a.88.88 0 0 1-.21-1.24 11.43 11.43 0 0 1 3.52-3.15.89.89 0 1 1 .92 1.52 9.8 9.8 0 0 0-3 2.66.91.91 0 0 1-.73.37.86.86 0 0 1-.5-.21zm150.71-2.93a19.86 19.86 0 0 0-2.34-1.57l-1.26-.73a.89.89 0 0 1 .89-1.54l1.26.73a21.36 21.36 0 0 1 2.55 1.71.89.89 0 0 1-1.1 1.4zm-143.9-2.46a.89.89 0 0 1 .32-1.22l3.82-2.2a.89.89 0 0 1 1.21.33.88.88 0 0 1-.33 1.21l-3.81 2.2a.89.89 0 0 1-1.21-.32zm136.49-2l-3.81-2.2a.89.89 0 0 1 .89-1.54l3.81 2.2a.9.9 0 0 1 .33 1.22.91.91 0 0 1-.77.44.92.92 0 0 1-.45-.21zm-128.87-2.36a.9.9 0 0 1 .33-1.22l3.81-2.2a.89.89 0 0 1 .89 1.54L669 546a1 1 0 0 1-.45.12.91.91 0 0 1-.73-.41zm121.25-2l-3.81-2.2a.89.89 0 1 1 .89-1.54l3.81 2.2a.89.89 0 1 1-.89 1.54zm-113.63-2.5a.89.89 0 0 1 .33-1.21l3.81-2.2a.89.89 0 0 1 .89 1.54l-3.81 2.2a.92.92 0 0 1-.45.12.9.9 0 0 1-.77-.45zm106-2l-3.81-2.2a.89.89 0 1 1 .89-1.54l3.81 2.2a.89.89 0 0 1 .32 1.22.89.89 0 0 1-1.21.32zm-98.39-2.37a.89.89 0 0 1 .33-1.21l3.81-2.2a.89.89 0 1 1 .89 1.54l-3.81 2.2a.89.89 0 0 1-1.22-.33zm90.77-2l-3.81-2.2a.89.89 0 1 1 .88-1.54l3.81 2.2a.89.89 0 1 1-.88 1.54zm-83.14-2.37a.89.89 0 0 1 .32-1.21l3.81-2.2a.89.89 0 1 1 .89 1.54l-3.81 2.2a.88.88 0 0 1-.44.12.87.87 0 0 1-.76-.51zm75.51-2l-3.81-2.2a.89.89 0 0 1 .89-1.54l3.81 2.2a.89.89 0 0 1 .33 1.21.9.9 0 0 1-.77.45.92.92 0 0 1-.44-.21zm-67.89-2.37a.88.88 0 0 1 .32-1.21l3.82-2.2a.89.89 0 1 1 .88 1.54l-3.81 2.2a.88.88 0 0 1-.44.12.87.87 0 0 1-.76-.54zm60.27-2l-3.81-2.2a.89.89 0 0 1-.32-1.22.88.88 0 0 1 1.21-.32l3.81 2.2a.89.89 0 0 1 .33 1.21.9.9 0 0 1-.77.45.92.92 0 0 1-.44-.24zm-52.65-2.37a.89.89 0 0 1 .33-1.21l3.81-2.2a.89.89 0 0 1 .89 1.54l-3.81 2.2a1 1 0 0 1-.45.12.9.9 0 0 1-.76-.57zm45-2l-3.81-2.2a.89.89 0 0 1 .89-1.54l3.81 2.2a.89.89 0 0 1-.44 1.66.89.89 0 0 1-.37-.27zm-37.41-2.37a.89.89 0 0 1 .33-1.21l3.81-2.2.44.77-.44-.77a.87.87 0 0 1 1.2.34.91.91 0 0 1-.35 1.22l-3.77 2.18a.92.92 0 0 1-.45.12.9.9 0 0 1-.73-.6zm29.8-1.86a29.6 29.6 0 0 0-4-1.44.89.89 0 1 1 .47-1.71 32.06 32.06 0 0 1 4.27 1.52.89.89 0 0 1 .45 1.18.88.88 0 0 1-.81.52.94.94 0 0 1-.34-.22zm-22-2.23a.88.88 0 0 1 .6-1.1 26.47 26.47 0 0 1 4.46-.89.89.89 0 1 1 .21 1.76 25.22 25.22 0 0 0-4.17.84 1 1 0 0 1-.25 0 .88.88 0 0 1-.83-.76zm13.81-.09a36 36 0 0 0-4.27-.35.88.88 0 0 1-.87-.9c0-.49.44-1 .9-.87a35.9 35.9 0 0 1 4.5.36.9.9 0 0 1 .75 1 .88.88 0 0 1-.88.76z"/><path d="M620.48 670a35.94 35.94 0 0 1-4.5-.38.89.89 0 0 1-.75-1 .91.91 0 0 1 1-.76 34.16 34.16 0 0 0 4.27.36.89.89 0 0 1 0 1.78zm3.53-1a.88.88 0 0 1 .78-1 25.32 25.32 0 0 0 4.16-.83.89.89 0 0 1 .5 1.7 26.47 26.47 0 0 1-4.46.89h-.1a.88.88 0 0 1-.89-.76zm-12.44-.31a31.93 31.93 0 0 1-4.26-1.53.89.89 0 0 1-.45-1.18.87.87 0 0 1 1.17-.44 28.87 28.87 0 0 0 4 1.43.89.89 0 0 1-.24 1.75zm20.95-1.91a.94.94 0 0 1 .36-1.24l3.81-2.2a.9.9 0 0 1 1.22.33.89.89 0 0 1-.33 1.21l-3.88 2.25a.94.94 0 0 1-.42.11.89.89 0 0 1-.76-.46zM603.35 665l-3.81-2.2a.89.89 0 1 1 .89-1.54l3.81 2.2a.89.89 0 0 1 .32 1.22.89.89 0 0 1-1.21.32zm36.83-2.68a.89.89 0 0 1 .32-1.22l3.82-2.2a.89.89 0 0 1 1.21.33.88.88 0 0 1-.33 1.21l-3.81 2.2a.89.89 0 0 1-1.21-.32zm-44.45-1.72l-3.81-2.2a.89.89 0 1 1 .89-1.54l3.81 2.2a.89.89 0 0 1 .32 1.21.87.87 0 0 1-.77.45.88.88 0 0 1-.44-.08zm52.07-2.6a.9.9 0 0 1 .33-1.22l3.81-2.2a.89.89 0 0 1 .89 1.54l-3.81 2.2a1 1 0 0 1-.45.12.91.91 0 0 1-.77-.44zm-59.69-1.72L584.3 654a.89.89 0 1 1 .88-1.54l3.81 2.2a.89.89 0 1 1-.88 1.54zm67.31-2.68a.9.9 0 0 1 .33-1.22l3.81-2.2a.89.89 0 0 1 .89 1.54l-3.81 2.2a.92.92 0 0 1-.45.12.91.91 0 0 1-.77-.48zm-74.94-1.72l-3.81-2.2a.89.89 0 0 1 .89-1.54l3.81 2.2a.89.89 0 0 1-.44 1.66.92.92 0 0 1-.45-.16zm82.57-2.69a.89.89 0 0 1 .32-1.21l3.81-2.2a.9.9 0 0 1 1.22.33.89.89 0 0 1-.33 1.21l-3.81 2.2a.88.88 0 0 1-.44.12.87.87 0 0 1-.77-.49zm-90.19-1.71l-3.81-2.2a.89.89 0 0 1-.32-1.22.89.89 0 0 1 1.21-.32l3.81 2.2a.89.89 0 0 1 .33 1.21.9.9 0 0 1-.77.45.92.92 0 0 1-.45-.16zm97.81-2.68a.89.89 0 0 1 .32-1.22l3.81-2.2a.9.9 0 0 1 1.22.33.89.89 0 0 1-.33 1.21l-3.81 2.2a.89.89 0 0 1-1.21-.32zM565.24 643l-3.81-2.2a.89.89 0 1 1 .89-1.54l3.81 2.2a.89.89 0 1 1-.89 1.54zm113-2.69a.88.88 0 0 1 .33-1.21l3.81-2.2a.89.89 0 0 1 .89 1.54l-3.82 2.2a.88.88 0 0 1-.44.12.87.87 0 0 1-.72-.41zm-120.67-1.71l-3.81-2.2a.89.89 0 1 1 .89-1.54l3.81 2.2a.89.89 0 1 1-.89 1.54zm128.34-2.6a.89.89 0 0 1 .33-1.21l3.81-2.2a.89.89 0 0 1 .89 1.54l-3.81 2.2a.92.92 0 0 1-.45.12.9.9 0 0 1-.77-.45zM550 634.24l-1.22-.71a20.49 20.49 0 0 1-2.59-1.74.89.89 0 1 1 1.1-1.39 20.37 20.37 0 0 0 2.37 1.59l1.22.71a.89.89 0 1 1-.88 1.54zm143.54-2.67a.89.89 0 0 1 .3-1.22 9.93 9.93 0 0 0 3-2.68.89.89 0 0 1 1.46 1 11.48 11.48 0 0 1-3.52 3.17.84.84 0 0 1-.46.13.9.9 0 0 1-.78-.4zM543 628.38a8.78 8.78 0 0 1-1.53-4.58.89.89 0 0 1 1.78 0 7 7 0 0 0 1.24 3.65.89.89 0 1 1-1.49 1zm155-4.29a7 7 0 0 0-1.26-3.65.9.9 0 0 1 .26-1.24.88.88 0 0 1 1.23.26 8.89 8.89 0 0 1 1.54 4.57.89.89 0 0 1-.86.92h0a.88.88 0 0 1-.91-.86zm-154.79-3.7a.89.89 0 0 1-.21-1.24 11.55 11.55 0 0 1 3.52-3.15.89.89 0 1 1 .92 1.52 9.91 9.91 0 0 0-3 2.66.89.89 0 0 1-.72.37.91.91 0 0 1-.56-.16zm150.71-2.93a18.92 18.92 0 0 0-2.33-1.57l-1.26-.73A.89.89 0 0 1 690 614a.9.9 0 0 1 1.22-.33l1.25.73a20.39 20.39 0 0 1 2.56 1.72.88.88 0 0 1 .14 1.24.85.85 0 0 1-.7.34.9.9 0 0 1-.6-.24zM550 615a.9.9 0 0 1 .33-1.22l3.81-2.2a.89.89 0 0 1 .89 1.54l-3.81 2.2a.92.92 0 0 1-.45.12.91.91 0 0 1-.77-.44zm136.5-2l-3.81-2.2a.89.89 0 1 1 .89-1.54l3.81 2.2a.89.89 0 0 1 .32 1.22.89.89 0 0 1-1.21.32zm-128.9-2.4a.89.89 0 0 1 .32-1.22l3.81-2.2a.9.9 0 0 1 1.22.33.89.89 0 0 1-.33 1.21l-3.81 2.2a.89.89 0 0 1-1.21-.32zm121.25-2l-3.82-2.2a.89.89 0 0 1 .89-1.54l3.82 2.2a.89.89 0 0 1 .32 1.22.89.89 0 0 1-1.21.32zm-113.63-2.4a.89.89 0 0 1 .32-1.22l3.81-2.2a.9.9 0 0 1 1.22.33.89.89 0 0 1-.33 1.21l-3.81 2.2a.89.89 0 0 1-1.21-.32zm106-2l-3.81-2.2a.89.89 0 0 1 .89-1.54l3.81 2.2a.9.9 0 0 1 .33 1.22.91.91 0 0 1-.77.44.92.92 0 0 1-.45-.16zm-98.38-2.37a.89.89 0 0 1 .32-1.21l3.82-2.2a.89.89 0 0 1 .89 1.54l-3.82 2.2a.88.88 0 0 1-.44.12.87.87 0 0 1-.77-.49zm90.76-2l-3.81-2.2a.89.89 0 0 1 .89-1.54l3.81 2.2a.89.89 0 1 1-.89 1.54zm-83.14-2.37a.89.89 0 0 1 .33-1.21l3.81-2.2a.89.89 0 0 1 .89 1.54l-3.81 2.2a.92.92 0 0 1-.45.12.9.9 0 0 1-.77-.52zm75.52-2l-3.81-2.2a.89.89 0 0 1-.33-1.21.9.9 0 0 1 1.22-.33l3.81 2.2a.89.89 0 0 1 .32 1.22.89.89 0 0 1-1.21.32zM588.09 593a.87.87 0 0 1 .32-1.21l3.81-2.2a.89.89 0 0 1 .89 1.54l-3.81 2.2a.89.89 0 0 1-.45.12.87.87 0 0 1-.76-.45zm60.27-2l-3.81-2.2a.89.89 0 1 1 .89-1.54l3.81 2.2a.89.89 0 0 1 .32 1.21.87.87 0 0 1-.77.45.88.88 0 0 1-.44-.12zm-52.65-2.37a.88.88 0 0 1 .32-1.21l3.81-2.2a.89.89 0 1 1 .89 1.54l-3.81 2.2a.88.88 0 0 1-.44.12.87.87 0 0 1-.77-.49zm45-2l-3.82-2.2a.89.89 0 0 1-.32-1.22.89.89 0 0 1 1.21-.32l3.81 2.2a.89.89 0 1 1-.88 1.54zm-37.41-2.37a.88.88 0 0 1 .32-1.21l3.81-2.2.45.77-.44-.77a.86.86 0 0 1 1.19.34.9.9 0 0 1-.35 1.22l-3.77 2.18a.88.88 0 0 1-.44.12.87.87 0 0 1-.74-.52zm29.8-1.86a30.24 30.24 0 0 0-4-1.44.89.89 0 1 1 .48-1.71 31.92 31.92 0 0 1 4.26 1.52.89.89 0 0 1 .45 1.18.87.87 0 0 1-.81.52.92.92 0 0 1-.35-.14zm-22-2.23a.88.88 0 0 1 .6-1.1 26.56 26.56 0 0 1 4.45-.89.89.89 0 1 1 .21 1.76 26.17 26.17 0 0 0-4.16.84 1.07 1.07 0 0 1-.25 0 .88.88 0 0 1-.84-.68zm13.81-.09a36.32 36.32 0 0 0-4.27-.35.89.89 0 0 1-.88-.9.85.85 0 0 1 .91-.87 35.75 35.75 0 0 1 4.49.36.89.89 0 0 1-.12 1.77z"/><path d="M206.4 372.75a35.76 35.76 0 0 1-4.49-.37.89.89 0 1 1 .26-1.76 32.21 32.21 0 0 0 4.27.35.89.89 0 0 1 0 1.78zm3.53-1a.9.9 0 0 1 .78-1 24.9 24.9 0 0 0 4.16-.83.89.89 0 1 1 .5 1.71 27.38 27.38 0 0 1-4.45.89h-.11a.89.89 0 0 1-.88-.76zm-12.43-.32a30.73 30.73 0 0 1-4.27-1.53.89.89 0 1 1 .73-1.62 29.6 29.6 0 0 0 4 1.44.89.89 0 0 1-.24 1.74zm20.95-1.91a.91.91 0 0 1 .36-1.23l3.81-2.2a.88.88 0 0 1 1.21.32.89.89 0 0 1-.32 1.22l-3.89 2.24a.79.79 0 0 1-.41.11.87.87 0 0 1-.76-.45zm-29.18-1.74l-3.81-2.2a.89.89 0 1 1 .89-1.53l3.81 2.2a.88.88 0 0 1 .33 1.21.91.91 0 0 1-.77.44.85.85 0 0 1-.45-.11zm36.84-2.68a.87.87 0 0 1 .32-1.21l3.81-2.2a.89.89 0 0 1 .89 1.54l-3.81 2.2a.89.89 0 0 1-.45.12.87.87 0 0 1-.76-.44zm-44.46-1.72l-3.81-2.2a.89.89 0 0 1 .89-1.53l3.81 2.2a.88.88 0 0 1 .33 1.21.91.91 0 0 1-.77.44.82.82 0 0 1-.45-.11zm52.08-2.68a.88.88 0 0 1 .32-1.21l3.81-2.2a.89.89 0 0 1 1.22.32.88.88 0 0 1-.33 1.21l-3.81 2.18a.88.88 0 0 1-.44.12.87.87 0 0 1-.77-.41zM174 359l-3.81-2.2a.89.89 0 0 1 .89-1.54l3.81 2.21a.87.87 0 0 1 .32 1.21.88.88 0 0 1-.76.44.8.8 0 0 1-.45-.12zm67.32-2.68a.88.88 0 0 1 .32-1.21l3.82-2.2a.89.89 0 1 1 .88 1.54l-3.81 2.19a.79.79 0 0 1-.44.12.89.89 0 0 1-.74-.45zm-74.94-1.72l-3.81-2.2a.89.89 0 1 1 .89-1.53l3.81 2.19a.89.89 0 0 1 .32 1.22.89.89 0 0 1-1.21.32zm82.62-2.69a.88.88 0 0 1 .33-1.21l3.81-2.2a.89.89 0 1 1 .86 1.5l-3.81 2.2a.82.82 0 0 1-.45.12.91.91 0 0 1-.74-.41zm-90.18-1.72L155 348a.89.89 0 1 1 .89-1.54l3.81 2.21a.89.89 0 0 1-.45 1.65.79.79 0 0 1-.46-.13zm97.8-2.68a.88.88 0 0 1 .33-1.21l3.81-2.2a.89.89 0 1 1 .89 1.53l-3.81 2.2a.82.82 0 0 1-.45.12.91.91 0 0 1-.8-.44zm-105.43-1.72l-3.81-2.2a.89.89 0 0 1 .89-1.54l3.81 2.2a.9.9 0 0 1 .33 1.22.91.91 0 0 1-.77.44.92.92 0 0 1-.48-.12zm113.06-2.68a.89.89 0 0 1 .32-1.22l3.81-2.19a.88.88 0 0 1 1.21.32.87.87 0 0 1-.32 1.21l-3.81 2.2a.89.89 0 0 1-.45.12.88.88 0 0 1-.79-.44zm-120.68-1.72l-3.81-2.2a.89.89 0 0 1 .89-1.54l3.81 2.2a.9.9 0 0 1 .33 1.22.91.91 0 0 1-.77.44.92.92 0 0 1-.48-.12zm128.3-2.68a.88.88 0 0 1 .32-1.21l3.81-2.21a.91.91 0 0 1 1.22.33.89.89 0 0 1-.33 1.21l-3.81 2.2a.79.79 0 0 1-.44.12.89.89 0 0 1-.8-.44zM135.92 337l-1.22-.7a20.92 20.92 0 0 1-2.59-1.75.88.88 0 0 1-.14-1.24.89.89 0 0 1 1.25-.15 18.83 18.83 0 0 0 2.37 1.6l1.22.7a.89.89 0 0 1 .32 1.22.88.88 0 0 1-.76.44.89.89 0 0 1-.45-.12zm143.55-2.67a.88.88 0 0 1 .29-1.22 9.82 9.82 0 0 0 3-2.67.89.89 0 1 1 1.45 1 11.56 11.56 0 0 1-3.51 3.17.89.89 0 0 1-.46.13.87.87 0 0 1-.77-.42zm-150.55-3.18a8.83 8.83 0 0 1-1.52-4.58.89.89 0 0 1 .87-.91.87.87 0 0 1 .91.86 7 7 0 0 0 1.23 3.66.89.89 0 0 1-.26 1.23.92.92 0 0 1-.48.14.9.9 0 0 1-.75-.41zm155-4.3a7.11 7.11 0 0 0-1.25-3.65.89.89 0 1 1 1.48-1 8.81 8.81 0 0 1 1.55 4.57.89.89 0 0 1-.86.92h0a.89.89 0 0 1-.97-.85zm-154.78-3.69a.89.89 0 0 1-.21-1.24 11.58 11.58 0 0 1 3.52-3.16.89.89 0 1 1 .92 1.52 9.93 9.93 0 0 0-3 2.66.89.89 0 0 1-.73.38.86.86 0 0 1-.55-.17zm150.71-2.93a21.2 21.2 0 0 0-2.34-1.58l-1.26-.72a.89.89 0 0 1-.32-1.22.88.88 0 0 1 1.21-.32l1.26.72a22.67 22.67 0 0 1 2.55 1.72.89.89 0 0 1 .15 1.25.91.91 0 0 1-.7.34.94.94 0 0 1-.6-.2zm-143.9-2.47a.88.88 0 0 1 .32-1.21l3.82-2.2a.89.89 0 1 1 .88 1.54l-3.81 2.19a.79.79 0 0 1-.44.12.89.89 0 0 1-.82-.45zm136.49-2l-3.81-2.2a.89.89 0 0 1-.32-1.22.89.89 0 0 1 1.21-.32l3.81 2.2a.89.89 0 0 1 .33 1.21.9.9 0 0 1-.77.45.92.92 0 0 1-.5-.16zm-128.87-2.37a.89.89 0 0 1 .33-1.21l3.81-2.2a.89.89 0 0 1 .89 1.53l-3.81 2.21a1 1 0 0 1-.45.12.9.9 0 0 1-.82-.49zm121.25-2l-3.81-2.2a.89.89 0 1 1 .89-1.54l3.81 2.2a.89.89 0 0 1-.44 1.66.89.89 0 0 1-.5-.19zM151.14 309a.88.88 0 0 1 .33-1.21l3.81-2.2a.89.89 0 0 1 .89 1.53l-3.81 2.2a.82.82 0 0 1-.45.12.91.91 0 0 1-.77-.44zm106-2l-3.81-2.19a.89.89 0 1 1 .89-1.54l3.81 2.2a.89.89 0 0 1-.45 1.65.79.79 0 0 1-.43-.21zm-98.38-2.36a.89.89 0 0 1 .32-1.22l3.81-2.19a.89.89 0 1 1 .89 1.53l-3.81 2.2a.89.89 0 0 1-.45.12.88.88 0 0 1-.75-.53zm90.76-2l-3.81-2.21a.88.88 0 1 1 .88-1.53l3.82 2.2a.89.89 0 1 1-.89 1.54zm-83.14-2.37a.88.88 0 0 1 .32-1.21l3.81-2.21a.9.9 0 0 1 1.22.33.89.89 0 0 1-.33 1.21l-3.81 2.2a.79.79 0 0 1-.44.12.89.89 0 0 1-.76-.56zm75.51-2l-3.81-2.2a.89.89 0 1 1 .89-1.53l3.81 2.2a.88.88 0 0 1 .33 1.21.91.91 0 0 1-.77.44.85.85 0 0 1-.44-.28zM174 295.75a.89.89 0 0 1 .33-1.22l3.81-2.2a.89.89 0 0 1 1.21.33.88.88 0 0 1-.33 1.21l-3.81 2.2a.89.89 0 0 1-1.21-.32zm60.27-2l-3.81-2.2a.89.89 0 0 1 .89-1.53l3.81 2.19a.9.9 0 0 1 .33 1.22.91.91 0 0 1-.77.44.92.92 0 0 1-.44-.16zm-52.65-2.36a.9.9 0 0 1 .33-1.22l3.81-2.2a.89.89 0 0 1 .89 1.54l-3.81 2.2a.92.92 0 0 1-.45.12.91.91 0 0 1-.76-.48zm45-2l-3.81-2.2a.89.89 0 0 1 .89-1.54l3.81 2.21a.87.87 0 0 1 .32 1.21.88.88 0 0 1-.76.44.8.8 0 0 1-.41-.2zM189.25 287a.9.9 0 0 1 .33-1.22l3.81-2.19.44.76-.44-.77a.88.88 0 0 1 1.2.34.9.9 0 0 1-.35 1.22l-3.77 2.18a.92.92 0 0 1-.45.12.91.91 0 0 1-.77-.44zm29.8-1.87a28.28 28.28 0 0 0-4-1.43.89.89 0 0 1-.62-1.1.88.88 0 0 1 1.09-.61 29.47 29.47 0 0 1 4.27 1.52.89.89 0 0 1-.36 1.7 1 1 0 0 1-.38-.13zm-22-2.22a.88.88 0 0 1 .6-1.1 27.5 27.5 0 0 1 4.46-.9.91.91 0 0 1 1 .78.89.89 0 0 1-.78 1 26.3 26.3 0 0 0-4.17.84.69.69 0 0 1-.25 0 .88.88 0 0 1-.91-.67zm13.81-.09a34 34 0 0 0-4.27-.35.89.89 0 0 1-.87-.91.86.86 0 0 1 .9-.87 35.92 35.92 0 0 1 4.5.37.89.89 0 0 1-.13 1.77z"/><path d="M96.18 437.64a35.92 35.92 0 0 1-4.5-.37.89.89 0 0 1-.75-1 .9.9 0 0 1 1-.75 32.35 32.35 0 0 0 4.27.35.89.89 0 0 1 0 1.78zm3.53-1a.89.89 0 0 1 .78-1 25.32 25.32 0 0 0 4.16-.83.891.891 0 0 1 .5 1.71 27.51 27.51 0 0 1-4.46.89h-.1a.88.88 0 0 1-.88-.76zm-12.44-.32A30.59 30.59 0 0 1 83 434.8a.89.89 0 0 1 .72-1.62 28.89 28.89 0 0 0 4 1.44.89.89 0 0 1-.24 1.74 1 1 0 0 1-.21-.03zm21-1.91a.93.93 0 0 1 .36-1.23l3.81-2.2a.89.89 0 1 1 .89 1.54l-3.88 2.24a.83.83 0 0 1-.42.11.89.89 0 0 1-.81-.45zm-29.17-1.73l-3.81-2.21a.89.89 0 1 1 .89-1.53l3.81 2.2a.89.89 0 1 1-.89 1.54zm36.78-2.68a.88.88 0 0 1 .32-1.21l3.82-2.2a.89.89 0 1 1 .88 1.54l-3.81 2.2a.88.88 0 0 1-.44.12.87.87 0 0 1-.77-.45zm-44.45-1.72l-3.81-2.2a.89.89 0 1 1 .89-1.53l3.81 2.2a.89.89 0 0 1-.45 1.65.79.79 0 0 1-.44-.12zm52.07-2.68a.89.89 0 0 1 .33-1.21l3.81-2.2a.89.89 0 0 1 .89 1.53l-3.81 2.21a1 1 0 0 1-.45.12.9.9 0 0 1-.77-.45zm-59.69-1.72l-3.81-2.2a.883.883 0 1 1 .88-1.53l3.81 2.2a.88.88 0 0 1 .33 1.21.9.9 0 0 1-.77.44.79.79 0 0 1-.44-.12zm67.31-2.68a.89.89 0 0 1 .33-1.21l3.81-2.2a.87.87 0 0 1 1.21.32.89.89 0 0 1-.32 1.22l-3.81 2.2a.92.92 0 0 1-.45.12.9.9 0 0 1-.77-.45zm-74.94-1.72l-3.81-2.2a.89.89 0 0 1 .89-1.53l3.81 2.2a.88.88 0 0 1 .33 1.21.9.9 0 0 1-.77.44.82.82 0 0 1-.45-.12zm82.57-2.68a.88.88 0 0 1 .32-1.21l3.81-2.2a.89.89 0 0 1 1.22.32.88.88 0 0 1-.33 1.21l-3.81 2.2a.79.79 0 0 1-.44.12.89.89 0 0 1-.77-.44zm-90.19-1.72l-3.81-2.2a.89.89 0 0 1 .89-1.54l3.81 2.21a.88.88 0 0 1 .33 1.21.91.91 0 0 1-.77.44.82.82 0 0 1-.45-.12zm97.81-2.68a.88.88 0 0 1 .32-1.21l3.81-2.2a.89.89 0 1 1 .89 1.54l-3.81 2.19a.79.79 0 0 1-.44.12.89.89 0 0 1-.77-.44zm-105.43-1.72l-3.81-2.2A.89.89 0 1 1 38 407l3.81 2.19a.89.89 0 0 1 .32 1.22.89.89 0 0 1-1.21.32zM154 408a.88.88 0 0 1 .33-1.21l3.81-2.2a.89.89 0 0 1 1.21.32.88.88 0 0 1-.33 1.21l-3.81 2.2a.79.79 0 0 1-.44.12.89.89 0 0 1-.77-.44zm-120.68-1.72l-3.81-2.2a.89.89 0 1 1 .89-1.54l3.81 2.2a.89.89 0 0 1 .32 1.22.89.89 0 0 1-1.21.32zm128.29-2.68a.88.88 0 0 1 .33-1.21l3.81-2.21a.9.9 0 0 1 1.21.33.88.88 0 0 1-.32 1.21l-3.81 2.2a.82.82 0 0 1-.45.12.91.91 0 0 1-.77-.44zM25.7 401.88l-1.22-.7a19.51 19.51 0 0 1-2.59-1.75A.905.905 0 1 1 23 398a20.41 20.41 0 0 0 2.37 1.6l1.22.7a.89.89 0 1 1-.88 1.54zm143.54-2.67a.89.89 0 0 1 .3-1.22 9.77 9.77 0 0 0 3-2.67.89.89 0 1 1 1.46 1 11.61 11.61 0 0 1-3.52 3.17.84.84 0 0 1-.46.13.88.88 0 0 1-.78-.41zM18.7 396a8.81 8.81 0 0 1-1.53-4.58.915.915 0 0 1 1.83-.02 7.06 7.06 0 0 0 1.24 3.66.89.89 0 0 1-.26 1.23 1 1 0 0 1-.49.14.88.88 0 0 1-.79-.43zm155-4.3a7 7 0 0 0-1.26-3.65.897.897 0 0 1 1.49-1 8.89 8.89 0 0 1 1.54 4.58.88.88 0 0 1-.86.91h0a.88.88 0 0 1-.96-.81zM18.86 388a.89.89 0 0 1-.21-1.24 11.7 11.7 0 0 1 3.52-3.16.9.9 0 0 1 1.23.3.88.88 0 0 1-.31 1.22 10 10 0 0 0-3 2.66.87.87 0 0 1-.72.38.91.91 0 0 1-.51-.16zm150.71-2.93a20.15 20.15 0 0 0-2.33-1.58l-1.26-.72a.89.89 0 1 1 .89-1.54l1.25.72a22.82 22.82 0 0 1 2.56 1.72.89.89 0 0 1-.56 1.59 1 1 0 0 1-.55-.15zm-143.9-2.47a.89.89 0 0 1 .33-1.21l3.81-2.2a.88.88 0 0 1 1.21.32.89.89 0 0 1-.32 1.22L26.89 383a.89.89 0 0 1-1.22-.33zm136.5-2l-3.81-2.2a.89.89 0 1 1 .89-1.54l3.81 2.2a.89.89 0 1 1-.89 1.54zM33.3 378.24a.88.88 0 0 1 .32-1.21l3.81-2.2a.89.89 0 0 1 1.22.32.88.88 0 0 1-.33 1.21l-3.81 2.21a.88.88 0 0 1-.44.12.87.87 0 0 1-.77-.45zm121.25-2l-3.82-2.2a.89.89 0 0 1-.32-1.22.88.88 0 0 1 1.21-.32l3.82 2.2a.89.89 0 1 1-.89 1.54zm-113.63-2.4a.88.88 0 0 1 .32-1.21l3.81-2.2a.89.89 0 1 1 .89 1.54l-3.81 2.19a.79.79 0 0 1-.44.12.89.89 0 0 1-.77-.44zm106-2l-3.81-2.2a.89.89 0 0 1-.32-1.22.88.88 0 0 1 1.21-.32l3.81 2.2a.89.89 0 0 1 .33 1.21.9.9 0 0 1-.77.45.92.92 0 0 1-.45-.15zm-98.38-2.37a.88.88 0 0 1 .32-1.21l3.82-2.2a.87.87 0 0 1 1.21.32.88.88 0 0 1-.32 1.21l-3.82 2.2a.79.79 0 0 1-.44.12.89.89 0 0 1-.77-.47zm90.76-2l-3.81-2.21a.89.89 0 1 1 .89-1.53l3.81 2.2a.89.89 0 0 1-.44 1.66.89.89 0 0 1-.45-.18zM56.16 365a.88.88 0 0 1 .33-1.21l3.81-2.21a.89.89 0 0 1 1.21.33.88.88 0 0 1-.32 1.21l-3.81 2.2a.82.82 0 0 1-.45.12.91.91 0 0 1-.77-.44zm75.52-2l-3.81-2.19a.9.9 0 0 1-.33-1.22.89.89 0 0 1 1.22-.32l3.81 2.2a.89.89 0 0 1-.45 1.65.79.79 0 0 1-.44-.12zm-67.89-2.36a.89.89 0 0 1 .32-1.22l3.81-2.19a.89.89 0 0 1 .89 1.53L65 361a.89.89 0 0 1-.45.12.88.88 0 0 1-.76-.48zm60.27-2l-3.81-2.2a.89.89 0 1 1 .89-1.53l3.81 2.2a.89.89 0 0 1-.45 1.65.79.79 0 0 1-.44-.16zm-52.65-2.36a.89.89 0 0 1 .32-1.22l3.81-2.2a.9.9 0 0 1 1.22.33.89.89 0 0 1-.33 1.21l-3.81 2.2a.89.89 0 0 1-1.21-.32zm45-2l-3.82-2.2a.89.89 0 0 1 .89-1.54l3.81 2.21a.88.88 0 0 1 .33 1.21.9.9 0 0 1-.77.44.79.79 0 0 1-.41-.2zM79 351.84a.89.89 0 0 1 .32-1.22l3.81-2.19.45.76-.44-.77a.87.87 0 0 1 1.19.34A.89.89 0 0 1 84 350l-3.77 2.18a.89.89 0 0 1-1.21-.32zm29.8-1.87a28.87 28.87 0 0 0-4-1.43.89.89 0 1 1 .48-1.71 29.34 29.34 0 0 1 4.26 1.52.89.89 0 0 1-.36 1.7.78.78 0 0 1-.35-.05zm-22-2.22a.88.88 0 0 1 .6-1.1 27.59 27.59 0 0 1 4.45-.9.89.89 0 0 1 1 .78.88.88 0 0 1-.78 1 26.17 26.17 0 0 0-4.16.84.73.73 0 0 1-.25 0 .88.88 0 0 1-.85-.62zm13.81-.09a34.29 34.29 0 0 0-4.27-.35.89.89 0 0 1-.88-.9.85.85 0 0 1 .91-.88 35.76 35.76 0 0 1 4.49.37.89.89 0 0 1-.12 1.77zm5.69 26.14l4.92 2.84-25.14 14.52a21.39 21.39 0 0 1-10.41 2.92 18.43 18.43 0 0 1-9.74-2.31c-3-1.73-4.52-3.61-4.55-5.63s1.67-4 5.09-5.88h.22l4.75 2.74q-3.34 1.94-3.69 3.64c-.24 1.14.4 2.15 1.91 3a8.57 8.57 0 0 0 5.17.84 15.92 15.92 0 0 0 6.33-2.14z"/><path d="M107.83 405.12c1.66-1 2.55-2 2.68-3.18s-.59-2.65-2.14-4.47q-3.54-3.81-3.79-6.78c-.17-2 1.1-3.76 3.79-5.31a18 18 0 0 1 9.83-2.21 22.06 22.06 0 0 1 10.4 2.92q4.92 2.85 4.85 6.36-.07 3.51-4.53 6l-.2.06-4.72-2.77c2.06-1.18 3.2-2.46 3.42-3.81s-.63-2.59-2.56-3.71a11.08 11.08 0 0 0-5.86-1.53 11.56 11.56 0 0 0-5.6 1.51c-1.5.86-2.23 1.9-2.18 3.11s.88 2.77 2.51 4.68c2.23 2.45 3.33 4.65 3.29 6.63s-1.43 3.75-4.18 5.33a17.7 17.7 0 0 1-9.88 2.25 22.71 22.71 0 0 1-10.41-3.08c-3.16-1.83-5-4-5.5-6.4s1-4.61 4.46-6.52l.2-.05 4.74 2.74c-2.41 1.39-3.55 2.79-3.44 4.19s1.21 2.7 3.27 3.89a11.8 11.8 0 0 0 5.89 1.63 11.06 11.06 0 0 0 5.66-1.48zM193 322.86v.1a17.57 17.57 0 0 1-8.68 2.44 16.57 16.57 0 0 1-8.52-2.29c-2.73-1.58-4-3.37-3.81-5.38s1.93-4 5.21-5.85l7.71-4.45a21.62 21.62 0 0 1 10.12-3 16.86 16.86 0 0 1 9.25 2.15q4.11 2.37 4.08 4.93-.03 2.56-4.25 5.08h-.18l-3.69-2.13q3-1.79 3.29-3.29c.19-1-.54-2-2.19-2.93a9.07 9.07 0 0 0-5.65-1 17.56 17.56 0 0 0-6.84 2.41l-7.78 4.49q-3.63 2.1-4.21 4c-.38 1.26.24 2.37 1.89 3.31a8.62 8.62 0 0 0 4.94 1.24 13.59 13.59 0 0 0 5.66-1.93zm19.61 3.99l6.57 3.79-3.32 1.92-6.57-3.8-8.66 5-3.81-2.2 8.67-5-6.57-3.8 3.32-1.91 6.57 3.79 8.24-4.76 3.81 2.2zm19.65 11.34l6.57 3.79-3.32 1.92-6.57-3.79-8.66 5-3.81-2.2 8.66-5-6.56-3.79 3.32-1.92 6.56 3.79 8.25-4.76 3.81 2.2zm155.12 287.19l-.07.13a22.41 22.41 0 0 1-11 3.09 21 21 0 0 1-10.8-2.9q-5.22-3-4.85-6.83.37-3.83 6.61-7.41l9.78-5.65a27.45 27.45 0 0 1 12.84-3.81 21.36 21.36 0 0 1 11.72 2.72c3.48 2 5.21 4.09 5.18 6.26s-1.82 4.31-5.4 6.44h-.22l-4.67-2.7q3.79-2.28 4.16-4.18c.25-1.26-.68-2.5-2.77-3.71a11.54 11.54 0 0 0-7.18-1.31 22.18 22.18 0 0 0-8.66 3.06l-9.87 5.69c-3.07 1.78-4.84 3.46-5.33 5.07s.31 3 2.39 4.21a11 11 0 0 0 6.26 1.56 17.13 17.13 0 0 0 7.18-2.44zm15.47 9.83l-4.68-2.7-11.48 4.83-3.38-2 11.48-4.82-4.8-2.77 3.15-1.82 5.28 3 10.37-4.35-5.14-3 3.15-1.82 5.62 3.25 11.67-4.88 3.37 1.94-11.66 4.89 4.68 2.71 11.67-4.89 3.37 1.94-11.66 4.9 4.36 2.51-3.14 1.82-4.87-2.81-10.35 4.37 4.73 2.73-3.14 1.81-5.22-3-11.48 4.95-3.38-2zM401.8 631l4.68 2.69 10.37-4.35-4.7-2.71zm-148.19-87.41L242.45 550l-4-2.28 28.22-16.3 9.32 5.39c2.66 1.53 4 3.18 3.89 4.95s-1.36 3.41-3.91 4.88a16.85 16.85 0 0 1-8.45 2.26 16.44 16.44 0 0 1-8.58-2.25zm3-1.73L262 545a8.34 8.34 0 0 0 5 1.06 12.4 12.4 0 0 0 5.09-1.61 5.6 5.6 0 0 0 2.86-3c.29-1.05-.31-2-1.82-2.88l-5.37-3.1zm22.74 29.48l-3.94-2.28 12.46-7.19-10.87-6.29-12.46 7.2-4-2.29 28.22-16.29 4 2.29-12.76 7.37 10.88 6.28 12.77-7.37 3.94 2.27zm20.65-.98l-11.16 6.45-4-2.29 28.22-16.29 9.32 5.38c2.66 1.53 3.95 3.19 3.89 5s-1.36 3.4-3.91 4.88a16.93 16.93 0 0 1-8.45 2.26 16.54 16.54 0 0 1-8.58-2.25zm3-1.72l5.36 3.1a8.26 8.26 0 0 0 5 1 12.11 12.11 0 0 0 5.09-1.61 5.55 5.55 0 0 0 2.86-3c.29-1.05-.31-2-1.82-2.88l-5.36-3.1zm299.18 48.62l-.06.11a18.67 18.67 0 0 1-9.14 2.57 17.47 17.47 0 0 1-9-2.41q-4.34-2.5-4-5.68c.2-2.11 2-4.16 5.49-6.16l8.13-4.69a22.74 22.74 0 0 1 10.67-3.2 17.7 17.7 0 0 1 9.75 2.26c2.89 1.67 4.32 3.4 4.31 5.2s-1.52 3.59-4.5 5.35h-.18l-3.88-2.25c2.1-1.26 3.26-2.42 3.46-3.47s-.57-2.08-2.31-3.09a9.66 9.66 0 0 0-6-1.09 18.52 18.52 0 0 0-7.2 2.55l-8.2 4.73q-3.82 2.22-4.44 4.21c-.4 1.34.26 2.5 2 3.5a9.12 9.12 0 0 0 5.21 1.3 14.25 14.25 0 0 0 6-2zm16.48 11.27c1.38-.8 2.13-1.68 2.23-2.64s-.49-2.21-1.78-3.72q-2.94-3.17-3.15-5.64-.21-2.47 3.15-4.41a15.08 15.08 0 0 1 8.18-1.84 18.21 18.21 0 0 1 8.64 2.44q4.1 2.35 4 5.28c-.05 2-1.3 3.6-3.77 5H636l-3.95-2.28c1.71-1 2.66-2 2.84-3.17s-.52-2.15-2.13-3.08a9.22 9.22 0 0 0-4.87-1.27 9.55 9.55 0 0 0-4.65 1.25 2.92 2.92 0 0 0-1.81 2.59c0 1 .73 2.3 2.09 3.89q2.78 3 2.73 5.51c0 1.64-1.19 3.11-3.48 4.43a14.7 14.7 0 0 1-8.21 1.87 18.89 18.89 0 0 1-8.65-2.56q-3.95-2.28-4.57-5.32c-.41-2 .82-3.83 3.71-5.42l.16-.05 3.94 2.28q-3 1.74-2.86 3.49c.1 1.17 1 2.24 2.72 3.24a9.83 9.83 0 0 0 4.89 1.34 9.24 9.24 0 0 0 4.76-1.21zm22.01 12.7q2.07-1.2 2.22-2.64.15-1.44-1.77-3.72c-2-2.11-3-4-3.15-5.64s.91-3.11 3.15-4.41a15 15 0 0 1 8.17-1.83 18.17 18.17 0 0 1 8.64 2.43q4.1 2.36 4 5.28c-.05 1.95-1.3 3.61-3.77 5l-.16.05-3.95-2.28q2.56-1.49 2.85-3.17.29-1.68-2.13-3.09a9.14 9.14 0 0 0-4.87-1.26 9.48 9.48 0 0 0-4.66 1.25 2.92 2.92 0 0 0-1.81 2.58c0 1 .73 2.31 2.09 3.89q2.78 3 2.73 5.51-.05 2.51-3.47 4.43a14.64 14.64 0 0 1-8.21 1.87 18.84 18.84 0 0 1-8.57-2.58q-4-2.28-4.57-5.32-.57-3.04 3.7-5.43h.16l4 2.28c-2 1.15-3 2.32-2.87 3.49s1 2.24 2.73 3.23a9.68 9.68 0 0 0 4.88 1.35 9.21 9.21 0 0 0 4.64-1.27zM703.35 541l-9.44 5.45-3.07-1.77L712.71 532l6.86 4q3.12 1.82 3.23 3.73c.06 1.28-.9 2.49-2.91 3.65a10.25 10.25 0 0 1-3.78 1.27 13 13 0 0 1-4.29-.17 2.13 2.13 0 0 1 .5 2.46 6.22 6.22 0 0 1-2.56 2.33l-1.91 1.1a9.36 9.36 0 0 0-1.67 1.2 1.71 1.71 0 0 0-.66 1.19l-.34.2-3.18-1.84c0-.39.26-.8.83-1.24a19.43 19.43 0 0 1 2-1.31l1.85-1.06c1.23-.71 1.91-1.43 2.07-2.17s-.26-1.38-1.24-2zm2.31-1.34l3.63 2.1a6.93 6.93 0 0 0 3.75 1 8 8 0 0 0 3.73-1.13c1.25-.73 1.94-1.46 2.06-2.19s-.41-1.43-1.58-2.11l-3.78-2.18zM744 550.08l-15.17 8.76a13.61 13.61 0 0 1-7.17 1.88 14.27 14.27 0 0 1-6.94-1.91c-2.08-1.2-3.16-2.52-3.22-4s1-2.81 3.29-4.12l15.15-8.69 3 1.76-15.17 8.76c-1.56.9-2.38 1.78-2.47 2.65s.47 1.64 1.67 2.33a7.76 7.76 0 0 0 4.09 1 9.75 9.75 0 0 0 4.66-1.45l15.17-8.76zM726 565l21.89-12.64 6.14 3.55q3.12 1.8 3.39 3.66.27 1.86-2.67 3.56a9.1 9.1 0 0 1-3.55 1.13 10.8 10.8 0 0 1-4-.26 2.35 2.35 0 0 1 .89 2.66 5.17 5.17 0 0 1-2.48 2.54 11.92 11.92 0 0 1-6.32 1.67A13.16 13.16 0 0 1 733 569zm13.28-4.12l-7.9 4.56 3.94 2.27a6.46 6.46 0 0 0 3.52.88 8 8 0 0 0 3.74-1.15 4.42 4.42 0 0 0 2.19-2.13c.22-.71-.19-1.37-1.24-2zm2.19-1.27l3.37 2a6.19 6.19 0 0 0 3.29.84 7 7 0 0 0 3.5-1c1.21-.7 1.81-1.39 1.82-2.09s-.58-1.37-1.74-2l-3.07-1.78zm18.04 11.71h.09l15.14-3.53 3.41 2-20.49 4.35-7.88 4.55-3.06-1.76 8.08-4.66 7.42-11.68 3.43 2z"/></g><g class="AB" opacity=".8" fill="#7c1dc9"><path d="M632.57 114.33a21.66 21.66 0 0 1-5.51-7.17 18.47 18.47 0 0 1-1.64-7.57V95a8.92 8.92 0 0 0-.86-4 6.56 6.56 0 0 0-2.65-2.78v-4.63c1.19.69 2.07.78 2.65.29s.86-1.51.86-3v-4.67q0-3.9 1.64-5.68c1.09-1.18 2.93-1.45 5.51-.79l1.11 4.26a2 2 0 0 0-2.38 1.14 9.62 9.62 0 0 0-.69 4.1v4.62a6.59 6.59 0 0 1-.89 3.7 3 3 0 0 1-2.67 1.32 15.1 15.1 0 0 1 2.67 4.44 13.19 13.19 0 0 1 .89 4.67v4.63a16.44 16.44 0 0 0 .69 4.9 9.37 9.37 0 0 0 2.38 3.89zM733.83 165a2 2 0 0 0 2.38-1.14 9.45 9.45 0 0 0 .7-4.1v-4.62a6.3 6.3 0 0 1 .91-3.67 3.09 3.09 0 0 1 2.78-1.25 14.73 14.73 0 0 1-2.78-4.46 13 13 0 0 1-.91-4.75v-4.63a16.07 16.07 0 0 0-.7-4.9 9.44 9.44 0 0 0-2.38-3.89l1.11-2.94a21.94 21.94 0 0 1 5.5 7.15 18.32 18.32 0 0 1 1.65 7.57V144a9.2 9.2 0 0 0 .85 4 6.65 6.65 0 0 0 2.68 2.79v4.57c-1.21-.7-2.11-.79-2.68-.29a4.06 4.06 0 0 0-.85 3v4.62c0 2.6-.55 4.5-1.65 5.68s-2.93 1.46-5.5.82z"/></g><g opacity=".2"><path d="M499.88 623.25c-10.12 0-19.3-2.21-26.55-6.4l-281.1-162.29C182.56 449 177 440.13 177 430.3c0-10.78 6.68-20.81 18.34-27.54l159.52-92.11a65.43 65.43 0 0 1 32.24-8.19c10.11 0 19.29 2.21 26.54 6.4l281.1 162.29c9.68 5.59 15.23 14.43 15.23 24.26 0 10.77-6.68 20.81-18.34 27.54l-159.52 92.11a65.39 65.39 0 0 1-32.23 8.19z" opacity="0"/><path d="M355.58,311.87c9.13-5.27,20.63-8.09,32.14-8a60.79,60.79,0,0,1,13.17,1.61A52.35,52.35,0,0,1,414,310.7l280,161.67c9.63,5.56,14.65,14.37,14.07,23.95a28.09,28.09,0,0,1-1.7,7.79c-2.45,6.83-9.37,14.1-17.23,18.63l-157.26,90.8a61.4,61.4,0,0,1-6.9,3.4,66.69,66.69,0,0,1-24.81,4.89c-10,.06-19.05-2.08-26.18-6.19l-281.1-162.3c-9.66-5.57-14.65-14.41-14-24a28.46,28.46,0,0,1,1.33-6.68c2.25-7.25,9.43-15,17.69-19.77Z" opacity=".09"/><path d="M356.28,313.09c9.11-5.26,20.66-8,32.05-7.74a61,61,0,0,1,13.06,1.84,60.18,60.18,0,0,1,13,5.34l279,161.06c9.58,5.53,14.09,14.31,12.91,23.64a30.79,30.79,0,0,1-2.09,7.43c-2.39,6.07-10.36,13.79-17.43,17.88L531.74,612a67.86,67.86,0,0,1-6.77,3.39,65.71,65.71,0,0,1-24.41,5c-9.8.11-18.81-1.95-25.82-6l-281.1-162.3c-9.63-5.56-14.08-14.38-12.81-23.74a33,33,0,0,1,1.7-6.37c2.24-6.46,10.56-14.71,18-19Z" opacity=".18"/><path d="M357,314.31c9.09-5.25,20.7-7.9,32-7.51a59.43,59.43,0,0,1,12.95,2.07,70,70,0,0,1,12.87,5.5L692.64,474.81c9.54,5.51,13.55,14.23,11.76,23.33a35.17,35.17,0,0,1-2.48,7.06c-2.3,5.33-11.35,13.5-17.63,17.13L531.56,610.51c-1.61.92-4.89,2.62-6.66,3.37a64.8,64.8,0,0,1-24,5.12c-9.65.16-18.58-1.82-25.47-5.8L194.34,450.91c-9.6-5.55-13.53-14.35-11.6-23.49a40.93,40.93,0,0,1,2.07-6.06c2.19-5.67,11.7-14.4,18.31-18.22Z" opacity=".27"/><path d="M357.69 315.53c9.06-5.23 20.72-7.8 31.86-7.28a59.14 59.14 0 0 1 12.85 2.29 83.12 83.12 0 0 1 12.73 5.67L691.94 476c9.5 5.49 13 14.16 10.6 23a42.34 42.34 0 0 1-2.87 6.7c-2.16 4.59-12.33 13.19-17.83 16.37L531.37 609c-1.4.81-5 2.7-6.53 3.37a64.18 64.18 0 0 1-23.59 5.22c-9.49.21-18.34-1.69-25.1-5.6l-281.1-162.3c-9.59-5.54-13-14.31-10.39-23.23a52.89 52.89 0 0 1 2.44-5.75c2.09-4.89 12.83-14.1 18.61-17.44z" opacity=".36"/><path d="M358.39,316.74c9-5.21,20.76-7.69,31.77-7a58.23,58.23,0,0,1,12.74,2.51c2.62.76,10.46,4.6,12.6,5.83l275.74,159.2c9.45,5.46,12.5,14.08,9.45,22.72a55.54,55.54,0,0,1-3.28,6.33c-2,3.87-13.31,12.9-18,15.62l-148.2,85.56c-1.21.7-5.1,2.78-6.42,3.36a63.08,63.08,0,0,1-23.18,5.33c-9.33.27-18.09-1.56-24.74-5.4L195.75,448.47c-9.56-5.52-12.49-14.27-9.18-23,.7-1.85,1.9-3.52,2.81-5.45,1.94-4.12,14-13.8,18.92-16.66Z" opacity=".45"/><path d="M359.09,318c9-5.2,20.79-7.59,31.68-6.82a57.76,57.76,0,0,1,12.63,2.75c2.17.66,10.69,5,12.47,6L690.53,478.46c9.41,5.43,12,14,8.3,22.41a24.38,24.38,0,0,1-3.67,6c-1.12,3.45-14.3,12.6-18.22,14.87L531,606c-1,.58-5.21,2.86-6.3,3.35a62.13,62.13,0,0,1-22.78,5.44c-9.17.32-17.85-1.43-24.38-5.2L196.45,447.25c-9.53-5.5-12-14.23-8-22.7a24.85,24.85,0,0,1,3.18-5.14c1-3.66,15.1-13.5,19.23-15.88Z" opacity=".55"/><path d="M359.8,319.18c9-5.19,20.82-7.49,31.58-6.59a56.69,56.69,0,0,1,12.52,3c1.73.56,10.91,5.34,12.33,6.16l273.6,158c9.36,5.4,11.54,13.93,7.14,22.1a24.89,24.89,0,0,1-4.06,5.6c-.9,2.75-15.28,12.3-18.43,14.11L530.82,604.43c-.8.47-5.3,2.94-6.18,3.34a61,61,0,0,1-22.36,5.55c-9,.38-17.62-1.3-24-5L197.16,446c-9.52-5.49-11.55-14.2-6.77-22.44a25.18,25.18,0,0,1,3.56-4.83c.81-2.93,16.23-13.2,19.53-15.11Z" opacity=".64"/><path d="M360.5,320.4c9-5.18,20.86-7.39,31.49-6.36a55.45,55.45,0,0,1,12.42,3.2c1.29.43,11.13,5.7,12.19,6.32L689.13,480.9c9.31,5.37,11.08,13.88,6,21.78a25.37,25.37,0,0,1-4.45,5.24c-.68,2.07-16.27,12-18.63,13.36L530.64,602.92c-.61.35-5.41,3-6.07,3.32a60,60,0,0,1-22,5.66c-8.85.43-17.38-1.16-23.66-4.79L197.86,444.82c-9.49-5.48-11.1-14.2-5.55-22.19a25.73,25.73,0,0,1,3.92-4.52c.61-2.2,17.37-12.9,19.85-14.33Z" opacity=".73"/><path d="M361.2 321.62c8.94-5.16 20.89-7.3 31.4-6.13 4.55.51 8.58 2.1 12.31 3.42.86.3 11.35 6.07 12.06 6.48l271.45 156.72c9.27 5.36 10.66 13.86 4.83 21.48a26.51 26.51 0 0 1-4.84 4.88c-.45 1.37-17.26 11.69-18.83 12.6L530.45 601.4l-5.94 3.31a59 59 0 0 1-21.51 5.77c-8.69.49-17.14-1-23.3-4.59L198.56 443.6c-9.46-5.47-10.67-14.22-4.34-21.93a27.25 27.25 0 0 1 4.29-4.21c.41-1.47 18.5-12.6 20.16-13.55z" opacity=".82"/><path d="M361.91,322.84c8.91-5.15,20.92-7.2,31.3-5.91,4.54.58,8.51,2.29,12.2,3.65.43.16,11.58,6.44,11.93,6.65l270.38,156.1c9.22,5.33,10.23,13.85,3.67,21.17a28.18,28.18,0,0,1-5.23,4.51c-.23.69-18.24,11.4-19,11.85l-136.86,79c-.2.12-5.61,3.2-5.83,3.31a58.67,58.67,0,0,1-21.14,5.88c-8.53.53-16.89-.91-22.93-4.4L199.27,442.38c-9.44-5.45-10.26-14.26-3.14-21.67a28.11,28.11,0,0,1,4.67-3.9c.2-.73,19.63-12.29,20.46-12.77Z" opacity=".91"/><path d="M481.07 603.45L200 441.16c-11.1-6.41-9.71-17.6 3.11-25l159.53-92.11c12.82-7.4 32.21-8.2 43.31-1.79L687 484.55c11.1 6.41 9.7 17.6-3.11 25l-159.51 92.11c-12.82 7.4-32.21 8.2-43.31 1.79z"/></g><path d="M481.07 603.2L200 440.9c-4.95-2.85-7.41-6.66-7.49-10.66v-13.92c.09-4.86 3.68 3.58 10.6-.42l159.53-92.1c12.82-7.4 32.21-8.21 43.31-1.8L687 484.29c3.7 2.14 6.39-6.94 7.35-4.05.32 1 .12 13.7.14 14.7.1 5-3.49 10.25-10.6 14.36l-159.51 92.1c-12.82 7.4-32.21 8.2-43.31 1.8z" fill="url(#y)"/><path d="M481.07 589.53L200 427.24c-11.1-6.41-9.71-17.61 3.11-25l159.53-92.1c12.82-7.4 32.21-8.21 43.31-1.8L687 470.63c11.1 6.4 9.7 17.6-3.11 25l-159.53 92.1c-12.8 7.4-32.19 8.21-43.29 1.8z" fill="url(#z)"/><path d="M694.48 502.42c0 4.91-3.56 10.09-10.57 14.14l-159.53 92.1c-12.82 7.4-32.21 8.21-43.31 1.8L200 448.17c-5.37-3.1-7.79-7.32-7.43-11.69a4.15 4.15 0 0 0-.06.77v13.93c.08 4 2.54 7.8 7.49 10.65l281.1 162.3c11.1 6.41 30.49 5.6 43.31-1.8l159.53-92.1c7.11-4.11 10.7-9.38 10.6-14.36-.05-.87.09-10.02-.06-13.45z" opacity=".2" fill="url(#AA)"/><path d="M499.88 588.24c-6.33 0-12-1.27-16-3.57l-281.1-162.29c-1.75-1-4.69-3.14-4.69-6s2.91-6.47 7.8-9.28L365.42 315a44.64 44.64 0 0 1 21.69-5.37c6.33 0 12 1.27 16 3.57l281.1 162.3c1.75 1 4.68 3.13 4.68 6s-2.89 6.5-7.79 9.27l-159.53 92.1a44.67 44.67 0 0 1-21.69 5.37z" fill="url(#AB)"/><path class="AT" d="M683.91 493.31l-159.53 92.1c-12.82 7.4-32.21 8.21-43.31 1.8L200 424.92c-4.6-2.66-7-6.15-7.41-9.84-.57 4.53 1.85 8.94 7.41 12.16l281.1 162.29c11.1 6.41 30.49 5.6 43.31-1.8l159.53-92.1c7.5-4.33 11.05-10 10.51-15.17-.6 4.54-4.15 9.16-10.54 12.85z" fill="url(#AC)"/><path d="M413.27 523.11l-86.78-50c-4-2.29-3.46-6.28 1.11-8.92l44-25.55c4.57-2.64 11.48-2.93 15.44-.65l86.77 50c4 2.28 3.47 6.27-1.1 8.91l-44 25.56c-4.57 2.65-11.48 2.94-15.44.65z" fill="url(#AD)"/><path d="M682.56 468.47L411.72 312c-10.48-6.06-19-22.3-19-36.28V63.26c0-14 8.5-20.4 19-14.35l270.84 156.46c10.49 6.06 19 22.3 19 36.28v212.47c-.01 13.98-8.51 20.4-19 14.35z" fill="url(#AE)"/><path d="M690.1 466.55a11.28 11.28 0 0 1-5.44-1.71L413.82 308.38c-9.16-5.29-16.89-20.24-16.89-32.65V63.26c0-5.74 1.9-12.43 7.26-12.43a11.25 11.25 0 0 1 5.43 1.71L680.46 209c9.16 5.29 16.89 20.24 16.89 32.65v212.47c0 5.74-1.9 12.43-7.25 12.43z" fill="url(#AF)"/><path d="M685,457.55,417.06,302.77c-8.44-5.36-13.66-16.07-13.66-27V62.23a3.37,3.37,0,0,1,5.07-2.9l.59.35L677.23,214.6c10,5.79,13.65,16.08,13.65,27.05v213a3.63,3.63,0,0,1-5.43,3.15Z" fill="url(#AG)"/><path d="M677.23 214.6L409.06 59.68l-.59-.35a3.37 3.37 0 0 0-5.07 2.9v213.5c0 11 5.22 21.68 13.66 27L685 457.55l.44.25a3.63 3.63 0 0 0 5.43-3.15v-213c.01-10.97-3.6-21.26-13.64-27.05zm11.52 240.05a1.5 1.5 0 0 1-1.51 1.5 1.39 1.39 0 0 1-.73-.2l-268.39-155c-7.62-4.85-12.59-14.75-12.59-25.2V62.23a1.24 1.24 0 0 1 1.24-1.23 1.29 1.29 0 0 1 .62.17l268.77 155.28c10.41 6 12.59 17 12.59 25.2z" fill="url(#AH)"/><path d="M687.94 202.51L417.1 46.05c-4.15-2.39-8-2.84-11.11-1.63-.39.15-5.69 3-6.06 3.17h0c3.24-1.57 7.34-1.27 11.81 1.31l270.82 156.47c10.49 6.06 19 22.3 19 36.28v212.47c0 8.72-3.31 14.5-8.35 16.15a3.17 3.17 0 0 0 1.66-.57l6.22-3.54c3.6-2.53 5.85-7.72 5.85-14.9V238.79c-.01-13.98-8.51-30.22-19-36.28z" fill="url(#AI)"/><path class="Aa" d="M683.47 204.92L412.63 48.45c-4.3-2.48-8.25-2.83-11.43-1.46 2.71-.43 5.83.23 9.15 2.15L681.19 205.6c10.49 6.05 19 22.29 19 36.28v212.46c0 8.25-3 13.84-7.55 15.82 5.86-.93 9.83-7 9.83-16.5V241.19c-.01-13.98-8.47-30.19-19-36.27z" fill="url(#AJ)"/><path d="M511.25 485.61l-137.71-79.33c-4.56-2.64-4-7.23 1.28-10.27l45.72-26.93c5.26-3 13.22-3.37 17.78-.74l138.51 78.94c4.55 2.63 4 7.23-1.28 10.26L529 484.87c-5.23 3.04-13.19 3.37-17.75.74z" fill="url(#AK)"/><path d="M453.26 382l-1.75-4.9h0a4.91 4.91 0 0 0-2.6-3.14l-12.66-7.31a14.31 14.31 0 0 0-13 0l-12.58 7.26a5.87 5.87 0 0 0-2.63 3.51l-1.71 4.52c-1 2.53-.74 4.66 2.26 6.4l14.07 8.12a15.93 15.93 0 0 0 14.42 0l14-8.08c2.97-1.74 3.35-3.67 2.18-6.38z" fill="url(#AL)"/><path d="M411.43 381.21l12.19 7a13.8 13.8 0 0 0 12.5 0l12.11-7c3.44-2 3.43-5.22 0-7.22L436 367a13.86 13.86 0 0 0-12.5 0l-12.11 7c-3.39 2-3.39 5.21.04 7.21z" fill="url(#AM)"/><path d="M484.08 399l-1.74-4.9h0a5 5 0 0 0-2.61-3.15l-12.65-7.31a14.37 14.37 0 0 0-13 0l-12.58 7.26a5.88 5.88 0 0 0-2.63 3.52l-1.72 4.52c-1 2.52-.73 4.66 2.27 6.39l14.06 8.12a16 16 0 0 0 14.43 0l14-8.07c2.97-1.72 3.34-3.66 2.17-6.38z" fill="url(#AN)"/><path d="M442.26 398.23l12.19 7a13.84 13.84 0 0 0 12.49 0l12.12-7c3.44-2 3.42-5.21 0-7.21l-12.19-7a13.8 13.8 0 0 0-12.5 0l-12.11 7c-3.48 1.98-3.47 5.21 0 7.21z" fill="url(#AO)"/><path d="M514.91 416l-1.74-4.9h0a5 5 0 0 0-2.61-3.14l-12.66-7.31a14.32 14.32 0 0 0-13 0l-12.58 7.27a5.79 5.79 0 0 0-2.63 3.51l-1.69 4.49c-1 2.53-.74 4.66 2.26 6.4l14.07 8.12a15.9 15.9 0 0 0 14.42 0l14-8.07c2.95-1.7 3.33-3.63 2.16-6.37z" fill="url(#AP)"/><path d="M473.08 415.24l12.19 7a13.8 13.8 0 0 0 12.5 0l12.12-7c3.44-2 3.42-5.22 0-7.22l-12.19-7a13.86 13.86 0 0 0-12.5 0L473 408c-3.4 2-3.38 5.24.08 7.24z" fill="url(#AQ)"/><path d="M545.74 433l-1.74-4.9h0a4.9 4.9 0 0 0-2.6-3.15l-12.66-7.31a14.37 14.37 0 0 0-13 0l-12.57 7.26a5.87 5.87 0 0 0-2.64 3.52l-1.71 4.52c-1 2.52-.74 4.66 2.26 6.39l14.07 8.12a15.93 15.93 0 0 0 14.42 0l14-8.07c2.96-1.69 3.34-3.63 2.17-6.38z" fill="url(#AR)"/><path d="M503.91 432.26l12.19 7a13.86 13.86 0 0 0 12.5 0l12.11-7c3.44-2 3.43-5.21 0-7.21l-12.19-7a13.8 13.8 0 0 0-12.5 0l-12.11 7c-3.48 1.95-3.46 5.21 0 7.21z" fill="url(#AS)"/><g fill="#c7bcd6"><path d="M426.14 375.47l-.37-.15-.1.05.26.21 6 7.63-4 2.32-7.78-11.53 3.22-1.86 20.05 4.49-4 2.3zM465 398.88a13.28 13.28 0 0 1-6.16 1.93 9.86 9.86 0 0 1-5.46-1.27c-1.63-.94-2.37-2-2.23-3.18s1.25-2.35 3.32-3.55l3.65-2.11a13.5 13.5 0 0 1 6.16-1.92 9.78 9.78 0 0 1 5.49 1.27c1.62.93 2.35 2 2.2 3.17s-1.25 2.36-3.32 3.56zm1.38-3.88c1.3-.76 2.05-1.44 2.24-2.06s-.14-1.17-1-1.66a4.53 4.53 0 0 0-2.86-.56 9 9 0 0 0-3.56 1.29l-4.43 2.56q-2 1.14-2.25 2.07c-.2.62.14 1.18 1 1.66a4.62 4.62 0 0 0 2.86.57 9.32 9.32 0 0 0 3.58-1.31zm19.24 22.28l-2.62-1.55 13.37-7.73-3.26-1.88 2-1.13 6.5 3.1zm34.62 6.04l4-2.28 8.21 11.83-3.22 1.86-20.54-4.73 3.94-2.28 13.8 3.64.33.16.12-.05-.25-.23z"/></g><path d="M512.72 450.22l-1.72-4.89h0a5 5 0 0 0-2.61-3.15l-101.18-58.55a14.35 14.35 0 0 0-13 0l-12.58 7.26a5.84 5.84 0 0 0-2.63 3.52l-1.72 4.52c-1 2.52-.74 4.66 2.26 6.39l102.56 59.36a15.93 15.93 0 0 0 14.42 0l14-8.07c2.99-1.72 3.37-3.61 2.2-6.39z" fill="url(#AT)"/><path d="M382.4 398.23l100.68 58.27a13.8 13.8 0 0 0 12.5 0l12.12-7c3.44-2 3.42-5.22 0-7.22L407 384a13.8 13.8 0 0 0-12.5 0l-12.12 7c-3.46 2-3.44 5.23.02 7.23z" fill="url(#AU)"/><path d="M576.56 449.83l-1.74-4.9h0a4.93 4.93 0 0 0-2.61-3.14l-12.65-7.31a14.34 14.34 0 0 0-13 0l-45 25.7a5.89 5.89 0 0 0-2.63 3.52l-1.71 4.52c-1 2.52-.74 4.66 2.26 6.39l14.07 8.12a15.93 15.93 0 0 0 14.42 0l46.38-26.51c3.01-1.72 3.39-3.65 2.21-6.39z" fill="url(#AV)"/><path d="M502.33 467.51l12.19 7a13.83 13.83 0 0 0 12.5 0l44.52-25.43c3.44-2 3.42-5.22 0-7.22l-12.19-7a13.86 13.86 0 0 0-12.5 0l-44.52 25.43c-3.48 1.99-3.46 5.22 0 7.22z" fill="url(#AW)"/><g fill="#c7bcd6"><path d="M530.88 451.27l-2.48-1.43-1.79 1 2.88 1.67-.75.44-3.83-2.21 5.64-3.26 3.8 2.19-.75.44-2.85-1.65-1.6.92 2.48 1.43zm3.59.16l-.55.38a3.86 3.86 0 0 1 1 0 2.54 2.54 0 0 1 .89.31c.44.25.65.52.63.82s-.31.6-.87.93L533 455.4l-.94-.55 2.62-1.52c.32-.18.48-.34.48-.49s-.13-.31-.4-.47a2 2 0 0 0-.62-.22 3.17 3.17 0 0 0-.69 0l-3 1.76-1-.55 4.19-2.42zm5.86 2.21l-1 .59.76.43-.7.41-.76-.44-2.33 1.37c-.18.1-.26.19-.26.28s.07.16.19.23l.16.08.18.06-.59.46a2.33 2.33 0 0 1-.39-.11 2.64 2.64 0 0 1-.38-.18c-.35-.2-.52-.41-.52-.64s.23-.48.66-.73l2.32-1.34-.65-.37.7-.4.64.37 1-.59zm-1.89 5.02c-.59-.34-.88-.73-.85-1.16s.36-.82 1-1.17l.15-.09a4.31 4.31 0 0 1 2-.57 3.44 3.44 0 0 1 1.92.42c.58.32.84.68.8 1.05s-.35.72-.92 1.06l-.56.31-2.61-1.51h0a1 1 0 0 0-.52.64c0 .23.12.44.43.62a3.25 3.25 0 0 0 .76.32 4.61 4.61 0 0 0 .79.15l-.32.54a5.68 5.68 0 0 1-1-.16 4.62 4.62 0 0 1-1.07-.45zm3.49-2.14a1.55 1.55 0 0 0-.86-.17 2.87 2.87 0 0 0-1 .24h0l1.67 1 .1-.06c.27-.16.42-.32.44-.5s-.08-.35-.35-.51zm4.45 2.77l-.38-.24a1.6 1.6 0 0 0-.58-.2 1.85 1.85 0 0 0-.62 0l-2.91 1.69-.95-.55 4.19-2.42.87.5-.55.38a3.22 3.22 0 0 1 .92-.05 2 2 0 0 1 .76.23l.15.1.1.1z"/></g><path d="M658.79 376.21l-74.77-43.17v-39.67l74.77 43.17v39.67z" fill="url(#AX)"/><path d="M480.31 273.82l-74.77-43.17v-39.66l74.77 43.16v39.67z" fill="url(#AY)"/><path d="M577.28 200.5l-61.6-35.57c-5.26-3-9.52-11.17-9.52-18.18h0c0-7 4.26-10.22 9.52-7.19l61.6 35.57c5.25 3 9.51 11.17 9.51 18.18h0c0 7-4.26 10.22-9.51 7.19z" fill="url(#AZ)"/><path d="M574.06 378.34l-61.6-35.57c-5.25-3-9.51-11.17-9.51-18.18h0c0-7 4.26-10.22 9.51-7.19l61.6 35.6c5.26 3 9.52 11.17 9.52 18.18h0c0 6.97-4.26 10.19-9.52 7.16z" fill="url(#Aa)"/><g fill="#b086cc"><path d="M625.61 305.41v-20.8l-43.82-24.96-.98 1.72 42.82 24.4v18.5l-4.29-2.47 4.82 12.4 4.83-6.84-3.38-1.95zm-80.29-98.67l4.82-6.83-3.78-2.18v-11.62l-1.98-.6v11.07l-3.88-2.24 4.82 12.4zm-76.37 18.69l4.83-6.84-3.46-1.99v-18.99l35.31 20.36 1-1.72-38.29-22.07v21.27l-4.21-2.42 4.82 12.4zm149.72 135.86L464.98 272.7v-6.83l-1.98-.59v8.56l81.38 46.92v4.42l-3.88-2.24 4.82 12.4 4.82-6.84-3.78-2.18v-4.42l72.8 41.97 1.49.85v-9.46l-1.98-.59v6.62z"/></g><path d="M545.08 270.35l-37.83-53.07 37.83-9.39 37.83 53.07-37.83 9.39z" fill="url(#Ab)"/><path class="Av" d="M584.02 293.37v1.57l73.78 42.59v38.1l.99.58v-39.67l-74.77-43.17z" fill="url(#Ac)"/><path class="Aw" d="M405.54 190.99v1.56l73.77 42.59v38.11l1 .57v-39.67l-74.77-43.16z" fill="url(#Ad)"/><path class="Ax" d="M577.28 175.13l-61.6-35.57c-3.17-1.83-6-1.37-7.7.81 1.72-1.29 4.09-1.33 6.7.18l61.61 35.57c5.25 3 9.51 11.17 9.51 18.18a10.27 10.27 0 0 1-1.81 6.38c1.73-1.3 2.8-3.86 2.8-7.37 0-7.01-4.26-15.15-9.51-18.18z" fill="url(#Ae)"/><path class="Ay" d="M574.06 353l-61.6-35.57c-3.17-1.83-6-1.37-7.7.81 1.72-1.28 4.09-1.33 6.71.18l61.6 35.58c5.26 3 9.52 11.17 9.52 18.18a10.18 10.18 0 0 1-1.82 6.38c1.74-1.3 2.81-3.86 2.81-7.37 0-7.05-4.26-15.19-9.52-18.19z" fill="url(#Af)"/><path class="Az" d="M544.09 208.88l37.37 52.44 1.45-.36-37.83-53.07-37.83 9.39.45.63 36.39-9.03z" fill="url(#Ag)"/><g class="D" fill="#e0ecf7"><path d="M444.96 225.2l8.49 4.87v-2.51l-8.49-4.86v2.5zm3.55 20.57l-8.45-4.88v2.51l8.45 4.88v-2.51zm-.45-13.39v-2.5l-9.44-5.35v2.51l9.44 5.34zm-9.92 2.07v2.51l4.8 2.76v-2.5l-4.8-2.77zm-7.25 3.74v-2.51l-7.79-4.41v2.5l7.79 4.42zm21.24 4.33l-6.69-3.86v2.51l6.69 3.86v-2.51zm-9.61-10.62v2.51l3.97 2.26v-2.51l-3.97-2.26zm13.44-2.91v2.51l2.16 1.26v-2.51l-2.16-1.26zm-15.95 3.99v-2.51l-8.07-4.6v2.51l8.07 4.6zm10.55-1.67v2.51l11.91 6.82v-2.51l-11.91-6.82zm-14.89 4.22v-2.51l-10.14-5.67v2.5l10.14 5.68zm-7.7-22.56v2.51l7.94 4.54v-2.51l-7.94-4.54zm14.48 8.29l-4.04-2.31v2.51l4.04 2.31v-2.51zm-4.86 18.21l-4.19-2.38v2.51l4.19 2.37v-2.5zm22.65 10.25l10.82 6.29v-2.51l-10.82-6.29v2.51zm-39.65-19.87l-3.83-2.2v2.51l3.83 2.2v-2.51zm-11.66-27.41v2.5l17.02 9.71v-2.51l-17.02-9.7zm53.81 43.51l4.01 2.33v-2.51l-4.01-2.33v2.51zm2.23-3.88l11.51 6.76v-2.51l-11.51-6.76v2.51zm-15.98-3.97l11.28 6.42v-2.51l-11.28-6.42v2.51zm11.63-6.42v2.51l8.98 5.14v-2.51l-8.98-5.14zm-37.59-5.74l-6.27-3.5v2.5l6.27 3.51v-2.51zm34.74 19.84l-3.14-1.81v2.51l3.14 1.81v-2.51zm-28.34-21.34l-12.67-7.22v2.51l12.67 7.22v-2.51zm6.68-1.35l-19.35-11.08v2.51l19.35 11.08v-2.51z"/></g><g class="BB" fill="#c7bcd6"><path d="M541.47 228.46l-3-1.74v-3l3 1.74zm0 19.18l-3-1.74v-15.41l3 1.74zm4.36 2.51v-12.84l-2.05-1.18v-2.56l2.05 1.18V233c0-1.69.4-2.77 1.21-3.23s1.94-.26 3.39.58a8.45 8.45 0 0 1 .88.59l1 .8-.31 2.5a6.8 6.8 0 0 0-.56-.42 5.19 5.19 0 0 0-.65-.42q-1-.57-1.47-.21a1.89 1.89 0 0 0-.49 1.55v1.8l2.73 1.57v2.57l-2.73-1.58v12.84z"/></g><g fill="#7c1dc9"><path class="BC" d="M721.62 402.62l6.58 3.8v-15.1l-6.58-3.8zm10.42 6l6.58 3.8v-27.7l-6.58-3.8zm10.42-34.27v40.28l6.58 3.8v-40.26zM382.61 82.18a16.24 16.24 0 0 0-.13-1.82l3-.39a27.44 27.44 0 0 0-1.38-4.6l-3.47-1.05a24.13 24.13 0 0 0-2.15-3.72l.83-3.5a27.57 27.57 0 0 0-3.31-3.49L374.16 66a14.52 14.52 0 0 0-1.52-1 11.74 11.74 0 0 0-1.53-.73l-1.86-4.57a9.26 9.26 0 0 0-3.32-.33l.83 4.45A4.77 4.77 0 0 0 364.6 65l-3.46-3a9.08 9.08 0 0 0-1.38 3l3 3.9a11.09 11.09 0 0 0-.13 1.67 14.33 14.33 0 0 0 .13 1.83l-3 .38a27.83 27.83 0 0 0 1.38 4.61l3.46 1a24.19 24.19 0 0 0 2.16 3.72l-.83 3.5a28.36 28.36 0 0 0 3.32 3.5l1.86-2.41a16.27 16.27 0 0 0 1.53 1 11.75 11.75 0 0 0 1.52.74l1.84 4.72a9.06 9.06 0 0 0 3.32.34l-.8-4.5a4.65 4.65 0 0 0 2.15-1.23l3.47 3a9.13 9.13 0 0 0 1.38-3l-3-3.89a12.59 12.59 0 0 0 .09-1.7zm-10-1.16a8.83 8.83 0 0 1-4-6.9c0-2.54 1.79-3.56 4-2.29a8.83 8.83 0 0 1 4 6.91c.03 2.54-1.76 3.56-3.97 2.26z" opacity=".8"/></g><g class="AB" opacity=".8" fill="#7c1dc9"><path d="M333 262.09a1.15 1.15 0 0 1-.39-.4 1.06 1.06 0 0 1-.16-.56v-2.49a.69.69 0 0 1 .16-.53 1.26 1.26 0 0 1 .53-.22l6.73-1.28-6.73-9.06a6.33 6.33 0 0 1-.53-.83 1.71 1.71 0 0 1-.16-.75v-2.46c0-.21.05-.35.15-.41a.41.41 0 0 1 .4.06 2 2 0 0 1 .56.61l9.44 12.82a5.37 5.37 0 0 1 .62 1 2.19 2.19 0 0 1 .18.87v.76a1 1 0 0 1-.19.66 1.16 1.16 0 0 1-.61.28l-9.43 2a.66.66 0 0 1-.57-.07zm-4.28 1.96l-1.81-1a1.64 1.64 0 0 1-.57-.54 2.19 2.19 0 0 1-.29-.63l-9.51-31.57a1.26 1.26 0 0 1-.06-.38.4.4 0 0 1 .17-.38.39.39 0 0 1 .42.05l1.8 1a1.58 1.58 0 0 1 .56.53 2.66 2.66 0 0 1 .33.65l9.46 31.54a1.26 1.26 0 0 1 .06.38.4.4 0 0 1-.17.38.35.35 0 0 1-.39-.03zm-15.94-13.64a1.77 1.77 0 0 1-.55-.57L302.8 237a5.56 5.56 0 0 1-.61-1 2.13 2.13 0 0 1-.2-.88v-.77a1 1 0 0 1 .18-.66 1.16 1.16 0 0 1 .63-.31l9.43-1.93a.62.62 0 0 1 .55 0 1.07 1.07 0 0 1 .39.4 1.12 1.12 0 0 1 .17.59v2.46a.71.71 0 0 1-.17.55 1.25 1.25 0 0 1-.53.23l-6.73 1.32 6.73 9.06a5.73 5.73 0 0 1 .53.83 1.59 1.59 0 0 1 .17.72v2.49c0 .19-.06.31-.17.36a.38.38 0 0 1-.39-.05z"/></g><g fill="#7c1dc9"><path class="BC" d="M275.26 235.44v-24.4l13.18 19.8-13.18 4.6h0z" opacity=".8"/><path class="BD" d="M257.33 225.18v-24.4l13.17 19.8-13.17 4.6h0z" opacity=".6"/><path class="BE" d="M239.39 214.92v-24.4l13.17 19.8-13.17 4.6h0z" opacity=".4"/><path class="BF" d="M221.46 204.66v-24.4l13.17 19.8-13.17 4.6h0z" opacity=".25"/><path class="BG" d="M203.52 194.4V170l13.17 19.81-13.17 4.59h0z" opacity=".15"/><path class="BC" d="M652.99 90.05v24.4l-13.17-19.8 13.17-4.6h0z" opacity=".8"/><path class="BD" d="M670.92 100.31v24.4l-13.17-19.8 13.17-4.6h0z" opacity=".6"/><path class="BE" d="M688.86 110.57v24.4l-13.17-19.8 13.17-4.6h0z" opacity=".4"/><path class="BF" d="M706.79 120.83v24.4l-13.17-19.8 13.17-4.6h0z" opacity=".25"/><path class="BG" d="M724.73 131.09v24.4l-13.17-19.8 13.17-4.6h0z" opacity=".15"/></g><g class="AB" opacity=".8" fill="#7c1dc9"><path class="BD" d="M145.1 491.15l8.87 5.12 4.29-2.48-8.87-5.12-4.29 2.48z" opacity=".6"/><path class="BC" d="M151.72 487.32l8.87 5.13 4.76-2.75-8.87-5.12-4.76 2.74z" opacity=".8"/><path class="BH" d="M131.86 498.79l8.87 5.13 3.35-1.94-8.87-5.12-3.35 1.93z" opacity=".3"/><path class="BG" d="M127.36 501.42l8.87 5.12 1.73-.85-8.87-5.13-1.73.86z" opacity=".15"/><path class="BI" d="M138.48 494.97l8.87 5.12 3.82-2.2-8.87-5.13-3.82 2.21z" opacity=".5"/><path class="BJ" d="M151.03 478.77l24.09 13.91 4.54-16.54-28.63 2.63z"/></g><path d="M762.82 318.24l-23.99-33.65 23.99-5.96 23.99 33.66-23.99 5.95z" fill="url(#Ah)"/><path d="M759.44 231.69l-41.72-24.09c-3.56-2-6.44-7.56-6.44-12.31h0c0-4.74 2.88-6.92 6.44-4.87l41.72 24.09c3.56 2.06 6.45 7.57 6.45 12.31h0c0 4.75-2.89 6.93-6.45 4.87z" fill="url(#Ai)"/></g></g></svg>