<svg xmlns="http://www.w3.org/2000/svg" xmlns:xlink="http://www.w3.org/1999/xlink" width="440.841" height="403.161" viewBox="0 0 440.841 403.161">
  <defs>
    <linearGradient id="linear-gradient" x1="0.578" y1="0.247" x2="0.364" y2="0.689" gradientUnits="objectBoundingBox">
      <stop offset="0" stop-color="#4c2fbb"/>
      <stop offset="1" stop-color="#a010a0"/>
    </linearGradient>
  </defs>
  <path id="E" d="M135.423,2.2a150.207,150.207,0,0,1,87.563,48.888c14.558,16.668,25.19,36.32,37.722,54.557S288.428,141.3,308.6,150.4c18.626,8.406,40.171,9.1,58.28,18.568,32.746,17.119,45.559,60.914,34.2,96.077S358.9,326.47,324.79,340.673s-71.564,17.94-108.429,20.462C162.864,364.8,104.85,365,61.173,333.893,14.872,300.918-3.65,239.161.588,182.476c2.992-40.037,15.663-78.4,30.585-115.4C40.2,44.676,42.872,16,68.223,6.652,88.992-1.007,113.825-1.409,135.423,2.2Z" transform="translate(402.918 403.161) rotate(-174)" fill="url(#linear-gradient)"/>
</svg>
