<svg xmlns="http://www.w3.org/2000/svg" xmlns:xlink="http://www.w3.org/1999/xlink" width="367.887" height="364.964" viewBox="0 0 367.887 364.964"><defs><linearGradient id="a" x1="0.5" x2="0.5" y2="1" gradientUnits="objectBoundingBox"><stop offset="0" stop-color="#4c2fbb"/><stop offset="1" stop-color="#a010a0"/></linearGradient><filter id="b" x="0" y="0" width="367.887" height="364.964" filterUnits="userSpaceOnUse"><feOffset dy="10" input="SourceAlpha"/><feGaussianBlur stdDeviation="3" result="c"/><feFlood flood-opacity="0.161"/><feComposite operator="in" in2="c"/><feComposite in="SourceGraphic"/></filter></defs><g transform="matrix(1, 0, 0, 1, 0, 0)" filter="url(#b)"><path d="M98.727,72.414c15.019-14.173,20.882-40.467,34.7-56.641,15.558-18.2,39.68-20.2,58.388-8.322s32.107,35.733,38.705,61.838,6.975,54.346,4.7,81.716c-2.387,28.66-8.322,58.578-24.066,78.435C196.6,247.8,175.887,254.7,155.919,257.474c-44.141,6.135-98.753-3.021-136.411-36.971-33.454-30.157-19.677-89.244,9.726-117.136C50.037,83.633,78.161,91.823,98.727,72.414Z" transform="matrix(0.62, -0.79, 0.79, 0.62, 9, 186.35)" opacity="0.47" fill="url(#a)"/></g></svg>