<svg xmlns="http://www.w3.org/2000/svg" xmlns:xlink="http://www.w3.org/1999/xlink" width="118.654" height="372.477"  xmlns:v="https://vecta.io/nano"><defs><linearGradient id="A" x1="1" y1=".5" x2="0" y2=".5"><stop offset="0" stop-color="#ed883b"/><stop offset="1" stop-color="#a010a0"/></linearGradient><linearGradient id="B" xlink:href="#A" /><linearGradient id="C" x1="1" y1=".5" x2="0" y2=".5"><stop offset="0" stop-color="#3a60e9"/><stop offset="1" stop-color="#f28772"/></linearGradient><linearGradient id="D" x1="1" y1=".5" x2="0" y2=".5"><stop offset="0" stop-color="#f28772"/><stop offset="1" stop-color="#e7a405"/></linearGradient><linearGradient id="E" x1=".512" y1="1.033" x2=".485" y2="-.064"><stop offset="0" stop-color="#4c2fbb"/><stop offset="1" stop-color="#a010a0"/></linearGradient><linearGradient id="F" x1=".509" y1="1.019" y2="-.169" xlink:href="#E" /></defs><path d="M41.397 147.624s-28.333-9.907-40.163-50.112C-4.674 77.43 11.673 58.619 28.086 53.143c19.742-6.586 45.754 4.473 46.44 30.011.912 33.979-21.293 66.091-33.129 64.47z" fill="url(#A)"/><path d="M42.432 155.729c1.636-.529 3.3-.963 4.986-1.3a.77.77 0 0 0 .584-1.19l-4.574-5.985c-.213-.254-.547-.372-.872-.307h0c-.393.045-.705.351-.759.742l-.538 7.325a.83.83 0 0 0 1.173.715z" fill="url(#B)"/><g fill="url(#C)"><path d="M62.974 122.265s-23.883-19.541-18.093-60.068c2.261-15.827 23.658-31.427 40.528-30.4 20.292 1.24 39.822 20.758 31.119 44.146-11.579 31.124-43.422 52.111-53.554 46.322z"/><path d="M60.952 129.986c1.676.116 3.343.329 4.994.638.607.11 1.109-.34.964-.865l-1.959-7.092c-.099-.309-.359-.539-.678-.6h0a.85.85 0 0 0-.959.4l-3.161 6.434a.81.81 0 0 0 .799 1.085z"/></g><g fill="url(#D)"><path d="M52.834 94.096S20.853 83.43 16.886 42.684C14.45 17.664 29.546 5.44 45.894 1.151c19.664-5.159 44.313 7.282 43.35 32.219-1.281 33.179-24.977 63.062-36.41 60.726z"/><path d="M53.326 102.062c1.628-.412 3.279-.73 4.944-.953.265-.004.509-.148.641-.378s.134-.513.004-.745l-4.076-6.125c-.191-.262-.51-.398-.831-.356h0a.85.85 0 0 0-.787.675l-.992 7.106a.81.81 0 0 0 1.097.776z"/></g><g fill="none" stroke="#001a5d" stroke-miterlimit="10"><path d="M63.46 122.613s-13.866 81.76 19.125 129.1c36 51.651 7.212 83.71 2.105 88.816M41.944 147.476s6.215 72.676 39.207 120.011c36 51.65-2.544 71.873-7.65 76.979"/><path d="M53.419 94.401s-11.953 83.675 21.038 131.01c36 51.65 17.691 107.1 7.172 119.055"/></g><path d="M82.5 342.219s8.037-16.252 9.617-24.348c0 0-13.341 5.145-21.4-3.962l-4.749 43.116 11.179.94z" fill="#3f2305"/><path d="M91.146 323.073c-.478-.957-2.68-2.734-3.633-2.616-.827.1-1.626 2.6-1.626 3.572 0 .956-2.885-3.308-3.825-3.36-1.073-.058-4.782 4.474-4.782 3.36 0-.478-.691-4.314-1.746-4.761-.748-.317-2.357 2.214-2.557 1.414-.478-1.913-.31-3.179-.956-3.825-.956-.956-3.606 2.471-3.347 1.434.454-1.508 1.097-2.953 1.912-4.3l1.077-2.3 20.917 3.259-.478 3.347s-.482 5.725-.956 4.776z" fill="#593609"/><ellipse cx="10.585" cy="2.63" rx="10.585" ry="2.63" transform="matrix(-.988568 -.150778 .150778 -.988568 92.193 317.477)" fill="#9b610d"/><path d="M84.69 340.524c-3.347 3.825-17.212 5.26-17.691 1.913 0 0-.082-.622.677-.55m14.596 1.114s.979.89-.453 1.36-15.246 5.056-15.3 3.339c0 0-.243-.38.6-.429" fill="none" stroke="#001a5d" stroke-miterlimit="10"/><path d="M45.928 364.301s7.424-7.269-5.657-26.163c0 0 10.541 8.188 13.081 18.894 0 0-4.36-17.118 3.068-24.224 0 0 .1 13.079 6.928 20.689 0 0-.926-10.488 5.921-18.293 0 0-.524 20.771 5.688 36.142 0 .003-23.149 4.169-29.029-7.045z" fill="url(#E)"/><path d="M99.137 364.978s-8.137-6.585 4.944-24.318c0 0-12.919 13.186-13.081 17.733 0 0 4.36-16.066-3.068-22.735 0 0-.305 20.31-7.743 20.006 0 0-1.947-3.637-1.624-11.822a53.8 53.8 0 0 0-13.391 28.264c0 0 27.024 2.823 33.963-7.128z" fill="url(#F)"/></svg>