<svg xmlns="http://www.w3.org/2000/svg" width="166.526" height="167.674"  xmlns:v="https://vecta.io/nano"><ellipse cx="83.263" cy="83.837" rx="83.263" ry="83.837" fill="#a010a0"/><path d="M98.15 70.769a12.69 12.69 0 0 0-12.715-12.7 12.72 12.72 0 0 0-12.714 12.714 12.69 12.69 0 0 0 12.714 12.7h0c7.013-.021 12.693-5.701 12.715-12.714zm-21.806 0a9.08 9.08 0 0 1 9.092-9.074 9.1 9.1 0 0 1 9.092 9.092A9.07 9.07 0 0 1 91.86 77.2c-1.705 1.699-4.016 2.65-6.424 2.643-5.014-.001-9.081-4.06-9.092-9.074zm28.398 14.521a3.89 3.89 0 0 0 .67-1.032c.452-.985.471-2.115.054-3.115l-1.811-4.474 4.093-2.554c1.86-1.171 2.419-3.627 1.25-5.488a3.92 3.92 0 0 0-1.25-1.25l-4.093-2.554 1.811-4.474a3.97 3.97 0 0 0-.033-3.04 3.96 3.96 0 0 0-2.177-2.122 3.9 3.9 0 0 0-1.757-.272l-4.818.344-1.159-4.673c-.528-2.124-2.674-3.42-4.8-2.9a3.89 3.89 0 0 0-1.612.815l-3.677 3.1-3.695-3.1c-1.678-1.411-4.181-1.201-5.6.471a3.89 3.89 0 0 0-.815 1.612l-1.159 4.673-4.818-.344c-2.185-.152-4.081 1.493-4.238 3.677a4.16 4.16 0 0 0 .272 1.757l1.811 4.474-4.093 2.554a3.97 3.97 0 0 0-1.268 5.47 4.04 4.04 0 0 0 1.268 1.268l4.093 2.554-1.811 4.474c-.417 1-.398 2.13.054 3.115a3.89 3.89 0 0 0 .67 1.032l-10.626 25.195a1.81 1.81 0 0 0 .96 2.373 1.87 1.87 0 0 0 1.431 0l11.483-5.017 4.419 11.718a1.83 1.83 0 0 0 1.666 1.177h.036a1.82 1.82 0 0 0 1.666-1.1l8.3-19.615 8.274 19.607a1.82 1.82 0 0 0 1.666 1.1h.036a1.82 1.82 0 0 0 1.666-1.177l4.419-11.718 11.483 5.025c.442.193.942.202 1.391.025s.808-.525 1-.967a1.79 1.79 0 0 0 0-1.431zm-29.16 28.761l-3.5-9.273a1.8 1.8 0 0 0-2.336-1.05c-.036.018-.054.018-.091.036l-9.069 3.962 8.911-21.136 4.673-.326 1.159 4.691a3.93 3.93 0 0 0 2.644 2.825 4.06 4.06 0 0 0 1.232.2 3.86 3.86 0 0 0 2.536-.942l.543-.453 1.177 2.789zm3.822-23.8c-.089.08-.216.101-.326.054a.37.37 0 0 1-.235-.254l-1.521-6.158a1.8 1.8 0 0 0-1.757-1.376h-.127l-6.321.453h-.127l-.036-.018c-.086-.035-.157-.099-.2-.181-.036-.087-.036-.185 0-.272l2.373-5.868a1.81 1.81 0 0 0-.724-2.21l-5.379-3.351c-.104-.067-.166-.184-.163-.308-.007-.12.056-.234.163-.29l5.379-3.369c.743-.465 1.048-1.395.724-2.21l-2.373-5.886c-.034-.087-.033-.183.005-.268a.35.35 0 0 1 .195-.185.4.4 0 0 1 .145-.018l6.339.435c.876.051 1.666-.526 1.884-1.376l1.521-6.158a.31.31 0 0 1 .235-.254c.113-.04.24-.012.326.072l4.854 4.093a1.83 1.83 0 0 0 2.336 0l4.872-4.093a.36.36 0 0 1 .326-.072.37.37 0 0 1 .235.254l1.521 6.158c.218.85 1.008 1.427 1.884 1.376l6.339-.435c.093-.011.186.019.255.081s.108.152.107.245a.4.4 0 0 1-.018.145l-2.373 5.886a1.81 1.81 0 0 0 .724 2.21l5.379 3.369c.107.056.17.17.163.29.003.124-.059.241-.163.308l-5.4 3.351c-.743.465-1.048 1.395-.724 2.21l2.391 5.886c.036.087.036.185 0 .272s-.107.158-.2.181l-.036.018c-.04.018-.087.018-.127 0l-6.321-.453a1.8 1.8 0 0 0-1.884 1.376l-1.521 6.158c-.025.122-.116.219-.235.254-.113.04-.24.012-.326-.072l-4.854-4.093a1.83 1.83 0 0 0-2.336 0zm21.788 13.511c-.442-.193-.942-.202-1.391-.025s-.808.525-1 .967c-.018.036-.018.054-.036.091l-3.5 9.273-8.1-19.18-1.992-4.727.254-.2 3.695 3.061a3.97 3.97 0 0 0 2.902.919 3.96 3.96 0 0 0 2.698-1.408 3.93 3.93 0 0 0 .815-1.594l1.159-4.691 4.673.326 8.911 21.118z" fill="#fff"/></svg>