<svg xmlns="http://www.w3.org/2000/svg" width="168.823" height="167.674"  xmlns:v="https://vecta.io/nano"><defs><clipPath id="A"><path transform="translate(-.48)" fill="#fff" d="M0 0h70v81H0z"/></clipPath></defs><ellipse cx="84.411" cy="83.837" rx="84.411" ry="83.837" fill="#563bbf"/><g clip-path="url(#A)" transform="translate(52.19 45.837)"><path d="M69.035 21.989v-.063l-.073-2.532c-.084-4.511-3.626-8.196-8.13-8.459-9.367-.523-16.613-3.577-22.8-9.612l-.053-.05c-1.999-1.852-5.087-1.852-7.086 0l-.053.05c-6.191 6.035-13.437 9.089-22.8 9.612-4.504.263-8.046 3.948-8.13 8.459l-.073 2.531v.147C-.345 31.624-.571 43.511 3.405 54.3c2.09 5.783 5.454 11.023 9.842 15.331 5.507 5.164 12.083 9.053 19.261 11.393.258.09.521.161.789.215a5.83 5.83 0 0 0 2.292 0 5.98 5.98 0 0 0 .793-.216 51.52 51.52 0 0 0 19.24-11.4 41.08 41.08 0 0 0 9.842-15.334c3.992-10.822 3.766-22.731 3.584-32.3zm-8.07 30.647C56.771 64.008 48.209 71.818 34.79 76.511a1.2 1.2 0 0 1-.152.041c-.139.028-.281.028-.42 0a1.19 1.19 0 0 1-.151-.04c-13.433-4.684-22-12.49-26.192-23.862-3.665-9.946-3.458-20.858-3.274-30.484v-.053c.037-.827.062-1.694.076-2.646a3.84 3.84 0 0 1 3.617-3.756c4.892-.205 9.71-1.264 14.236-3.131 4.324-1.843 8.26-4.487 11.6-7.794a.44.44 0 0 1 .592 0 37.26 37.26 0 0 0 11.6 7.794c4.527 1.867 9.345 2.926 14.237 3.131a3.84 3.84 0 0 1 3.616 3.757l.076 2.645c.183 9.638.385 20.559-3.291 30.525zm0 0" fill="#fff"/></g><path d="M86.617 66.154c-11.211 0-20.3 9.089-20.3 20.3s9.089 20.3 20.3 20.3 20.3-9.089 20.3-20.3a20.33 20.33 0 0 0-20.3-20.3zm0 35.826c-8.573 0-15.522-6.949-15.523-15.522s6.948-15.523 15.521-15.524 15.523 6.947 15.525 15.52c-.008 8.57-6.953 15.517-15.523 15.526zm5.836-21.826l-9.43 9.43-2.56-2.56a2.39 2.39 0 1 0-3.381 3.38l4.25 4.25a2.39 2.39 0 0 0 3.38 0l11.121-11.121a2.39 2.39 0 1 0-3.381-3.38zm0 0" fill="#fff"/></svg>