<svg xmlns="http://www.w3.org/2000/svg" viewBox="0 0 130 125"  xmlns:v="https://vecta.io/nano"><path d="M115.05 42.24l-40.95-30a12.93 12.93 0 0 0-15.1-.12L15.53 42.78a7.42 7.42 0 0 0-3.15 6.08v67.06h43.46V90.53A10.58 10.58 0 0 1 66.41 80a11.49 11.49 0 0 1 11.48 11.43v24.49h41V49.74a9.35 9.35 0 0 0-3.84-7.5zm-1.19 68.68h-31V91.43A16.49 16.49 0 0 0 66.41 75a15.59 15.59 0 0 0-15.57 15.53v20.39H17.38V48.86a2.44 2.44 0 0 1 1-2L61.87 16.2a7.94 7.94 0 0 1 9.28.09l40.95 30a4.3 4.3 0 0 1 1.76 3.46z" fill="#4c2fbb"/></svg>