<svg id="Layer_1" data-name="Layer 1" xmlns="http://www.w3.org/2000/svg" viewBox="0 0 163.93 146.57"><defs><style>.cls-1,.cls-2,.cls-3{fill:none;stroke:#fff;}.cls-1{stroke-linecap:round;stroke-linejoin:round;}.cls-1,.cls-3{stroke-width:5px;}.cls-2{stroke-width:3px;}.cls-3{stroke-dasharray:12 3;}.cls-4{fill:#fff;}</style></defs><g id="Grupo_901" data-name="Grupo 901"><path id="Sustracci贸n_1" data-name="Sustracci贸n 1" class="cls-1" d="M44,126.71h0s-1.9-1.55-4.64-4.1A134.08,134.08,0,0,1,29.19,112,83,83,0,0,1,19,97.58a44.05,44.05,0,0,1-3.36-7.87,26.74,26.74,0,0,1-1.28-7.88A41.71,41.71,0,0,1,16.41,68.3a27.7,27.7,0,0,1,5.86-10c5-5.41,12.21-8.28,20.73-8.28.34,0,.7,0,1,0a44.83,44.83,0,0,1,7,.74,37.61,37.61,0,0,1,6.52,1.85,29.07,29.07,0,0,1,10.76,7.09A26.51,26.51,0,0,1,74,69.15a34.56,34.56,0,0,1,1.78,12.68,27.56,27.56,0,0,1-1.56,8,45.64,45.64,0,0,1-3.7,7.92,84.51,84.51,0,0,1-10.89,14.44,138.34,138.34,0,0,1-10.76,10.49c-2.88,2.52-4.85,4-4.87,4ZM45.2,64.13A14.41,14.41,0,1,0,59.62,78.54,14.41,14.41,0,0,0,45.2,64.13Z"/><path id="Sustracci贸n_2" data-name="Sustracci贸n 2" class="cls-2" d="M141.61,38.17h0s-.71-.58-1.73-1.54a49,49,0,0,1-3.8-4,31,31,0,0,1-3.8-5.43,16.42,16.42,0,0,1-1.25-3,10.52,10.52,0,0,1-.48-3,15.63,15.63,0,0,1,.78-5.08,10.43,10.43,0,0,1,2.18-3.74,10.15,10.15,0,0,1,7.71-3.11h.39a15.32,15.32,0,0,1,2.61.28,13.73,13.73,0,0,1,2.43.69,10.88,10.88,0,0,1,4,2.66,10,10,0,0,1,2.11,3.53,13,13,0,0,1,.67,4.76,10.5,10.5,0,0,1-.58,3,17.81,17.81,0,0,1-1.38,3,31.11,31.11,0,0,1-4.05,5.42,51.27,51.27,0,0,1-4,3.94c-1.07,1-1.8,1.52-1.81,1.52ZM142,14.69a5.41,5.41,0,1,0,5.36,5.45v0A5.38,5.38,0,0,0,142,14.69Z"/><path id="Trazado_1119" data-name="Trazado 1119" class="cls-3" d="M125.46,49.56S96.63,51.13,96.31,65.43s35.28,9.41,37.2,33.93-46.09,36.3-68.2,37.93"/><ellipse id="Elipse_118" data-name="Elipse 118" class="cls-4" cx="45.26" cy="137.08" rx="14.5" ry="3.5"/><ellipse id="Elipse_119" data-name="Elipse 119" class="cls-4" cx="141.26" cy="47.58" rx="10.5" ry="2"/></g></svg>