<svg id="Layer_1" data-name="Layer 1" xmlns="http://www.w3.org/2000/svg" viewBox="0 0 147.54 143.68"><defs><style>.cls-1{fill:#fff;}</style></defs><g id="Grupo_835" data-name="Grupo 835"><path id="Trazado_1022" data-name="Trazado 1022" class="cls-1" d="M126.19,33.58H122.7V25.43a10.48,10.48,0,0,0-21,0h0v2.86a8.17,8.17,0,0,1-5.91,7.83l-3.4,1v0A3.48,3.48,0,0,0,89,33.58H75a3.49,3.49,0,0,0-3.49,3.49h0V52.66H30.31A10.5,10.5,0,0,0,19.83,63.14v67.49a3.5,3.5,0,0,0,5.43,2.9l13.08-8.72h66.44a10.49,10.49,0,0,0,10.47-10.48V77.8h10.94A12.82,12.82,0,0,0,139,65V46.38a12.81,12.81,0,0,0-12.8-12.8Zm-47.71,7h7V70.82h-7Zm29.79,73.78a3.51,3.51,0,0,1-3.49,3.49H37.29a3.5,3.5,0,0,0-1.94.58l-8.54,5.7v-61a3.5,3.5,0,0,1,3.5-3.49H71.5V74.31A3.49,3.49,0,0,0,75,77.8H89a3.49,3.49,0,0,0,3.47-3.09A19.69,19.69,0,0,0,103,77.8h5.28ZM132,65a5.84,5.84,0,0,1-5.82,5.82H103a12.74,12.74,0,0,1-10.55-5.65V44.36l5.32-1.52a15.2,15.2,0,0,0,11-14.55V25.43a3.49,3.49,0,0,1,7,0h0V37.07a3.49,3.49,0,0,0,3.49,3.49h7A5.84,5.84,0,0,1,132,46.38Z"/><path id="Trazado_1023" data-name="Trazado 1023" class="cls-1" d="M37.29,80.59H60.56a3.49,3.49,0,0,0,0-7H37.29a3.49,3.49,0,1,0,0,7Z"/><path id="Trazado_1024" data-name="Trazado 1024" class="cls-1" d="M97.8,87.57H37.29a3.49,3.49,0,1,0,0,7H97.8a3.49,3.49,0,1,0,0-7Z"/><path id="Trazado_1025" data-name="Trazado 1025" class="cls-1" d="M97.8,101.54H37.29a3.49,3.49,0,1,0,0,7H97.8a3.49,3.49,0,1,0,0-7Z"/></g></svg>