<svg id="Layer_1" data-name="Layer 1" xmlns="http://www.w3.org/2000/svg" viewBox="0 0 116.68 118.02"><defs><style>.cls-1{fill:#fff;}</style></defs><g id="Grupo_833" data-name="Grupo 833"><path id="Trazado_1004" data-name="Trazado 1004" class="cls-1" d="M100.55,23.29H33.16v-9a3,3,0,0,0-3-3h-14a9,9,0,0,0-9,9V92.68a9,9,0,0,0,9,9h63.4v9a3,3,0,0,0,3,3h18a9,9,0,0,0,9-9V32.28a9,9,0,0,0-9-9Zm-87.39-3a3,3,0,0,1,3-3h11V83.68h-11a9,9,0,0,0-3,.51Zm0,72.39a3,3,0,0,1,3-3h14a3,3,0,0,0,3-3V29.28h67.39a3,3,0,0,1,3,3V96.2a8.73,8.73,0,0,0-3-.52H16.16a3,3,0,0,1-3-3Zm87.39,15h-15v-6h15a3,3,0,1,1,0,6Z"/><path id="Trazado_1005" data-name="Trazado 1005" class="cls-1" d="M88.45,80.83a3,3,0,0,0-.3-2.28l-2.52-4.36a20.75,20.75,0,0,0,1.68-2.93h5a3,3,0,0,0,3-3v-12a3,3,0,0,0-3-3h-5a21.22,21.22,0,0,0-1.68-2.92L88.15,46a3,3,0,0,0-1.1-4.1h0l-10.39-6a3,3,0,0,0-4.1,1.1h0L70,41.34a19.08,19.08,0,0,0-3.38,0L64.15,37a3,3,0,0,0-4.1-1.1h0l-10.39,6A3,3,0,0,0,48.55,46h0l2.51,4.36a22.3,22.3,0,0,0-1.68,2.92h-5a3,3,0,0,0-3,3v12a3,3,0,0,0,3,3h5a21.77,21.77,0,0,0,1.68,2.93l-2.51,4.36a3,3,0,0,0,1.09,4.1h0l10.39,6a3,3,0,0,0,4.09-1.1h0l2.51-4.36a19.08,19.08,0,0,0,3.38,0l2.52,4.36A3,3,0,0,0,74.39,89a3,3,0,0,0,2.27-.3l10.39-6a3,3,0,0,0,1.4-1.82Zm-6-13.57A14.77,14.77,0,0,1,79.75,72a3,3,0,0,0-.32,3.45l2,3.5-5.2,3-2-3.5a3,3,0,0,0-2.6-1.5,3.29,3.29,0,0,0-.54,0,14,14,0,0,1-5.48,0,3,3,0,0,0-3.14,1.45l-2,3.5-5.2-3,2-3.5A3,3,0,0,0,57,72a15,15,0,0,1-2.73-4.74,3,3,0,0,0-2.83-2h-4v-6h4a3,3,0,0,0,2.83-2A15,15,0,0,1,57,52.53a3,3,0,0,0,.32-3.45l-2-3.5,5.2-3,2,3.5a3,3,0,0,0,3.14,1.45,14,14,0,0,1,5.48,0,3,3,0,0,0,3.14-1.45l2-3.5,5.2,3-2,3.5a3,3,0,0,0,.32,3.45,14.91,14.91,0,0,1,2.73,4.73,3,3,0,0,0,2.83,2h4v6h-4a3,3,0,0,0-2.83,2Z"/><path id="Trazado_1006" data-name="Trazado 1006" class="cls-1" d="M68.36,53.27a9,9,0,1,0,9,9A9,9,0,0,0,68.36,53.27Zm0,12a3,3,0,1,1,3-3A3,3,0,0,1,68.36,65.27Z"/></g></svg>