<svg id="Layer_1" data-name="Layer 1" xmlns="http://www.w3.org/2000/svg" viewBox="0 0 135.96 124.86"><defs><style>.cls-1{fill:#fff;}</style></defs><g id="Grupo_836" data-name="Grupo 836"><path id="Trazado_1026" data-name="Trazado 1026" class="cls-1" d="M126.72,57h-9.79c-.3,0-.59,0-.88,0a30.85,30.85,0,0,0-7.23-4.83A23.24,23.24,0,1,0,76.44,46.6a21.57,21.57,0,0,0,2.06,2.52H61.41a23.23,23.23,0,1,0-32.83,1c.36.34.73.67,1.12,1A30.76,30.76,0,0,0,19.94,57c-.29,0-.58,0-.88,0H9.28a3.65,3.65,0,0,0-3.66,3.65V80.19a3.65,3.65,0,0,0,3.66,3.65h.26v27.67a3.64,3.64,0,0,0,3.65,3.65H122.81a3.64,3.64,0,0,0,3.65-3.65V83.84h.26a3.66,3.66,0,0,0,3.66-3.65V60.61A3.65,3.65,0,0,0,126.72,57Zm-3.65,19.57h-6.14a6.13,6.13,0,0,1,0-12.26h6.14ZM79.48,33.21A15.92,15.92,0,1,1,95.4,49.12h0A15.93,15.93,0,0,1,79.48,33.21Zm-35-15.92A15.92,15.92,0,1,1,28.59,33.21,15.92,15.92,0,0,1,44.51,17.29Zm-31.58,47h6.13a6.13,6.13,0,1,1,0,12.26H12.93Zm3.92,19.57h2.21a13.43,13.43,0,0,0,8.69-23.69h.08A23.48,23.48,0,0,1,40.6,56.44H75.41A31,31,0,0,0,64.35,80.19v27.66H32.51V91.93a3.66,3.66,0,0,0-7.31,0v15.92H16.85Zm102.3,24H110.8V91.93a3.66,3.66,0,0,0-7.31,0v15.92H71.66V80.19a23.75,23.75,0,0,1,36.56-20,13.43,13.43,0,0,0,8.72,23.66h2.22Z"/></g></svg>