<svg id="Layer_1" data-name="Layer 1" xmlns="http://www.w3.org/2000/svg" viewBox="0 0 95.46 126.48"><defs><style>.cls-1{fill:#fff;}</style></defs><g id="Grupo_832" data-name="Grupo 832"><path id="Trazado_1007" data-name="Trazado 1007" class="cls-1" d="M86.37,10.84H11A3.14,3.14,0,0,0,7.87,14h0v100.9A3.13,3.13,0,0,0,11,118H86.37a3.14,3.14,0,0,0,3.14-3.14h0V14a3.15,3.15,0,0,0-3.14-3.14ZM36.13,17.12H61.25v3.14a3.09,3.09,0,0,1-3,3.14H39.14a3.07,3.07,0,0,1-3-3.14Zm47.1,94.62H14.15V17.12h15.7v3.14a9.36,9.36,0,0,0,9.29,9.42h19.1a9.36,9.36,0,0,0,9.29-9.42V17.12h15.7Z"/><path id="Trazado_1008" data-name="Trazado 1008" class="cls-1" d="M67.53,43.07a3.13,3.13,0,0,0-3.14,3.14h0V57.73H58.11V51.08a3.14,3.14,0,0,0-6.28,0v6.65H45.55V39.1a3.14,3.14,0,1,0-6.28,0V57.73H33V54.2a3.14,3.14,0,0,0-6.28,0v3.53H23.57a3.14,3.14,0,0,0,0,6.28H73.81a3.14,3.14,0,0,0,0-6.28H70.67V46.21a3.13,3.13,0,0,0-3.14-3.14Z"/><path id="Trazado_1009" data-name="Trazado 1009" class="cls-1" d="M73.81,70.29H23.57a3.14,3.14,0,1,0,0,6.28H73.81a3.14,3.14,0,0,0,0-6.28Z"/><path id="Trazado_1010" data-name="Trazado 1010" class="cls-1" d="M73.81,82.86H23.57a3.14,3.14,0,0,0,0,6.28H73.81a3.14,3.14,0,0,0,0-6.28Z"/><path id="Trazado_1011" data-name="Trazado 1011" class="cls-1" d="M45.55,95.42h-22a3.14,3.14,0,1,0,0,6.28h22a3.14,3.14,0,1,0,0-6.28Z"/></g></svg>