<svg xmlns="http://www.w3.org/2000/svg" xmlns:xlink="http://www.w3.org/1999/xlink" width="22.443" height="35.909" viewBox="0 0 22.443 35.909">
  <defs>
    <clipPath id="clip-path">
      <rect id="Rectangle_386" data-name="Rectangle 386" width="22.443" height="35.909" fill="#fff"/>
    </clipPath>
  </defs>
  <g id="Group_1002" data-name="Group 1002" transform="translate(0 0)">
    <g id="Group_957" data-name="Group 957" transform="translate(0 0)" clip-path="url(#clip-path)">
      <path id="Path_1118" data-name="Path 1118" d="M19.076,0H3.366A3.376,3.376,0,0,0,0,3.366V32.542a3.376,3.376,0,0,0,3.366,3.367h15.71a3.376,3.376,0,0,0,3.367-3.367V3.366A3.377,3.377,0,0,0,19.076,0M6.733,1.683H15.71V2.8H6.733Zm4.488,31.982a2.245,2.245,0,1,1,2.244-2.245,2.245,2.245,0,0,1-2.244,2.245M20.2,26.931H2.244V4.488H20.2Z" transform="translate(0 0)" fill="#fff"/>
    </g>
  </g>
</svg>
