<svg xmlns="http://www.w3.org/2000/svg" width="168.823" height="167.674"  xmlns:v="https://vecta.io/nano"><defs><clipPath id="A"><path fill="#fff" d="M0 0h51v55H0z"/></clipPath></defs><ellipse cx="84.411" cy="83.837" rx="84.411" ry="83.837" fill="#ed883b"/><path d="M82.105 114.718h-4.422c-2.197-.002-3.978-1.783-3.98-3.98V83.32c.002-2.197 1.783-3.978 3.98-3.98h4.422c2.197.003 3.977 1.783 3.98 3.98v27.418c-.003 2.197-1.783 3.977-3.98 3.98zm-4.422-31.84a.44.44 0 0 0-.442.442v27.418a.44.44 0 0 0 .442.442h4.422c.244-.001.441-.198.442-.442V83.32c-.001-.244-.198-.441-.442-.442zm0 0" fill="#fff"/><g clip-path="url(#A)" transform="translate(57.685 58.837)" fill="#fff"><path d="M7.616 55.881H3.194c-2.197-.002-3.978-1.783-3.98-3.98V33.328c.002-2.197 1.783-3.978 3.98-3.98h4.422c2.197.003 3.977 1.783 3.98 3.98v18.573c-.003 2.197-1.783 3.977-3.98 3.98zm-4.422-23a.44.44 0 0 0-.442.442v18.573a.44.44 0 0 0 .442.442h4.422c.244-.001.441-.198.442-.442V33.328c-.001-.244-.198-.441-.442-.442zm38.031 23h-4.422c-2.197-.002-3.978-1.783-3.98-3.98v-36.7h-2.43c-1.122 0-2.142-.654-2.611-1.673s-.302-2.219.428-3.072l.026-.029L37.697-.13a1.77 1.77 0 0 1 2.635 0l9.461 10.557.025.029c.73.852.897 2.052.428 3.071s-1.488 1.673-2.61 1.674h-2.43v36.7c-.003 2.197-1.783 3.977-3.98 3.98zm-9.347-44.223h2.714a1.77 1.77 0 0 1 1.769 1.769v38.474a.44.44 0 0 0 .442.442h4.422c.244-.001.441-.198.442-.442V13.427a1.77 1.77 0 0 1 1.769-1.769h2.713l-7.135-7.963zm0 0"/></g></svg>