<svg id="Capa_1" data-name="Capa 1" xmlns="http://www.w3.org/2000/svg" xmlns:xlink="http://www.w3.org/1999/xlink" viewBox="0 0 45 44"><defs><style>.cls-1{fill:none;}.cls-2{clip-path:url(#clip-path);}.cls-3{fill:#fff;}</style><clipPath id="clip-path"><rect class="cls-1" x="1.23" y="0.97" width="42.82" height="42.58"/></clipPath></defs><g id="Grupo_997" data-name="Grupo 997"><g class="cls-2"><g id="Grupo_996" data-name="Grupo 996"><path id="Trazado_1140" data-name="Trazado 1140" class="cls-3" d="M34.64,1.05c-4-.15-7.95,0-11.93,0V1H12.36a18.44,18.44,0,0,0-2.1.09A9.15,9.15,0,0,0,2.2,6.53a12.71,12.71,0,0,0-1,5.27c0,3.88,0,7.76,0,11.63s0,7.51.16,11.25a8.67,8.67,0,0,0,7,8.35,22.21,22.21,0,0,0,4.45.48c5,.06,10.06,0,15.08,0,2.28,0,4.56,0,6.82-.13A8.9,8.9,0,0,0,43,37.62a14.89,14.89,0,0,0,.94-4.89c.1-7.31.17-14.61,0-21.92A9.34,9.34,0,0,0,35,1.06h-.4M22.47,35.6a13.5,13.5,0,1,1,.12,0h-.12m14-24.2a3.06,3.06,0,1,1,3.16-3,3.12,3.12,0,0,1-3.16,3"/><path id="Trazado_1141" data-name="Trazado 1141" class="cls-3" d="M22.59,13.51a8.64,8.64,0,1,0,8.59,8.68v0a8.69,8.69,0,0,0-8.59-8.64"/></g></g></g></svg>