<svg xmlns="http://www.w3.org/2000/svg" viewBox="0 0 45 44"  xmlns:v="https://vecta.io/nano"><defs><clipPath id="A"><path d="M1.23.97h42.82v42.58H1.23z" fill="none"/></clipPath></defs><g clip-path="url(#A)" fill="#fff"><path d="M34.64 1.05c-4-.15-7.95 0-11.93 0V1H12.36a18.44 18.44 0 0 0-2.1.09A9.15 9.15 0 0 0 2.2 6.53a12.71 12.71 0 0 0-1 5.27v11.63l.16 11.25a8.67 8.67 0 0 0 7 8.35 22.21 22.21 0 0 0 4.45.48h15.08c2.28 0 4.56 0 6.82-.13A8.9 8.9 0 0 0 43 37.62a14.89 14.89 0 0 0 .94-4.89V10.81A9.34 9.34 0 0 0 35 1.06h-.4M22.47 35.6a13.5 13.5 0 1 1 .12 0h-.12m14-24.2a3.06 3.06 0 1 1 3.16-3 3.12 3.12 0 0 1-3.16 3m-13.88 2.11a8.64 8.64 0 1 0 8.59 8.68h0a8.69 8.69 0 0 0-8.59-8.64"/></g></svg>