<svg xmlns="http://www.w3.org/2000/svg" xmlns:xlink="http://www.w3.org/1999/xlink" viewBox="0 0 213 363"><defs><style>.cls-1{fill:url(#Degradado_sin_nombre_3);}.cls-2{fill:url(#Degradado_sin_nombre_10);}.cls-3{fill:url(#Degradado_sin_nombre_8);}.cls-4{fill:url(#Degradado_sin_nombre_9);}.cls-5{fill:#6e23b0;}.cls-6{fill:#ed883b;}.cls-7{fill:#4c2fbb;}</style><linearGradient id="Degradado_sin_nombre_3" x1="115.93" y1="61.29" x2="209.96" y2="61.29" gradientUnits="userSpaceOnUse"><stop offset="0" stop-color="#3a60e9"/><stop offset="1" stop-color="#4c2fbb"/></linearGradient><linearGradient id="Degradado_sin_nombre_10" x1="27.1" y1="49.04" x2="144.19" y2="49.04" gradientUnits="userSpaceOnUse"><stop offset="0" stop-color="#f28772"/><stop offset="1" stop-color="#a010a0"/></linearGradient><linearGradient id="Degradado_sin_nombre_8" x1="27.1" y1="154.37" x2="117.81" y2="154.37" gradientUnits="userSpaceOnUse"><stop offset="0" stop-color="#4c2fbb"/><stop offset="1" stop-color="#a010a0"/></linearGradient><linearGradient id="Degradado_sin_nombre_9" x1="75.3" y1="168.46" x2="209.96" y2="168.46" gradientUnits="userSpaceOnUse"><stop offset="0" stop-color="#ed883b"/><stop offset="1" stop-color="#a010a0"/></linearGradient></defs><g id="Capa_2" data-name="Capa 2"><path class="cls-1" d="M210,121s-63.4-71.37-65.77-119.4L115.93,96.5Z"/><path class="cls-2" d="M115.93,96.5,27.1,68.8S94.32,51,144.19,1.59Z"/><polygon class="cls-3" points="75.3 239.94 117.81 96.97 27.1 68.8 75.3 239.94"/><polygon class="cls-4" points="209.96 120.99 75.3 239.94 117.81 96.97 209.96 120.99"/><path class="cls-5" d="M27.34,69l-24.85,32a3.1,3.1,0,0,0,.78,4.5l.35.22A3.09,3.09,0,0,0,8,104.51Z"/><path class="cls-6" d="M27.59,69.41l-3.83,40.31a3.1,3.1,0,0,0,3.08,3.38h.41a3.09,3.09,0,0,0,3.09-3.3Z"/><path class="cls-7" d="M28,69,7.49,113.05c-.93,2.08-.33,4.39,1.3,5l.37.14c1.6.59,3.53-.72,4.19-2.86Z"/><path class="cls-6" d="M210,121l-26.35,32.72a3.09,3.09,0,0,0,.84,4.49l.35.22a3.1,3.1,0,0,0,4.36-1.19Z"/><path class="cls-5" d="M210,121l-5.26,41.35a3.1,3.1,0,0,0,3.08,3.39h.41a3.1,3.1,0,0,0,3.09-3.31Z"/><path class="cls-7" d="M210,121l-21.53,44.69c-.94,2.07-.33,4.39,1.3,5l.36.13c1.61.6,3.54-.72,4.2-2.86Z"/><path class="cls-6" d="M76,238,21.25,317.47c-2.47,3.54-2.7,7.77-.49,9.14l.5.31c2.18,1.35,5.79-.65,7.88-4.36Z"/><path class="cls-5" d="M75,238l-7,95.5c-.27,4.37,2,8.14,4.87,8.15h.64c2.84,0,5.08-3.65,4.89-7.95Z"/><path class="cls-7" d="M77.4,231.19,35.47,350.9c-1.9,5.42-.92,10.88,2.13,11.78l.68.2c3,.88,6.71-3,7.74-7.74Z"/></g></svg>