<svg xmlns="http://www.w3.org/2000/svg" xmlns:xlink="http://www.w3.org/1999/xlink" viewBox="0 0 458 761"><defs><style>.cls-1{fill:#001a5d;}.cls-2{fill:#6e23b0;}.cls-3{fill:#ed883b;}.cls-4{fill:#4c2fbb;}.cls-5{fill:url(#Degradado_sin_nombre_3);}.cls-6{fill:url(#Degradado_sin_nombre_10);}.cls-7{fill:url(#Degradado_sin_nombre_8);}.cls-8{fill:url(#Degradado_sin_nombre_9);}.cls-9{fill:#3f2305;}.cls-10{fill:#593609;}.cls-11{fill:#9b610d;}.cls-12{fill:url(#Degradado_sin_nombre_7);}</style><linearGradient id="Degradado_sin_nombre_3" x1="364.17" y1="59.79" x2="457.14" y2="59.79" gradientUnits="userSpaceOnUse"><stop offset="0" stop-color="#3a60e9"/><stop offset="1" stop-color="#4c2fbb"/></linearGradient><linearGradient id="Degradado_sin_nombre_10" x1="274" y1="47.64" x2="393.36" y2="47.64" gradientUnits="userSpaceOnUse"><stop offset="0" stop-color="#f28772"/><stop offset="1" stop-color="#a010a0"/></linearGradient><linearGradient id="Degradado_sin_nombre_8" x1="274" y1="152.8" x2="365.17" y2="152.8" gradientUnits="userSpaceOnUse"><stop offset="0" stop-color="#4c2fbb"/><stop offset="1" stop-color="#a010a0"/></linearGradient><linearGradient id="Degradado_sin_nombre_9" x1="321.47" y1="166.57" x2="456.14" y2="166.57" gradientUnits="userSpaceOnUse"><stop offset="0" stop-color="#ed883b"/><stop offset="1" stop-color="#a010a0"/></linearGradient><linearGradient id="Degradado_sin_nombre_7" x1="55.34" y1="711.64" x2="55.36" y2="767.47" gradientUnits="userSpaceOnUse"><stop offset="0" stop-color="#f28772"/><stop offset="1" stop-color="#ed883b"/></linearGradient></defs><g id="Capa_2" data-name="Capa 2"><path class="cls-1" d="M35.15,695.85c-1.18-1.18-1.66-3.06-1.43-5.6.9-9.78,13.19-32.34,45-66.36,24-25.68,67.29-66.37,137-114.3,85.83-59,110.16-129.8,115.47-178.78,5.74-53.09-9-92.74-9.16-93.13l.94-.36c.15.4,15,40.23,9.21,93.55a224.81,224.81,0,0,1-28.86,88.5c-19.71,34.25-49,64.88-87,91C84.47,601.06,36.4,671.93,34.72,690.34c-.21,2.23.17,3.85,1.13,4.81Z"/><path class="cls-2" d="M274.34,67l-24.85,32a3.1,3.1,0,0,0,.78,4.5l.35.22a3.09,3.09,0,0,0,4.38-1.13Z"/><path class="cls-3" d="M274.59,67.41l-3.83,40.31a3.1,3.1,0,0,0,3.08,3.38h.41a3.09,3.09,0,0,0,3.09-3.3Z"/><path class="cls-4" d="M275,67l-20.51,44.05c-.93,2.08-.33,4.39,1.3,5l.37.14c1.6.59,3.53-.72,4.19-2.86Z"/><path class="cls-3" d="M457,119l-26.35,32.72a3.09,3.09,0,0,0,.84,4.49l.35.22a3.1,3.1,0,0,0,4.36-1.19Z"/><path class="cls-2" d="M457,119l-5.26,41.35a3.1,3.1,0,0,0,3.08,3.39h.41a3.1,3.1,0,0,0,3.09-3.31Z"/><path class="cls-4" d="M457,119l-21.53,44.69c-.94,2.07-.33,4.39,1.3,5l.36.13c1.61.6,3.54-.72,4.2-2.86Z"/><path class="cls-3" d="M323,236l-54.75,79.47c-2.47,3.54-2.7,7.77-.49,9.14l.5.31c2.18,1.35,5.79-.65,7.88-4.36Z"/><path class="cls-2" d="M322,236l-7,95.5c-.27,4.37,2,8.14,4.87,8.15h.64c2.84,0,5.08-3.65,4.89-7.95Z"/><path class="cls-4" d="M324.4,229.19,282.47,348.9c-1.9,5.42-.92,10.88,2.13,11.78l.68.2c3,.88,6.71-3,7.74-7.74Z"/><path class="cls-5" d="M457.14,119.59S395.37,48,393,0L364.17,95.6Z"/><path class="cls-6" d="M365.11,95.1,274,67S343.5,49.6,393.36.18Z"/><polygon class="cls-7" points="322.18 238.6 365.18 94.6 274 67 322.18 238.6"/><polygon class="cls-8" points="456.14 119.59 321.47 238.54 364.18 94.6 456.14 119.59"/><path class="cls-9" d="M28.08,709S11.27,675.05,8,658.12c0,0,27.9,10.76,44.76-8.29l6.57,59.62L62.66,740l-23.38,2Z"/><path class="cls-10" d="M10,669c1-2,5.61-5.72,7.6-5.47,1.73.21,3.4,5.43,3.4,7.47s6-6.92,8-7c2.24-.12,10,9.36,10,7,0-1,1.45-9,3.65-10,1.57-.66,4.93,4.63,5.35,3,1-4,.65-6.65,2-8,2-2,7.54,5.17,7,3-1-4-3-7-4-9l-2.25-4.82L7,652l1,7S9,671,10,669Z"/><ellipse class="cls-11" cx="28.86" cy="648.52" rx="22.14" ry="5.5" transform="matrix(0.99, -0.15, 0.15, 0.99, -97.45, 11.77)"/><path class="cls-1" d="M52.64,713C45,713,34,710.52,29.34,709c-2.26-.75-4.86-2.75-5-4.42a1.51,1.51,0,0,1,.92-1.5l.44.9c-.34.17-.38.36-.37.53.07,1,2.07,2.8,4.31,3.55,6.07,2,24.27,6,29.25,2.9a2.06,2.06,0,0,0,1.09-1.5h0a.58.58,0,0,0-.13-.43.93.93,0,0,0-.74-.15l-.09-1a1.81,1.81,0,0,1,1.55.46,1.61,1.61,0,0,1,.41,1.26,3.09,3.09,0,0,1-1.56,2.21C58,712.68,55.54,713,52.64,713Z"/><path class="cls-1" d="M58.5,721c-8.93,0-27-6-27.16-6-.72-.24-1.32-.42-1.83-.58-1.67-.51-2.51-.76-2.51-1.89a2.19,2.19,0,0,1,1.62-1.89l.31,1s-.93.32-.93.93c0,.34.2.45,1.8.94.51.15,1.13.34,1.86.59,3.73,1.26,19.23,6,26.84,6,2.26,0,2.5-.38,2.51-.39v-.11h0a.44.44,0,0,0-.13-.28.71.71,0,0,0-.5-.08l-.12-1a1.56,1.56,0,0,1,1.29.33,1.42,1.42,0,0,1,.46,1,1,1,0,0,1-.26.79C61.29,720.78,60.29,721,58.5,721Z"/><path class="cls-12" d="M92.67,719.13A37.68,37.68,0,0,0,76,739s2-16-3-20c0,0-2,16-7,17,0,0-4.7-3.23-4.31-13,0,0-2.91,3.85-6.08,9A65,65,0,0,0,49,723c-2,11-2,14.19-2,14.19-9,.36-9.4-24-9.4-24-7.42,6.59-5.15,20.81-4.11,25.64C31.09,732.32,18,719.13,18,719.13c15.89,21.28,0,32.74,0,32.74,11.5,9,54.3,8.64,67-.87C85,751,76.79,740.41,92.67,719.13Z"/></g></svg>