<svg xmlns="http://www.w3.org/2000/svg" viewBox="0 0 312.43 353.73"  xmlns:v="https://vecta.io/nano"><style>.A{isolation:isolate}.B{mix-blend-mode:soft-light}</style><defs><radialGradient id="A" cx="-1082.65" cy="4452.26" r="5.24" gradientTransform="translate(-27760.74 16727.76) rotate(180) scale(25.78 3.67)" gradientUnits="userSpaceOnUse"><stop offset=".01" stop-color="#3e4fdf"/><stop offset="1"/></radialGradient><linearGradient id="B" x1="258.45" y1="137.47" x2="173.39" y2="33.63" gradientUnits="userSpaceOnUse"><stop offset="0" stop-color="#00b2ff"/><stop offset=".04" stop-color="#1a96f5"/><stop offset=".09" stop-color="#3876e9"/><stop offset=".15" stop-color="#515bde"/><stop offset=".21" stop-color="#6546d7"/><stop offset=".28" stop-color="#7237d1"/><stop offset=".37" stop-color="#7b2fce"/><stop offset=".5" stop-color="#7d2ccd"/><stop offset=".71" stop-color="#b229e1"/><stop offset=".88" stop-color="#d328ee"/><stop offset=".97" stop-color="#e027f3"/></linearGradient><linearGradient id="C" x1="233.83" y1="257.39" x2="56.32" y2="205.13" gradientUnits="userSpaceOnUse"><stop offset=".01" stop-color="#00b2ff"/><stop offset=".05" stop-color="#1a96f5"/><stop offset=".1" stop-color="#3876e9"/><stop offset=".16" stop-color="#515bde"/><stop offset=".22" stop-color="#6546d7"/><stop offset=".29" stop-color="#7237d1"/><stop offset=".37" stop-color="#7b2fce"/><stop offset=".5" stop-color="#7d2ccd"/><stop offset=".71" stop-color="#b229e1"/><stop offset=".88" stop-color="#d328ee"/><stop offset=".97" stop-color="#e027f3"/></linearGradient></defs><g class="A"><g><g><g><path class="B" d="M18,311.56c0,10.65,60.75,19.29,135.7,19.29s135.71-8.64,135.71-19.29-60.76-19.3-135.71-19.3S18,300.9,18,311.56Z" fill-rule="evenodd" opacity=".15" fill="url(#A)"/><path d="M279.88 80.63l-52.31-42.57-46.38 13.52c-7.95-1.79-7.95-21.58-2.56-30.58-18.08 13-27.09 30.93-30.84 49.7 9.68 29.36 33.15 63.95 80.75 96.65a13.15 13.15 0 0 1 1.75 1.46c-1-19.8-2.35-33.92-7-48.69l41.92.09c13.08-1.8 17.6-10.32 19.08-14.79a13.47 13.47 0 0 0 .69-4.32v-9.77a13.75 13.75 0 0 0-5.1-10.7z" fill="url(#B)"/><g fill="#001a5d"><path d="M63.38 162.05v152.47h32.71s4.24-66.53 54.42-92.25c-20.21-24.48-48.39-47.38-87.13-60.22zM227.57 38.06l53.08 43.21c-11.72-3.09-75.31-1.23-88.07 51 0-.04-19.58-78.27 34.99-94.21zM52.88 183.66H30.82v-21.45h22.06z"/></g><path d="M175.32 203.55a212.11 212.11 0 0 1-34.16-41.5H63.38c108 35.8 133.33 152.47 133.33 152.47h33.34c-.35-2.52-1.66-60.82-54.73-110.97z" fill="url(#C)"/><path d="M230.21 314.46c-.32-.23-1.11-59-55.25-110.19C97.2 130.79 100 32.35 147.49 11.36c-11.73 28.4-6.16 95.33 81.84 155.79 25.42 17.47 3.83 145.85.88 147.31z" fill="#001a5d"/></g></g></g></g></svg>