<svg xmlns="http://www.w3.org/2000/svg" xmlns:xlink="http://www.w3.org/1999/xlink" width="363.297" height="344.833" viewBox="0 0 363.297 344.833"><defs><linearGradient id="a" x1="0.5" x2="0.5" y2="1" gradientUnits="objectBoundingBox"><stop offset="0" stop-color="#3a60e9"/><stop offset="1" stop-color="#f28772"/></linearGradient><filter id="b" x="0" y="0" width="363.297" height="344.833" filterUnits="userSpaceOnUse"><feOffset dy="10" input="SourceAlpha"/><feGaussianBlur stdDeviation="3" result="c"/><feFlood flood-opacity="0.161"/><feComposite operator="in" in2="c"/><feComposite in="SourceGraphic"/></filter></defs><g transform="matrix(1, 0, 0, 1, 0, 0)" filter="url(#b)"><path d="M152.916,33.23c-22.162,61.011-79.97-7.72-121.49,12.019s-33.771,56.76-22.37,85.769C16.762,150.627,33.172,167.642,52.2,182c19.748,14.9,43.368,27.636,70.393,32.249,37.322,6.367,77.847-4.117,105.4-24.47s42.585-49.573,44.716-78.89A120.425,120.425,0,0,0,266.93,65.67C249.207,2.423,175.078-27.781,152.916,33.23Z" transform="translate(120.3 0) rotate(31)" opacity="0.47" fill="url(#a)"/></g></svg>