<svg xmlns="http://www.w3.org/2000/svg" xmlns:xlink="http://www.w3.org/1999/xlink" width="380.405" height="382.436" viewBox="0 0 380.405 382.436"><defs><linearGradient id="a" x1="0.5" x2="0.5" y2="1" gradientUnits="objectBoundingBox"><stop offset="0" stop-color="#f28772"/><stop offset="1" stop-color="#ed883b"/></linearGradient><filter id="b" x="0" y="0" width="380.405" height="382.436" filterUnits="userSpaceOnUse"><feOffset dy="10" input="SourceAlpha"/><feGaussianBlur stdDeviation="10" result="c"/><feFlood flood-opacity="0.161"/><feComposite operator="in" in2="c"/><feComposite in="SourceGraphic"/></filter></defs><g transform="matrix(1, 0, 0, 1, 0, 0)" filter="url(#b)"><path d="M114.168.345C79.365,3.267,45.624,18.373,24.079,42.78s-29.925,58.058-19.822,87.73c6.828,20.057,21.37,37.461,38.226,52.143,17.5,15.242,38.429,28.268,62.376,32.986,33.072,6.513,68.981-4.211,93.4-25.029s37.735-50.707,39.623-80.694a141.025,141.025,0,0,0-5.119-46.248C215.035,7.965,143.952-2.158,114.168.345Z" transform="translate(194.18 20) rotate(49)" opacity="0.47" fill="url(#a)"/></g></svg>