<svg xmlns="http://www.w3.org/2000/svg" xmlns:xlink="http://www.w3.org/1999/xlink" width="395.027" height="394.499" viewBox="0 0 395.027 394.499"><defs><linearGradient id="a" x1="0.5" x2="0.5" y2="1" gradientUnits="objectBoundingBox"><stop offset="0" stop-color="#f28772"/><stop offset="1" stop-color="#a010a0"/></linearGradient><filter id="b" x="0" y="0" width="395.027" height="394.499" filterUnits="userSpaceOnUse"><feOffset dy="10" input="SourceAlpha"/><feGaussianBlur stdDeviation="10" result="c"/><feFlood flood-opacity="0.161"/><feComposite operator="in" in2="c"/><feComposite in="SourceGraphic"/></filter></defs><g transform="matrix(1, 0, 0, 1, 0, 0)" filter="url(#b)"><path d="M118.635.358C82.47,3.394,47.41,19.092,25.021,44.454s-31.1,60.329-20.6,91.163c7.1,20.842,22.206,38.927,39.722,54.183,18.183,15.838,39.932,29.374,64.817,34.277,34.366,6.768,71.68-4.376,97.053-26.009s39.212-52.691,41.174-83.852a146.545,146.545,0,0,0-5.32-48.058C223.449,8.276,149.585-2.242,118.635.358Z" transform="matrix(0.72, -0.69, 0.69, 0.72, 30, 191.89)" opacity="0.47" fill="url(#a)"/></g></svg>