<svg xmlns="http://www.w3.org/2000/svg" viewBox="0 0 130 125"  fill="#4c2fbb" xmlns:v="https://vecta.io/nano"><path d="M100.19 81.6L75 87.34a6.63 6.63 0 0 0-6.41-8l-15.14-.21L48.66 73a1.86 1.86 0 0 0-1.48-.73h-8a7.89 7.89 0 0 0-7.83-7.15h-2.3A7.88 7.88 0 0 0 21.18 73v24a7.88 7.88 0 0 0 7.87 7.87h2.34A7.88 7.88 0 0 0 39 99.05l18.43 12.34c.69.57 4.85 3.8 9.71 3.8A19.11 19.11 0 0 0 77.31 112l28.14-17.51a7.06 7.06 0 0 0-5.26-12.91zm-68.8 19.52h-2.34A4.11 4.11 0 0 1 25 97V73a4.11 4.11 0 0 1 4.1-4.1h2.34a4.1 4.1 0 0 1 4.04 4.1v.18a1.85 1.85 0 0 0-.28 1 1.87 1.87 0 0 0 .28 1v19.34a1.9 1.9 0 0 0 0 2V97a4.1 4.1 0 0 1-4.09 4.12zm72.07-9.82l-28.19 17.54-.1.07a15.5 15.5 0 0 1-8 2.51c-3.8 0-7.32-3-7.36-3l-.17-.14-20.38-13.59V76h7L51 82.14a1.9 1.9 0 0 0 1.46.73l16 .22a2.81 2.81 0 0 1 2 .88 2.85 2.85 0 0 1-.85 4.57h-.17a1.7 1.7 0 0 0-.46.18 2.88 2.88 0 0 1-.59.06h-16a1.89 1.89 0 1 0 0 3.77h16a6.82 6.82 0 0 0 2.61-.41l30-6.86a3.29 3.29 0 0 1 2.43 6zM62.62 70h29.59a11.13 11.13 0 0 0 11.12-11.12V35.5a1.9 1.9 0 0 0-1-1.63l-4.44-7.35a1.87 1.87 0 0 0-1.61-.91H84.8c3.23-2.55 6.24-5.78 6.32-9 0-1.55-.56-3.77-3.61-5.57s-5.14-1.3-6.51-.6c-2.1 1.11-3.5 3.56-4.45 6.39-1-2.88-2.36-5.28-4.49-6.39-1.34-.7-3.55-1.17-6.47.55S61.94 15 62 16.56c.07 3.27 3.09 6.5 6.31 9.05H57.15a1.88 1.88 0 0 0-1.71 1.08l-3.76 8a0 0 0 0 1 0 0 2 2 0 0 0-.13.41.22.22 0 0 0 0 .08 2.66 2.66 0 0 0 0 .28v23.42A11.13 11.13 0 0 0 62.62 70zm-7.35-11.12V37.39h15.41v28.83h-8.06a7.35 7.35 0 0 1-7.35-7.34zm19.81-28.83a1.86 1.86 0 0 0 .41.33 1.92 1.92 0 0 0 1 .26h.2a2 2 0 0 0 1-.26 1.8 1.8 0 0 0 .4-.33l.16-.09.75 3.66h-4.34L75 30zm4.41 7.34v28.83h-5V37.39zm20.07 21.49a7.35 7.35 0 0 1-7.35 7.34h-8.94V37.39h16.29zm-1.75-25.26H82.88l-1-4.24h13.38zm-15-19.83a1.62 1.62 0 0 1 .83-.21 4 4 0 0 1 2 .67c1.79 1 1.76 1.93 1.76 2.22-.06 2.46-4.43 6.12-8.66 8.8.95-8.6 2.9-10.89 4.04-11.48zm-17 2.68c0-.29 0-1.18 1.75-2.22a4 4 0 0 1 2-.67 1.67 1.67 0 0 1 .84.21c1.14.59 3.08 2.88 4.08 11.48-4.3-2.68-8.67-6.34-8.73-8.8zm-7.47 12.91h13l-.45 4.24H56.36z"/></svg>