<svg xmlns="http://www.w3.org/2000/svg" viewBox="0 0 130 125"  fill="#4c2fbb" xmlns:v="https://vecta.io/nano"><path d="M110.9 10.94H19.1A2.1 2.1 0 0 0 17 13v99a2.09 2.09 0 0 0 2.1 2.09h91.8A2.09 2.09 0 0 0 113 112V13a2.1 2.1 0 0 0-2.1-2.06zm-2.09 98.93H21.19V15.13h87.62zM30.4 62.08h67.79a2.1 2.1 0 0 0 2.1-2.1V24.33a2.09 2.09 0 0 0-2.1-2.09H30.4a2.09 2.09 0 0 0-2.1 2.09V60a2.1 2.1 0 0 0 2.1 2.08zm2.09-35.65H96.1v31.46H32.49zm-2.09 74.24h28.24a2.1 2.1 0 0 0 2.1-2.1v-24a2.1 2.1 0 0 0-2.1-2.1H30.4a2.1 2.1 0 0 0-2.1 2.1v24a2.1 2.1 0 0 0 2.1 2.1zm2.09-24h24.06v19.81H32.49zm65.7-4.21H69.94a2.1 2.1 0 0 0-2.09 2.1v24a2.1 2.1 0 0 0 2.09 2.1h28.25a2.1 2.1 0 0 0 2.1-2.1v-24a2.1 2.1 0 0 0-2.1-2.1zm-2.09 24H72v-19.8h24.1zM55.89 46.85l-7.39-5.6 7.43-5.94A2.108 2.108 0 0 0 53.32 32l-9.54 7.63a2.09 2.09 0 0 0-.78 1.7 2.12 2.12 0 0 0 .82 1.67l9.54 7.22a2.07 2.07 0 0 0 1.26.43 2.1 2.1 0 0 0 1.27-3.77zM75 32a2.1 2.1 0 0 0-2.62 3.28l7.43 5.94-7.39 5.6a2.1 2.1 0 0 0 1.27 3.77 2 2 0 0 0 1.31-.4L84.5 43a2.09 2.09 0 0 0 .83-1.64 2.11 2.11 0 0 0-.78-1.67zm-6.36-3.18A2.09 2.09 0 0 0 66 30.14L58.36 53a2.09 2.09 0 0 0 1.32 2.65 2 2 0 0 0 .67.11 2.11 2.11 0 0 0 2-1.43L70 31.47a2.09 2.09 0 0 0-1.36-2.65z"/></svg>