<svg xmlns="http://www.w3.org/2000/svg" viewBox="0 0 707 690"  xmlns:v="https://vecta.io/nano"><defs><linearGradient id="A" x1="1137.07" y1="575.88" x2="1136.86" y2="575.44" gradientTransform="matrix(701.32, 161.91, 144.66, -626.61, -880272.7, 176978.86)" gradientUnits="userSpaceOnUse"><stop offset="0" stop-color="#4c2fbb"/><stop offset="1" stop-color="#a010a0"/></linearGradient></defs><path d="M327.36,18.88a266.86,266.86,0,0,1,132,119.62c18.54,34.67,29.09,72.94,43.5,109.52s33.73,72.8,65,96.62c28.88,22,65.9,31.8,93.46,55.43,49.85,42.72,54.53,123.65,20.81,180s-97.56,89.48-162.29,100.43-131,2.46-195.87-7.91c-94.07-15-194.58-37.88-257.75-109.18C-.71,487.8-8.09,373.5,21.9,277.06,43.08,209,80.35,147.61,121,89.52,185-23.7,291.41,4,327.36,18.88Z" fill="url(#A)"/></svg>