<svg xmlns="http://www.w3.org/2000/svg" width="638.179" height="663.448"  xmlns:v="https://vecta.io/nano"><defs><clipPath id="A"><path fill="none" d="M36 32h638.179v663.448H36z"/></clipPath><linearGradient id="B" x1=".5" x2=".5" y2="1"><stop offset="0" stop-color="#f28772"/><stop offset="1" stop-color="#a010a0"/></linearGradient></defs><g transform="translate(-36 -32)" clip-path="url(#A)"><path d="M243.524 176.081c37.045-34.463 51.507-98.4 85.6-137.726C367.5-5.911 427-10.755 473.15 18.12s79.2 86.888 95.471 150.363 17.206 132.146 11.587 198.7c-5.888 69.689-10.3 123.526-59.362 190.721-35.908 44.649-87 61.419-136.252 68.165-108.879 14.919-243.586-7.346-336.476-89.9C-34.4 462.842-.417 319.165 72.11 251.345c51.312-47.985 120.685-28.07 171.414-75.264z" transform="matrix(.974 -.225 .225 .974 0 131.219)" fill="url(#B)"/></g></svg>