<svg xmlns="http://www.w3.org/2000/svg" xmlns:xlink="http://www.w3.org/1999/xlink" width="2497.013" height="1250.487" viewBox="0 0 2497.013 1250.487"><defs><linearGradient id="a" x1="0.226" y1="0.072" x2="1" y2="1.504" gradientUnits="objectBoundingBox"><stop offset="0" stop-color="#f28772"/><stop offset="1" stop-color="#e7a405"/></linearGradient><linearGradient id="b" x1="0.5" y1="0" x2="0.5" y2="1" xlink:href="#a"/><linearGradient id="c" x1="0.5" x2="0.5" y2="1" gradientUnits="objectBoundingBox"><stop offset="0" stop-color="#f28772"/><stop offset="1" stop-color="#a010a0"/></linearGradient><linearGradient id="d" x1="0.5" x2="0.5" y2="1" gradientUnits="objectBoundingBox"><stop offset="0" stop-color="#3a60e9"/><stop offset="1" stop-color="#4c2fbb"/></linearGradient><linearGradient id="e" x1="0.578" y1="0.247" x2="0.364" y2="0.689" gradientUnits="objectBoundingBox"><stop offset="0" stop-color="#4c2fbb"/><stop offset="1" stop-color="#a010a0"/></linearGradient><linearGradient id="h" x1="0.723" y1="0.913" x2="0.42" y2="0.232" xlink:href="#d"/><linearGradient id="m" x1="0.466" y1="-0.149" xlink:href="#c"/><linearGradient id="y" x2="0.408" y2="0.671" xlink:href="#d"/><linearGradient id="aa" x1="0.5" x2="0.5" y2="1" gradientUnits="objectBoundingBox"><stop offset="0" stop-color="#3a60e9"/><stop offset="1" stop-color="#a010a0"/></linearGradient><linearGradient id="ab" x1="0.5" y1="0" x2="0.5" y2="1" xlink:href="#e"/></defs><g transform="translate(-2364.912 -236.449)"><path d="M795.3,261.594c16.57,43.617,51.459,79.529,93.724,99.293,57.924,27.09,129.336,23.052,183.839-10.395s90.444-95.285,92.525-159.2c.728-22.292-2.6-45.235-13.53-64.678-11.9-21.18-31.878-36.658-52.815-48.989-54.919-32.343-120.328-45.515-183.6-39.363a301.918,301.918,0,0,0-91.961,23.772c-16.021,7.031-21.064,9.612-25.468,26.283a504.409,504.409,0,0,0-11.161,52.945C780.761,181.348,780.729,223.234,795.3,261.594Z" transform="translate(2336.762 178.772) rotate(56)" fill="url(#a)"/><path d="M271.635,27.96C297.767-1.853,366.458-28.2,386.138,62.65S349.993,250.4,477.383,350.081s48.306,156.93-109.136,145.367c-105.558-21.475-130.606-46.253-250.477-6.607C65.886,500.4-11.674,502.44,1.478,386.422S245.5,57.774,271.635,27.96Z" transform="matrix(0.719, -0.695, 0.695, 0.719, 3741.422, 1066.014)" fill="url(#b)"/><circle cx="166.267" cy="166.267" r="166.267" transform="matrix(0.819, 0.574, -0.574, 0.819, 4276.568, 1000.941)" fill="url(#c)"/><path d="M345.4,35.553C378.628-2.356,465.973-35.864,491,79.663S445.038,318.4,607.022,445.149,668.446,644.7,468.249,629.992c-134.224-27.306-166.073-58.814-318.5-8.4-65.974,14.7-164.6,17.293-147.873-130.23S312.172,73.463,345.4,35.553Z" transform="translate(4182.773 381.047) rotate(9)" fill="url(#d)"/><path d="M135.423,2.2a150.207,150.207,0,0,1,87.563,48.888c14.558,16.668,25.19,36.32,37.722,54.557S288.428,141.3,308.6,150.4c18.626,8.406,40.171,9.1,58.28,18.568,32.746,17.119,45.559,60.914,34.2,96.077S358.9,326.47,324.79,340.673s-71.564,17.94-108.429,20.462C162.864,364.8,104.85,365,61.173,333.893,14.872,300.918-3.65,239.161.588,182.476c2.992-40.037,15.663-78.4,30.585-115.4C40.2,44.676,42.872,16,68.223,6.652,88.992-1.007,113.825-1.409,135.423,2.2Z" transform="matrix(0.946, -0.326, 0.326, 0.946, 2794.541, 1143.902)" fill="url(#e)"/><path d="M135.423,2.2a150.207,150.207,0,0,1,87.563,48.888c14.558,16.668,25.19,36.32,37.722,54.557S288.428,141.3,308.6,150.4c18.626,8.406,40.171,9.1,58.28,18.568,32.746,17.119,45.559,60.914,34.2,96.077S358.9,326.47,324.79,340.673s-71.564,17.94-108.429,20.462C162.864,364.8,104.85,365,61.173,333.893,14.872,300.918-3.65,239.161.588,182.476c2.992-40.037,15.663-78.4,30.585-115.4C40.2,44.676,42.872,16,68.223,6.652,88.992-1.007,113.825-1.409,135.423,2.2Z" transform="matrix(0.469, -0.883, 0.883, 0.469, 3994.864, 594.165)" fill="url(#e)"/><path d="M135.423,2.2a150.207,150.207,0,0,1,87.563,48.888c14.558,16.668,25.19,36.32,37.722,54.557S288.428,141.3,308.6,150.4c18.626,8.406,40.171,9.1,58.28,18.568,32.746,17.119,45.559,60.914,34.2,96.077S358.9,326.47,324.79,340.673s-71.564,17.94-108.429,20.462C162.864,364.8,104.85,365,61.173,333.893,14.872,300.918-3.65,239.161.588,182.476c2.992-40.037,15.663-78.4,30.585-115.4C40.2,44.676,42.872,16,68.223,6.652,88.992-1.007,113.825-1.409,135.423,2.2Z" transform="matrix(-0.97, 0.242, -0.242, -0.97, 3537.567, 750.476)" fill="url(#e)"/><path d="M131.4,187.247c19.988,14.2,27.792,40.556,46.189,56.765,20.706,18.245,52.811,20.241,77.71,8.34s42.731-35.812,51.513-61.974,9.284-54.465,6.252-81.9c-3.177-28.723-11.077-58.707-32.03-78.608C261.658,11.472,234.091,4.56,207.515,1.78,148.767-4.369,76.083,4.808,25.963,38.832-18.561,69.055-.225,128.273,38.908,156.226,66.594,176,104.026,167.8,131.4,187.247Z" transform="translate(4104.639 1201.025) rotate(130)" fill="url(#h)"/><path d="M141.235,201.265c21.485,15.268,29.872,43.592,49.647,61.015,22.256,19.611,56.765,21.756,83.528,8.964s45.93-38.493,55.37-66.613,9.979-58.543,6.72-88.027c-3.415-30.873-11.906-63.1-34.428-84.493-20.825-19.78-50.456-27.21-79.021-30.2C159.9-4.7,81.779,5.168,27.907,41.739-19.95,74.225-.242,137.876,41.821,167.922,71.58,189.18,111.814,180.357,141.235,201.265Z" transform="matrix(-0.616, -0.788, 0.788, -0.616, 3618.502, 910.618)" fill="url(#h)"/><path d="M135.423,2.2a150.207,150.207,0,0,1,87.563,48.888c14.558,16.668,25.19,36.32,37.722,54.557S288.428,141.3,308.6,150.4c18.626,8.406,40.171,9.1,58.28,18.568,32.746,17.119,45.559,60.914,34.2,96.077S358.9,326.47,324.79,340.673s-71.564,17.94-108.429,20.462C162.864,364.8,104.85,365,61.173,333.893,14.872,300.918-3.65,239.161.588,182.476c2.992-40.037,15.663-78.4,30.585-115.4C40.2,44.676,42.872,16,68.223,6.652,88.992-1.007,113.825-1.409,135.423,2.2Z" transform="matrix(-0.97, 0.242, -0.242, -0.97, 3932.567, 1034.476)" fill="url(#e)"/><path d="M790.465,173.259c10.059,26.478,31.238,48.278,56.9,60.276,35.163,16.445,78.513,13.994,111.6-6.31s54.9-57.842,56.167-96.64c.442-13.533-1.579-27.46-8.214-39.263-7.226-12.857-19.352-22.253-32.061-29.739-33.338-19.634-73.045-27.63-111.454-23.9a183.279,183.279,0,0,0-55.825,14.431c-9.726,4.268-12.787,5.835-15.46,15.955a306.22,306.22,0,0,0-6.775,32.14C781.639,124.546,781.62,149.973,790.465,173.259Z" transform="translate(2360.372 822.23)" fill="url(#a)"/><path d="M790.465,173.259c10.059,26.478,31.238,48.278,56.9,60.276,35.163,16.445,78.513,13.994,111.6-6.31s54.9-57.842,56.167-96.64c.442-13.533-1.579-27.46-8.214-39.263-7.226-12.857-19.352-22.253-32.061-29.739-33.338-19.634-73.045-27.63-111.454-23.9a183.279,183.279,0,0,0-55.825,14.431c-9.726,4.268-12.787,5.835-15.46,15.955a306.22,306.22,0,0,0-6.775,32.14C781.639,124.546,781.62,149.973,790.465,173.259Z" transform="translate(2648.372 360.23)" fill="url(#a)"/><path d="M116.662.488C81.1,3.074,46.621,16.447,24.605,38.053S-5.973,89.447,4.35,115.714c6.977,17.755,21.836,33.161,39.061,46.158,17.881,13.492,39.268,25.023,63.738,29.2,33.794,5.765,70.487-3.728,95.438-22.157s38.559-44.887,40.489-71.432a109.042,109.042,0,0,0-5.231-40.94c-3.4-10.707-7.9-27.987-18.482-35.863C196.092,3.361,147.1-1.727,116.662.488Z" transform="matrix(0.559, 0.829, -0.829, 0.559, 3627.866, 1132.427)" fill="url(#m)"/><path d="M116.662.488C81.1,3.074,46.621,16.447,24.605,38.053S-5.973,89.447,4.35,115.714c6.977,17.755,21.836,33.161,39.061,46.158,17.881,13.492,39.268,25.023,63.738,29.2,33.794,5.765,70.487-3.728,95.438-22.157s38.559-44.887,40.489-71.432a109.042,109.042,0,0,0-5.231-40.94c-3.4-10.707-7.9-27.987-18.482-35.863C196.092,3.361,147.1-1.727,116.662.488Z" transform="matrix(0.559, 0.829, -0.829, 0.559, 3959.866, 767.427)" fill="url(#m)"/><path d="M271.635,27.96C297.767-1.853,366.458-28.2,386.138,62.65S349.993,250.4,477.383,350.081s48.306,156.93-109.136,145.367c-105.558-21.475-130.606-46.253-250.477-6.607C65.886,500.4-11.674,502.44,1.478,386.422S245.5,57.774,271.635,27.96Z" transform="translate(3181.575 237.452) rotate(69)" fill="url(#b)"/><circle cx="132.219" cy="132.219" r="132.219" transform="translate(3378.546 1145.482) rotate(-106)" fill="url(#c)"/><ellipse cx="87.219" cy="87.219" rx="87.219" ry="87.219" transform="translate(3373.399 1444.822) rotate(-106)" fill="url(#c)"/><path d="M267.481,27.533c25.732-29.357,93.373-55.306,112.753,34.159s-35.592,184.883,89.85,283.036,47.568,154.531-107.467,143.144c-103.944-21.146-128.609-45.546-246.647-6.506C64.879,492.752-11.5,494.758,1.455,380.514S241.749,56.89,267.481,27.533Z" transform="translate(3995.336 1313.328) rotate(162)" fill="url(#b)"/><path d="M130.575,13.441c12.562-14.331,45.582-27,55.042,16.675s3.238,94.92,43.862,138.168-9.928,93.829-52.462,69.878-62.782-22.234-120.4-3.176c-24.941,5.558-62.224,6.537-55.9-49.232S118.014,27.772,130.575,13.441Z" transform="translate(3521.634 967.738) rotate(-175)" fill="url(#b)"/><ellipse cx="127.267" cy="127.267" rx="127.267" ry="127.267" transform="matrix(0.819, 0.574, -0.574, 0.819, 3260.83, 961.836)" fill="url(#c)"/><ellipse cx="127.267" cy="127.267" rx="127.267" ry="127.267" transform="matrix(0.819, 0.574, -0.574, 0.819, 2770.83, 508.836)" fill="url(#c)"/><ellipse cx="127.267" cy="127.267" rx="127.267" ry="127.267" transform="matrix(0.819, 0.574, -0.574, 0.819, 4110.829, 607.836)" fill="url(#c)"/><ellipse cx="26.701" cy="26.701" rx="26.701" ry="26.701" transform="translate(3762.11 920.355) rotate(-106)" fill="url(#c)"/><ellipse cx="47.267" cy="47.267" rx="47.267" ry="47.267" transform="translate(3762.476 1073.254) rotate(35)" fill="url(#c)"/><path d="M239.838,341.778c36.485,25.927,50.727,74.025,84.307,103.613,37.794,33.3,96.4,36.945,141.842,15.223s78-65.367,94.026-113.12,16.945-99.415,11.412-149.482c-5.8-52.427-20.218-107.157-58.463-143.482C477.6,20.94,427.281,8.324,378.773,3.249,271.542-7.975,138.874,8.775,47.39,70.879-33.878,126.045-.41,234.134,71.018,285.156,121.553,321.256,189.876,306.273,239.838,341.778Z" transform="translate(2445.347 967.423) rotate(-98)" fill="url(#y)"/><path d="M135.423,2.2a150.207,150.207,0,0,1,87.563,48.888c14.558,16.668,25.19,36.32,37.722,54.557S288.428,141.3,308.6,150.4c18.626,8.406,40.171,9.1,58.28,18.568,32.746,17.119,45.559,60.914,34.2,96.077S358.9,326.47,324.79,340.673s-71.564,17.94-108.429,20.462C162.864,364.8,104.85,365,61.173,333.893,14.872,300.918-3.65,239.161.588,182.476c2.992-40.037,15.663-78.4,30.585-115.4C40.2,44.676,42.872,16,68.223,6.652,88.992-1.007,113.825-1.409,135.423,2.2Z" transform="translate(2969.829 1166.325) rotate(-171)" fill="url(#e)"/><path d="M154.456,38.248C129.67,106.482,57.584,21.734,30.391,48.421S-7.378,111.9,5.373,144.345c8.618,21.93,26.971,40.96,48.247,57.013,22.085,16.665,48.5,30.908,78.727,36.067,41.741,7.121,87.063-4.6,117.881-27.367s47.627-55.442,50.01-88.23a134.683,134.683,0,0,0-6.461-50.567C273.956.525,179.243-29.986,154.456,38.248Z" transform="translate(3593.507 1310.607) rotate(165)" fill="url(#aa)"/><path d="M128.821,27.994c-18.67,51.4-67.369-6.5-102.347,10.125S-1.976,85.936,7.629,110.374c6.492,16.519,20.316,30.853,36.342,42.945,16.636,12.553,36.534,23.281,59.3,27.167,31.441,5.364,65.581-3.469,88.794-20.614s35.875-41.762,37.67-66.46a101.451,101.451,0,0,0-4.867-38.09C209.939,2.042,147.491-23.4,128.821,27.994Z" transform="translate(3762.266 1166.462) rotate(-67)" fill="url(#ab)"/><path d="M223.331,48.532C190.963,137.638,106.535,37.257,45.9,66.086s-49.322,82.9-32.671,125.265C24.48,219.989,48.447,244.839,76.231,265.8c28.841,21.763,63.338,40.362,102.808,47.1,54.509,9.3,113.694-6.013,153.939-35.738s62.2-72.4,65.308-115.218c1.615-22.186-1.589-44.474-8.438-66.035C363.963,3.539,255.7-40.573,223.331,48.532Z" transform="translate(2680.522 889.561) rotate(90)" fill="url(#ab)"/><path d="M239.838,341.778c36.485,25.927,50.727,74.025,84.307,103.613,37.794,33.3,96.4,36.945,141.842,15.223s78-65.367,94.026-113.12,16.945-99.415,11.412-149.482c-5.8-52.427-20.218-107.157-58.463-143.482C477.6,20.94,427.281,8.324,378.773,3.249,271.542-7.975,138.874,8.775,47.39,70.879-33.878,126.045-.41,234.134,71.018,285.156,121.553,321.256,189.876,306.273,239.838,341.778Z" transform="translate(2940.347 1272.423) rotate(-98)" fill="url(#y)"/><path d="M230.063,327.848c35,24.871,48.66,71.009,80.871,99.39,36.254,31.944,92.467,35.44,136.061,14.6s74.817-62.7,90.194-108.509,16.255-95.363,10.947-143.39c-5.563-50.291-19.394-102.79-56.08-137.634C458.133,20.087,409.866,7.985,363.335,3.116,260.475-7.65,133.214,8.418,45.459,67.991-32.5,120.908-.394,224.591,68.124,273.534,116.6,308.163,182.137,293.791,230.063,327.848Z" transform="translate(3577.585 422.574)" fill="url(#y)"/><ellipse cx="56" cy="56.5" rx="56" ry="56.5" transform="translate(3220.01 955.389) rotate(-169)" fill="url(#ab)"/><path d="M179.608,18.488c17.279-19.713,62.7-37.137,75.711,22.937s-23.9,124.145,60.332,190.053S347.593,335.243,243.49,327.6c-69.8-14.2-86.358-30.583-165.618-4.369C43.565,330.873-7.719,332.22.977,255.508S162.33,38.2,179.608,18.488Z" transform="translate(3283.689 1407.667) rotate(178)" fill="url(#b)"/></g></svg>