<svg xmlns="http://www.w3.org/2000/svg" viewBox="0 0 315 471"><defs><style>.cls-1{fill:#001a5d;}</style></defs><g id="Capa_2" data-name="Capa 2"><path class="cls-1" d="M10.15,465.85c-1.18-1.18-1.66-3.06-1.43-5.6.9-9.78,13.19-32.34,45-66.36,24-25.68,67.29-66.37,137-114.3,85.83-59,110.16-129.8,115.47-178.78,5.74-53.09-9-92.74-9.16-93.13l.94-.36c.15.4,15,40.23,9.21,93.55a224.81,224.81,0,0,1-28.86,88.5c-19.71,34.25-49,64.88-87,91C59.47,371.06,11.4,441.93,9.72,460.34c-.21,2.23.17,3.85,1.13,4.81Z"/></g></svg>