<svg xmlns="http://www.w3.org/2000/svg" width="44.804" height="58.819" viewBox="0 0 44.804 58.819">
  <g id="Group_983" data-name="Group 983" transform="translate(-1057.016 -3623.726)">
    <path id="Path_1007" data-name="Path 1007" d="M194.081,229.89H152.723A1.723,1.723,0,0,0,151,231.613v55.373a1.723,1.723,0,0,0,1.723,1.723h41.357a1.723,1.723,0,0,0,1.723-1.723V231.613a1.723,1.723,0,0,0-1.723-1.723Zm-27.572,3.446H180.3v1.723a1.691,1.691,0,0,1-1.653,1.723H168.161a1.691,1.691,0,0,1-1.653-1.723Zm25.849,51.926H154.446V233.336h8.615v1.723a5.141,5.141,0,0,0,5.1,5.17h10.482a5.141,5.141,0,0,0,5.1-5.17v-1.723h8.616Zm0,0" transform="translate(906.017 3393.836)" fill="#fff"/>
    <path id="Path_1008" data-name="Path 1008" d="M221.848,323.788a1.723,1.723,0,0,0-1.723,1.723v6.326h-3.446v-3.651a1.723,1.723,0,1,0-3.446,0v3.651h-3.446V321.613a1.723,1.723,0,1,0-3.446,0v10.224h-3.446V329.9a1.723,1.723,0,0,0-3.446,0v1.94h-1.723a1.723,1.723,0,1,0,0,3.446H225.3a1.723,1.723,0,1,0,0-3.446h-1.724v-6.326a1.723,1.723,0,0,0-1.723-1.723Zm0,0" transform="translate(867.909 3317.622)" fill="#fff"/>
    <path id="Path_1009" data-name="Path 1009" d="M225.295,442.89H197.723a1.723,1.723,0,0,0,0,3.447h27.572a1.723,1.723,0,0,0,0-3.447Zm0,0" transform="translate(867.909 3213.462)" fill="#fff"/>
    <path id="Path_1010" data-name="Path 1010" d="M225.295,487.89H197.723a1.723,1.723,0,1,0,0,3.446h27.572a1.723,1.723,0,1,0,0-3.446Zm0,0" transform="translate(867.909 3175.355)" fill="#fff"/>
    <path id="Path_1011" data-name="Path 1011" d="M209.785,532.89H197.723a1.723,1.723,0,1,0,0,3.446h12.062a1.723,1.723,0,1,0,0-3.446Zm0,0" transform="translate(867.909 3137.248)" fill="#fff"/>
    <path id="Path_1007-2" data-name="Path 1007" d="M194.081,229.89H152.723A1.723,1.723,0,0,0,151,231.613v55.373a1.723,1.723,0,0,0,1.723,1.723h41.357a1.723,1.723,0,0,0,1.723-1.723V231.613a1.723,1.723,0,0,0-1.723-1.723Zm-27.572,3.446H180.3v1.723a1.691,1.691,0,0,1-1.653,1.723H168.161a1.691,1.691,0,0,1-1.653-1.723Zm25.849,51.926H154.446V233.336h8.615v1.723a5.141,5.141,0,0,0,5.1,5.17h10.482a5.141,5.141,0,0,0,5.1-5.17v-1.723h8.616Zm0,0" transform="translate(906.017 3393.836)" fill="#fff"/>
    <path id="Path_1008-2" data-name="Path 1008" d="M221.848,323.788a1.723,1.723,0,0,0-1.723,1.723v6.326h-3.446v-3.651a1.723,1.723,0,1,0-3.446,0v3.651h-3.446V321.613a1.723,1.723,0,1,0-3.446,0v10.224h-3.446V329.9a1.723,1.723,0,0,0-3.446,0v1.94h-1.723a1.723,1.723,0,1,0,0,3.446H225.3a1.723,1.723,0,1,0,0-3.446h-1.724v-6.326a1.723,1.723,0,0,0-1.723-1.723Zm0,0" transform="translate(867.909 3317.622)" fill="#fff"/>
    <path id="Path_1009-2" data-name="Path 1009" d="M225.295,442.89H197.723a1.723,1.723,0,0,0,0,3.447h27.572a1.723,1.723,0,0,0,0-3.447Zm0,0" transform="translate(867.909 3213.462)" fill="#fff"/>
    <path id="Path_1010-2" data-name="Path 1010" d="M225.295,487.89H197.723a1.723,1.723,0,1,0,0,3.446h27.572a1.723,1.723,0,1,0,0-3.446Zm0,0" transform="translate(867.909 3175.355)" fill="#fff"/>
    <path id="Path_1011-2" data-name="Path 1011" d="M209.785,532.89H197.723a1.723,1.723,0,1,0,0,3.446h12.062a1.723,1.723,0,1,0,0-3.446Zm0,0" transform="translate(867.909 3137.248)" fill="#fff"/>
  </g>
</svg>
