<svg xmlns="http://www.w3.org/2000/svg" xmlns:xlink="http://www.w3.org/1999/xlink" viewBox="0 0 336.86 523.6"  xmlns:v="https://vecta.io/nano"><style>.A{isolation:isolate}.B{mix-blend-mode:soft-light}</style><defs><radialGradient id="A" cx="1400.92" cy="3548.01" r="5.24" gradientTransform="translate(35863.45 12808.1) rotate(180) scale(25.48 3.45)" gradientUnits="userSpaceOnUse"><stop offset=".01" stop-color="#3e4fdf"/><stop offset="1"/></radialGradient><linearGradient id="B" x1="168.75" y1="509.57" x2="148.95" y2="307.62" gradientUnits="userSpaceOnUse"><stop offset="0" stop-color="#3a60e8"/><stop offset=".19" stop-color="#6e6bc6"/><stop offset=".38" stop-color="#9d75a8"/><stop offset=".56" stop-color="#c17c91"/><stop offset=".73" stop-color="#dc8280"/><stop offset=".88" stop-color="#eb8576"/><stop offset="1" stop-color="#f18672"/></linearGradient><linearGradient id="C" x1="103.19" y1="497.19" x2="222.02" y2="336.5" gradientUnits="userSpaceOnUse"><stop offset="0" stop-color="#3a60e8"/><stop offset=".17" stop-color="#6168cf"/><stop offset=".46" stop-color="#9e75a7"/><stop offset=".7" stop-color="#cb7e8a"/><stop offset=".89" stop-color="#e78479"/><stop offset="1" stop-color="#f18672"/></linearGradient><radialGradient id="D" cx="564.8" cy="47.7" fx="531.854" fy="62.963" r="149.64" gradientTransform="translate(-397.54 217.91) rotate(-5.34)" gradientUnits="userSpaceOnUse"><stop offset=".01" stop-color="#60daff"/><stop offset=".09" stop-color="#5fd4ff"/><stop offset=".21" stop-color="#5ec3ff"/><stop offset=".34" stop-color="#5ca7ff"/><stop offset=".49" stop-color="#5a80ff"/><stop offset=".64" stop-color="#5651ff"/><stop offset=".68" stop-color="#5643ff"/><stop offset=".74" stop-color="#553df7"/><stop offset=".83" stop-color="#542ee3"/><stop offset=".93" stop-color="#5315c4"/></radialGradient><radialGradient id="E" cx="594.14" cy="-2.29" fx="594.138" fy="161.746" r="164.07" xlink:href="#D" /><radialGradient id="F" cx="687.99" cy="-52.45" fx="768.666" fy="-1.844" r="95.23" gradientTransform="matrix(1.06, -0.09, 0.08, 1, -492.91, 204.56)" xlink:href="#D" /><radialGradient id="G" cx="657.13" cy="180" fx="698.656" fy="206.045" r="49.02" gradientTransform="matrix(1.06, -0.09, 0.08, 1, -492.91, 204.56)" xlink:href="#D" /></defs><g class="A"><g><g><g><path class="B" d="M37,480c0,10,60,18.16,134.09,18.16S305.17,490,305.17,480s-60-18.15-134.1-18.15S37,469.94,37,480Z" fill-rule="evenodd" opacity=".15" fill="url(#A)"/><path d="M153.85 293.2s10.59 35.25 11 80.14c-5.87 27.78-15.05 71 12.24 83l18.45 14.77h-60.79s-5.28-15.7 9.25-73.11c2.34-9.26 4.28-25.62 5.81-42.7l.88-10.5c2.07-26.48 3.16-51.6 3.16-51.6z" fill="url(#B)"/><path d="M175.43 470.89l32.62.26s6.73-36.81-20.13-59.52c-10.24-8.65-14.48-25.8-15.81-43.72-.26-3.53 40.21-17.7 46.31-48.56.59-3-45 43.08-46.75 28.93a100.46 100.46 0 0 1 3.81-40.62l-.07-23.88s-29.32 44.59-17.69 101.36 25.17 71.13 17.71 85.75z" fill="url(#C)"/><path d="M53.06,240.52C65.81,312,218.25,362.63,269.94,311.59c68-67.17-32.64-193.28-88.35-210.11C71.41,68.21,34.9,138.69,53.06,240.52Z" fill="url(#D)"/><path d="M79.17,77.83C37.64,137.42,231.83,309.06,287,261.85c40.8-34.88,27.49-154.27-30.05-202C220.47,29.51,98.09,50.68,79.17,77.83Z" fill="url(#E)"/><path d="M157.58 50.41c-11.44 35.36 110.33 116.66 141.12 96 20.94-14-5.41-97.17-25.94-111.86-17.83-12.78-108.42-5.04-115.18 15.86z" fill="url(#F)"/><path d="M180.33 304.56c-5.89 18.21 56.79 60.05 72.67 49.44 10.77-7.24-2.79-50-13.35-57.58-9.21-6.59-55.84-2.61-59.32 8.14z" fill="url(#G)"/></g></g></g></g></svg>