<svg id="Capa_1" data-name="Capa 1" xmlns="http://www.w3.org/2000/svg" viewBox="0 0 48 37"><defs><style>.cls-1{fill:#fff;}</style></defs><g id="Grupo_12" data-name="Grupo 12"><g id="Grupo_11" data-name="Grupo 11"><path id="Trazado_181" data-name="Trazado 181" class="cls-1" d="M43.72,6a7.07,7.07,0,0,1-1.77.2l0-.17a13.55,13.55,0,0,0,3.56-3.68c.14-.41,0-.56,0-.56L42.54,3,40.05,4h0a10.51,10.51,0,0,0-7.24-2.7c-5.18,0-9.38,3.32-9.38,7.41a10.16,10.16,0,0,0,.37,2.8c0,.22,0-.21,0,0A31.56,31.56,0,0,1,12.38,8.43C4.87,5,4.4,2.61,4.4,2.61c-1.18,1.13-1.79,4.88-.6,7.82A10.11,10.11,0,0,0,7.2,14h0a8.52,8.52,0,0,1-2.41-.35,5.65,5.65,0,0,1-1.7-.76c-.73,1.62.74,4.51,3.29,6.58a14,14,0,0,0,4.18,2l-4.22.11C6.1,25.25,15,27.46,15,27.46h0a15.38,15.38,0,0,1-8.83,2.9,18.31,18.31,0,0,1-4.83-.64A24.47,24.47,0,0,0,17,34.8,25.76,25.76,0,0,0,42.16,9.7l0,0A10.82,10.82,0,0,0,44.51,8a15,15,0,0,0,2.57-3.11S44.71,5.78,43.72,6Z"/></g></g></svg>