<svg xmlns="http://www.w3.org/2000/svg" xmlns:xlink="http://www.w3.org/1999/xlink" viewBox="0 0 87 119"><defs><style>.cls-1{fill:#3f2305;}.cls-2{fill:#593609;}.cls-3{fill:#9b610d;}.cls-4{fill:#001a5d;}.cls-5{fill:url(#Degradado_sin_nombre_7);}</style><linearGradient id="Degradado_sin_nombre_7" x1="49.34" y1="70.64" x2="49.36" y2="126.47" gradientUnits="userSpaceOnUse"><stop offset="0" stop-color="#f28772"/><stop offset="1" stop-color="#ed883b"/></linearGradient></defs><g id="Capa_2" data-name="Capa 2"><path class="cls-1" d="M22.08,68S5.27,34.05,2,17.12c0,0,27.9,10.76,44.76-8.29L53.3,68.45,56.66,99l-23.38,2Z"/><path class="cls-2" d="M4,28c1-2,5.61-5.72,7.6-5.47C13.33,22.74,15,28,15,30s6-6.92,8-7c2.24-.12,10,9.36,10,7,0-1,1.45-9,3.65-10,1.57-.66,4.93,4.63,5.35,3,1-4,.65-6.65,2-8,2-2,7.54,5.17,7,3-1-4-3-7-4-9L44.75,4.18,1,11l1,7S3,30,4,28Z"/><ellipse class="cls-3" cx="22.86" cy="7.52" rx="22.14" ry="5.5" transform="matrix(0.99, -0.15, 0.15, 0.99, -0.87, 3.53)"/><path class="cls-4" d="M46.64,72C39,72,28,69.52,23.34,68c-2.26-.75-4.86-2.75-5-4.42a1.51,1.51,0,0,1,.92-1.5l.44.9c-.34.17-.38.36-.37.53.07,1,2.07,2.8,4.31,3.55,6.07,2,24.27,6,29.25,2.9A2.06,2.06,0,0,0,54,68.43h0a.58.58,0,0,0-.13-.43.93.93,0,0,0-.74-.15l-.09-1a1.81,1.81,0,0,1,1.55.46A1.61,1.61,0,0,1,55,68.57a3.09,3.09,0,0,1-1.56,2.21C52,71.68,49.54,72,46.64,72Z"/><path class="cls-4" d="M52.5,80c-8.93,0-27-6-27.16-6-.72-.24-1.32-.42-1.83-.58C21.84,72.88,21,72.63,21,71.5a2.19,2.19,0,0,1,1.62-1.89l.31,1s-.93.32-.93.93c0,.34.2.45,1.8.94.51.15,1.13.34,1.86.59,3.73,1.26,19.23,6,26.84,6,2.26,0,2.5-.38,2.51-.39V78.5h0a.44.44,0,0,0-.13-.28.71.71,0,0,0-.5-.08l-.12-1a1.56,1.56,0,0,1,1.29.33,1.42,1.42,0,0,1,.46,1,1,1,0,0,1-.26.79C55.29,79.78,54.29,80,52.5,80Z"/><path class="cls-5" d="M86.67,78.13A37.68,37.68,0,0,0,70,98s2-16-3-20c0,0-2,16-7,17,0,0-4.7-3.23-4.31-13,0,0-2.91,3.85-6.08,9A65,65,0,0,0,43,82c-2,11-2,14.19-2,14.19-9,.36-9.4-24-9.4-24-7.42,6.59-5.15,20.81-4.11,25.64C25.09,91.32,12,78.13,12,78.13c15.89,21.28,0,32.74,0,32.74,11.5,9,54.3,8.64,67-.87C79,110,70.79,99.41,86.67,78.13Z"/></g></svg>