<svg id="Capa_1" data-name="Capa 1" xmlns="http://www.w3.org/2000/svg" viewBox="0 0 45 33"><defs><style>.cls-1{fill:#fff;}</style></defs><g id="Grupo_994" data-name="Grupo 994"><path id="Trazado_1139" data-name="Trazado 1139" class="cls-1" d="M21.93,32c-5.78-.24-10.09-.48-14.4-.57a5.79,5.79,0,0,1-5-2.93,10.13,10.13,0,0,1-1.56-5A82.06,82.06,0,0,1,1.09,8.71,8.56,8.56,0,0,1,4,3,4.56,4.56,0,0,1,6.83,1.8c5.69-.41,11.39-.65,17.09-.49,4.22.11,8.44.3,12.66.45a6.34,6.34,0,0,1,6.81,5.83c0,.16,0,.33,0,.5a79,79,0,0,1,0,16.41,8,8,0,0,1-4.07,6.39,3.81,3.81,0,0,1-1.58.5c-5.76.26-11.53.47-15.83.63M18,8V25.18l12.89-8.59L18,8"/></g></svg>